%TF.GenerationSoftware,KiCad,Pcbnew,(6.0.5)*%
%TF.CreationDate,2023-01-30T23:31:53+01:00*%
%TF.ProjectId,Harpe ruches,48617270-6520-4727-9563-6865732e6b69,rev?*%
%TF.SameCoordinates,Original*%
%TF.FileFunction,Soldermask,Bot*%
%TF.FilePolarity,Negative*%
%FSLAX46Y46*%
G04 Gerber Fmt 4.6, Leading zero omitted, Abs format (unit mm)*
G04 Created by KiCad (PCBNEW (6.0.5)) date 2023-01-30 23:31:53*
%MOMM*%
%LPD*%
G01*
G04 APERTURE LIST*
%ADD10C,2.600000*%
%ADD11C,4.000000*%
G04 APERTURE END LIST*
D10*
%TO.C,REF\u002A\u002A*%
X38500000Y-56000000D03*
D11*
X38500000Y-56000000D03*
%TD*%
D10*
%TO.C,REF\u002A\u002A*%
X38500000Y-46000000D03*
D11*
X38500000Y-46000000D03*
%TD*%
D10*
%TO.C,REF\u002A\u002A*%
X271500000Y-66000000D03*
X271500000Y-66000000D03*
%TD*%
%TO.C,REF\u002A\u002A*%
X396500000Y-66000000D03*
X396500000Y-66000000D03*
%TD*%
%TO.C,REF\u002A\u002A*%
X71500000Y-66000000D03*
X71500000Y-66000000D03*
%TD*%
%TO.C,REF\u002A\u002A*%
X421500000Y-66000000D03*
X421500000Y-66000000D03*
%TD*%
%TO.C,REF\u002A\u002A*%
X446500000Y-66000000D03*
X446500000Y-66000000D03*
%TD*%
%TO.C,REF\u002A\u002A*%
X171500000Y-66000000D03*
X171500000Y-66000000D03*
%TD*%
%TO.C,REF\u002A\u002A*%
X146500000Y-66000000D03*
X146500000Y-66000000D03*
%TD*%
%TO.C,REF\u002A\u002A*%
X546500000Y-66000000D03*
X546500000Y-66000000D03*
%TD*%
%TO.C,REF\u002A\u002A*%
X471500000Y-66000000D03*
X471500000Y-66000000D03*
%TD*%
%TO.C,REF\u002A\u002A*%
X246500000Y-66000000D03*
X246500000Y-66000000D03*
%TD*%
%TO.C,REF\u002A\u002A*%
X596500000Y-66000000D03*
X596500000Y-66000000D03*
%TD*%
%TO.C,REF\u002A\u002A*%
X196500000Y-66000000D03*
X196500000Y-66000000D03*
%TD*%
%TO.C,REF\u002A\u002A*%
X621500000Y-66000000D03*
X621500000Y-66000000D03*
%TD*%
%TO.C,REF\u002A\u002A*%
X46500000Y-66000000D03*
X46500000Y-66000000D03*
%TD*%
%TO.C,REF\u002A\u002A*%
X321500000Y-66000000D03*
X321500000Y-66000000D03*
%TD*%
%TO.C,REF\u002A\u002A*%
X571500000Y-66000000D03*
X571500000Y-66000000D03*
%TD*%
%TO.C,REF\u002A\u002A*%
X221500000Y-66000000D03*
X221500000Y-66000000D03*
%TD*%
%TO.C,REF\u002A\u002A*%
X371500000Y-66000000D03*
X371500000Y-66000000D03*
%TD*%
%TO.C,REF\u002A\u002A*%
X296500000Y-66000000D03*
X296500000Y-66000000D03*
%TD*%
%TO.C,REF\u002A\u002A*%
X496500000Y-66000000D03*
X496500000Y-66000000D03*
%TD*%
%TO.C,REF\u002A\u002A*%
X96500000Y-66000000D03*
X96500000Y-66000000D03*
%TD*%
%TO.C,REF\u002A\u002A*%
X121500000Y-66000000D03*
X121500000Y-66000000D03*
%TD*%
%TO.C,REF\u002A\u002A*%
X521500000Y-66000000D03*
X521500000Y-66000000D03*
%TD*%
%TO.C,REF\u002A\u002A*%
X346500000Y-66000000D03*
X346500000Y-66000000D03*
%TD*%
M02*
