%TF.GenerationSoftware,KiCad,Pcbnew,8.0.3*%
%TF.CreationDate,2024-06-17T18:43:03+02:00*%
%TF.ProjectId,Harpe ruches,48617270-6520-4727-9563-6865732e6b69,rev?*%
%TF.SameCoordinates,Original*%
%TF.FileFunction,Profile,NP*%
%FSLAX46Y46*%
G04 Gerber Fmt 4.6, Leading zero omitted, Abs format (unit mm)*
G04 Created by KiCad (PCBNEW 8.0.3) date 2024-06-17 18:43:03*
%MOMM*%
%LPD*%
G01*
G04 APERTURE LIST*
%TA.AperFunction,Profile*%
%ADD10C,0.100000*%
%TD*%
G04 APERTURE END LIST*
D10*
X622903553Y-65796447D02*
X622403553Y-65796447D01*
X623103553Y-65796447D02*
G75*
G02*
X623603553Y-66296447I-1J-500001D01*
G01*
X621903553Y-64796447D02*
X623903553Y-64796447D01*
X620902304Y-65796447D02*
X620903553Y-67126447D01*
X623603553Y-66296447D02*
X623603553Y-69496447D01*
X623603553Y-69496447D02*
G75*
G02*
X623103553Y-69996447I-500001J1D01*
G01*
X621903553Y-67126447D02*
G75*
G02*
X620903553Y-67126447I-500000J0D01*
G01*
X599703553Y-69996447D02*
G75*
G02*
X599203553Y-69496447I1J500001D01*
G01*
X621903553Y-67126447D02*
X621903553Y-66296447D01*
X624403553Y-65296447D02*
X624403553Y-69496447D01*
X620903553Y-65796447D02*
G75*
G02*
X621903553Y-64796447I999999J1D01*
G01*
X623103553Y-65796447D02*
X622903553Y-65796447D01*
X623903553Y-64796447D02*
G75*
G02*
X624403553Y-65296447I-1J-500001D01*
G01*
X621903553Y-66296447D02*
G75*
G02*
X622403553Y-65796447I500001J-1D01*
G01*
X624903553Y-69996447D02*
G75*
G02*
X624403553Y-69496447I1J500001D01*
G01*
X596703553Y-67126447D02*
X596703553Y-66296447D01*
X595702304Y-65796447D02*
X595703553Y-67126447D01*
X596703553Y-66296447D02*
G75*
G02*
X597203553Y-65796447I500001J-1D01*
G01*
X598403553Y-69496447D02*
G75*
G02*
X597903553Y-69996447I-500001J1D01*
G01*
X596703553Y-67126447D02*
G75*
G02*
X595703553Y-67126447I-500000J0D01*
G01*
X597903553Y-65796447D02*
G75*
G02*
X598403553Y-66296447I-1J-500001D01*
G01*
X597703553Y-65796447D02*
X597203553Y-65796447D01*
X598703553Y-64796447D02*
G75*
G02*
X599203553Y-65296447I-1J-500001D01*
G01*
X596703553Y-64796447D02*
X598703553Y-64796447D01*
X598403553Y-66296447D02*
X598403553Y-69496447D01*
X597903553Y-65796447D02*
X597703553Y-65796447D01*
X599203553Y-65296447D02*
X599203553Y-69496447D01*
X574803553Y-69996447D02*
G75*
G02*
X574303553Y-69496447I1J500001D01*
G01*
X573003553Y-65796447D02*
G75*
G02*
X573503553Y-66296447I-1J-500001D01*
G01*
X574303553Y-65296447D02*
X574303553Y-69496447D01*
X549703553Y-69996447D02*
G75*
G02*
X549203553Y-69496447I1J500001D01*
G01*
X570802304Y-65796447D02*
X570803553Y-67126447D01*
X573503553Y-69496447D02*
G75*
G02*
X573003553Y-69996447I-500001J1D01*
G01*
X571803553Y-67126447D02*
G75*
G02*
X570803553Y-67126447I-500000J0D01*
G01*
X572803553Y-65796447D02*
X572303553Y-65796447D01*
X546703553Y-67126447D02*
X546703553Y-66296447D01*
X571803553Y-64796447D02*
X573803553Y-64796447D01*
X573503553Y-66296447D02*
X573503553Y-69496447D01*
X545702304Y-65796447D02*
X545703553Y-67126447D01*
X546703553Y-66296447D02*
G75*
G02*
X547203553Y-65796447I500001J-1D01*
G01*
X573803553Y-64796447D02*
G75*
G02*
X574303553Y-65296447I-1J-500001D01*
G01*
X570803553Y-65796447D02*
G75*
G02*
X571803553Y-64796447I999999J1D01*
G01*
X548403553Y-69496447D02*
G75*
G02*
X547903553Y-69996447I-500001J1D01*
G01*
X546703553Y-67126447D02*
G75*
G02*
X545703553Y-67126447I-500000J0D01*
G01*
X547903553Y-65796447D02*
G75*
G02*
X548403553Y-66296447I-1J-500001D01*
G01*
X547703553Y-65796447D02*
X547203553Y-65796447D01*
X595703553Y-65796447D02*
G75*
G02*
X596703553Y-64796447I999999J1D01*
G01*
X571803553Y-67126447D02*
X571803553Y-66296447D01*
X571803553Y-66296447D02*
G75*
G02*
X572303553Y-65796447I500001J-1D01*
G01*
X573003553Y-65796447D02*
X572803553Y-65796447D01*
X548703553Y-64796447D02*
G75*
G02*
X549203553Y-65296447I-1J-500001D01*
G01*
X545703553Y-65796447D02*
G75*
G02*
X546703553Y-64796447I999999J1D01*
G01*
X546703553Y-64796447D02*
X548703553Y-64796447D01*
X548403553Y-66296447D02*
X548403553Y-69496447D01*
X547903553Y-65796447D02*
X547703553Y-65796447D01*
X549203553Y-65296447D02*
X549203553Y-69496447D01*
X522893553Y-65796447D02*
X522393553Y-65796447D01*
X523093553Y-65796447D02*
G75*
G02*
X523593553Y-66296447I-1J-500001D01*
G01*
X521893553Y-64796447D02*
X523893553Y-64796447D01*
X520892304Y-65796447D02*
X520893553Y-67126447D01*
X523593553Y-66296447D02*
X523593553Y-69496447D01*
X523593553Y-69496447D02*
G75*
G02*
X523093553Y-69996447I-500001J1D01*
G01*
X521893553Y-67126447D02*
G75*
G02*
X520893553Y-67126447I-500000J0D01*
G01*
X499693553Y-69996447D02*
G75*
G02*
X499193553Y-69496447I1J500001D01*
G01*
X521893553Y-67126447D02*
X521893553Y-66296447D01*
X524393553Y-65296447D02*
X524393553Y-69496447D01*
X520893553Y-65796447D02*
G75*
G02*
X521893553Y-64796447I999999J1D01*
G01*
X523093553Y-65796447D02*
X522893553Y-65796447D01*
X523893553Y-64796447D02*
G75*
G02*
X524393553Y-65296447I-1J-500001D01*
G01*
X521893553Y-66296447D02*
G75*
G02*
X522393553Y-65796447I500001J-1D01*
G01*
X524893553Y-69996447D02*
G75*
G02*
X524393553Y-69496447I1J500001D01*
G01*
X496693553Y-67126447D02*
X496693553Y-66296447D01*
X495692304Y-65796447D02*
X495693553Y-67126447D01*
X496693553Y-66296447D02*
G75*
G02*
X497193553Y-65796447I500001J-1D01*
G01*
X498393553Y-69496447D02*
G75*
G02*
X497893553Y-69996447I-500001J1D01*
G01*
X496693553Y-67126447D02*
G75*
G02*
X495693553Y-67126447I-500000J0D01*
G01*
X497893553Y-65796447D02*
G75*
G02*
X498393553Y-66296447I-1J-500001D01*
G01*
X497693553Y-65796447D02*
X497193553Y-65796447D01*
X498693553Y-64796447D02*
G75*
G02*
X499193553Y-65296447I-1J-500001D01*
G01*
X496693553Y-64796447D02*
X498693553Y-64796447D01*
X498393553Y-66296447D02*
X498393553Y-69496447D01*
X497893553Y-65796447D02*
X497693553Y-65796447D01*
X499193553Y-65296447D02*
X499193553Y-69496447D01*
X474793553Y-69996447D02*
G75*
G02*
X474293553Y-69496447I1J500001D01*
G01*
X472993553Y-65796447D02*
G75*
G02*
X473493553Y-66296447I-1J-500001D01*
G01*
X474293553Y-65296447D02*
X474293553Y-69496447D01*
X449693553Y-69996447D02*
G75*
G02*
X449193553Y-69496447I1J500001D01*
G01*
X470792304Y-65796447D02*
X470793553Y-67126447D01*
X473493553Y-69496447D02*
G75*
G02*
X472993553Y-69996447I-500001J1D01*
G01*
X471793553Y-67126447D02*
G75*
G02*
X470793553Y-67126447I-500000J0D01*
G01*
X472793553Y-65796447D02*
X472293553Y-65796447D01*
X446693553Y-67126447D02*
X446693553Y-66296447D01*
X471793553Y-64796447D02*
X473793553Y-64796447D01*
X473493553Y-66296447D02*
X473493553Y-69496447D01*
X445692304Y-65796447D02*
X445693553Y-67126447D01*
X446693553Y-66296447D02*
G75*
G02*
X447193553Y-65796447I500001J-1D01*
G01*
X473793553Y-64796447D02*
G75*
G02*
X474293553Y-65296447I-1J-500001D01*
G01*
X470793553Y-65796447D02*
G75*
G02*
X471793553Y-64796447I999999J1D01*
G01*
X448393553Y-69496447D02*
G75*
G02*
X447893553Y-69996447I-500001J1D01*
G01*
X446693553Y-67126447D02*
G75*
G02*
X445693553Y-67126447I-500000J0D01*
G01*
X447893553Y-65796447D02*
G75*
G02*
X448393553Y-66296447I-1J-500001D01*
G01*
X447693553Y-65796447D02*
X447193553Y-65796447D01*
X495693553Y-65796447D02*
G75*
G02*
X496693553Y-64796447I999999J1D01*
G01*
X471793553Y-67126447D02*
X471793553Y-66296447D01*
X471793553Y-66296447D02*
G75*
G02*
X472293553Y-65796447I500001J-1D01*
G01*
X472993553Y-65796447D02*
X472793553Y-65796447D01*
X448693553Y-64796447D02*
G75*
G02*
X449193553Y-65296447I-1J-500001D01*
G01*
X445693553Y-65796447D02*
G75*
G02*
X446693553Y-64796447I999999J1D01*
G01*
X446693553Y-64796447D02*
X448693553Y-64796447D01*
X448393553Y-66296447D02*
X448393553Y-69496447D01*
X447893553Y-65796447D02*
X447693553Y-65796447D01*
X449193553Y-65296447D02*
X449193553Y-69496447D01*
X422893553Y-65796447D02*
X422393553Y-65796447D01*
X423093553Y-65796447D02*
G75*
G02*
X423593553Y-66296447I-1J-500001D01*
G01*
X421893553Y-64796447D02*
X423893553Y-64796447D01*
X420892304Y-65796447D02*
X420893553Y-67126447D01*
X423593553Y-66296447D02*
X423593553Y-69496447D01*
X423593553Y-69496447D02*
G75*
G02*
X423093553Y-69996447I-500001J1D01*
G01*
X421893553Y-67126447D02*
G75*
G02*
X420893553Y-67126447I-500000J0D01*
G01*
X399693553Y-69996447D02*
G75*
G02*
X399193553Y-69496447I1J500001D01*
G01*
X421893553Y-67126447D02*
X421893553Y-66296447D01*
X424393553Y-65296447D02*
X424393553Y-69496447D01*
X420893553Y-65796447D02*
G75*
G02*
X421893553Y-64796447I999999J1D01*
G01*
X423093553Y-65796447D02*
X422893553Y-65796447D01*
X423893553Y-64796447D02*
G75*
G02*
X424393553Y-65296447I-1J-500001D01*
G01*
X421893553Y-66296447D02*
G75*
G02*
X422393553Y-65796447I500001J-1D01*
G01*
X424893553Y-69996447D02*
G75*
G02*
X424393553Y-69496447I1J500001D01*
G01*
X396693553Y-67126447D02*
X396693553Y-66296447D01*
X395692304Y-65796447D02*
X395693553Y-67126447D01*
X396693553Y-66296447D02*
G75*
G02*
X397193553Y-65796447I500001J-1D01*
G01*
X398394107Y-69496447D02*
G75*
G02*
X397870000Y-69996447I-500555J1D01*
G01*
X396693553Y-67126447D02*
G75*
G02*
X395693553Y-67126447I-500000J0D01*
G01*
X397893553Y-65796447D02*
G75*
G02*
X398393553Y-66296447I-1J-500001D01*
G01*
X397693553Y-65796447D02*
X397193553Y-65796447D01*
X398693553Y-64796447D02*
G75*
G02*
X399193553Y-65296447I-1J-500001D01*
G01*
X396693553Y-64796447D02*
X398693553Y-64796447D01*
X398393553Y-66296447D02*
X398393553Y-69496447D01*
X397893553Y-65796447D02*
X397693553Y-65796447D01*
X399193553Y-65296447D02*
X399193553Y-69496447D01*
X374793553Y-69996447D02*
G75*
G02*
X374293553Y-69496447I1J500001D01*
G01*
X372993553Y-65796447D02*
G75*
G02*
X373493553Y-66296447I-1J-500001D01*
G01*
X374293553Y-65296447D02*
X374293553Y-69496447D01*
X349693553Y-69996447D02*
G75*
G02*
X349193553Y-69496447I1J500001D01*
G01*
X370792304Y-65796447D02*
X370793553Y-67126447D01*
X373493553Y-69496447D02*
G75*
G02*
X372993553Y-69996447I-500001J1D01*
G01*
X371793553Y-67126447D02*
G75*
G02*
X370793553Y-67126447I-500000J0D01*
G01*
X372793553Y-65796447D02*
X372293553Y-65796447D01*
X346693553Y-67126447D02*
X346693553Y-66296447D01*
X371793553Y-64796447D02*
X373793553Y-64796447D01*
X373493553Y-66296447D02*
X373493553Y-69496447D01*
X345692304Y-65796447D02*
X345693553Y-67126447D01*
X346693553Y-66296447D02*
G75*
G02*
X347193553Y-65796447I500001J-1D01*
G01*
X373793553Y-64796447D02*
G75*
G02*
X374293553Y-65296447I-1J-500001D01*
G01*
X370793553Y-65796447D02*
G75*
G02*
X371793553Y-64796447I999999J1D01*
G01*
X348393553Y-69496447D02*
G75*
G02*
X347893553Y-69996447I-500001J1D01*
G01*
X346693553Y-67126447D02*
G75*
G02*
X345693553Y-67126447I-500000J0D01*
G01*
X347893553Y-65796447D02*
G75*
G02*
X348393553Y-66296447I-1J-500001D01*
G01*
X347693553Y-65796447D02*
X347193553Y-65796447D01*
X395693553Y-65796447D02*
G75*
G02*
X396693553Y-64796447I999999J1D01*
G01*
X371793553Y-67126447D02*
X371793553Y-66296447D01*
X371793553Y-66296447D02*
G75*
G02*
X372293553Y-65796447I500001J-1D01*
G01*
X372993553Y-65796447D02*
X372793553Y-65796447D01*
X348693553Y-64796447D02*
G75*
G02*
X349193553Y-65296447I-1J-500001D01*
G01*
X345693553Y-65796447D02*
G75*
G02*
X346693553Y-64796447I999999J1D01*
G01*
X346693553Y-64796447D02*
X348693553Y-64796447D01*
X348393553Y-66296447D02*
X348393553Y-69496447D01*
X347893553Y-65796447D02*
X347693553Y-65796447D01*
X349193553Y-65296447D02*
X349193553Y-69496447D01*
X322900000Y-65800000D02*
X322400000Y-65800000D01*
X323100000Y-65800000D02*
G75*
G02*
X323600000Y-66300000I-1J-500001D01*
G01*
X321900000Y-64800000D02*
X323900000Y-64800000D01*
X320898751Y-65800000D02*
X320900000Y-67130000D01*
X323600000Y-66300000D02*
X323600000Y-69500000D01*
X323600000Y-69500000D02*
G75*
G02*
X323100000Y-70000000I-500001J1D01*
G01*
X321900000Y-67130000D02*
G75*
G02*
X320900000Y-67130000I-500000J0D01*
G01*
X299700000Y-70000000D02*
G75*
G02*
X299200000Y-69500000I1J500001D01*
G01*
X321900000Y-67130000D02*
X321900000Y-66300000D01*
X324400000Y-65300000D02*
X324400000Y-69500000D01*
X320900000Y-65800000D02*
G75*
G02*
X321900000Y-64800000I999999J1D01*
G01*
X323100000Y-65800000D02*
X322900000Y-65800000D01*
X323900000Y-64800000D02*
G75*
G02*
X324400000Y-65300000I-1J-500001D01*
G01*
X321900000Y-66300000D02*
G75*
G02*
X322400000Y-65800000I500001J-1D01*
G01*
X324900000Y-70000000D02*
G75*
G02*
X324400000Y-69500000I1J500001D01*
G01*
X296700000Y-67130000D02*
X296700000Y-66300000D01*
X295698751Y-65800000D02*
X295700000Y-67130000D01*
X296700000Y-66300000D02*
G75*
G02*
X297200000Y-65800000I500001J-1D01*
G01*
X298400000Y-69500000D02*
G75*
G02*
X297900000Y-70000000I-500001J1D01*
G01*
X296700000Y-67130000D02*
G75*
G02*
X295700000Y-67130000I-500000J0D01*
G01*
X297900000Y-65800000D02*
G75*
G02*
X298400000Y-66300000I-1J-500001D01*
G01*
X297700000Y-65800000D02*
X297200000Y-65800000D01*
X298700000Y-64800000D02*
G75*
G02*
X299200000Y-65300000I-1J-500001D01*
G01*
X296700000Y-64800000D02*
X298700000Y-64800000D01*
X298400000Y-66300000D02*
X298400000Y-69500000D01*
X297900000Y-65800000D02*
X297700000Y-65800000D01*
X299200000Y-65300000D02*
X299200000Y-69500000D01*
X274800000Y-70000000D02*
G75*
G02*
X274300000Y-69500000I1J500001D01*
G01*
X273000000Y-65800000D02*
G75*
G02*
X273500000Y-66300000I-1J-500001D01*
G01*
X274300000Y-65300000D02*
X274300000Y-69500000D01*
X249700000Y-70000000D02*
G75*
G02*
X249200000Y-69500000I1J500001D01*
G01*
X270798751Y-65800000D02*
X270800000Y-67130000D01*
X273500000Y-69500000D02*
G75*
G02*
X273000000Y-70000000I-500001J1D01*
G01*
X271800000Y-67130000D02*
G75*
G02*
X270800000Y-67130000I-500000J0D01*
G01*
X272800000Y-65800000D02*
X272300000Y-65800000D01*
X246700000Y-67130000D02*
X246700000Y-66300000D01*
X271800000Y-64800000D02*
X273800000Y-64800000D01*
X273500000Y-66300000D02*
X273500000Y-69500000D01*
X245698751Y-65800000D02*
X245700000Y-67130000D01*
X246700000Y-66300000D02*
G75*
G02*
X247200000Y-65800000I500001J-1D01*
G01*
X273800000Y-64800000D02*
G75*
G02*
X274300000Y-65300000I-1J-500001D01*
G01*
X270800000Y-65800000D02*
G75*
G02*
X271800000Y-64800000I999999J1D01*
G01*
X248400000Y-69500000D02*
G75*
G02*
X247900000Y-70000000I-500001J1D01*
G01*
X246700000Y-67130000D02*
G75*
G02*
X245700000Y-67130000I-500000J0D01*
G01*
X247900000Y-65800000D02*
G75*
G02*
X248400000Y-66300000I-1J-500001D01*
G01*
X247700000Y-65800000D02*
X247200000Y-65800000D01*
X295700000Y-65800000D02*
G75*
G02*
X296700000Y-64800000I999999J1D01*
G01*
X271800000Y-67130000D02*
X271800000Y-66300000D01*
X271800000Y-66300000D02*
G75*
G02*
X272300000Y-65800000I500001J-1D01*
G01*
X273000000Y-65800000D02*
X272800000Y-65800000D01*
X248700000Y-64800000D02*
G75*
G02*
X249200000Y-65300000I-1J-500001D01*
G01*
X245700000Y-65800000D02*
G75*
G02*
X246700000Y-64800000I999999J1D01*
G01*
X246700000Y-64800000D02*
X248700000Y-64800000D01*
X248400000Y-66300000D02*
X248400000Y-69500000D01*
X247900000Y-65800000D02*
X247700000Y-65800000D01*
X249200000Y-65300000D02*
X249200000Y-69500000D01*
X222900000Y-65800000D02*
X222400000Y-65800000D01*
X223100000Y-65800000D02*
G75*
G02*
X223600000Y-66300000I-1J-500001D01*
G01*
X221900000Y-64800000D02*
X223900000Y-64800000D01*
X220898751Y-65800000D02*
X220900000Y-67130000D01*
X223600000Y-66300000D02*
X223600000Y-69500000D01*
X223600000Y-69500000D02*
G75*
G02*
X223100000Y-70000000I-500001J1D01*
G01*
X221900000Y-67130000D02*
G75*
G02*
X220900000Y-67130000I-500000J0D01*
G01*
X199700000Y-70000000D02*
G75*
G02*
X199200000Y-69500000I1J500001D01*
G01*
X221900000Y-67130000D02*
X221900000Y-66300000D01*
X224400000Y-65300000D02*
X224400000Y-69500000D01*
X220900000Y-65800000D02*
G75*
G02*
X221900000Y-64800000I999999J1D01*
G01*
X223100000Y-65800000D02*
X222900000Y-65800000D01*
X223900000Y-64800000D02*
G75*
G02*
X224400000Y-65300000I-1J-500001D01*
G01*
X221900000Y-66300000D02*
G75*
G02*
X222400000Y-65800000I500001J-1D01*
G01*
X224900000Y-70000000D02*
G75*
G02*
X224400000Y-69500000I1J500001D01*
G01*
X196700000Y-67130000D02*
X196700000Y-66300000D01*
X195698751Y-65800000D02*
X195700000Y-67130000D01*
X196700000Y-66300000D02*
G75*
G02*
X197200000Y-65800000I500001J-1D01*
G01*
X198400000Y-69500000D02*
G75*
G02*
X197900000Y-70000000I-500001J1D01*
G01*
X196700000Y-67130000D02*
G75*
G02*
X195700000Y-67130000I-500000J0D01*
G01*
X197900000Y-65800000D02*
G75*
G02*
X198400000Y-66300000I-1J-500001D01*
G01*
X197700000Y-65800000D02*
X197200000Y-65800000D01*
X198700000Y-64800000D02*
G75*
G02*
X199200000Y-65300000I-1J-500001D01*
G01*
X196700000Y-64800000D02*
X198700000Y-64800000D01*
X198400000Y-66300000D02*
X198400000Y-69500000D01*
X197900000Y-65800000D02*
X197700000Y-65800000D01*
X199200000Y-65300000D02*
X199200000Y-69500000D01*
X174800000Y-70000000D02*
G75*
G02*
X174300000Y-69500000I1J500001D01*
G01*
X173000000Y-65800000D02*
G75*
G02*
X173500000Y-66300000I-1J-500001D01*
G01*
X174300000Y-65300000D02*
X174300000Y-69500000D01*
X149700000Y-70000000D02*
G75*
G02*
X149200000Y-69500000I1J500001D01*
G01*
X170798751Y-65800000D02*
X170800000Y-67130000D01*
X173500000Y-69500000D02*
G75*
G02*
X173000000Y-70000000I-500001J1D01*
G01*
X171800000Y-67130000D02*
G75*
G02*
X170800000Y-67130000I-500000J0D01*
G01*
X172800000Y-65800000D02*
X172300000Y-65800000D01*
X146700000Y-67130000D02*
X146700000Y-66300000D01*
X171800000Y-64800000D02*
X173800000Y-64800000D01*
X173500000Y-66300000D02*
X173500000Y-69500000D01*
X145698751Y-65800000D02*
X145700000Y-67130000D01*
X146700000Y-66300000D02*
G75*
G02*
X147200000Y-65800000I500001J-1D01*
G01*
X173800000Y-64800000D02*
G75*
G02*
X174300000Y-65300000I-1J-500001D01*
G01*
X170800000Y-65800000D02*
G75*
G02*
X171800000Y-64800000I999999J1D01*
G01*
X148400000Y-69500000D02*
G75*
G02*
X147900000Y-70000000I-500001J1D01*
G01*
X146700000Y-67130000D02*
G75*
G02*
X145700000Y-67130000I-500000J0D01*
G01*
X147900000Y-65800000D02*
G75*
G02*
X148400000Y-66300000I-1J-500001D01*
G01*
X147700000Y-65800000D02*
X147200000Y-65800000D01*
X195700000Y-65800000D02*
G75*
G02*
X196700000Y-64800000I999999J1D01*
G01*
X171800000Y-67130000D02*
X171800000Y-66300000D01*
X171800000Y-66300000D02*
G75*
G02*
X172300000Y-65800000I500001J-1D01*
G01*
X173000000Y-65800000D02*
X172800000Y-65800000D01*
X148700000Y-64800000D02*
G75*
G02*
X149200000Y-65300000I-1J-500001D01*
G01*
X145700000Y-65800000D02*
G75*
G02*
X146700000Y-64800000I999999J1D01*
G01*
X146700000Y-64800000D02*
X148700000Y-64800000D01*
X148400000Y-66300000D02*
X148400000Y-69500000D01*
X147900000Y-65800000D02*
X147700000Y-65800000D01*
X149200000Y-65300000D02*
X149200000Y-69500000D01*
X125000000Y-70000000D02*
G75*
G02*
X124500000Y-69500000I0J500000D01*
G01*
X122000000Y-67130000D02*
X122000000Y-66300000D01*
X120998751Y-65800000D02*
X121000000Y-67130000D01*
X122000000Y-66300000D02*
G75*
G02*
X122500000Y-65800000I500001J-1D01*
G01*
X123700000Y-69500000D02*
G75*
G02*
X123200000Y-70000000I-500001J1D01*
G01*
X122000000Y-67130000D02*
G75*
G02*
X121000000Y-67130000I-500000J0D01*
G01*
X123200000Y-65800000D02*
G75*
G02*
X123700000Y-66300000I-1J-500001D01*
G01*
X123000000Y-65800000D02*
X122500000Y-65800000D01*
X124000000Y-64800000D02*
G75*
G02*
X124500000Y-65300000I0J-500000D01*
G01*
X121000000Y-65800000D02*
G75*
G02*
X122000000Y-64800000I999999J1D01*
G01*
X122000000Y-64800000D02*
X124000000Y-64800000D01*
X123700000Y-66300000D02*
X123700000Y-69500000D01*
X123200000Y-65800000D02*
X123000000Y-65800000D01*
X124500000Y-65300000D02*
X124500000Y-69500000D01*
X99800000Y-70000000D02*
G75*
G02*
X99300000Y-69500000I0J500000D01*
G01*
X96800000Y-67130000D02*
X96800000Y-66300000D01*
X95798751Y-65800000D02*
X95800000Y-67130000D01*
X96800000Y-66300000D02*
G75*
G02*
X97300000Y-65800000I500001J-1D01*
G01*
X98500000Y-69500000D02*
G75*
G02*
X98000000Y-70000000I-500001J1D01*
G01*
X96800000Y-67130000D02*
G75*
G02*
X95800000Y-67130000I-500000J0D01*
G01*
X98000000Y-65800000D02*
G75*
G02*
X98500000Y-66300000I-1J-500001D01*
G01*
X97800000Y-65800000D02*
X97300000Y-65800000D01*
X98800000Y-64800000D02*
G75*
G02*
X99300000Y-65300000I0J-500000D01*
G01*
X95800000Y-65800000D02*
G75*
G02*
X96800000Y-64800000I999999J1D01*
G01*
X96800000Y-64800000D02*
X98800000Y-64800000D01*
X98500000Y-66300000D02*
X98500000Y-69500000D01*
X98000000Y-65800000D02*
X97800000Y-65800000D01*
X99300000Y-65300000D02*
X99300000Y-69500000D01*
X74900000Y-70000000D02*
G75*
G02*
X74400000Y-69500000I0J500000D01*
G01*
X71900000Y-67130000D02*
X71900000Y-66300000D01*
X70898751Y-65800000D02*
X70900000Y-67130000D01*
X71900000Y-66300000D02*
G75*
G02*
X72400000Y-65800000I500001J-1D01*
G01*
X73600000Y-69500000D02*
G75*
G02*
X73100000Y-70000000I-500001J1D01*
G01*
X71900000Y-67130000D02*
G75*
G02*
X70900000Y-67130000I-500000J0D01*
G01*
X73100000Y-65800000D02*
G75*
G02*
X73600000Y-66300000I-1J-500001D01*
G01*
X72900000Y-65800000D02*
X72400000Y-65800000D01*
X73900000Y-64800000D02*
G75*
G02*
X74400000Y-65300000I0J-500000D01*
G01*
X70900000Y-65800000D02*
G75*
G02*
X71900000Y-64800000I999999J1D01*
G01*
X71900000Y-64800000D02*
X73900000Y-64800000D01*
X73600000Y-66300000D02*
X73600000Y-69500000D01*
X73100000Y-65800000D02*
X72900000Y-65800000D01*
X74400000Y-65300000D02*
X74400000Y-69500000D01*
X49800000Y-70000000D02*
G75*
G02*
X49300000Y-69500000I0J500000D01*
G01*
X48500000Y-69500000D02*
G75*
G02*
X48000000Y-70000000I-500000J0D01*
G01*
X48000000Y-65800000D02*
G75*
G02*
X48500000Y-66300000I0J-500000D01*
G01*
X46800000Y-66300000D02*
G75*
G02*
X47300000Y-65800000I500000J0D01*
G01*
X47800000Y-65800000D02*
X47300000Y-65800000D01*
X46800000Y-67130000D02*
X46800000Y-66300000D01*
X46800000Y-67130000D02*
G75*
G02*
X45800000Y-67130000I-500000J0D01*
G01*
X48800000Y-64800000D02*
G75*
G02*
X49300000Y-65300000I0J-500000D01*
G01*
X45798751Y-65800000D02*
X45800000Y-67130000D01*
X45800000Y-65800000D02*
G75*
G02*
X46800000Y-64800000I1000000J0D01*
G01*
X249700000Y-70000000D02*
X263500000Y-70000000D01*
X266500000Y-70000000D02*
X273000000Y-70000000D01*
X366500000Y-70000000D02*
X372993553Y-69996447D01*
X138500000Y-70000000D02*
X138500000Y-59000000D01*
X113500000Y-59000000D02*
X116500000Y-59000000D01*
X188500000Y-59000000D02*
X191500000Y-59000000D01*
X566500000Y-59000000D02*
X566500000Y-70000000D01*
X188500000Y-70000000D02*
X188500000Y-59000000D01*
X138500000Y-59000000D02*
X141500000Y-59000000D01*
X633900000Y-69500000D02*
G75*
G02*
X633400000Y-70000000I-500000J0D01*
G01*
X416500000Y-70000000D02*
X423093553Y-69996447D01*
X313500000Y-59000000D02*
X316500000Y-59000000D01*
X316500000Y-70000000D02*
X323100000Y-70000000D01*
X338500000Y-70000000D02*
X338500000Y-59000000D01*
X524893553Y-69996447D02*
X538500000Y-70000000D01*
X241500000Y-59000000D02*
X241500000Y-70000000D01*
X49300000Y-65300000D02*
X49300000Y-69500000D01*
X441500000Y-70000000D02*
X447893553Y-69996447D01*
X216500000Y-59000000D02*
X216500000Y-70000000D01*
X91500000Y-59000000D02*
X91500000Y-70000000D01*
X266500000Y-59000000D02*
X266500000Y-70000000D01*
X341500000Y-59000000D02*
X341500000Y-70000000D01*
X63500000Y-59000000D02*
X66500000Y-59000000D01*
X388500000Y-70000000D02*
X388500000Y-59000000D01*
X438500000Y-59000000D02*
X441500000Y-59000000D01*
X391500000Y-70000000D02*
X397870000Y-69996447D01*
X191500000Y-59000000D02*
X191500000Y-70000000D01*
X74900000Y-70000000D02*
X88500000Y-70000000D01*
X34000000Y-40500000D02*
G75*
G02*
X34500000Y-40000000I500000J0D01*
G01*
X464500000Y-70000000D02*
X464500000Y-59000000D01*
X399693553Y-69996447D02*
X413500000Y-70000000D01*
X491500000Y-59000000D02*
X491500000Y-70000000D01*
X391500000Y-59000000D02*
X391500000Y-70000000D01*
X238500000Y-59000000D02*
X241500000Y-59000000D01*
X66500000Y-59000000D02*
X66500000Y-70000000D01*
X488500000Y-59000000D02*
X491500000Y-59000000D01*
X538500000Y-59000000D02*
X541500000Y-59000000D01*
X499693553Y-69996447D02*
X513500000Y-70000000D01*
X125000000Y-70000000D02*
X138500000Y-70000000D01*
X588500000Y-59000000D02*
X591500000Y-59000000D01*
X241500000Y-70000000D02*
X247900000Y-70000000D01*
X141500000Y-59000000D02*
X141500000Y-70000000D01*
X413500000Y-59000000D02*
X416500000Y-59000000D01*
X299700000Y-70000000D02*
X313500000Y-70000000D01*
X467500000Y-59000000D02*
X467500000Y-70000000D01*
X291500000Y-59000000D02*
X291500000Y-70000000D01*
X363500000Y-70000000D02*
X363500000Y-59000000D01*
X316500000Y-59000000D02*
X316500000Y-70000000D01*
X541500000Y-59000000D02*
X541500000Y-70000000D01*
X341500000Y-70000000D02*
X347893553Y-69996447D01*
X513500000Y-59000000D02*
X516500000Y-59000000D01*
X616500000Y-70000000D02*
X623103553Y-69996447D01*
X366500000Y-59000000D02*
X366500000Y-70000000D01*
X34500000Y-70000000D02*
G75*
G02*
X34000000Y-69500000I0J500000D01*
G01*
X48000000Y-65800000D02*
X47800000Y-65800000D01*
X274800000Y-70000000D02*
X288500000Y-70000000D01*
X516500000Y-59000000D02*
X516500000Y-70000000D01*
X288500000Y-70000000D02*
X288500000Y-59000000D01*
X441500000Y-59000000D02*
X441500000Y-70000000D01*
X116500000Y-70000000D02*
X123200000Y-70000000D01*
X599703553Y-69996447D02*
X613500000Y-70000000D01*
X467500000Y-70000000D02*
X472993553Y-69996447D01*
X224900000Y-70000000D02*
X238500000Y-70000000D01*
X34000000Y-59790000D02*
X34000000Y-52210000D01*
X213500000Y-59000000D02*
X216500000Y-59000000D01*
X63500000Y-70000000D02*
X63500000Y-59000000D01*
X34000000Y-69500000D02*
X34000000Y-62790000D01*
X34500000Y-70000000D02*
X48000000Y-70000000D01*
X624903553Y-69996447D02*
X633400000Y-70000000D01*
X48500000Y-66300000D02*
X48500000Y-69500000D01*
X216500000Y-70000000D02*
X223100000Y-70000000D01*
X438500000Y-70000000D02*
X438500000Y-59000000D01*
X213500000Y-70000000D02*
X213500000Y-59000000D01*
X166500000Y-70000000D02*
X173000000Y-70000000D01*
X591500000Y-59000000D02*
X591500000Y-70000000D01*
X49800000Y-70000000D02*
X63500000Y-70000000D01*
X541500000Y-70000000D02*
X547903553Y-69996447D01*
X291500000Y-70000000D02*
X297900000Y-70000000D01*
X563500000Y-59000000D02*
X566500000Y-59000000D01*
X174800000Y-70000000D02*
X188500000Y-70000000D01*
X633900000Y-52000000D02*
X633900000Y-69500000D01*
X163500000Y-59000000D02*
X166500000Y-59000000D01*
X349693553Y-69996447D02*
X363500000Y-70000000D01*
X633900000Y-40500000D02*
X633900000Y-49000000D01*
X99800000Y-70000000D02*
X113500000Y-70000000D01*
X34000000Y-62790000D02*
X34000000Y-59790000D01*
X141500000Y-70000000D02*
X147900000Y-70000000D01*
X163500000Y-70000000D02*
X163500000Y-59000000D01*
X613500000Y-70000000D02*
X613500000Y-59000000D01*
X464500000Y-59000000D02*
X467500000Y-59000000D01*
X338500000Y-59000000D02*
X341500000Y-59000000D01*
X474793553Y-69996447D02*
X488500000Y-70000000D01*
X263500000Y-59000000D02*
X266500000Y-59000000D01*
X516500000Y-70000000D02*
X523093553Y-69996447D01*
X633400000Y-40000000D02*
G75*
G02*
X633900000Y-40500000I0J-500000D01*
G01*
X34000000Y-52210000D02*
X34000000Y-49210000D01*
X288500000Y-59000000D02*
X291500000Y-59000000D01*
X313500000Y-70000000D02*
X313500000Y-59000000D01*
X488500000Y-70000000D02*
X488500000Y-59000000D01*
X149700000Y-70000000D02*
X163500000Y-70000000D01*
X388500000Y-59000000D02*
X391500000Y-59000000D01*
X613500000Y-59000000D02*
X616500000Y-59000000D01*
X88500000Y-70000000D02*
X88500000Y-59000000D01*
X91500000Y-70000000D02*
X98000000Y-70000000D01*
X113500000Y-70000000D02*
X113500000Y-59000000D01*
X538500000Y-70000000D02*
X538500000Y-59000000D01*
X424893553Y-69996447D02*
X438500000Y-70000000D01*
X199700000Y-70000000D02*
X213500000Y-70000000D01*
X374793553Y-69996447D02*
X388500000Y-70000000D01*
X491500000Y-70000000D02*
X497893553Y-69996447D01*
X363500000Y-59000000D02*
X366500000Y-59000000D01*
X591500000Y-70000000D02*
X597903553Y-69996447D01*
X616500000Y-59000000D02*
X616500000Y-70000000D01*
X46800000Y-64800000D02*
X48800000Y-64800000D01*
X566500000Y-70000000D02*
X573003553Y-69996447D01*
X116500000Y-59000000D02*
X116500000Y-70000000D01*
X66500000Y-70000000D02*
X73100000Y-70000000D01*
X633900000Y-49000000D02*
X633900000Y-52000000D01*
X324900000Y-70000000D02*
X338500000Y-70000000D01*
X413500000Y-70000000D02*
X413500000Y-59000000D01*
X263500000Y-70000000D02*
X263500000Y-59000000D01*
X34000000Y-49210000D02*
X34000000Y-40500000D01*
X88500000Y-59000000D02*
X91500000Y-59000000D01*
X416500000Y-59000000D02*
X416500000Y-70000000D01*
X513500000Y-70000000D02*
X513500000Y-59000000D01*
X238500000Y-70000000D02*
X238500000Y-59000000D01*
X191500000Y-70000000D02*
X197900000Y-70000000D01*
X166500000Y-59000000D02*
X166500000Y-70000000D01*
X588500000Y-70000000D02*
X588500000Y-59000000D01*
X563500000Y-70000000D02*
X563500000Y-59000000D01*
X633400000Y-40000000D02*
X34500000Y-40000000D01*
X549703553Y-69996447D02*
X563500000Y-70000000D01*
X574803553Y-69996447D02*
X588500000Y-70000000D01*
X449693553Y-69996447D02*
X464500000Y-70000000D01*
M02*
