M48
; DRILL file {KiCad (5.1.10)-1} date 12/13/21 22:20:55
; FORMAT={-:-/ absolute / metric / decimal}
; #@! TF.CreationDate,2021-12-13T22:20:55+01:00
; #@! TF.GenerationSoftware,Kicad,Pcbnew,(5.1.10)-1
; #@! TF.FileFunction,Plated,1,2,PTH
FMAT,2
METRIC
T1C0.300
T2C0.400
T3C0.600
T4C0.750
T5C1.450
%
G90
G05
T1
X98.07Y-85.72
X98.07Y-88.22
X98.07Y-90.72
X98.07Y-93.22
X98.07Y-95.72
X98.07Y-98.22
X98.07Y-100.72
X98.07Y-118.22
X98.07Y-120.72
X98.07Y-123.22
X98.07Y-125.72
X98.07Y-128.22
X98.07Y-130.41
X98.07Y-132.91
X98.07Y-135.41
X98.07Y-137.91
X98.07Y-140.41
X98.07Y-142.91
X98.07Y-145.41
X98.07Y-147.91
X98.07Y-150.41
X98.07Y-152.91
X98.07Y-155.41
X98.07Y-157.91
X98.07Y-160.41
X98.07Y-162.91
X98.1Y-81.59
X98.1Y-108.51
X98.1Y-111.01
X98.1Y-113.51
X98.66Y-103.12
X100.67Y-164.69
X100.74Y-89.56
X101.03Y-162.52
X101.37Y-92.01
X101.37Y-94.55
X101.435Y-95.82
X101.88Y-166.57
X102.16Y-103.03
X102.772Y-111.298
X103.36Y-167.75
X104.48Y-128.49
X104.71Y-131.46
X104.88Y-81.82
X104.88Y-87.455
X104.96Y-84.78
X105.3Y-102.41
X105.401Y-108.82
X105.571Y-112.251
X105.66Y-114.26
X105.73Y-115.48
X105.85Y-110.08
X105.86Y-167.75
X105.9Y-97.51
X106.46Y-82.23
X106.52Y-116.46
X106.94Y-139.42
X107.15Y-101.33
X107.22Y-126.68
X107.77Y-120.12
X108.35Y-167.73
X108.78Y-88.4
X108.78Y-90.23
X108.96Y-82.23
X109.48Y-110.98
X109.521Y-106.899
X109.69Y-87.46
X109.7Y-89.31
X109.7Y-91.12
X109.72Y-101.82
X110.03Y-126.78
X110.27Y-116.88
X110.36Y-118.99
X110.4Y-96.31
X110.61Y-90.21
X110.62Y-88.39
X110.86Y-167.75
X111.13Y-115.15
X111.46Y-82.23
X111.53Y-87.41
X111.53Y-91.14
X111.54Y-89.29
X112.19Y-130.7
X112.28Y-117.175
X112.28Y-120.76
X112.344Y-105.352
X112.44Y-88.42
X112.45Y-90.22
X112.75Y-126.6
X113.12Y-105.7
X113.36Y-167.75
X113.96Y-82.23
X114.2Y-101.78
X114.23Y-115.28
X115.25Y-100.95
X115.35Y-115.62
X115.4Y-129.87
X115.86Y-167.75
X116.18Y-161.99
X116.21Y-129.91
X116.46Y-82.23
X116.66Y-94.26
X117.045Y-121.26
X117.22Y-95.72
X117.33Y-93.3
X117.56Y-115.35
X118.11Y-81.9
X118.36Y-167.75
X118.96Y-103.91
X119.0Y-126.74
X119.44Y-123.55
X119.44Y-125.07
X119.48Y-100.05
X120.22Y-159.49
X120.36Y-113.95
X120.45Y-99.6
X120.6Y-120.61
X120.86Y-167.75
X121.69Y-81.84
X121.74Y-94.55
X121.74Y-90.76
X121.75Y-92.01
X121.79Y-95.83
X121.79Y-99.67
X121.89Y-159.12
X121.9Y-97.09
X122.08Y-122.26
X122.22Y-88.19
X122.4Y-129.59
X122.78Y-112.42
X123.36Y-167.75
X123.4Y-126.57
X123.46Y-128.48
X123.54Y-120.19
X123.65Y-104.31
X123.65Y-119.01
X123.95Y-101.95
X123.99Y-130.95
X124.15Y-100.8
X125.29Y-103.05
X125.72Y-117.29
X125.75Y-82.23
X125.86Y-167.75
X126.11Y-85.49
X126.2Y-124.07
X126.63Y-97.58
X126.96Y-115.74
X127.28Y-74.68
X127.66Y-110.95
X127.88Y-105.39
X127.94Y-118.54
X128.05Y-94.31
X128.07Y-99.68
X128.36Y-167.75
X128.38Y-112.53
X128.71Y-130.92
X128.755Y-83.24
X128.79Y-88.65
X128.944Y-121.416
X129.0Y-116.5
X129.008Y-77.748
X129.04Y-126.81
X130.38Y-80.33
X130.43Y-91.42
X130.86Y-167.75
X130.91Y-111.98
X131.05Y-119.95
X131.1Y-85.93
X131.58Y-70.71
X132.72Y-107.97
X132.77Y-91.25
X132.77Y-124.45
X132.79Y-129.91
X132.81Y-113.45
X132.85Y-102.23
X133.07Y-70.72
X133.36Y-167.75
X133.81Y-75.08
X134.54Y-120.35
X135.57Y-70.72
X135.58Y-162.81
X135.86Y-167.75
X136.15Y-85.76
X136.16Y-80.22
X136.4Y-148.89
X136.51Y-158.13
X136.62Y-134.13
X138.07Y-70.72
X138.36Y-167.75
X138.66Y-108.1
X138.76Y-102.47
X138.78Y-119.91
X138.87Y-91.38
X138.88Y-129.49
X138.94Y-85.72
X138.94Y-113.58
X138.97Y-80.2
X138.99Y-96.97
X139.0Y-124.54
X140.29Y-70.72
X140.38Y-145.42
X140.7Y-167.75
X140.89Y-117.43
X142.76Y-159.67
X143.07Y-70.72
X143.2Y-167.75
X143.922Y-156.28
X144.78Y-137.69
X145.57Y-70.72
X145.7Y-167.75
X146.92Y-139.59
X148.07Y-70.72
X148.2Y-167.75
X148.65Y-140.0
X148.96Y-137.26
X149.75Y-75.96
X149.83Y-74.66
X149.85Y-162.84
X149.93Y-82.93
X150.21Y-80.66
X150.57Y-70.72
X150.7Y-167.75
X151.81Y-73.29
X151.94Y-156.84
X152.48Y-95.35
X152.53Y-164.62
X152.54Y-161.55
X152.54Y-136.04
X152.55Y-86.41
X152.55Y-104.38
X152.55Y-116.22
X152.55Y-127.33
X154.0Y-84.18
X154.77Y-80.18
X155.57Y-83.0
X155.57Y-85.5
X155.57Y-88.0
X155.57Y-90.5
X155.57Y-93.0
X155.57Y-95.5
X155.57Y-98.0
X155.57Y-100.5
X155.57Y-103.22
X155.57Y-105.72
X155.57Y-108.22
X155.57Y-110.72
X155.57Y-113.22
X155.57Y-115.72
X155.57Y-118.22
X155.57Y-120.72
X155.57Y-123.22
X155.57Y-125.72
X155.57Y-128.22
X155.57Y-130.72
X155.57Y-133.22
X155.57Y-135.97
X155.57Y-138.22
X155.57Y-150.72
X155.57Y-153.22
X155.57Y-155.72
X155.57Y-158.22
X155.57Y-160.72
X155.57Y-163.22
X155.67Y-144.62
X155.91Y-79.59
T2
X112.37Y-109.34
X112.38Y-107.96
X129.06Y-160.49
X142.43Y-152.01
X143.33Y-152.01
X144.75Y-133.99
T4
X123.5Y-108.64
X125.5Y-108.64
X127.5Y-108.64
X127.71Y-135.4
X129.5Y-108.64
X129.71Y-135.4
X131.71Y-135.4
X136.9Y-73.87
X138.9Y-73.87
X140.9Y-73.87
X142.9Y-73.87
X150.91Y-106.81
X150.91Y-108.81
X150.91Y-110.81
X150.91Y-112.81
X150.91Y-117.42
X150.91Y-119.42
X150.91Y-121.42
X150.91Y-123.42
X150.92Y-128.05
X150.92Y-130.05
X150.92Y-132.05
X150.92Y-134.05
X150.93Y-96.13
X150.93Y-98.13
X150.93Y-100.13
X150.93Y-102.13
X150.94Y-85.51
X150.94Y-87.51
X150.94Y-89.51
X150.94Y-91.51
X155.25Y-146.77
X155.25Y-148.77
X155.26Y-140.17
X155.26Y-142.17
T5
X101.55Y-143.63
X101.55Y-148.63
T3
G00X99.46Y-107.6
M15
G01X98.86Y-107.6
M16
G05
G00X99.46Y-116.24
M15
G01X98.86Y-116.24
M16
G05
G00X103.64Y-107.6
M15
G01X103.04Y-107.6
M16
G05
G00X103.64Y-116.24
M15
G01X103.04Y-116.24
M16
G05
T0
M30
