G04 #@! TF.GenerationSoftware,KiCad,Pcbnew,(5.1.10)-1*
G04 #@! TF.CreationDate,2021-12-13T22:20:53+01:00*
G04 #@! TF.ProjectId,TestboardV2.3,54657374-626f-4617-9264-56322e332e6b,rev?*
G04 #@! TF.SameCoordinates,Original*
G04 #@! TF.FileFunction,Soldermask,Bot*
G04 #@! TF.FilePolarity,Negative*
%FSLAX46Y46*%
G04 Gerber Fmt 4.6, Leading zero omitted, Abs format (unit mm)*
G04 Created by KiCad (PCBNEW (5.1.10)-1) date 2021-12-13 22:20:53*
%MOMM*%
%LPD*%
G01*
G04 APERTURE LIST*
%ADD10C,0.100000*%
%ADD11C,0.670000*%
%ADD12O,1.750000X1.200000*%
%ADD13C,2.175000*%
%ADD14R,2.175000X2.175000*%
%ADD15R,1.500000X1.000000*%
%ADD16O,1.200000X1.750000*%
G04 APERTURE END LIST*
D10*
G36*
X114500000Y-120970000D02*
G01*
X114000000Y-120970000D01*
X114000000Y-120969398D01*
X113975466Y-120969398D01*
X113926635Y-120964588D01*
X113878510Y-120955016D01*
X113831555Y-120940772D01*
X113786222Y-120921995D01*
X113742949Y-120898864D01*
X113702150Y-120871604D01*
X113664221Y-120840476D01*
X113629524Y-120805779D01*
X113598396Y-120767850D01*
X113571136Y-120727051D01*
X113548005Y-120683778D01*
X113529228Y-120638445D01*
X113514984Y-120591490D01*
X113505412Y-120543365D01*
X113500602Y-120494534D01*
X113500602Y-120470000D01*
X113500000Y-120470000D01*
X113500000Y-119970000D01*
X113500602Y-119970000D01*
X113500602Y-119945466D01*
X113505412Y-119896635D01*
X113514984Y-119848510D01*
X113529228Y-119801555D01*
X113548005Y-119756222D01*
X113571136Y-119712949D01*
X113598396Y-119672150D01*
X113629524Y-119634221D01*
X113664221Y-119599524D01*
X113702150Y-119568396D01*
X113742949Y-119541136D01*
X113786222Y-119518005D01*
X113831555Y-119499228D01*
X113878510Y-119484984D01*
X113926635Y-119475412D01*
X113975466Y-119470602D01*
X114000000Y-119470602D01*
X114000000Y-119470000D01*
X114500000Y-119470000D01*
X114500000Y-120970000D01*
G37*
G36*
X115300000Y-119470602D02*
G01*
X115324534Y-119470602D01*
X115373365Y-119475412D01*
X115421490Y-119484984D01*
X115468445Y-119499228D01*
X115513778Y-119518005D01*
X115557051Y-119541136D01*
X115597850Y-119568396D01*
X115635779Y-119599524D01*
X115670476Y-119634221D01*
X115701604Y-119672150D01*
X115728864Y-119712949D01*
X115751995Y-119756222D01*
X115770772Y-119801555D01*
X115785016Y-119848510D01*
X115794588Y-119896635D01*
X115799398Y-119945466D01*
X115799398Y-119970000D01*
X115800000Y-119970000D01*
X115800000Y-120470000D01*
X115799398Y-120470000D01*
X115799398Y-120494534D01*
X115794588Y-120543365D01*
X115785016Y-120591490D01*
X115770772Y-120638445D01*
X115751995Y-120683778D01*
X115728864Y-120727051D01*
X115701604Y-120767850D01*
X115670476Y-120805779D01*
X115635779Y-120840476D01*
X115597850Y-120871604D01*
X115557051Y-120898864D01*
X115513778Y-120921995D01*
X115468445Y-120940772D01*
X115421490Y-120955016D01*
X115373365Y-120964588D01*
X115324534Y-120969398D01*
X115300000Y-120969398D01*
X115300000Y-120970000D01*
X114800000Y-120970000D01*
X114800000Y-119470000D01*
X115300000Y-119470000D01*
X115300000Y-119470602D01*
G37*
G36*
X122710000Y-113500000D02*
G01*
X123210000Y-113500000D01*
X123210000Y-113500602D01*
X123234534Y-113500602D01*
X123283365Y-113505412D01*
X123331490Y-113514984D01*
X123378445Y-113529228D01*
X123423778Y-113548005D01*
X123467051Y-113571136D01*
X123507850Y-113598396D01*
X123545779Y-113629524D01*
X123580476Y-113664221D01*
X123611604Y-113702150D01*
X123638864Y-113742949D01*
X123661995Y-113786222D01*
X123680772Y-113831555D01*
X123695016Y-113878510D01*
X123704588Y-113926635D01*
X123709398Y-113975466D01*
X123709398Y-114000000D01*
X123710000Y-114000000D01*
X123710000Y-114500000D01*
X123709398Y-114500000D01*
X123709398Y-114524534D01*
X123704588Y-114573365D01*
X123695016Y-114621490D01*
X123680772Y-114668445D01*
X123661995Y-114713778D01*
X123638864Y-114757051D01*
X123611604Y-114797850D01*
X123580476Y-114835779D01*
X123545779Y-114870476D01*
X123507850Y-114901604D01*
X123467051Y-114928864D01*
X123423778Y-114951995D01*
X123378445Y-114970772D01*
X123331490Y-114985016D01*
X123283365Y-114994588D01*
X123234534Y-114999398D01*
X123210000Y-114999398D01*
X123210000Y-115000000D01*
X122710000Y-115000000D01*
X122710000Y-113500000D01*
G37*
G36*
X121910000Y-114999398D02*
G01*
X121885466Y-114999398D01*
X121836635Y-114994588D01*
X121788510Y-114985016D01*
X121741555Y-114970772D01*
X121696222Y-114951995D01*
X121652949Y-114928864D01*
X121612150Y-114901604D01*
X121574221Y-114870476D01*
X121539524Y-114835779D01*
X121508396Y-114797850D01*
X121481136Y-114757051D01*
X121458005Y-114713778D01*
X121439228Y-114668445D01*
X121424984Y-114621490D01*
X121415412Y-114573365D01*
X121410602Y-114524534D01*
X121410602Y-114500000D01*
X121410000Y-114500000D01*
X121410000Y-114000000D01*
X121410602Y-114000000D01*
X121410602Y-113975466D01*
X121415412Y-113926635D01*
X121424984Y-113878510D01*
X121439228Y-113831555D01*
X121458005Y-113786222D01*
X121481136Y-113742949D01*
X121508396Y-113702150D01*
X121539524Y-113664221D01*
X121574221Y-113629524D01*
X121612150Y-113598396D01*
X121652949Y-113571136D01*
X121696222Y-113548005D01*
X121741555Y-113529228D01*
X121788510Y-113514984D01*
X121836635Y-113505412D01*
X121885466Y-113500602D01*
X121910000Y-113500602D01*
X121910000Y-113500000D01*
X122410000Y-113500000D01*
X122410000Y-115000000D01*
X121910000Y-115000000D01*
X121910000Y-114999398D01*
G37*
G36*
G01*
X103040000Y-107100000D02*
X103640000Y-107100000D01*
G75*
G02*
X104140000Y-107600000I0J-500000D01*
G01*
X104140000Y-107600000D01*
G75*
G02*
X103640000Y-108100000I-500000J0D01*
G01*
X103040000Y-108100000D01*
G75*
G02*
X102540000Y-107600000I0J500000D01*
G01*
X102540000Y-107600000D01*
G75*
G02*
X103040000Y-107100000I500000J0D01*
G01*
G37*
G36*
G01*
X103040000Y-115740000D02*
X103640000Y-115740000D01*
G75*
G02*
X104140000Y-116240000I0J-500000D01*
G01*
X104140000Y-116240000D01*
G75*
G02*
X103640000Y-116740000I-500000J0D01*
G01*
X103040000Y-116740000D01*
G75*
G02*
X102540000Y-116240000I0J500000D01*
G01*
X102540000Y-116240000D01*
G75*
G02*
X103040000Y-115740000I500000J0D01*
G01*
G37*
G36*
G01*
X98860000Y-115740000D02*
X99460000Y-115740000D01*
G75*
G02*
X99960000Y-116240000I0J-500000D01*
G01*
X99960000Y-116240000D01*
G75*
G02*
X99460000Y-116740000I-500000J0D01*
G01*
X98860000Y-116740000D01*
G75*
G02*
X98360000Y-116240000I0J500000D01*
G01*
X98360000Y-116240000D01*
G75*
G02*
X98860000Y-115740000I500000J0D01*
G01*
G37*
G36*
G01*
X98860000Y-107100000D02*
X99460000Y-107100000D01*
G75*
G02*
X99960000Y-107600000I0J-500000D01*
G01*
X99960000Y-107600000D01*
G75*
G02*
X99460000Y-108100000I-500000J0D01*
G01*
X98860000Y-108100000D01*
G75*
G02*
X98360000Y-107600000I0J500000D01*
G01*
X98360000Y-107600000D01*
G75*
G02*
X98860000Y-107100000I500000J0D01*
G01*
G37*
D11*
X102810000Y-109020000D03*
X102810000Y-114820000D03*
D12*
X155260000Y-142170000D03*
G36*
G01*
X154634999Y-139570000D02*
X155885001Y-139570000D01*
G75*
G02*
X156135000Y-139819999I0J-249999D01*
G01*
X156135000Y-140520001D01*
G75*
G02*
X155885001Y-140770000I-249999J0D01*
G01*
X154634999Y-140770000D01*
G75*
G02*
X154385000Y-140520001I0J249999D01*
G01*
X154385000Y-139819999D01*
G75*
G02*
X154634999Y-139570000I249999J0D01*
G01*
G37*
G36*
G01*
X151545400Y-134650000D02*
X150294600Y-134650000D01*
G75*
G02*
X150045000Y-134400400I0J249600D01*
G01*
X150045000Y-133699600D01*
G75*
G02*
X150294600Y-133450000I249600J0D01*
G01*
X151545400Y-133450000D01*
G75*
G02*
X151795000Y-133699600I0J-249600D01*
G01*
X151795000Y-134400400D01*
G75*
G02*
X151545400Y-134650000I-249600J0D01*
G01*
G37*
X150920000Y-132050000D03*
X150920000Y-130050000D03*
X150920000Y-128050000D03*
X150910000Y-117420000D03*
X150910000Y-119420000D03*
X150910000Y-121420000D03*
G36*
G01*
X151535400Y-124020000D02*
X150284600Y-124020000D01*
G75*
G02*
X150035000Y-123770400I0J249600D01*
G01*
X150035000Y-123069600D01*
G75*
G02*
X150284600Y-122820000I249600J0D01*
G01*
X151535400Y-122820000D01*
G75*
G02*
X151785000Y-123069600I0J-249600D01*
G01*
X151785000Y-123770400D01*
G75*
G02*
X151535400Y-124020000I-249600J0D01*
G01*
G37*
X150910000Y-106810000D03*
X150910000Y-108810000D03*
X150910000Y-110810000D03*
G36*
G01*
X151535400Y-113410000D02*
X150284600Y-113410000D01*
G75*
G02*
X150035000Y-113160400I0J249600D01*
G01*
X150035000Y-112459600D01*
G75*
G02*
X150284600Y-112210000I249600J0D01*
G01*
X151535400Y-112210000D01*
G75*
G02*
X151785000Y-112459600I0J-249600D01*
G01*
X151785000Y-113160400D01*
G75*
G02*
X151535400Y-113410000I-249600J0D01*
G01*
G37*
X150930000Y-96130000D03*
X150930000Y-98130000D03*
X150930000Y-100130000D03*
G36*
G01*
X151555400Y-102730000D02*
X150304600Y-102730000D01*
G75*
G02*
X150055000Y-102480400I0J249600D01*
G01*
X150055000Y-101779600D01*
G75*
G02*
X150304600Y-101530000I249600J0D01*
G01*
X151555400Y-101530000D01*
G75*
G02*
X151805000Y-101779600I0J-249600D01*
G01*
X151805000Y-102480400D01*
G75*
G02*
X151555400Y-102730000I-249600J0D01*
G01*
G37*
X150940000Y-85510000D03*
X150940000Y-87510000D03*
X150940000Y-89510000D03*
G36*
G01*
X151565400Y-92110000D02*
X150314600Y-92110000D01*
G75*
G02*
X150065000Y-91860400I0J249600D01*
G01*
X150065000Y-91159600D01*
G75*
G02*
X150314600Y-90910000I249600J0D01*
G01*
X151565400Y-90910000D01*
G75*
G02*
X151815000Y-91159600I0J-249600D01*
G01*
X151815000Y-91860400D01*
G75*
G02*
X151565400Y-92110000I-249600J0D01*
G01*
G37*
D13*
X101550000Y-148630000D03*
D14*
X101550000Y-143630000D03*
D10*
G36*
X139240000Y-76950602D02*
G01*
X139264534Y-76950602D01*
X139313365Y-76955412D01*
X139361490Y-76964984D01*
X139408445Y-76979228D01*
X139453778Y-76998005D01*
X139497051Y-77021136D01*
X139537850Y-77048396D01*
X139575779Y-77079524D01*
X139610476Y-77114221D01*
X139641604Y-77152150D01*
X139668864Y-77192949D01*
X139691995Y-77236222D01*
X139710772Y-77281555D01*
X139725016Y-77328510D01*
X139734588Y-77376635D01*
X139739398Y-77425466D01*
X139739398Y-77450000D01*
X139740000Y-77450000D01*
X139740000Y-77950000D01*
X139739398Y-77950000D01*
X139739398Y-77974534D01*
X139734588Y-78023365D01*
X139725016Y-78071490D01*
X139710772Y-78118445D01*
X139691995Y-78163778D01*
X139668864Y-78207051D01*
X139641604Y-78247850D01*
X139610476Y-78285779D01*
X139575779Y-78320476D01*
X139537850Y-78351604D01*
X139497051Y-78378864D01*
X139453778Y-78401995D01*
X139408445Y-78420772D01*
X139361490Y-78435016D01*
X139313365Y-78444588D01*
X139264534Y-78449398D01*
X139240000Y-78449398D01*
X139240000Y-78450000D01*
X138740000Y-78450000D01*
X138740000Y-76950000D01*
X139240000Y-76950000D01*
X139240000Y-76950602D01*
G37*
G36*
X138440000Y-78450000D02*
G01*
X137940000Y-78450000D01*
X137940000Y-78449398D01*
X137915466Y-78449398D01*
X137866635Y-78444588D01*
X137818510Y-78435016D01*
X137771555Y-78420772D01*
X137726222Y-78401995D01*
X137682949Y-78378864D01*
X137642150Y-78351604D01*
X137604221Y-78320476D01*
X137569524Y-78285779D01*
X137538396Y-78247850D01*
X137511136Y-78207051D01*
X137488005Y-78163778D01*
X137469228Y-78118445D01*
X137454984Y-78071490D01*
X137445412Y-78023365D01*
X137440602Y-77974534D01*
X137440602Y-77950000D01*
X137440000Y-77950000D01*
X137440000Y-77450000D01*
X137440602Y-77450000D01*
X137440602Y-77425466D01*
X137445412Y-77376635D01*
X137454984Y-77328510D01*
X137469228Y-77281555D01*
X137488005Y-77236222D01*
X137511136Y-77192949D01*
X137538396Y-77152150D01*
X137569524Y-77114221D01*
X137604221Y-77079524D01*
X137642150Y-77048396D01*
X137682949Y-77021136D01*
X137726222Y-76998005D01*
X137771555Y-76979228D01*
X137818510Y-76964984D01*
X137866635Y-76955412D01*
X137915466Y-76950602D01*
X137940000Y-76950602D01*
X137940000Y-76950000D01*
X138440000Y-76950000D01*
X138440000Y-78450000D01*
G37*
G36*
X139470000Y-82480602D02*
G01*
X139494534Y-82480602D01*
X139543365Y-82485412D01*
X139591490Y-82494984D01*
X139638445Y-82509228D01*
X139683778Y-82528005D01*
X139727051Y-82551136D01*
X139767850Y-82578396D01*
X139805779Y-82609524D01*
X139840476Y-82644221D01*
X139871604Y-82682150D01*
X139898864Y-82722949D01*
X139921995Y-82766222D01*
X139940772Y-82811555D01*
X139955016Y-82858510D01*
X139964588Y-82906635D01*
X139969398Y-82955466D01*
X139969398Y-82980000D01*
X139970000Y-82980000D01*
X139970000Y-83480000D01*
X139969398Y-83480000D01*
X139969398Y-83504534D01*
X139964588Y-83553365D01*
X139955016Y-83601490D01*
X139940772Y-83648445D01*
X139921995Y-83693778D01*
X139898864Y-83737051D01*
X139871604Y-83777850D01*
X139840476Y-83815779D01*
X139805779Y-83850476D01*
X139767850Y-83881604D01*
X139727051Y-83908864D01*
X139683778Y-83931995D01*
X139638445Y-83950772D01*
X139591490Y-83965016D01*
X139543365Y-83974588D01*
X139494534Y-83979398D01*
X139470000Y-83979398D01*
X139470000Y-83980000D01*
X138970000Y-83980000D01*
X138970000Y-82480000D01*
X139470000Y-82480000D01*
X139470000Y-82480602D01*
G37*
G36*
X138670000Y-83980000D02*
G01*
X138170000Y-83980000D01*
X138170000Y-83979398D01*
X138145466Y-83979398D01*
X138096635Y-83974588D01*
X138048510Y-83965016D01*
X138001555Y-83950772D01*
X137956222Y-83931995D01*
X137912949Y-83908864D01*
X137872150Y-83881604D01*
X137834221Y-83850476D01*
X137799524Y-83815779D01*
X137768396Y-83777850D01*
X137741136Y-83737051D01*
X137718005Y-83693778D01*
X137699228Y-83648445D01*
X137684984Y-83601490D01*
X137675412Y-83553365D01*
X137670602Y-83504534D01*
X137670602Y-83480000D01*
X137670000Y-83480000D01*
X137670000Y-82980000D01*
X137670602Y-82980000D01*
X137670602Y-82955466D01*
X137675412Y-82906635D01*
X137684984Y-82858510D01*
X137699228Y-82811555D01*
X137718005Y-82766222D01*
X137741136Y-82722949D01*
X137768396Y-82682150D01*
X137799524Y-82644221D01*
X137834221Y-82609524D01*
X137872150Y-82578396D01*
X137912949Y-82551136D01*
X137956222Y-82528005D01*
X138001555Y-82509228D01*
X138048510Y-82494984D01*
X138096635Y-82485412D01*
X138145466Y-82480602D01*
X138170000Y-82480602D01*
X138170000Y-82480000D01*
X138670000Y-82480000D01*
X138670000Y-83980000D01*
G37*
G36*
X139460000Y-87940602D02*
G01*
X139484534Y-87940602D01*
X139533365Y-87945412D01*
X139581490Y-87954984D01*
X139628445Y-87969228D01*
X139673778Y-87988005D01*
X139717051Y-88011136D01*
X139757850Y-88038396D01*
X139795779Y-88069524D01*
X139830476Y-88104221D01*
X139861604Y-88142150D01*
X139888864Y-88182949D01*
X139911995Y-88226222D01*
X139930772Y-88271555D01*
X139945016Y-88318510D01*
X139954588Y-88366635D01*
X139959398Y-88415466D01*
X139959398Y-88440000D01*
X139960000Y-88440000D01*
X139960000Y-88940000D01*
X139959398Y-88940000D01*
X139959398Y-88964534D01*
X139954588Y-89013365D01*
X139945016Y-89061490D01*
X139930772Y-89108445D01*
X139911995Y-89153778D01*
X139888864Y-89197051D01*
X139861604Y-89237850D01*
X139830476Y-89275779D01*
X139795779Y-89310476D01*
X139757850Y-89341604D01*
X139717051Y-89368864D01*
X139673778Y-89391995D01*
X139628445Y-89410772D01*
X139581490Y-89425016D01*
X139533365Y-89434588D01*
X139484534Y-89439398D01*
X139460000Y-89439398D01*
X139460000Y-89440000D01*
X138960000Y-89440000D01*
X138960000Y-87940000D01*
X139460000Y-87940000D01*
X139460000Y-87940602D01*
G37*
G36*
X138660000Y-89440000D02*
G01*
X138160000Y-89440000D01*
X138160000Y-89439398D01*
X138135466Y-89439398D01*
X138086635Y-89434588D01*
X138038510Y-89425016D01*
X137991555Y-89410772D01*
X137946222Y-89391995D01*
X137902949Y-89368864D01*
X137862150Y-89341604D01*
X137824221Y-89310476D01*
X137789524Y-89275779D01*
X137758396Y-89237850D01*
X137731136Y-89197051D01*
X137708005Y-89153778D01*
X137689228Y-89108445D01*
X137674984Y-89061490D01*
X137665412Y-89013365D01*
X137660602Y-88964534D01*
X137660602Y-88940000D01*
X137660000Y-88940000D01*
X137660000Y-88440000D01*
X137660602Y-88440000D01*
X137660602Y-88415466D01*
X137665412Y-88366635D01*
X137674984Y-88318510D01*
X137689228Y-88271555D01*
X137708005Y-88226222D01*
X137731136Y-88182949D01*
X137758396Y-88142150D01*
X137789524Y-88104221D01*
X137824221Y-88069524D01*
X137862150Y-88038396D01*
X137902949Y-88011136D01*
X137946222Y-87988005D01*
X137991555Y-87969228D01*
X138038510Y-87954984D01*
X138086635Y-87945412D01*
X138135466Y-87940602D01*
X138160000Y-87940602D01*
X138160000Y-87940000D01*
X138660000Y-87940000D01*
X138660000Y-89440000D01*
G37*
G36*
X139540000Y-93500602D02*
G01*
X139564534Y-93500602D01*
X139613365Y-93505412D01*
X139661490Y-93514984D01*
X139708445Y-93529228D01*
X139753778Y-93548005D01*
X139797051Y-93571136D01*
X139837850Y-93598396D01*
X139875779Y-93629524D01*
X139910476Y-93664221D01*
X139941604Y-93702150D01*
X139968864Y-93742949D01*
X139991995Y-93786222D01*
X140010772Y-93831555D01*
X140025016Y-93878510D01*
X140034588Y-93926635D01*
X140039398Y-93975466D01*
X140039398Y-94000000D01*
X140040000Y-94000000D01*
X140040000Y-94500000D01*
X140039398Y-94500000D01*
X140039398Y-94524534D01*
X140034588Y-94573365D01*
X140025016Y-94621490D01*
X140010772Y-94668445D01*
X139991995Y-94713778D01*
X139968864Y-94757051D01*
X139941604Y-94797850D01*
X139910476Y-94835779D01*
X139875779Y-94870476D01*
X139837850Y-94901604D01*
X139797051Y-94928864D01*
X139753778Y-94951995D01*
X139708445Y-94970772D01*
X139661490Y-94985016D01*
X139613365Y-94994588D01*
X139564534Y-94999398D01*
X139540000Y-94999398D01*
X139540000Y-95000000D01*
X139040000Y-95000000D01*
X139040000Y-93500000D01*
X139540000Y-93500000D01*
X139540000Y-93500602D01*
G37*
G36*
X138740000Y-95000000D02*
G01*
X138240000Y-95000000D01*
X138240000Y-94999398D01*
X138215466Y-94999398D01*
X138166635Y-94994588D01*
X138118510Y-94985016D01*
X138071555Y-94970772D01*
X138026222Y-94951995D01*
X137982949Y-94928864D01*
X137942150Y-94901604D01*
X137904221Y-94870476D01*
X137869524Y-94835779D01*
X137838396Y-94797850D01*
X137811136Y-94757051D01*
X137788005Y-94713778D01*
X137769228Y-94668445D01*
X137754984Y-94621490D01*
X137745412Y-94573365D01*
X137740602Y-94524534D01*
X137740602Y-94500000D01*
X137740000Y-94500000D01*
X137740000Y-94000000D01*
X137740602Y-94000000D01*
X137740602Y-93975466D01*
X137745412Y-93926635D01*
X137754984Y-93878510D01*
X137769228Y-93831555D01*
X137788005Y-93786222D01*
X137811136Y-93742949D01*
X137838396Y-93702150D01*
X137869524Y-93664221D01*
X137904221Y-93629524D01*
X137942150Y-93598396D01*
X137982949Y-93571136D01*
X138026222Y-93548005D01*
X138071555Y-93529228D01*
X138118510Y-93514984D01*
X138166635Y-93505412D01*
X138215466Y-93500602D01*
X138240000Y-93500602D01*
X138240000Y-93500000D01*
X138740000Y-93500000D01*
X138740000Y-95000000D01*
G37*
G36*
X139510000Y-98970602D02*
G01*
X139534534Y-98970602D01*
X139583365Y-98975412D01*
X139631490Y-98984984D01*
X139678445Y-98999228D01*
X139723778Y-99018005D01*
X139767051Y-99041136D01*
X139807850Y-99068396D01*
X139845779Y-99099524D01*
X139880476Y-99134221D01*
X139911604Y-99172150D01*
X139938864Y-99212949D01*
X139961995Y-99256222D01*
X139980772Y-99301555D01*
X139995016Y-99348510D01*
X140004588Y-99396635D01*
X140009398Y-99445466D01*
X140009398Y-99470000D01*
X140010000Y-99470000D01*
X140010000Y-99970000D01*
X140009398Y-99970000D01*
X140009398Y-99994534D01*
X140004588Y-100043365D01*
X139995016Y-100091490D01*
X139980772Y-100138445D01*
X139961995Y-100183778D01*
X139938864Y-100227051D01*
X139911604Y-100267850D01*
X139880476Y-100305779D01*
X139845779Y-100340476D01*
X139807850Y-100371604D01*
X139767051Y-100398864D01*
X139723778Y-100421995D01*
X139678445Y-100440772D01*
X139631490Y-100455016D01*
X139583365Y-100464588D01*
X139534534Y-100469398D01*
X139510000Y-100469398D01*
X139510000Y-100470000D01*
X139010000Y-100470000D01*
X139010000Y-98970000D01*
X139510000Y-98970000D01*
X139510000Y-98970602D01*
G37*
G36*
X138710000Y-100470000D02*
G01*
X138210000Y-100470000D01*
X138210000Y-100469398D01*
X138185466Y-100469398D01*
X138136635Y-100464588D01*
X138088510Y-100455016D01*
X138041555Y-100440772D01*
X137996222Y-100421995D01*
X137952949Y-100398864D01*
X137912150Y-100371604D01*
X137874221Y-100340476D01*
X137839524Y-100305779D01*
X137808396Y-100267850D01*
X137781136Y-100227051D01*
X137758005Y-100183778D01*
X137739228Y-100138445D01*
X137724984Y-100091490D01*
X137715412Y-100043365D01*
X137710602Y-99994534D01*
X137710602Y-99970000D01*
X137710000Y-99970000D01*
X137710000Y-99470000D01*
X137710602Y-99470000D01*
X137710602Y-99445466D01*
X137715412Y-99396635D01*
X137724984Y-99348510D01*
X137739228Y-99301555D01*
X137758005Y-99256222D01*
X137781136Y-99212949D01*
X137808396Y-99172150D01*
X137839524Y-99134221D01*
X137874221Y-99099524D01*
X137912150Y-99068396D01*
X137952949Y-99041136D01*
X137996222Y-99018005D01*
X138041555Y-98999228D01*
X138088510Y-98984984D01*
X138136635Y-98975412D01*
X138185466Y-98970602D01*
X138210000Y-98970602D01*
X138210000Y-98970000D01*
X138710000Y-98970000D01*
X138710000Y-100470000D01*
G37*
G36*
X139440000Y-104670602D02*
G01*
X139464534Y-104670602D01*
X139513365Y-104675412D01*
X139561490Y-104684984D01*
X139608445Y-104699228D01*
X139653778Y-104718005D01*
X139697051Y-104741136D01*
X139737850Y-104768396D01*
X139775779Y-104799524D01*
X139810476Y-104834221D01*
X139841604Y-104872150D01*
X139868864Y-104912949D01*
X139891995Y-104956222D01*
X139910772Y-105001555D01*
X139925016Y-105048510D01*
X139934588Y-105096635D01*
X139939398Y-105145466D01*
X139939398Y-105170000D01*
X139940000Y-105170000D01*
X139940000Y-105670000D01*
X139939398Y-105670000D01*
X139939398Y-105694534D01*
X139934588Y-105743365D01*
X139925016Y-105791490D01*
X139910772Y-105838445D01*
X139891995Y-105883778D01*
X139868864Y-105927051D01*
X139841604Y-105967850D01*
X139810476Y-106005779D01*
X139775779Y-106040476D01*
X139737850Y-106071604D01*
X139697051Y-106098864D01*
X139653778Y-106121995D01*
X139608445Y-106140772D01*
X139561490Y-106155016D01*
X139513365Y-106164588D01*
X139464534Y-106169398D01*
X139440000Y-106169398D01*
X139440000Y-106170000D01*
X138940000Y-106170000D01*
X138940000Y-104670000D01*
X139440000Y-104670000D01*
X139440000Y-104670602D01*
G37*
G36*
X138640000Y-106170000D02*
G01*
X138140000Y-106170000D01*
X138140000Y-106169398D01*
X138115466Y-106169398D01*
X138066635Y-106164588D01*
X138018510Y-106155016D01*
X137971555Y-106140772D01*
X137926222Y-106121995D01*
X137882949Y-106098864D01*
X137842150Y-106071604D01*
X137804221Y-106040476D01*
X137769524Y-106005779D01*
X137738396Y-105967850D01*
X137711136Y-105927051D01*
X137688005Y-105883778D01*
X137669228Y-105838445D01*
X137654984Y-105791490D01*
X137645412Y-105743365D01*
X137640602Y-105694534D01*
X137640602Y-105670000D01*
X137640000Y-105670000D01*
X137640000Y-105170000D01*
X137640602Y-105170000D01*
X137640602Y-105145466D01*
X137645412Y-105096635D01*
X137654984Y-105048510D01*
X137669228Y-105001555D01*
X137688005Y-104956222D01*
X137711136Y-104912949D01*
X137738396Y-104872150D01*
X137769524Y-104834221D01*
X137804221Y-104799524D01*
X137842150Y-104768396D01*
X137882949Y-104741136D01*
X137926222Y-104718005D01*
X137971555Y-104699228D01*
X138018510Y-104684984D01*
X138066635Y-104675412D01*
X138115466Y-104670602D01*
X138140000Y-104670602D01*
X138140000Y-104670000D01*
X138640000Y-104670000D01*
X138640000Y-106170000D01*
G37*
G36*
X139650000Y-110190602D02*
G01*
X139674534Y-110190602D01*
X139723365Y-110195412D01*
X139771490Y-110204984D01*
X139818445Y-110219228D01*
X139863778Y-110238005D01*
X139907051Y-110261136D01*
X139947850Y-110288396D01*
X139985779Y-110319524D01*
X140020476Y-110354221D01*
X140051604Y-110392150D01*
X140078864Y-110432949D01*
X140101995Y-110476222D01*
X140120772Y-110521555D01*
X140135016Y-110568510D01*
X140144588Y-110616635D01*
X140149398Y-110665466D01*
X140149398Y-110690000D01*
X140150000Y-110690000D01*
X140150000Y-111190000D01*
X140149398Y-111190000D01*
X140149398Y-111214534D01*
X140144588Y-111263365D01*
X140135016Y-111311490D01*
X140120772Y-111358445D01*
X140101995Y-111403778D01*
X140078864Y-111447051D01*
X140051604Y-111487850D01*
X140020476Y-111525779D01*
X139985779Y-111560476D01*
X139947850Y-111591604D01*
X139907051Y-111618864D01*
X139863778Y-111641995D01*
X139818445Y-111660772D01*
X139771490Y-111675016D01*
X139723365Y-111684588D01*
X139674534Y-111689398D01*
X139650000Y-111689398D01*
X139650000Y-111690000D01*
X139150000Y-111690000D01*
X139150000Y-110190000D01*
X139650000Y-110190000D01*
X139650000Y-110190602D01*
G37*
G36*
X138850000Y-111690000D02*
G01*
X138350000Y-111690000D01*
X138350000Y-111689398D01*
X138325466Y-111689398D01*
X138276635Y-111684588D01*
X138228510Y-111675016D01*
X138181555Y-111660772D01*
X138136222Y-111641995D01*
X138092949Y-111618864D01*
X138052150Y-111591604D01*
X138014221Y-111560476D01*
X137979524Y-111525779D01*
X137948396Y-111487850D01*
X137921136Y-111447051D01*
X137898005Y-111403778D01*
X137879228Y-111358445D01*
X137864984Y-111311490D01*
X137855412Y-111263365D01*
X137850602Y-111214534D01*
X137850602Y-111190000D01*
X137850000Y-111190000D01*
X137850000Y-110690000D01*
X137850602Y-110690000D01*
X137850602Y-110665466D01*
X137855412Y-110616635D01*
X137864984Y-110568510D01*
X137879228Y-110521555D01*
X137898005Y-110476222D01*
X137921136Y-110432949D01*
X137948396Y-110392150D01*
X137979524Y-110354221D01*
X138014221Y-110319524D01*
X138052150Y-110288396D01*
X138092949Y-110261136D01*
X138136222Y-110238005D01*
X138181555Y-110219228D01*
X138228510Y-110204984D01*
X138276635Y-110195412D01*
X138325466Y-110190602D01*
X138350000Y-110190602D01*
X138350000Y-110190000D01*
X138850000Y-110190000D01*
X138850000Y-111690000D01*
G37*
G36*
X139540000Y-115680602D02*
G01*
X139564534Y-115680602D01*
X139613365Y-115685412D01*
X139661490Y-115694984D01*
X139708445Y-115709228D01*
X139753778Y-115728005D01*
X139797051Y-115751136D01*
X139837850Y-115778396D01*
X139875779Y-115809524D01*
X139910476Y-115844221D01*
X139941604Y-115882150D01*
X139968864Y-115922949D01*
X139991995Y-115966222D01*
X140010772Y-116011555D01*
X140025016Y-116058510D01*
X140034588Y-116106635D01*
X140039398Y-116155466D01*
X140039398Y-116180000D01*
X140040000Y-116180000D01*
X140040000Y-116680000D01*
X140039398Y-116680000D01*
X140039398Y-116704534D01*
X140034588Y-116753365D01*
X140025016Y-116801490D01*
X140010772Y-116848445D01*
X139991995Y-116893778D01*
X139968864Y-116937051D01*
X139941604Y-116977850D01*
X139910476Y-117015779D01*
X139875779Y-117050476D01*
X139837850Y-117081604D01*
X139797051Y-117108864D01*
X139753778Y-117131995D01*
X139708445Y-117150772D01*
X139661490Y-117165016D01*
X139613365Y-117174588D01*
X139564534Y-117179398D01*
X139540000Y-117179398D01*
X139540000Y-117180000D01*
X139040000Y-117180000D01*
X139040000Y-115680000D01*
X139540000Y-115680000D01*
X139540000Y-115680602D01*
G37*
G36*
X138740000Y-117180000D02*
G01*
X138240000Y-117180000D01*
X138240000Y-117179398D01*
X138215466Y-117179398D01*
X138166635Y-117174588D01*
X138118510Y-117165016D01*
X138071555Y-117150772D01*
X138026222Y-117131995D01*
X137982949Y-117108864D01*
X137942150Y-117081604D01*
X137904221Y-117050476D01*
X137869524Y-117015779D01*
X137838396Y-116977850D01*
X137811136Y-116937051D01*
X137788005Y-116893778D01*
X137769228Y-116848445D01*
X137754984Y-116801490D01*
X137745412Y-116753365D01*
X137740602Y-116704534D01*
X137740602Y-116680000D01*
X137740000Y-116680000D01*
X137740000Y-116180000D01*
X137740602Y-116180000D01*
X137740602Y-116155466D01*
X137745412Y-116106635D01*
X137754984Y-116058510D01*
X137769228Y-116011555D01*
X137788005Y-115966222D01*
X137811136Y-115922949D01*
X137838396Y-115882150D01*
X137869524Y-115844221D01*
X137904221Y-115809524D01*
X137942150Y-115778396D01*
X137982949Y-115751136D01*
X138026222Y-115728005D01*
X138071555Y-115709228D01*
X138118510Y-115694984D01*
X138166635Y-115685412D01*
X138215466Y-115680602D01*
X138240000Y-115680602D01*
X138240000Y-115680000D01*
X138740000Y-115680000D01*
X138740000Y-117180000D01*
G37*
G36*
X139510000Y-121190602D02*
G01*
X139534534Y-121190602D01*
X139583365Y-121195412D01*
X139631490Y-121204984D01*
X139678445Y-121219228D01*
X139723778Y-121238005D01*
X139767051Y-121261136D01*
X139807850Y-121288396D01*
X139845779Y-121319524D01*
X139880476Y-121354221D01*
X139911604Y-121392150D01*
X139938864Y-121432949D01*
X139961995Y-121476222D01*
X139980772Y-121521555D01*
X139995016Y-121568510D01*
X140004588Y-121616635D01*
X140009398Y-121665466D01*
X140009398Y-121690000D01*
X140010000Y-121690000D01*
X140010000Y-122190000D01*
X140009398Y-122190000D01*
X140009398Y-122214534D01*
X140004588Y-122263365D01*
X139995016Y-122311490D01*
X139980772Y-122358445D01*
X139961995Y-122403778D01*
X139938864Y-122447051D01*
X139911604Y-122487850D01*
X139880476Y-122525779D01*
X139845779Y-122560476D01*
X139807850Y-122591604D01*
X139767051Y-122618864D01*
X139723778Y-122641995D01*
X139678445Y-122660772D01*
X139631490Y-122675016D01*
X139583365Y-122684588D01*
X139534534Y-122689398D01*
X139510000Y-122689398D01*
X139510000Y-122690000D01*
X139010000Y-122690000D01*
X139010000Y-121190000D01*
X139510000Y-121190000D01*
X139510000Y-121190602D01*
G37*
G36*
X138710000Y-122690000D02*
G01*
X138210000Y-122690000D01*
X138210000Y-122689398D01*
X138185466Y-122689398D01*
X138136635Y-122684588D01*
X138088510Y-122675016D01*
X138041555Y-122660772D01*
X137996222Y-122641995D01*
X137952949Y-122618864D01*
X137912150Y-122591604D01*
X137874221Y-122560476D01*
X137839524Y-122525779D01*
X137808396Y-122487850D01*
X137781136Y-122447051D01*
X137758005Y-122403778D01*
X137739228Y-122358445D01*
X137724984Y-122311490D01*
X137715412Y-122263365D01*
X137710602Y-122214534D01*
X137710602Y-122190000D01*
X137710000Y-122190000D01*
X137710000Y-121690000D01*
X137710602Y-121690000D01*
X137710602Y-121665466D01*
X137715412Y-121616635D01*
X137724984Y-121568510D01*
X137739228Y-121521555D01*
X137758005Y-121476222D01*
X137781136Y-121432949D01*
X137808396Y-121392150D01*
X137839524Y-121354221D01*
X137874221Y-121319524D01*
X137912150Y-121288396D01*
X137952949Y-121261136D01*
X137996222Y-121238005D01*
X138041555Y-121219228D01*
X138088510Y-121204984D01*
X138136635Y-121195412D01*
X138185466Y-121190602D01*
X138210000Y-121190602D01*
X138210000Y-121190000D01*
X138710000Y-121190000D01*
X138710000Y-122690000D01*
G37*
G36*
X139440000Y-126670602D02*
G01*
X139464534Y-126670602D01*
X139513365Y-126675412D01*
X139561490Y-126684984D01*
X139608445Y-126699228D01*
X139653778Y-126718005D01*
X139697051Y-126741136D01*
X139737850Y-126768396D01*
X139775779Y-126799524D01*
X139810476Y-126834221D01*
X139841604Y-126872150D01*
X139868864Y-126912949D01*
X139891995Y-126956222D01*
X139910772Y-127001555D01*
X139925016Y-127048510D01*
X139934588Y-127096635D01*
X139939398Y-127145466D01*
X139939398Y-127170000D01*
X139940000Y-127170000D01*
X139940000Y-127670000D01*
X139939398Y-127670000D01*
X139939398Y-127694534D01*
X139934588Y-127743365D01*
X139925016Y-127791490D01*
X139910772Y-127838445D01*
X139891995Y-127883778D01*
X139868864Y-127927051D01*
X139841604Y-127967850D01*
X139810476Y-128005779D01*
X139775779Y-128040476D01*
X139737850Y-128071604D01*
X139697051Y-128098864D01*
X139653778Y-128121995D01*
X139608445Y-128140772D01*
X139561490Y-128155016D01*
X139513365Y-128164588D01*
X139464534Y-128169398D01*
X139440000Y-128169398D01*
X139440000Y-128170000D01*
X138940000Y-128170000D01*
X138940000Y-126670000D01*
X139440000Y-126670000D01*
X139440000Y-126670602D01*
G37*
G36*
X138640000Y-128170000D02*
G01*
X138140000Y-128170000D01*
X138140000Y-128169398D01*
X138115466Y-128169398D01*
X138066635Y-128164588D01*
X138018510Y-128155016D01*
X137971555Y-128140772D01*
X137926222Y-128121995D01*
X137882949Y-128098864D01*
X137842150Y-128071604D01*
X137804221Y-128040476D01*
X137769524Y-128005779D01*
X137738396Y-127967850D01*
X137711136Y-127927051D01*
X137688005Y-127883778D01*
X137669228Y-127838445D01*
X137654984Y-127791490D01*
X137645412Y-127743365D01*
X137640602Y-127694534D01*
X137640602Y-127670000D01*
X137640000Y-127670000D01*
X137640000Y-127170000D01*
X137640602Y-127170000D01*
X137640602Y-127145466D01*
X137645412Y-127096635D01*
X137654984Y-127048510D01*
X137669228Y-127001555D01*
X137688005Y-126956222D01*
X137711136Y-126912949D01*
X137738396Y-126872150D01*
X137769524Y-126834221D01*
X137804221Y-126799524D01*
X137842150Y-126768396D01*
X137882949Y-126741136D01*
X137926222Y-126718005D01*
X137971555Y-126699228D01*
X138018510Y-126684984D01*
X138066635Y-126675412D01*
X138115466Y-126670602D01*
X138140000Y-126670602D01*
X138140000Y-126670000D01*
X138640000Y-126670000D01*
X138640000Y-128170000D01*
G37*
G36*
X145740000Y-93889398D02*
G01*
X145715466Y-93889398D01*
X145666635Y-93884588D01*
X145618510Y-93875016D01*
X145571555Y-93860772D01*
X145526222Y-93841995D01*
X145482949Y-93818864D01*
X145442150Y-93791604D01*
X145404221Y-93760476D01*
X145369524Y-93725779D01*
X145338396Y-93687850D01*
X145311136Y-93647051D01*
X145288005Y-93603778D01*
X145269228Y-93558445D01*
X145254984Y-93511490D01*
X145245412Y-93463365D01*
X145240602Y-93414534D01*
X145240602Y-93390000D01*
X145240000Y-93390000D01*
X145240000Y-92890000D01*
X145240602Y-92890000D01*
X145240602Y-92865466D01*
X145245412Y-92816635D01*
X145254984Y-92768510D01*
X145269228Y-92721555D01*
X145288005Y-92676222D01*
X145311136Y-92632949D01*
X145338396Y-92592150D01*
X145369524Y-92554221D01*
X145404221Y-92519524D01*
X145442150Y-92488396D01*
X145482949Y-92461136D01*
X145526222Y-92438005D01*
X145571555Y-92419228D01*
X145618510Y-92404984D01*
X145666635Y-92395412D01*
X145715466Y-92390602D01*
X145740000Y-92390602D01*
X145740000Y-92390000D01*
X146240000Y-92390000D01*
X146240000Y-93890000D01*
X145740000Y-93890000D01*
X145740000Y-93889398D01*
G37*
G36*
X146540000Y-92390000D02*
G01*
X147040000Y-92390000D01*
X147040000Y-92390602D01*
X147064534Y-92390602D01*
X147113365Y-92395412D01*
X147161490Y-92404984D01*
X147208445Y-92419228D01*
X147253778Y-92438005D01*
X147297051Y-92461136D01*
X147337850Y-92488396D01*
X147375779Y-92519524D01*
X147410476Y-92554221D01*
X147441604Y-92592150D01*
X147468864Y-92632949D01*
X147491995Y-92676222D01*
X147510772Y-92721555D01*
X147525016Y-92768510D01*
X147534588Y-92816635D01*
X147539398Y-92865466D01*
X147539398Y-92890000D01*
X147540000Y-92890000D01*
X147540000Y-93390000D01*
X147539398Y-93390000D01*
X147539398Y-93414534D01*
X147534588Y-93463365D01*
X147525016Y-93511490D01*
X147510772Y-93558445D01*
X147491995Y-93603778D01*
X147468864Y-93647051D01*
X147441604Y-93687850D01*
X147410476Y-93725779D01*
X147375779Y-93760476D01*
X147337850Y-93791604D01*
X147297051Y-93818864D01*
X147253778Y-93841995D01*
X147208445Y-93860772D01*
X147161490Y-93875016D01*
X147113365Y-93884588D01*
X147064534Y-93889398D01*
X147040000Y-93889398D01*
X147040000Y-93890000D01*
X146540000Y-93890000D01*
X146540000Y-92390000D01*
G37*
G36*
X145690000Y-103079398D02*
G01*
X145665466Y-103079398D01*
X145616635Y-103074588D01*
X145568510Y-103065016D01*
X145521555Y-103050772D01*
X145476222Y-103031995D01*
X145432949Y-103008864D01*
X145392150Y-102981604D01*
X145354221Y-102950476D01*
X145319524Y-102915779D01*
X145288396Y-102877850D01*
X145261136Y-102837051D01*
X145238005Y-102793778D01*
X145219228Y-102748445D01*
X145204984Y-102701490D01*
X145195412Y-102653365D01*
X145190602Y-102604534D01*
X145190602Y-102580000D01*
X145190000Y-102580000D01*
X145190000Y-102080000D01*
X145190602Y-102080000D01*
X145190602Y-102055466D01*
X145195412Y-102006635D01*
X145204984Y-101958510D01*
X145219228Y-101911555D01*
X145238005Y-101866222D01*
X145261136Y-101822949D01*
X145288396Y-101782150D01*
X145319524Y-101744221D01*
X145354221Y-101709524D01*
X145392150Y-101678396D01*
X145432949Y-101651136D01*
X145476222Y-101628005D01*
X145521555Y-101609228D01*
X145568510Y-101594984D01*
X145616635Y-101585412D01*
X145665466Y-101580602D01*
X145690000Y-101580602D01*
X145690000Y-101580000D01*
X146190000Y-101580000D01*
X146190000Y-103080000D01*
X145690000Y-103080000D01*
X145690000Y-103079398D01*
G37*
G36*
X146490000Y-101580000D02*
G01*
X146990000Y-101580000D01*
X146990000Y-101580602D01*
X147014534Y-101580602D01*
X147063365Y-101585412D01*
X147111490Y-101594984D01*
X147158445Y-101609228D01*
X147203778Y-101628005D01*
X147247051Y-101651136D01*
X147287850Y-101678396D01*
X147325779Y-101709524D01*
X147360476Y-101744221D01*
X147391604Y-101782150D01*
X147418864Y-101822949D01*
X147441995Y-101866222D01*
X147460772Y-101911555D01*
X147475016Y-101958510D01*
X147484588Y-102006635D01*
X147489398Y-102055466D01*
X147489398Y-102080000D01*
X147490000Y-102080000D01*
X147490000Y-102580000D01*
X147489398Y-102580000D01*
X147489398Y-102604534D01*
X147484588Y-102653365D01*
X147475016Y-102701490D01*
X147460772Y-102748445D01*
X147441995Y-102793778D01*
X147418864Y-102837051D01*
X147391604Y-102877850D01*
X147360476Y-102915779D01*
X147325779Y-102950476D01*
X147287850Y-102981604D01*
X147247051Y-103008864D01*
X147203778Y-103031995D01*
X147158445Y-103050772D01*
X147111490Y-103065016D01*
X147063365Y-103074588D01*
X147014534Y-103079398D01*
X146990000Y-103079398D01*
X146990000Y-103080000D01*
X146490000Y-103080000D01*
X146490000Y-101580000D01*
G37*
D15*
X153100000Y-89170000D03*
D10*
G36*
X153849398Y-90470000D02*
G01*
X153849398Y-90494534D01*
X153844588Y-90543365D01*
X153835016Y-90591490D01*
X153820772Y-90638445D01*
X153801995Y-90683778D01*
X153778864Y-90727051D01*
X153751604Y-90767850D01*
X153720476Y-90805779D01*
X153685779Y-90840476D01*
X153647850Y-90871604D01*
X153607051Y-90898864D01*
X153563778Y-90921995D01*
X153518445Y-90940772D01*
X153471490Y-90955016D01*
X153423365Y-90964588D01*
X153374534Y-90969398D01*
X153350000Y-90969398D01*
X153350000Y-90970000D01*
X152850000Y-90970000D01*
X152850000Y-90969398D01*
X152825466Y-90969398D01*
X152776635Y-90964588D01*
X152728510Y-90955016D01*
X152681555Y-90940772D01*
X152636222Y-90921995D01*
X152592949Y-90898864D01*
X152552150Y-90871604D01*
X152514221Y-90840476D01*
X152479524Y-90805779D01*
X152448396Y-90767850D01*
X152421136Y-90727051D01*
X152398005Y-90683778D01*
X152379228Y-90638445D01*
X152364984Y-90591490D01*
X152355412Y-90543365D01*
X152350602Y-90494534D01*
X152350602Y-90470000D01*
X152350000Y-90470000D01*
X152350000Y-89920000D01*
X153850000Y-89920000D01*
X153850000Y-90470000D01*
X153849398Y-90470000D01*
G37*
G36*
X152350000Y-88420000D02*
G01*
X152350000Y-87870000D01*
X152350602Y-87870000D01*
X152350602Y-87845466D01*
X152355412Y-87796635D01*
X152364984Y-87748510D01*
X152379228Y-87701555D01*
X152398005Y-87656222D01*
X152421136Y-87612949D01*
X152448396Y-87572150D01*
X152479524Y-87534221D01*
X152514221Y-87499524D01*
X152552150Y-87468396D01*
X152592949Y-87441136D01*
X152636222Y-87418005D01*
X152681555Y-87399228D01*
X152728510Y-87384984D01*
X152776635Y-87375412D01*
X152825466Y-87370602D01*
X152850000Y-87370602D01*
X152850000Y-87370000D01*
X153350000Y-87370000D01*
X153350000Y-87370602D01*
X153374534Y-87370602D01*
X153423365Y-87375412D01*
X153471490Y-87384984D01*
X153518445Y-87399228D01*
X153563778Y-87418005D01*
X153607051Y-87441136D01*
X153647850Y-87468396D01*
X153685779Y-87499524D01*
X153720476Y-87534221D01*
X153751604Y-87572150D01*
X153778864Y-87612949D01*
X153801995Y-87656222D01*
X153820772Y-87701555D01*
X153835016Y-87748510D01*
X153844588Y-87796635D01*
X153849398Y-87845466D01*
X153849398Y-87870000D01*
X153850000Y-87870000D01*
X153850000Y-88420000D01*
X152350000Y-88420000D01*
G37*
D15*
X153150000Y-98280000D03*
D10*
G36*
X153899398Y-99580000D02*
G01*
X153899398Y-99604534D01*
X153894588Y-99653365D01*
X153885016Y-99701490D01*
X153870772Y-99748445D01*
X153851995Y-99793778D01*
X153828864Y-99837051D01*
X153801604Y-99877850D01*
X153770476Y-99915779D01*
X153735779Y-99950476D01*
X153697850Y-99981604D01*
X153657051Y-100008864D01*
X153613778Y-100031995D01*
X153568445Y-100050772D01*
X153521490Y-100065016D01*
X153473365Y-100074588D01*
X153424534Y-100079398D01*
X153400000Y-100079398D01*
X153400000Y-100080000D01*
X152900000Y-100080000D01*
X152900000Y-100079398D01*
X152875466Y-100079398D01*
X152826635Y-100074588D01*
X152778510Y-100065016D01*
X152731555Y-100050772D01*
X152686222Y-100031995D01*
X152642949Y-100008864D01*
X152602150Y-99981604D01*
X152564221Y-99950476D01*
X152529524Y-99915779D01*
X152498396Y-99877850D01*
X152471136Y-99837051D01*
X152448005Y-99793778D01*
X152429228Y-99748445D01*
X152414984Y-99701490D01*
X152405412Y-99653365D01*
X152400602Y-99604534D01*
X152400602Y-99580000D01*
X152400000Y-99580000D01*
X152400000Y-99030000D01*
X153900000Y-99030000D01*
X153900000Y-99580000D01*
X153899398Y-99580000D01*
G37*
G36*
X152400000Y-97530000D02*
G01*
X152400000Y-96980000D01*
X152400602Y-96980000D01*
X152400602Y-96955466D01*
X152405412Y-96906635D01*
X152414984Y-96858510D01*
X152429228Y-96811555D01*
X152448005Y-96766222D01*
X152471136Y-96722949D01*
X152498396Y-96682150D01*
X152529524Y-96644221D01*
X152564221Y-96609524D01*
X152602150Y-96578396D01*
X152642949Y-96551136D01*
X152686222Y-96528005D01*
X152731555Y-96509228D01*
X152778510Y-96494984D01*
X152826635Y-96485412D01*
X152875466Y-96480602D01*
X152900000Y-96480602D01*
X152900000Y-96480000D01*
X153400000Y-96480000D01*
X153400000Y-96480602D01*
X153424534Y-96480602D01*
X153473365Y-96485412D01*
X153521490Y-96494984D01*
X153568445Y-96509228D01*
X153613778Y-96528005D01*
X153657051Y-96551136D01*
X153697850Y-96578396D01*
X153735779Y-96609524D01*
X153770476Y-96644221D01*
X153801604Y-96682150D01*
X153828864Y-96722949D01*
X153851995Y-96766222D01*
X153870772Y-96811555D01*
X153885016Y-96858510D01*
X153894588Y-96906635D01*
X153899398Y-96955466D01*
X153899398Y-96980000D01*
X153900000Y-96980000D01*
X153900000Y-97530000D01*
X152400000Y-97530000D01*
G37*
G36*
X145750000Y-112149398D02*
G01*
X145725466Y-112149398D01*
X145676635Y-112144588D01*
X145628510Y-112135016D01*
X145581555Y-112120772D01*
X145536222Y-112101995D01*
X145492949Y-112078864D01*
X145452150Y-112051604D01*
X145414221Y-112020476D01*
X145379524Y-111985779D01*
X145348396Y-111947850D01*
X145321136Y-111907051D01*
X145298005Y-111863778D01*
X145279228Y-111818445D01*
X145264984Y-111771490D01*
X145255412Y-111723365D01*
X145250602Y-111674534D01*
X145250602Y-111650000D01*
X145250000Y-111650000D01*
X145250000Y-111150000D01*
X145250602Y-111150000D01*
X145250602Y-111125466D01*
X145255412Y-111076635D01*
X145264984Y-111028510D01*
X145279228Y-110981555D01*
X145298005Y-110936222D01*
X145321136Y-110892949D01*
X145348396Y-110852150D01*
X145379524Y-110814221D01*
X145414221Y-110779524D01*
X145452150Y-110748396D01*
X145492949Y-110721136D01*
X145536222Y-110698005D01*
X145581555Y-110679228D01*
X145628510Y-110664984D01*
X145676635Y-110655412D01*
X145725466Y-110650602D01*
X145750000Y-110650602D01*
X145750000Y-110650000D01*
X146250000Y-110650000D01*
X146250000Y-112150000D01*
X145750000Y-112150000D01*
X145750000Y-112149398D01*
G37*
G36*
X146550000Y-110650000D02*
G01*
X147050000Y-110650000D01*
X147050000Y-110650602D01*
X147074534Y-110650602D01*
X147123365Y-110655412D01*
X147171490Y-110664984D01*
X147218445Y-110679228D01*
X147263778Y-110698005D01*
X147307051Y-110721136D01*
X147347850Y-110748396D01*
X147385779Y-110779524D01*
X147420476Y-110814221D01*
X147451604Y-110852150D01*
X147478864Y-110892949D01*
X147501995Y-110936222D01*
X147520772Y-110981555D01*
X147535016Y-111028510D01*
X147544588Y-111076635D01*
X147549398Y-111125466D01*
X147549398Y-111150000D01*
X147550000Y-111150000D01*
X147550000Y-111650000D01*
X147549398Y-111650000D01*
X147549398Y-111674534D01*
X147544588Y-111723365D01*
X147535016Y-111771490D01*
X147520772Y-111818445D01*
X147501995Y-111863778D01*
X147478864Y-111907051D01*
X147451604Y-111947850D01*
X147420476Y-111985779D01*
X147385779Y-112020476D01*
X147347850Y-112051604D01*
X147307051Y-112078864D01*
X147263778Y-112101995D01*
X147218445Y-112120772D01*
X147171490Y-112135016D01*
X147123365Y-112144588D01*
X147074534Y-112149398D01*
X147050000Y-112149398D01*
X147050000Y-112150000D01*
X146550000Y-112150000D01*
X146550000Y-110650000D01*
G37*
G36*
X145770000Y-121329398D02*
G01*
X145745466Y-121329398D01*
X145696635Y-121324588D01*
X145648510Y-121315016D01*
X145601555Y-121300772D01*
X145556222Y-121281995D01*
X145512949Y-121258864D01*
X145472150Y-121231604D01*
X145434221Y-121200476D01*
X145399524Y-121165779D01*
X145368396Y-121127850D01*
X145341136Y-121087051D01*
X145318005Y-121043778D01*
X145299228Y-120998445D01*
X145284984Y-120951490D01*
X145275412Y-120903365D01*
X145270602Y-120854534D01*
X145270602Y-120830000D01*
X145270000Y-120830000D01*
X145270000Y-120330000D01*
X145270602Y-120330000D01*
X145270602Y-120305466D01*
X145275412Y-120256635D01*
X145284984Y-120208510D01*
X145299228Y-120161555D01*
X145318005Y-120116222D01*
X145341136Y-120072949D01*
X145368396Y-120032150D01*
X145399524Y-119994221D01*
X145434221Y-119959524D01*
X145472150Y-119928396D01*
X145512949Y-119901136D01*
X145556222Y-119878005D01*
X145601555Y-119859228D01*
X145648510Y-119844984D01*
X145696635Y-119835412D01*
X145745466Y-119830602D01*
X145770000Y-119830602D01*
X145770000Y-119830000D01*
X146270000Y-119830000D01*
X146270000Y-121330000D01*
X145770000Y-121330000D01*
X145770000Y-121329398D01*
G37*
G36*
X146570000Y-119830000D02*
G01*
X147070000Y-119830000D01*
X147070000Y-119830602D01*
X147094534Y-119830602D01*
X147143365Y-119835412D01*
X147191490Y-119844984D01*
X147238445Y-119859228D01*
X147283778Y-119878005D01*
X147327051Y-119901136D01*
X147367850Y-119928396D01*
X147405779Y-119959524D01*
X147440476Y-119994221D01*
X147471604Y-120032150D01*
X147498864Y-120072949D01*
X147521995Y-120116222D01*
X147540772Y-120161555D01*
X147555016Y-120208510D01*
X147564588Y-120256635D01*
X147569398Y-120305466D01*
X147569398Y-120330000D01*
X147570000Y-120330000D01*
X147570000Y-120830000D01*
X147569398Y-120830000D01*
X147569398Y-120854534D01*
X147564588Y-120903365D01*
X147555016Y-120951490D01*
X147540772Y-120998445D01*
X147521995Y-121043778D01*
X147498864Y-121087051D01*
X147471604Y-121127850D01*
X147440476Y-121165779D01*
X147405779Y-121200476D01*
X147367850Y-121231604D01*
X147327051Y-121258864D01*
X147283778Y-121281995D01*
X147238445Y-121300772D01*
X147191490Y-121315016D01*
X147143365Y-121324588D01*
X147094534Y-121329398D01*
X147070000Y-121329398D01*
X147070000Y-121330000D01*
X146570000Y-121330000D01*
X146570000Y-119830000D01*
G37*
G36*
X146030000Y-134759398D02*
G01*
X146005466Y-134759398D01*
X145956635Y-134754588D01*
X145908510Y-134745016D01*
X145861555Y-134730772D01*
X145816222Y-134711995D01*
X145772949Y-134688864D01*
X145732150Y-134661604D01*
X145694221Y-134630476D01*
X145659524Y-134595779D01*
X145628396Y-134557850D01*
X145601136Y-134517051D01*
X145578005Y-134473778D01*
X145559228Y-134428445D01*
X145544984Y-134381490D01*
X145535412Y-134333365D01*
X145530602Y-134284534D01*
X145530602Y-134260000D01*
X145530000Y-134260000D01*
X145530000Y-133760000D01*
X145530602Y-133760000D01*
X145530602Y-133735466D01*
X145535412Y-133686635D01*
X145544984Y-133638510D01*
X145559228Y-133591555D01*
X145578005Y-133546222D01*
X145601136Y-133502949D01*
X145628396Y-133462150D01*
X145659524Y-133424221D01*
X145694221Y-133389524D01*
X145732150Y-133358396D01*
X145772949Y-133331136D01*
X145816222Y-133308005D01*
X145861555Y-133289228D01*
X145908510Y-133274984D01*
X145956635Y-133265412D01*
X146005466Y-133260602D01*
X146030000Y-133260602D01*
X146030000Y-133260000D01*
X146530000Y-133260000D01*
X146530000Y-134760000D01*
X146030000Y-134760000D01*
X146030000Y-134759398D01*
G37*
G36*
X146830000Y-133260000D02*
G01*
X147330000Y-133260000D01*
X147330000Y-133260602D01*
X147354534Y-133260602D01*
X147403365Y-133265412D01*
X147451490Y-133274984D01*
X147498445Y-133289228D01*
X147543778Y-133308005D01*
X147587051Y-133331136D01*
X147627850Y-133358396D01*
X147665779Y-133389524D01*
X147700476Y-133424221D01*
X147731604Y-133462150D01*
X147758864Y-133502949D01*
X147781995Y-133546222D01*
X147800772Y-133591555D01*
X147815016Y-133638510D01*
X147824588Y-133686635D01*
X147829398Y-133735466D01*
X147829398Y-133760000D01*
X147830000Y-133760000D01*
X147830000Y-134260000D01*
X147829398Y-134260000D01*
X147829398Y-134284534D01*
X147824588Y-134333365D01*
X147815016Y-134381490D01*
X147800772Y-134428445D01*
X147781995Y-134473778D01*
X147758864Y-134517051D01*
X147731604Y-134557850D01*
X147700476Y-134595779D01*
X147665779Y-134630476D01*
X147627850Y-134661604D01*
X147587051Y-134688864D01*
X147543778Y-134711995D01*
X147498445Y-134730772D01*
X147451490Y-134745016D01*
X147403365Y-134754588D01*
X147354534Y-134759398D01*
X147330000Y-134759398D01*
X147330000Y-134760000D01*
X146830000Y-134760000D01*
X146830000Y-133260000D01*
G37*
D15*
X153180000Y-108850000D03*
D10*
G36*
X153929398Y-110150000D02*
G01*
X153929398Y-110174534D01*
X153924588Y-110223365D01*
X153915016Y-110271490D01*
X153900772Y-110318445D01*
X153881995Y-110363778D01*
X153858864Y-110407051D01*
X153831604Y-110447850D01*
X153800476Y-110485779D01*
X153765779Y-110520476D01*
X153727850Y-110551604D01*
X153687051Y-110578864D01*
X153643778Y-110601995D01*
X153598445Y-110620772D01*
X153551490Y-110635016D01*
X153503365Y-110644588D01*
X153454534Y-110649398D01*
X153430000Y-110649398D01*
X153430000Y-110650000D01*
X152930000Y-110650000D01*
X152930000Y-110649398D01*
X152905466Y-110649398D01*
X152856635Y-110644588D01*
X152808510Y-110635016D01*
X152761555Y-110620772D01*
X152716222Y-110601995D01*
X152672949Y-110578864D01*
X152632150Y-110551604D01*
X152594221Y-110520476D01*
X152559524Y-110485779D01*
X152528396Y-110447850D01*
X152501136Y-110407051D01*
X152478005Y-110363778D01*
X152459228Y-110318445D01*
X152444984Y-110271490D01*
X152435412Y-110223365D01*
X152430602Y-110174534D01*
X152430602Y-110150000D01*
X152430000Y-110150000D01*
X152430000Y-109600000D01*
X153930000Y-109600000D01*
X153930000Y-110150000D01*
X153929398Y-110150000D01*
G37*
G36*
X152430000Y-108100000D02*
G01*
X152430000Y-107550000D01*
X152430602Y-107550000D01*
X152430602Y-107525466D01*
X152435412Y-107476635D01*
X152444984Y-107428510D01*
X152459228Y-107381555D01*
X152478005Y-107336222D01*
X152501136Y-107292949D01*
X152528396Y-107252150D01*
X152559524Y-107214221D01*
X152594221Y-107179524D01*
X152632150Y-107148396D01*
X152672949Y-107121136D01*
X152716222Y-107098005D01*
X152761555Y-107079228D01*
X152808510Y-107064984D01*
X152856635Y-107055412D01*
X152905466Y-107050602D01*
X152930000Y-107050602D01*
X152930000Y-107050000D01*
X153430000Y-107050000D01*
X153430000Y-107050602D01*
X153454534Y-107050602D01*
X153503365Y-107055412D01*
X153551490Y-107064984D01*
X153598445Y-107079228D01*
X153643778Y-107098005D01*
X153687051Y-107121136D01*
X153727850Y-107148396D01*
X153765779Y-107179524D01*
X153800476Y-107214221D01*
X153831604Y-107252150D01*
X153858864Y-107292949D01*
X153881995Y-107336222D01*
X153900772Y-107381555D01*
X153915016Y-107428510D01*
X153924588Y-107476635D01*
X153929398Y-107525466D01*
X153929398Y-107550000D01*
X153930000Y-107550000D01*
X153930000Y-108100000D01*
X152430000Y-108100000D01*
G37*
D15*
X153080000Y-119450000D03*
D10*
G36*
X153829398Y-120750000D02*
G01*
X153829398Y-120774534D01*
X153824588Y-120823365D01*
X153815016Y-120871490D01*
X153800772Y-120918445D01*
X153781995Y-120963778D01*
X153758864Y-121007051D01*
X153731604Y-121047850D01*
X153700476Y-121085779D01*
X153665779Y-121120476D01*
X153627850Y-121151604D01*
X153587051Y-121178864D01*
X153543778Y-121201995D01*
X153498445Y-121220772D01*
X153451490Y-121235016D01*
X153403365Y-121244588D01*
X153354534Y-121249398D01*
X153330000Y-121249398D01*
X153330000Y-121250000D01*
X152830000Y-121250000D01*
X152830000Y-121249398D01*
X152805466Y-121249398D01*
X152756635Y-121244588D01*
X152708510Y-121235016D01*
X152661555Y-121220772D01*
X152616222Y-121201995D01*
X152572949Y-121178864D01*
X152532150Y-121151604D01*
X152494221Y-121120476D01*
X152459524Y-121085779D01*
X152428396Y-121047850D01*
X152401136Y-121007051D01*
X152378005Y-120963778D01*
X152359228Y-120918445D01*
X152344984Y-120871490D01*
X152335412Y-120823365D01*
X152330602Y-120774534D01*
X152330602Y-120750000D01*
X152330000Y-120750000D01*
X152330000Y-120200000D01*
X153830000Y-120200000D01*
X153830000Y-120750000D01*
X153829398Y-120750000D01*
G37*
G36*
X152330000Y-118700000D02*
G01*
X152330000Y-118150000D01*
X152330602Y-118150000D01*
X152330602Y-118125466D01*
X152335412Y-118076635D01*
X152344984Y-118028510D01*
X152359228Y-117981555D01*
X152378005Y-117936222D01*
X152401136Y-117892949D01*
X152428396Y-117852150D01*
X152459524Y-117814221D01*
X152494221Y-117779524D01*
X152532150Y-117748396D01*
X152572949Y-117721136D01*
X152616222Y-117698005D01*
X152661555Y-117679228D01*
X152708510Y-117664984D01*
X152756635Y-117655412D01*
X152805466Y-117650602D01*
X152830000Y-117650602D01*
X152830000Y-117650000D01*
X153330000Y-117650000D01*
X153330000Y-117650602D01*
X153354534Y-117650602D01*
X153403365Y-117655412D01*
X153451490Y-117664984D01*
X153498445Y-117679228D01*
X153543778Y-117698005D01*
X153587051Y-117721136D01*
X153627850Y-117748396D01*
X153665779Y-117779524D01*
X153700476Y-117814221D01*
X153731604Y-117852150D01*
X153758864Y-117892949D01*
X153781995Y-117936222D01*
X153800772Y-117981555D01*
X153815016Y-118028510D01*
X153824588Y-118076635D01*
X153829398Y-118125466D01*
X153829398Y-118150000D01*
X153830000Y-118150000D01*
X153830000Y-118700000D01*
X152330000Y-118700000D01*
G37*
D15*
X153100000Y-130060000D03*
D10*
G36*
X153849398Y-131360000D02*
G01*
X153849398Y-131384534D01*
X153844588Y-131433365D01*
X153835016Y-131481490D01*
X153820772Y-131528445D01*
X153801995Y-131573778D01*
X153778864Y-131617051D01*
X153751604Y-131657850D01*
X153720476Y-131695779D01*
X153685779Y-131730476D01*
X153647850Y-131761604D01*
X153607051Y-131788864D01*
X153563778Y-131811995D01*
X153518445Y-131830772D01*
X153471490Y-131845016D01*
X153423365Y-131854588D01*
X153374534Y-131859398D01*
X153350000Y-131859398D01*
X153350000Y-131860000D01*
X152850000Y-131860000D01*
X152850000Y-131859398D01*
X152825466Y-131859398D01*
X152776635Y-131854588D01*
X152728510Y-131845016D01*
X152681555Y-131830772D01*
X152636222Y-131811995D01*
X152592949Y-131788864D01*
X152552150Y-131761604D01*
X152514221Y-131730476D01*
X152479524Y-131695779D01*
X152448396Y-131657850D01*
X152421136Y-131617051D01*
X152398005Y-131573778D01*
X152379228Y-131528445D01*
X152364984Y-131481490D01*
X152355412Y-131433365D01*
X152350602Y-131384534D01*
X152350602Y-131360000D01*
X152350000Y-131360000D01*
X152350000Y-130810000D01*
X153850000Y-130810000D01*
X153850000Y-131360000D01*
X153849398Y-131360000D01*
G37*
G36*
X152350000Y-129310000D02*
G01*
X152350000Y-128760000D01*
X152350602Y-128760000D01*
X152350602Y-128735466D01*
X152355412Y-128686635D01*
X152364984Y-128638510D01*
X152379228Y-128591555D01*
X152398005Y-128546222D01*
X152421136Y-128502949D01*
X152448396Y-128462150D01*
X152479524Y-128424221D01*
X152514221Y-128389524D01*
X152552150Y-128358396D01*
X152592949Y-128331136D01*
X152636222Y-128308005D01*
X152681555Y-128289228D01*
X152728510Y-128274984D01*
X152776635Y-128265412D01*
X152825466Y-128260602D01*
X152850000Y-128260602D01*
X152850000Y-128260000D01*
X153350000Y-128260000D01*
X153350000Y-128260602D01*
X153374534Y-128260602D01*
X153423365Y-128265412D01*
X153471490Y-128274984D01*
X153518445Y-128289228D01*
X153563778Y-128308005D01*
X153607051Y-128331136D01*
X153647850Y-128358396D01*
X153685779Y-128389524D01*
X153720476Y-128424221D01*
X153751604Y-128462150D01*
X153778864Y-128502949D01*
X153801995Y-128546222D01*
X153820772Y-128591555D01*
X153835016Y-128638510D01*
X153844588Y-128686635D01*
X153849398Y-128735466D01*
X153849398Y-128760000D01*
X153850000Y-128760000D01*
X153850000Y-129310000D01*
X152350000Y-129310000D01*
G37*
G36*
G01*
X143500000Y-73244999D02*
X143500000Y-74495001D01*
G75*
G02*
X143250001Y-74745000I-249999J0D01*
G01*
X142549999Y-74745000D01*
G75*
G02*
X142300000Y-74495001I0J249999D01*
G01*
X142300000Y-73244999D01*
G75*
G02*
X142549999Y-72995000I249999J0D01*
G01*
X143250001Y-72995000D01*
G75*
G02*
X143500000Y-73244999I0J-249999D01*
G01*
G37*
D16*
X140900000Y-73870000D03*
X138900000Y-73870000D03*
X136900000Y-73870000D03*
G36*
G01*
X154624999Y-146170000D02*
X155875001Y-146170000D01*
G75*
G02*
X156125000Y-146419999I0J-249999D01*
G01*
X156125000Y-147120001D01*
G75*
G02*
X155875001Y-147370000I-249999J0D01*
G01*
X154624999Y-147370000D01*
G75*
G02*
X154375000Y-147120001I0J249999D01*
G01*
X154375000Y-146419999D01*
G75*
G02*
X154624999Y-146170000I249999J0D01*
G01*
G37*
D12*
X155250000Y-148770000D03*
G36*
G01*
X127110000Y-136025001D02*
X127110000Y-134774999D01*
G75*
G02*
X127359999Y-134525000I249999J0D01*
G01*
X128060001Y-134525000D01*
G75*
G02*
X128310000Y-134774999I0J-249999D01*
G01*
X128310000Y-136025001D01*
G75*
G02*
X128060001Y-136275000I-249999J0D01*
G01*
X127359999Y-136275000D01*
G75*
G02*
X127110000Y-136025001I0J249999D01*
G01*
G37*
D16*
X129710000Y-135400000D03*
X131710000Y-135400000D03*
X129500000Y-108640000D03*
X127500000Y-108640000D03*
X125500000Y-108640000D03*
G36*
G01*
X122900000Y-109265001D02*
X122900000Y-108014999D01*
G75*
G02*
X123149999Y-107765000I249999J0D01*
G01*
X123850001Y-107765000D01*
G75*
G02*
X124100000Y-108014999I0J-249999D01*
G01*
X124100000Y-109265001D01*
G75*
G02*
X123850001Y-109515000I-249999J0D01*
G01*
X123149999Y-109515000D01*
G75*
G02*
X122900000Y-109265001I0J249999D01*
G01*
G37*
M02*
