M48
; DRILL file {KiCad 7.0.2} date Fri Sep 29 08:34:43 2023
; FORMAT={-:-/ absolute / metric / decimal}
; #@! TF.CreationDate,2023-09-29T08:34:43+02:00
; #@! TF.GenerationSoftware,Kicad,Pcbnew,7.0.2
; #@! TF.FileFunction,Plated,1,2,PTH
FMAT,2
METRIC
; #@! TA.AperFunction,Plated,PTH,ViaDrill
T1C0.300
; #@! TA.AperFunction,Plated,PTH,ViaDrill
T2C0.400
; #@! TA.AperFunction,Plated,PTH,ComponentDrill
T3C0.600
; #@! TA.AperFunction,Plated,PTH,ComponentDrill
T4C1.000
; #@! TA.AperFunction,Plated,PTH,ComponentDrill
T5C1.050
; #@! TA.AperFunction,Plated,PTH,ComponentDrill
T6C1.300
%
G90
G05
T1
X98.07Y-85.72
X98.07Y-88.22
X98.07Y-90.72
X98.07Y-93.22
X98.07Y-95.72
X98.07Y-98.22
X98.07Y-100.72
X98.07Y-118.22
X98.07Y-120.72
X98.07Y-123.22
X98.07Y-125.72
X98.07Y-128.22
X98.07Y-130.41
X98.07Y-132.91
X98.07Y-135.41
X98.07Y-137.91
X98.07Y-140.41
X98.07Y-142.91
X98.07Y-145.41
X98.07Y-147.91
X98.07Y-150.41
X98.07Y-152.91
X98.07Y-155.41
X98.07Y-157.91
X98.07Y-160.41
X98.07Y-162.91
X98.1Y-81.59
X98.1Y-108.51
X98.1Y-111.01
X98.1Y-113.51
X98.66Y-103.12
X100.15Y-164.06
X100.74Y-89.56
X101.72Y-166.09
X102.16Y-103.03
X102.772Y-111.298
X103.36Y-167.75
X104.68Y-143.68
X104.88Y-81.82
X104.96Y-84.78
X105.3Y-102.41
X105.47Y-108.66
X105.571Y-112.251
X105.66Y-114.26
X105.73Y-115.48
X105.85Y-110.08
X105.86Y-167.75
X105.9Y-97.51
X106.46Y-82.23
X106.52Y-116.46
X107.15Y-101.33
X107.77Y-120.12
X108.35Y-167.73
X108.78Y-88.4
X108.78Y-90.23
X108.85Y-116.92
X108.96Y-82.23
X109.48Y-110.98
X109.521Y-106.899
X109.69Y-87.46
X109.7Y-89.31
X109.7Y-91.12
X109.72Y-101.82
X110.27Y-116.88
X110.4Y-96.31
X110.61Y-90.21
X110.62Y-88.39
X110.86Y-167.75
X111.13Y-115.15
X111.46Y-82.23
X111.53Y-87.41
X111.53Y-91.14
X111.54Y-89.29
X112.28Y-117.175
X112.344Y-105.352
X112.44Y-88.42
X112.45Y-90.22
X113.12Y-105.7
X113.36Y-167.75
X113.65Y-119.38
X113.96Y-82.23
X114.2Y-101.78
X114.23Y-115.28
X115.13Y-119.36
X115.25Y-100.95
X115.35Y-115.62
X115.86Y-167.75
X115.93Y-93.25
X116.46Y-82.23
X117.56Y-115.35
X118.11Y-81.9
X118.36Y-167.75
X118.96Y-103.91
X120.36Y-113.95
X120.6Y-120.61
X120.86Y-167.75
X121.69Y-81.84
X121.74Y-94.55
X121.74Y-90.76
X121.75Y-92.01
X121.79Y-95.83
X121.79Y-99.67
X121.9Y-97.09
X122.78Y-112.42
X123.36Y-167.75
X123.54Y-120.19
X123.65Y-104.31
X123.65Y-119.01
X123.95Y-101.95
X124.15Y-100.8
X124.91Y-115.32
X124.93Y-119.01
X125.29Y-103.05
X125.75Y-82.23
X125.86Y-167.75
X126.06Y-123.45
X126.86Y-124.2
X127.19Y-106.86
X127.28Y-74.68
X127.3Y-78.11
X128.36Y-167.75
X128.58Y-100.09
X128.89Y-101.7
X129.31Y-97.82
X130.23Y-100.63
X130.43Y-73.38
X130.535Y-86.215
X130.86Y-167.75
X131.05Y-119.95
X131.58Y-70.71
X132.77Y-124.45
X132.79Y-129.91
X133.36Y-167.75
X134.08Y-70.71
X134.54Y-120.35
X135.86Y-167.75
X136.58Y-70.71
X136.62Y-134.13
X138.36Y-167.75
X139.08Y-70.71
X140.7Y-167.75
X141.58Y-70.71
X143.2Y-167.75
X144.08Y-70.71
X145.7Y-167.75
X146.58Y-70.71
X148.2Y-167.75
X149.08Y-70.71
X150.7Y-167.75
X151.58Y-70.71
X153.2Y-167.75
X154.08Y-70.71
X155.7Y-167.75
X156.58Y-70.71
X158.2Y-167.75
X159.08Y-70.71
X160.09Y-73.47
X160.63Y-165.75
X160.7Y-167.75
X162.12Y-74.78
X162.43Y-164.09
X164.86Y-75.45
X164.86Y-77.95
X164.86Y-80.45
X164.86Y-82.95
X164.86Y-85.45
X164.86Y-87.95
X164.86Y-90.45
X164.86Y-92.95
X164.86Y-95.45
X164.86Y-97.95
X164.86Y-100.45
X164.86Y-103.17
X164.86Y-105.67
X164.86Y-108.17
X164.86Y-110.67
X164.86Y-113.17
X164.86Y-115.67
X164.86Y-118.17
X164.86Y-120.67
X164.86Y-123.17
X164.86Y-125.67
X164.86Y-128.17
X164.86Y-130.67
X164.86Y-133.17
X164.86Y-135.92
X164.86Y-138.17
X164.86Y-140.45
X164.86Y-142.95
X164.86Y-145.45
X164.86Y-147.95
X164.86Y-150.67
X164.86Y-153.17
X164.86Y-155.67
X164.86Y-158.17
X164.86Y-160.67
X164.86Y-163.17
T2
X112.37Y-109.34
X112.38Y-107.96
T4
X101.22Y-145.34
X101.22Y-147.84
X101.22Y-150.34
X101.22Y-152.84
X101.23Y-133.32
X101.23Y-135.82
X101.23Y-138.32
X101.23Y-140.82
T5
X118.33Y-140.65
X120.87Y-140.65
X123.41Y-140.65
T6
X117.87Y-154.09
X117.87Y-162.29
X122.87Y-154.09
X122.87Y-162.29
X150.66Y-113.23
X150.66Y-118.23
X150.67Y-126.77
X150.67Y-131.77
X150.68Y-86.23
X150.68Y-91.23
X150.68Y-99.73
X150.68Y-104.73
X150.68Y-153.78
X150.68Y-158.78
X150.69Y-140.28
X150.69Y-145.28
X158.86Y-113.23
X158.86Y-118.23
X158.87Y-126.77
X158.87Y-131.77
X158.88Y-86.23
X158.88Y-91.23
X158.88Y-99.73
X158.88Y-104.73
X158.88Y-153.78
X158.88Y-158.78
X158.89Y-140.28
X158.89Y-145.28
T3
G00X99.46Y-107.6
M15
G01X98.86Y-107.6
M16
G05
G00X99.46Y-116.24
M15
G01X98.86Y-116.24
M16
G05
G00X103.64Y-107.6
M15
G01X103.04Y-107.6
M16
G05
G00X103.64Y-116.24
M15
G01X103.04Y-116.24
M16
G05
T0
M30
