G04 #@! TF.GenerationSoftware,KiCad,Pcbnew,(5.1.10)-1*
G04 #@! TF.CreationDate,2021-12-13T22:20:53+01:00*
G04 #@! TF.ProjectId,TestboardV2.3,54657374-626f-4617-9264-56322e332e6b,rev?*
G04 #@! TF.SameCoordinates,Original*
G04 #@! TF.FileFunction,Legend,Top*
G04 #@! TF.FilePolarity,Positive*
%FSLAX46Y46*%
G04 Gerber Fmt 4.6, Leading zero omitted, Abs format (unit mm)*
G04 Created by KiCad (PCBNEW (5.1.10)-1) date 2021-12-13 22:20:53*
%MOMM*%
%LPD*%
G01*
G04 APERTURE LIST*
%ADD10C,0.100000*%
%ADD11C,0.150000*%
%ADD12C,0.300000*%
%ADD13C,0.010000*%
%ADD14C,0.120000*%
%ADD15C,0.250000*%
%ADD16C,0.020000*%
%ADD17C,0.200000*%
G04 APERTURE END LIST*
D10*
X153456666Y-152452857D02*
X153570952Y-152490952D01*
X153609047Y-152529047D01*
X153647142Y-152605238D01*
X153647142Y-152719523D01*
X153609047Y-152795714D01*
X153570952Y-152833809D01*
X153494761Y-152871904D01*
X153190000Y-152871904D01*
X153190000Y-152071904D01*
X153456666Y-152071904D01*
X153532857Y-152110000D01*
X153570952Y-152148095D01*
X153609047Y-152224285D01*
X153609047Y-152300476D01*
X153570952Y-152376666D01*
X153532857Y-152414761D01*
X153456666Y-152452857D01*
X153190000Y-152452857D01*
X154332857Y-152871904D02*
X154332857Y-152452857D01*
X154294761Y-152376666D01*
X154218571Y-152338571D01*
X154066190Y-152338571D01*
X153990000Y-152376666D01*
X154332857Y-152833809D02*
X154256666Y-152871904D01*
X154066190Y-152871904D01*
X153990000Y-152833809D01*
X153951904Y-152757619D01*
X153951904Y-152681428D01*
X153990000Y-152605238D01*
X154066190Y-152567142D01*
X154256666Y-152567142D01*
X154332857Y-152529047D01*
X154599523Y-152338571D02*
X154904285Y-152338571D01*
X154713809Y-152071904D02*
X154713809Y-152757619D01*
X154751904Y-152833809D01*
X154828095Y-152871904D01*
X154904285Y-152871904D01*
X151361428Y-153638571D02*
X151361428Y-154438571D01*
X151361428Y-153676666D02*
X151437619Y-153638571D01*
X151590000Y-153638571D01*
X151666190Y-153676666D01*
X151704285Y-153714761D01*
X151742380Y-153790952D01*
X151742380Y-154019523D01*
X151704285Y-154095714D01*
X151666190Y-154133809D01*
X151590000Y-154171904D01*
X151437619Y-154171904D01*
X151361428Y-154133809D01*
X152085238Y-154171904D02*
X152085238Y-153638571D01*
X152085238Y-153790952D02*
X152123333Y-153714761D01*
X152161428Y-153676666D01*
X152237619Y-153638571D01*
X152313809Y-153638571D01*
X152694761Y-154171904D02*
X152618571Y-154133809D01*
X152580476Y-154095714D01*
X152542380Y-154019523D01*
X152542380Y-153790952D01*
X152580476Y-153714761D01*
X152618571Y-153676666D01*
X152694761Y-153638571D01*
X152809047Y-153638571D01*
X152885238Y-153676666D01*
X152923333Y-153714761D01*
X152961428Y-153790952D01*
X152961428Y-154019523D01*
X152923333Y-154095714D01*
X152885238Y-154133809D01*
X152809047Y-154171904D01*
X152694761Y-154171904D01*
X153190000Y-153638571D02*
X153494761Y-153638571D01*
X153304285Y-153371904D02*
X153304285Y-154057619D01*
X153342380Y-154133809D01*
X153418571Y-154171904D01*
X153494761Y-154171904D01*
X154066190Y-154133809D02*
X153990000Y-154171904D01*
X153837619Y-154171904D01*
X153761428Y-154133809D01*
X153723333Y-154057619D01*
X153723333Y-153752857D01*
X153761428Y-153676666D01*
X153837619Y-153638571D01*
X153990000Y-153638571D01*
X154066190Y-153676666D01*
X154104285Y-153752857D01*
X154104285Y-153829047D01*
X153723333Y-153905238D01*
X154790000Y-154133809D02*
X154713809Y-154171904D01*
X154561428Y-154171904D01*
X154485238Y-154133809D01*
X154447142Y-154095714D01*
X154409047Y-154019523D01*
X154409047Y-153790952D01*
X154447142Y-153714761D01*
X154485238Y-153676666D01*
X154561428Y-153638571D01*
X154713809Y-153638571D01*
X154790000Y-153676666D01*
X155018571Y-153638571D02*
X155323333Y-153638571D01*
X155132857Y-153371904D02*
X155132857Y-154057619D01*
X155170952Y-154133809D01*
X155247142Y-154171904D01*
X155323333Y-154171904D01*
X155894761Y-154133809D02*
X155818571Y-154171904D01*
X155666190Y-154171904D01*
X155590000Y-154133809D01*
X155551904Y-154057619D01*
X155551904Y-153752857D01*
X155590000Y-153676666D01*
X155666190Y-153638571D01*
X155818571Y-153638571D01*
X155894761Y-153676666D01*
X155932857Y-153752857D01*
X155932857Y-153829047D01*
X155551904Y-153905238D01*
X156618571Y-154171904D02*
X156618571Y-153371904D01*
X156618571Y-154133809D02*
X156542380Y-154171904D01*
X156390000Y-154171904D01*
X156313809Y-154133809D01*
X156275714Y-154095714D01*
X156237619Y-154019523D01*
X156237619Y-153790952D01*
X156275714Y-153714761D01*
X156313809Y-153676666D01*
X156390000Y-153638571D01*
X156542380Y-153638571D01*
X156618571Y-153676666D01*
X106751428Y-134531904D02*
X106751428Y-135179523D01*
X106789523Y-135255714D01*
X106827619Y-135293809D01*
X106903809Y-135331904D01*
X107056190Y-135331904D01*
X107132380Y-135293809D01*
X107170476Y-135255714D01*
X107208571Y-135179523D01*
X107208571Y-134531904D01*
X107551428Y-135293809D02*
X107665714Y-135331904D01*
X107856190Y-135331904D01*
X107932380Y-135293809D01*
X107970476Y-135255714D01*
X108008571Y-135179523D01*
X108008571Y-135103333D01*
X107970476Y-135027142D01*
X107932380Y-134989047D01*
X107856190Y-134950952D01*
X107703809Y-134912857D01*
X107627619Y-134874761D01*
X107589523Y-134836666D01*
X107551428Y-134760476D01*
X107551428Y-134684285D01*
X107589523Y-134608095D01*
X107627619Y-134570000D01*
X107703809Y-134531904D01*
X107894285Y-134531904D01*
X108008571Y-134570000D01*
X108618095Y-134912857D02*
X108732380Y-134950952D01*
X108770476Y-134989047D01*
X108808571Y-135065238D01*
X108808571Y-135179523D01*
X108770476Y-135255714D01*
X108732380Y-135293809D01*
X108656190Y-135331904D01*
X108351428Y-135331904D01*
X108351428Y-134531904D01*
X108618095Y-134531904D01*
X108694285Y-134570000D01*
X108732380Y-134608095D01*
X108770476Y-134684285D01*
X108770476Y-134760476D01*
X108732380Y-134836666D01*
X108694285Y-134874761D01*
X108618095Y-134912857D01*
X108351428Y-134912857D01*
X110218095Y-135255714D02*
X110180000Y-135293809D01*
X110065714Y-135331904D01*
X109989523Y-135331904D01*
X109875238Y-135293809D01*
X109799047Y-135217619D01*
X109760952Y-135141428D01*
X109722857Y-134989047D01*
X109722857Y-134874761D01*
X109760952Y-134722380D01*
X109799047Y-134646190D01*
X109875238Y-134570000D01*
X109989523Y-134531904D01*
X110065714Y-134531904D01*
X110180000Y-134570000D01*
X110218095Y-134608095D01*
X110560952Y-135331904D02*
X110560952Y-134531904D01*
X110903809Y-135331904D02*
X110903809Y-134912857D01*
X110865714Y-134836666D01*
X110789523Y-134798571D01*
X110675238Y-134798571D01*
X110599047Y-134836666D01*
X110560952Y-134874761D01*
X111627619Y-135331904D02*
X111627619Y-134912857D01*
X111589523Y-134836666D01*
X111513333Y-134798571D01*
X111360952Y-134798571D01*
X111284761Y-134836666D01*
X111627619Y-135293809D02*
X111551428Y-135331904D01*
X111360952Y-135331904D01*
X111284761Y-135293809D01*
X111246666Y-135217619D01*
X111246666Y-135141428D01*
X111284761Y-135065238D01*
X111360952Y-135027142D01*
X111551428Y-135027142D01*
X111627619Y-134989047D01*
X112008571Y-135331904D02*
X112008571Y-134798571D01*
X112008571Y-134950952D02*
X112046666Y-134874761D01*
X112084761Y-134836666D01*
X112160952Y-134798571D01*
X112237142Y-134798571D01*
X112846666Y-134798571D02*
X112846666Y-135446190D01*
X112808571Y-135522380D01*
X112770476Y-135560476D01*
X112694285Y-135598571D01*
X112580000Y-135598571D01*
X112503809Y-135560476D01*
X112846666Y-135293809D02*
X112770476Y-135331904D01*
X112618095Y-135331904D01*
X112541904Y-135293809D01*
X112503809Y-135255714D01*
X112465714Y-135179523D01*
X112465714Y-134950952D01*
X112503809Y-134874761D01*
X112541904Y-134836666D01*
X112618095Y-134798571D01*
X112770476Y-134798571D01*
X112846666Y-134836666D01*
X113532380Y-135293809D02*
X113456190Y-135331904D01*
X113303809Y-135331904D01*
X113227619Y-135293809D01*
X113189523Y-135217619D01*
X113189523Y-134912857D01*
X113227619Y-134836666D01*
X113303809Y-134798571D01*
X113456190Y-134798571D01*
X113532380Y-134836666D01*
X113570476Y-134912857D01*
X113570476Y-134989047D01*
X113189523Y-135065238D01*
X113913333Y-135331904D02*
X113913333Y-134798571D01*
X113913333Y-134950952D02*
X113951428Y-134874761D01*
X113989523Y-134836666D01*
X114065714Y-134798571D01*
X114141904Y-134798571D01*
X115399047Y-135331904D02*
X115018095Y-135331904D01*
X115018095Y-134531904D01*
X115665714Y-134912857D02*
X115932380Y-134912857D01*
X116046666Y-135331904D02*
X115665714Y-135331904D01*
X115665714Y-134531904D01*
X116046666Y-134531904D01*
X116389523Y-135331904D02*
X116389523Y-134531904D01*
X116580000Y-134531904D01*
X116694285Y-134570000D01*
X116770476Y-134646190D01*
X116808571Y-134722380D01*
X116846666Y-134874761D01*
X116846666Y-134989047D01*
X116808571Y-135141428D01*
X116770476Y-135217619D01*
X116694285Y-135293809D01*
X116580000Y-135331904D01*
X116389523Y-135331904D01*
X120721904Y-115616666D02*
X119921904Y-115616666D01*
X119921904Y-115311904D01*
X119960000Y-115235714D01*
X119998095Y-115197619D01*
X120074285Y-115159523D01*
X120188571Y-115159523D01*
X120264761Y-115197619D01*
X120302857Y-115235714D01*
X120340952Y-115311904D01*
X120340952Y-115616666D01*
X119921904Y-114892857D02*
X120721904Y-114702380D01*
X120150476Y-114550000D01*
X120721904Y-114397619D01*
X119921904Y-114207142D01*
X120721904Y-113445238D02*
X120340952Y-113711904D01*
X120721904Y-113902380D02*
X119921904Y-113902380D01*
X119921904Y-113597619D01*
X119960000Y-113521428D01*
X119998095Y-113483333D01*
X120074285Y-113445238D01*
X120188571Y-113445238D01*
X120264761Y-113483333D01*
X120302857Y-113521428D01*
X120340952Y-113597619D01*
X120340952Y-113902380D01*
D11*
X99090952Y-138013809D02*
X99205238Y-138051904D01*
X99395714Y-138051904D01*
X99471904Y-138013809D01*
X99510000Y-137975714D01*
X99548095Y-137899523D01*
X99548095Y-137823333D01*
X99510000Y-137747142D01*
X99471904Y-137709047D01*
X99395714Y-137670952D01*
X99243333Y-137632857D01*
X99167142Y-137594761D01*
X99129047Y-137556666D01*
X99090952Y-137480476D01*
X99090952Y-137404285D01*
X99129047Y-137328095D01*
X99167142Y-137290000D01*
X99243333Y-137251904D01*
X99433809Y-137251904D01*
X99548095Y-137290000D01*
X100005238Y-138051904D02*
X99929047Y-138013809D01*
X99890952Y-137975714D01*
X99852857Y-137899523D01*
X99852857Y-137670952D01*
X99890952Y-137594761D01*
X99929047Y-137556666D01*
X100005238Y-137518571D01*
X100119523Y-137518571D01*
X100195714Y-137556666D01*
X100233809Y-137594761D01*
X100271904Y-137670952D01*
X100271904Y-137899523D01*
X100233809Y-137975714D01*
X100195714Y-138013809D01*
X100119523Y-138051904D01*
X100005238Y-138051904D01*
X100729047Y-138051904D02*
X100652857Y-138013809D01*
X100614761Y-137937619D01*
X100614761Y-137251904D01*
X101376666Y-138051904D02*
X101376666Y-137632857D01*
X101338571Y-137556666D01*
X101262380Y-137518571D01*
X101110000Y-137518571D01*
X101033809Y-137556666D01*
X101376666Y-138013809D02*
X101300476Y-138051904D01*
X101110000Y-138051904D01*
X101033809Y-138013809D01*
X100995714Y-137937619D01*
X100995714Y-137861428D01*
X101033809Y-137785238D01*
X101110000Y-137747142D01*
X101300476Y-137747142D01*
X101376666Y-137709047D01*
X101757619Y-138051904D02*
X101757619Y-137518571D01*
X101757619Y-137670952D02*
X101795714Y-137594761D01*
X101833809Y-137556666D01*
X101910000Y-137518571D01*
X101986190Y-137518571D01*
X102786190Y-137518571D02*
X102938571Y-138051904D01*
X103090952Y-137670952D01*
X103243333Y-138051904D01*
X103395714Y-137518571D01*
X104043333Y-138051904D02*
X104043333Y-137632857D01*
X104005238Y-137556666D01*
X103929047Y-137518571D01*
X103776666Y-137518571D01*
X103700476Y-137556666D01*
X104043333Y-138013809D02*
X103967142Y-138051904D01*
X103776666Y-138051904D01*
X103700476Y-138013809D01*
X103662380Y-137937619D01*
X103662380Y-137861428D01*
X103700476Y-137785238D01*
X103776666Y-137747142D01*
X103967142Y-137747142D01*
X104043333Y-137709047D01*
X104424285Y-138051904D02*
X104424285Y-137518571D01*
X104424285Y-137670952D02*
X104462380Y-137594761D01*
X104500476Y-137556666D01*
X104576666Y-137518571D01*
X104652857Y-137518571D01*
X104919523Y-137518571D02*
X104919523Y-138051904D01*
X104919523Y-137594761D02*
X104957619Y-137556666D01*
X105033809Y-137518571D01*
X105148095Y-137518571D01*
X105224285Y-137556666D01*
X105262380Y-137632857D01*
X105262380Y-138051904D01*
X105643333Y-138051904D02*
X105643333Y-137518571D01*
X105643333Y-137251904D02*
X105605238Y-137290000D01*
X105643333Y-137328095D01*
X105681428Y-137290000D01*
X105643333Y-137251904D01*
X105643333Y-137328095D01*
X106024285Y-137518571D02*
X106024285Y-138051904D01*
X106024285Y-137594761D02*
X106062380Y-137556666D01*
X106138571Y-137518571D01*
X106252857Y-137518571D01*
X106329047Y-137556666D01*
X106367142Y-137632857D01*
X106367142Y-138051904D01*
X107090952Y-137518571D02*
X107090952Y-138166190D01*
X107052857Y-138242380D01*
X107014761Y-138280476D01*
X106938571Y-138318571D01*
X106824285Y-138318571D01*
X106748095Y-138280476D01*
X107090952Y-138013809D02*
X107014761Y-138051904D01*
X106862380Y-138051904D01*
X106786190Y-138013809D01*
X106748095Y-137975714D01*
X106710000Y-137899523D01*
X106710000Y-137670952D01*
X106748095Y-137594761D01*
X106786190Y-137556666D01*
X106862380Y-137518571D01*
X107014761Y-137518571D01*
X107090952Y-137556666D01*
X135727142Y-164323809D02*
X135841428Y-164361904D01*
X136031904Y-164361904D01*
X136108095Y-164323809D01*
X136146190Y-164285714D01*
X136184285Y-164209523D01*
X136184285Y-164133333D01*
X136146190Y-164057142D01*
X136108095Y-164019047D01*
X136031904Y-163980952D01*
X135879523Y-163942857D01*
X135803333Y-163904761D01*
X135765238Y-163866666D01*
X135727142Y-163790476D01*
X135727142Y-163714285D01*
X135765238Y-163638095D01*
X135803333Y-163600000D01*
X135879523Y-163561904D01*
X136070000Y-163561904D01*
X136184285Y-163600000D01*
X136641428Y-164361904D02*
X136565238Y-164323809D01*
X136527142Y-164285714D01*
X136489047Y-164209523D01*
X136489047Y-163980952D01*
X136527142Y-163904761D01*
X136565238Y-163866666D01*
X136641428Y-163828571D01*
X136755714Y-163828571D01*
X136831904Y-163866666D01*
X136870000Y-163904761D01*
X136908095Y-163980952D01*
X136908095Y-164209523D01*
X136870000Y-164285714D01*
X136831904Y-164323809D01*
X136755714Y-164361904D01*
X136641428Y-164361904D01*
X137365238Y-164361904D02*
X137289047Y-164323809D01*
X137250952Y-164247619D01*
X137250952Y-163561904D01*
X138012857Y-164361904D02*
X138012857Y-163942857D01*
X137974761Y-163866666D01*
X137898571Y-163828571D01*
X137746190Y-163828571D01*
X137670000Y-163866666D01*
X138012857Y-164323809D02*
X137936666Y-164361904D01*
X137746190Y-164361904D01*
X137670000Y-164323809D01*
X137631904Y-164247619D01*
X137631904Y-164171428D01*
X137670000Y-164095238D01*
X137746190Y-164057142D01*
X137936666Y-164057142D01*
X138012857Y-164019047D01*
X138393809Y-164361904D02*
X138393809Y-163828571D01*
X138393809Y-163980952D02*
X138431904Y-163904761D01*
X138470000Y-163866666D01*
X138546190Y-163828571D01*
X138622380Y-163828571D01*
X139841428Y-164361904D02*
X139841428Y-163561904D01*
X139841428Y-164323809D02*
X139765238Y-164361904D01*
X139612857Y-164361904D01*
X139536666Y-164323809D01*
X139498571Y-164285714D01*
X139460476Y-164209523D01*
X139460476Y-163980952D01*
X139498571Y-163904761D01*
X139536666Y-163866666D01*
X139612857Y-163828571D01*
X139765238Y-163828571D01*
X139841428Y-163866666D01*
X140336666Y-164361904D02*
X140260476Y-164323809D01*
X140222380Y-164285714D01*
X140184285Y-164209523D01*
X140184285Y-163980952D01*
X140222380Y-163904761D01*
X140260476Y-163866666D01*
X140336666Y-163828571D01*
X140450952Y-163828571D01*
X140527142Y-163866666D01*
X140565238Y-163904761D01*
X140603333Y-163980952D01*
X140603333Y-164209523D01*
X140565238Y-164285714D01*
X140527142Y-164323809D01*
X140450952Y-164361904D01*
X140336666Y-164361904D01*
X140946190Y-163828571D02*
X140946190Y-164361904D01*
X140946190Y-163904761D02*
X140984285Y-163866666D01*
X141060476Y-163828571D01*
X141174761Y-163828571D01*
X141250952Y-163866666D01*
X141289047Y-163942857D01*
X141289047Y-164361904D01*
X141974761Y-164323809D02*
X141898571Y-164361904D01*
X141746190Y-164361904D01*
X141670000Y-164323809D01*
X141631904Y-164247619D01*
X141631904Y-163942857D01*
X141670000Y-163866666D01*
X141746190Y-163828571D01*
X141898571Y-163828571D01*
X141974761Y-163866666D01*
X142012857Y-163942857D01*
X142012857Y-164019047D01*
X141631904Y-164095238D01*
X135336666Y-165863809D02*
X135450952Y-165901904D01*
X135641428Y-165901904D01*
X135717619Y-165863809D01*
X135755714Y-165825714D01*
X135793809Y-165749523D01*
X135793809Y-165673333D01*
X135755714Y-165597142D01*
X135717619Y-165559047D01*
X135641428Y-165520952D01*
X135489047Y-165482857D01*
X135412857Y-165444761D01*
X135374761Y-165406666D01*
X135336666Y-165330476D01*
X135336666Y-165254285D01*
X135374761Y-165178095D01*
X135412857Y-165140000D01*
X135489047Y-165101904D01*
X135679523Y-165101904D01*
X135793809Y-165140000D01*
X136250952Y-165901904D02*
X136174761Y-165863809D01*
X136136666Y-165825714D01*
X136098571Y-165749523D01*
X136098571Y-165520952D01*
X136136666Y-165444761D01*
X136174761Y-165406666D01*
X136250952Y-165368571D01*
X136365238Y-165368571D01*
X136441428Y-165406666D01*
X136479523Y-165444761D01*
X136517619Y-165520952D01*
X136517619Y-165749523D01*
X136479523Y-165825714D01*
X136441428Y-165863809D01*
X136365238Y-165901904D01*
X136250952Y-165901904D01*
X136974761Y-165901904D02*
X136898571Y-165863809D01*
X136860476Y-165787619D01*
X136860476Y-165101904D01*
X137622380Y-165901904D02*
X137622380Y-165482857D01*
X137584285Y-165406666D01*
X137508095Y-165368571D01*
X137355714Y-165368571D01*
X137279523Y-165406666D01*
X137622380Y-165863809D02*
X137546190Y-165901904D01*
X137355714Y-165901904D01*
X137279523Y-165863809D01*
X137241428Y-165787619D01*
X137241428Y-165711428D01*
X137279523Y-165635238D01*
X137355714Y-165597142D01*
X137546190Y-165597142D01*
X137622380Y-165559047D01*
X138003333Y-165901904D02*
X138003333Y-165368571D01*
X138003333Y-165520952D02*
X138041428Y-165444761D01*
X138079523Y-165406666D01*
X138155714Y-165368571D01*
X138231904Y-165368571D01*
X139450952Y-165863809D02*
X139374761Y-165901904D01*
X139222380Y-165901904D01*
X139146190Y-165863809D01*
X139108095Y-165825714D01*
X139070000Y-165749523D01*
X139070000Y-165520952D01*
X139108095Y-165444761D01*
X139146190Y-165406666D01*
X139222380Y-165368571D01*
X139374761Y-165368571D01*
X139450952Y-165406666D01*
X139793809Y-165901904D02*
X139793809Y-165101904D01*
X140136666Y-165901904D02*
X140136666Y-165482857D01*
X140098571Y-165406666D01*
X140022380Y-165368571D01*
X139908095Y-165368571D01*
X139831904Y-165406666D01*
X139793809Y-165444761D01*
X140860476Y-165901904D02*
X140860476Y-165482857D01*
X140822380Y-165406666D01*
X140746190Y-165368571D01*
X140593809Y-165368571D01*
X140517619Y-165406666D01*
X140860476Y-165863809D02*
X140784285Y-165901904D01*
X140593809Y-165901904D01*
X140517619Y-165863809D01*
X140479523Y-165787619D01*
X140479523Y-165711428D01*
X140517619Y-165635238D01*
X140593809Y-165597142D01*
X140784285Y-165597142D01*
X140860476Y-165559047D01*
X141241428Y-165901904D02*
X141241428Y-165368571D01*
X141241428Y-165520952D02*
X141279523Y-165444761D01*
X141317619Y-165406666D01*
X141393809Y-165368571D01*
X141470000Y-165368571D01*
X142079523Y-165368571D02*
X142079523Y-166016190D01*
X142041428Y-166092380D01*
X142003333Y-166130476D01*
X141927142Y-166168571D01*
X141812857Y-166168571D01*
X141736666Y-166130476D01*
X142079523Y-165863809D02*
X142003333Y-165901904D01*
X141850952Y-165901904D01*
X141774761Y-165863809D01*
X141736666Y-165825714D01*
X141698571Y-165749523D01*
X141698571Y-165520952D01*
X141736666Y-165444761D01*
X141774761Y-165406666D01*
X141850952Y-165368571D01*
X142003333Y-165368571D01*
X142079523Y-165406666D01*
X142765238Y-165863809D02*
X142689047Y-165901904D01*
X142536666Y-165901904D01*
X142460476Y-165863809D01*
X142422380Y-165787619D01*
X142422380Y-165482857D01*
X142460476Y-165406666D01*
X142536666Y-165368571D01*
X142689047Y-165368571D01*
X142765238Y-165406666D01*
X142803333Y-165482857D01*
X142803333Y-165559047D01*
X142422380Y-165635238D01*
D10*
X121567619Y-111981904D02*
X121834285Y-112781904D01*
X122100952Y-111981904D01*
X122710476Y-112743809D02*
X122634285Y-112781904D01*
X122481904Y-112781904D01*
X122405714Y-112743809D01*
X122367619Y-112705714D01*
X122329523Y-112629523D01*
X122329523Y-112400952D01*
X122367619Y-112324761D01*
X122405714Y-112286666D01*
X122481904Y-112248571D01*
X122634285Y-112248571D01*
X122710476Y-112286666D01*
X123396190Y-112743809D02*
X123320000Y-112781904D01*
X123167619Y-112781904D01*
X123091428Y-112743809D01*
X123053333Y-112705714D01*
X123015238Y-112629523D01*
X123015238Y-112400952D01*
X123053333Y-112324761D01*
X123091428Y-112286666D01*
X123167619Y-112248571D01*
X123320000Y-112248571D01*
X123396190Y-112286666D01*
X126339047Y-115841904D02*
X126834285Y-115841904D01*
X126567619Y-116146666D01*
X126681904Y-116146666D01*
X126758095Y-116184761D01*
X126796190Y-116222857D01*
X126834285Y-116299047D01*
X126834285Y-116489523D01*
X126796190Y-116565714D01*
X126758095Y-116603809D01*
X126681904Y-116641904D01*
X126453333Y-116641904D01*
X126377142Y-116603809D01*
X126339047Y-116565714D01*
X127177142Y-116565714D02*
X127215238Y-116603809D01*
X127177142Y-116641904D01*
X127139047Y-116603809D01*
X127177142Y-116565714D01*
X127177142Y-116641904D01*
X127481904Y-115841904D02*
X127977142Y-115841904D01*
X127710476Y-116146666D01*
X127824761Y-116146666D01*
X127900952Y-116184761D01*
X127939047Y-116222857D01*
X127977142Y-116299047D01*
X127977142Y-116489523D01*
X127939047Y-116565714D01*
X127900952Y-116603809D01*
X127824761Y-116641904D01*
X127596190Y-116641904D01*
X127520000Y-116603809D01*
X127481904Y-116565714D01*
X128205714Y-115841904D02*
X128472380Y-116641904D01*
X128739047Y-115841904D01*
X151305238Y-139827142D02*
X151914761Y-139827142D01*
X150771904Y-141012857D02*
X150886190Y-141050952D01*
X150924285Y-141089047D01*
X150962380Y-141165238D01*
X150962380Y-141279523D01*
X150924285Y-141355714D01*
X150886190Y-141393809D01*
X150810000Y-141431904D01*
X150505238Y-141431904D01*
X150505238Y-140631904D01*
X150771904Y-140631904D01*
X150848095Y-140670000D01*
X150886190Y-140708095D01*
X150924285Y-140784285D01*
X150924285Y-140860476D01*
X150886190Y-140936666D01*
X150848095Y-140974761D01*
X150771904Y-141012857D01*
X150505238Y-141012857D01*
X151648095Y-141431904D02*
X151648095Y-141012857D01*
X151610000Y-140936666D01*
X151533809Y-140898571D01*
X151381428Y-140898571D01*
X151305238Y-140936666D01*
X151648095Y-141393809D02*
X151571904Y-141431904D01*
X151381428Y-141431904D01*
X151305238Y-141393809D01*
X151267142Y-141317619D01*
X151267142Y-141241428D01*
X151305238Y-141165238D01*
X151381428Y-141127142D01*
X151571904Y-141127142D01*
X151648095Y-141089047D01*
X151914761Y-140898571D02*
X152219523Y-140898571D01*
X152029047Y-140631904D02*
X152029047Y-141317619D01*
X152067142Y-141393809D01*
X152143333Y-141431904D01*
X152219523Y-141431904D01*
X151305238Y-142427142D02*
X151914761Y-142427142D01*
X151610000Y-142731904D02*
X151610000Y-142122380D01*
D12*
X110990000Y-165282857D02*
X111204285Y-165354285D01*
X111275714Y-165425714D01*
X111347142Y-165568571D01*
X111347142Y-165782857D01*
X111275714Y-165925714D01*
X111204285Y-165997142D01*
X111061428Y-166068571D01*
X110490000Y-166068571D01*
X110490000Y-164568571D01*
X110990000Y-164568571D01*
X111132857Y-164640000D01*
X111204285Y-164711428D01*
X111275714Y-164854285D01*
X111275714Y-164997142D01*
X111204285Y-165140000D01*
X111132857Y-165211428D01*
X110990000Y-165282857D01*
X110490000Y-165282857D01*
X111847142Y-165068571D02*
X112204285Y-166068571D01*
X112561428Y-165068571D02*
X112204285Y-166068571D01*
X112061428Y-166425714D01*
X111990000Y-166497142D01*
X111847142Y-166568571D01*
X115132857Y-166068571D02*
X114632857Y-165354285D01*
X114275714Y-166068571D02*
X114275714Y-164568571D01*
X114847142Y-164568571D01*
X114990000Y-164640000D01*
X115061428Y-164711428D01*
X115132857Y-164854285D01*
X115132857Y-165068571D01*
X115061428Y-165211428D01*
X114990000Y-165282857D01*
X114847142Y-165354285D01*
X114275714Y-165354285D01*
X116418571Y-166068571D02*
X116418571Y-165282857D01*
X116347142Y-165140000D01*
X116204285Y-165068571D01*
X115918571Y-165068571D01*
X115775714Y-165140000D01*
X116418571Y-165997142D02*
X116275714Y-166068571D01*
X115918571Y-166068571D01*
X115775714Y-165997142D01*
X115704285Y-165854285D01*
X115704285Y-165711428D01*
X115775714Y-165568571D01*
X115918571Y-165497142D01*
X116275714Y-165497142D01*
X116418571Y-165425714D01*
X116918571Y-165068571D02*
X117490000Y-165068571D01*
X117132857Y-164568571D02*
X117132857Y-165854285D01*
X117204285Y-165997142D01*
X117347142Y-166068571D01*
X117490000Y-166068571D01*
X118632857Y-166068571D02*
X118632857Y-165282857D01*
X118561428Y-165140000D01*
X118418571Y-165068571D01*
X118132857Y-165068571D01*
X117990000Y-165140000D01*
X118632857Y-165997142D02*
X118490000Y-166068571D01*
X118132857Y-166068571D01*
X117990000Y-165997142D01*
X117918571Y-165854285D01*
X117918571Y-165711428D01*
X117990000Y-165568571D01*
X118132857Y-165497142D01*
X118490000Y-165497142D01*
X118632857Y-165425714D01*
X119347142Y-166068571D02*
X119347142Y-165068571D01*
X119347142Y-165211428D02*
X119418571Y-165140000D01*
X119561428Y-165068571D01*
X119775714Y-165068571D01*
X119918571Y-165140000D01*
X119990000Y-165282857D01*
X119990000Y-166068571D01*
X119990000Y-165282857D02*
X120061428Y-165140000D01*
X120204285Y-165068571D01*
X120418571Y-165068571D01*
X120561428Y-165140000D01*
X120632857Y-165282857D01*
X120632857Y-166068571D01*
X121990000Y-165068571D02*
X121990000Y-166068571D01*
X121347142Y-165068571D02*
X121347142Y-165854285D01*
X121418571Y-165997142D01*
X121561428Y-166068571D01*
X121775714Y-166068571D01*
X121918571Y-165997142D01*
X121990000Y-165925714D01*
X122632857Y-165997142D02*
X122775714Y-166068571D01*
X123061428Y-166068571D01*
X123204285Y-165997142D01*
X123275714Y-165854285D01*
X123275714Y-165782857D01*
X123204285Y-165640000D01*
X123061428Y-165568571D01*
X122847142Y-165568571D01*
X122704285Y-165497142D01*
X122632857Y-165354285D01*
X122632857Y-165282857D01*
X122704285Y-165140000D01*
X122847142Y-165068571D01*
X123061428Y-165068571D01*
X123204285Y-165140000D01*
X124490000Y-165997142D02*
X124347142Y-166068571D01*
X124061428Y-166068571D01*
X123918571Y-165997142D01*
X123847142Y-165854285D01*
X123847142Y-165282857D01*
X123918571Y-165140000D01*
X124061428Y-165068571D01*
X124347142Y-165068571D01*
X124490000Y-165140000D01*
X124561428Y-165282857D01*
X124561428Y-165425714D01*
X123847142Y-165568571D01*
D10*
X128479047Y-112771904D02*
X128479047Y-111971904D01*
X129012380Y-111971904D02*
X129164761Y-111971904D01*
X129240952Y-112010000D01*
X129317142Y-112086190D01*
X129355238Y-112238571D01*
X129355238Y-112505238D01*
X129317142Y-112657619D01*
X129240952Y-112733809D01*
X129164761Y-112771904D01*
X129012380Y-112771904D01*
X128936190Y-112733809D01*
X128860000Y-112657619D01*
X128821904Y-112505238D01*
X128821904Y-112238571D01*
X128860000Y-112086190D01*
X128936190Y-112010000D01*
X129012380Y-111971904D01*
X129621904Y-111971904D02*
X130117142Y-111971904D01*
X129850476Y-112276666D01*
X129964761Y-112276666D01*
X130040952Y-112314761D01*
X130079047Y-112352857D01*
X130117142Y-112429047D01*
X130117142Y-112619523D01*
X130079047Y-112695714D01*
X130040952Y-112733809D01*
X129964761Y-112771904D01*
X129736190Y-112771904D01*
X129660000Y-112733809D01*
X129621904Y-112695714D01*
X130802857Y-112238571D02*
X130802857Y-112771904D01*
X130612380Y-111933809D02*
X130421904Y-112505238D01*
X130917142Y-112505238D01*
X125809047Y-112771904D02*
X125809047Y-111971904D01*
X126342380Y-111971904D02*
X126494761Y-111971904D01*
X126570952Y-112010000D01*
X126647142Y-112086190D01*
X126685238Y-112238571D01*
X126685238Y-112505238D01*
X126647142Y-112657619D01*
X126570952Y-112733809D01*
X126494761Y-112771904D01*
X126342380Y-112771904D01*
X126266190Y-112733809D01*
X126190000Y-112657619D01*
X126151904Y-112505238D01*
X126151904Y-112238571D01*
X126190000Y-112086190D01*
X126266190Y-112010000D01*
X126342380Y-111971904D01*
X126951904Y-111971904D02*
X127447142Y-111971904D01*
X127180476Y-112276666D01*
X127294761Y-112276666D01*
X127370952Y-112314761D01*
X127409047Y-112352857D01*
X127447142Y-112429047D01*
X127447142Y-112619523D01*
X127409047Y-112695714D01*
X127370952Y-112733809D01*
X127294761Y-112771904D01*
X127066190Y-112771904D01*
X126990000Y-112733809D01*
X126951904Y-112695714D01*
X128170952Y-111971904D02*
X127790000Y-111971904D01*
X127751904Y-112352857D01*
X127790000Y-112314761D01*
X127866190Y-112276666D01*
X128056666Y-112276666D01*
X128132857Y-112314761D01*
X128170952Y-112352857D01*
X128209047Y-112429047D01*
X128209047Y-112619523D01*
X128170952Y-112695714D01*
X128132857Y-112733809D01*
X128056666Y-112771904D01*
X127866190Y-112771904D01*
X127790000Y-112733809D01*
X127751904Y-112695714D01*
X123717619Y-115771904D02*
X123336666Y-115771904D01*
X123298571Y-116152857D01*
X123336666Y-116114761D01*
X123412857Y-116076666D01*
X123603333Y-116076666D01*
X123679523Y-116114761D01*
X123717619Y-116152857D01*
X123755714Y-116229047D01*
X123755714Y-116419523D01*
X123717619Y-116495714D01*
X123679523Y-116533809D01*
X123603333Y-116571904D01*
X123412857Y-116571904D01*
X123336666Y-116533809D01*
X123298571Y-116495714D01*
X123984285Y-115771904D02*
X124250952Y-116571904D01*
X124517619Y-115771904D01*
X124095714Y-112000000D02*
X124019523Y-111961904D01*
X123905238Y-111961904D01*
X123790952Y-112000000D01*
X123714761Y-112076190D01*
X123676666Y-112152380D01*
X123638571Y-112304761D01*
X123638571Y-112419047D01*
X123676666Y-112571428D01*
X123714761Y-112647619D01*
X123790952Y-112723809D01*
X123905238Y-112761904D01*
X123981428Y-112761904D01*
X124095714Y-112723809D01*
X124133809Y-112685714D01*
X124133809Y-112419047D01*
X123981428Y-112419047D01*
X124476666Y-112228571D02*
X124476666Y-112761904D01*
X124476666Y-112304761D02*
X124514761Y-112266666D01*
X124590952Y-112228571D01*
X124705238Y-112228571D01*
X124781428Y-112266666D01*
X124819523Y-112342857D01*
X124819523Y-112761904D01*
X125543333Y-112761904D02*
X125543333Y-111961904D01*
X125543333Y-112723809D02*
X125467142Y-112761904D01*
X125314761Y-112761904D01*
X125238571Y-112723809D01*
X125200476Y-112685714D01*
X125162380Y-112609523D01*
X125162380Y-112380952D01*
X125200476Y-112304761D01*
X125238571Y-112266666D01*
X125314761Y-112228571D01*
X125467142Y-112228571D01*
X125543333Y-112266666D01*
X118271904Y-114852380D02*
X118271904Y-114395238D01*
X119071904Y-114623809D02*
X118271904Y-114623809D01*
X119071904Y-114204761D02*
X118538571Y-113785714D01*
X118538571Y-114204761D02*
X119071904Y-113785714D01*
X117611904Y-114396190D02*
X117230952Y-114662857D01*
X117611904Y-114853333D02*
X116811904Y-114853333D01*
X116811904Y-114548571D01*
X116850000Y-114472380D01*
X116888095Y-114434285D01*
X116964285Y-114396190D01*
X117078571Y-114396190D01*
X117154761Y-114434285D01*
X117192857Y-114472380D01*
X117230952Y-114548571D01*
X117230952Y-114853333D01*
X117611904Y-114129523D02*
X117078571Y-113710476D01*
X117078571Y-114129523D02*
X117611904Y-113710476D01*
X127458095Y-140781904D02*
X127458095Y-139981904D01*
X127915238Y-140781904D01*
X127915238Y-139981904D01*
X128600952Y-140743809D02*
X128524761Y-140781904D01*
X128372380Y-140781904D01*
X128296190Y-140743809D01*
X128258095Y-140667619D01*
X128258095Y-140362857D01*
X128296190Y-140286666D01*
X128372380Y-140248571D01*
X128524761Y-140248571D01*
X128600952Y-140286666D01*
X128639047Y-140362857D01*
X128639047Y-140439047D01*
X128258095Y-140515238D01*
X129096190Y-140781904D02*
X129020000Y-140743809D01*
X128981904Y-140705714D01*
X128943809Y-140629523D01*
X128943809Y-140400952D01*
X128981904Y-140324761D01*
X129020000Y-140286666D01*
X129096190Y-140248571D01*
X129210476Y-140248571D01*
X129286666Y-140286666D01*
X129324761Y-140324761D01*
X129362857Y-140400952D01*
X129362857Y-140629523D01*
X129324761Y-140705714D01*
X129286666Y-140743809D01*
X129210476Y-140781904D01*
X129096190Y-140781904D01*
X129705714Y-140248571D02*
X129705714Y-141048571D01*
X129705714Y-140286666D02*
X129781904Y-140248571D01*
X129934285Y-140248571D01*
X130010476Y-140286666D01*
X130048571Y-140324761D01*
X130086666Y-140400952D01*
X130086666Y-140629523D01*
X130048571Y-140705714D01*
X130010476Y-140743809D01*
X129934285Y-140781904D01*
X129781904Y-140781904D01*
X129705714Y-140743809D01*
X130429523Y-140781904D02*
X130429523Y-140248571D01*
X130429523Y-139981904D02*
X130391428Y-140020000D01*
X130429523Y-140058095D01*
X130467619Y-140020000D01*
X130429523Y-139981904D01*
X130429523Y-140058095D01*
X130734285Y-140781904D02*
X131153333Y-140248571D01*
X130734285Y-140248571D02*
X131153333Y-140781904D01*
X131762857Y-140743809D02*
X131686666Y-140781904D01*
X131534285Y-140781904D01*
X131458095Y-140743809D01*
X131420000Y-140667619D01*
X131420000Y-140362857D01*
X131458095Y-140286666D01*
X131534285Y-140248571D01*
X131686666Y-140248571D01*
X131762857Y-140286666D01*
X131800952Y-140362857D01*
X131800952Y-140439047D01*
X131420000Y-140515238D01*
X132258095Y-140781904D02*
X132181904Y-140743809D01*
X132143809Y-140667619D01*
X132143809Y-139981904D01*
X146985714Y-133580000D02*
X146909523Y-133541904D01*
X146795238Y-133541904D01*
X146680952Y-133580000D01*
X146604761Y-133656190D01*
X146566666Y-133732380D01*
X146528571Y-133884761D01*
X146528571Y-133999047D01*
X146566666Y-134151428D01*
X146604761Y-134227619D01*
X146680952Y-134303809D01*
X146795238Y-134341904D01*
X146871428Y-134341904D01*
X146985714Y-134303809D01*
X147023809Y-134265714D01*
X147023809Y-133999047D01*
X146871428Y-133999047D01*
X147366666Y-133808571D02*
X147366666Y-134341904D01*
X147366666Y-133884761D02*
X147404761Y-133846666D01*
X147480952Y-133808571D01*
X147595238Y-133808571D01*
X147671428Y-133846666D01*
X147709523Y-133922857D01*
X147709523Y-134341904D01*
X148433333Y-134341904D02*
X148433333Y-133541904D01*
X148433333Y-134303809D02*
X148357142Y-134341904D01*
X148204761Y-134341904D01*
X148128571Y-134303809D01*
X148090476Y-134265714D01*
X148052380Y-134189523D01*
X148052380Y-133960952D01*
X148090476Y-133884761D01*
X148128571Y-133846666D01*
X148204761Y-133808571D01*
X148357142Y-133808571D01*
X148433333Y-133846666D01*
X146845714Y-123020000D02*
X146769523Y-122981904D01*
X146655238Y-122981904D01*
X146540952Y-123020000D01*
X146464761Y-123096190D01*
X146426666Y-123172380D01*
X146388571Y-123324761D01*
X146388571Y-123439047D01*
X146426666Y-123591428D01*
X146464761Y-123667619D01*
X146540952Y-123743809D01*
X146655238Y-123781904D01*
X146731428Y-123781904D01*
X146845714Y-123743809D01*
X146883809Y-123705714D01*
X146883809Y-123439047D01*
X146731428Y-123439047D01*
X147226666Y-123248571D02*
X147226666Y-123781904D01*
X147226666Y-123324761D02*
X147264761Y-123286666D01*
X147340952Y-123248571D01*
X147455238Y-123248571D01*
X147531428Y-123286666D01*
X147569523Y-123362857D01*
X147569523Y-123781904D01*
X148293333Y-123781904D02*
X148293333Y-122981904D01*
X148293333Y-123743809D02*
X148217142Y-123781904D01*
X148064761Y-123781904D01*
X147988571Y-123743809D01*
X147950476Y-123705714D01*
X147912380Y-123629523D01*
X147912380Y-123400952D01*
X147950476Y-123324761D01*
X147988571Y-123286666D01*
X148064761Y-123248571D01*
X148217142Y-123248571D01*
X148293333Y-123286666D01*
X147135714Y-112310000D02*
X147059523Y-112271904D01*
X146945238Y-112271904D01*
X146830952Y-112310000D01*
X146754761Y-112386190D01*
X146716666Y-112462380D01*
X146678571Y-112614761D01*
X146678571Y-112729047D01*
X146716666Y-112881428D01*
X146754761Y-112957619D01*
X146830952Y-113033809D01*
X146945238Y-113071904D01*
X147021428Y-113071904D01*
X147135714Y-113033809D01*
X147173809Y-112995714D01*
X147173809Y-112729047D01*
X147021428Y-112729047D01*
X147516666Y-112538571D02*
X147516666Y-113071904D01*
X147516666Y-112614761D02*
X147554761Y-112576666D01*
X147630952Y-112538571D01*
X147745238Y-112538571D01*
X147821428Y-112576666D01*
X147859523Y-112652857D01*
X147859523Y-113071904D01*
X148583333Y-113071904D02*
X148583333Y-112271904D01*
X148583333Y-113033809D02*
X148507142Y-113071904D01*
X148354761Y-113071904D01*
X148278571Y-113033809D01*
X148240476Y-112995714D01*
X148202380Y-112919523D01*
X148202380Y-112690952D01*
X148240476Y-112614761D01*
X148278571Y-112576666D01*
X148354761Y-112538571D01*
X148507142Y-112538571D01*
X148583333Y-112576666D01*
X147385714Y-101790000D02*
X147309523Y-101751904D01*
X147195238Y-101751904D01*
X147080952Y-101790000D01*
X147004761Y-101866190D01*
X146966666Y-101942380D01*
X146928571Y-102094761D01*
X146928571Y-102209047D01*
X146966666Y-102361428D01*
X147004761Y-102437619D01*
X147080952Y-102513809D01*
X147195238Y-102551904D01*
X147271428Y-102551904D01*
X147385714Y-102513809D01*
X147423809Y-102475714D01*
X147423809Y-102209047D01*
X147271428Y-102209047D01*
X147766666Y-102018571D02*
X147766666Y-102551904D01*
X147766666Y-102094761D02*
X147804761Y-102056666D01*
X147880952Y-102018571D01*
X147995238Y-102018571D01*
X148071428Y-102056666D01*
X148109523Y-102132857D01*
X148109523Y-102551904D01*
X148833333Y-102551904D02*
X148833333Y-101751904D01*
X148833333Y-102513809D02*
X148757142Y-102551904D01*
X148604761Y-102551904D01*
X148528571Y-102513809D01*
X148490476Y-102475714D01*
X148452380Y-102399523D01*
X148452380Y-102170952D01*
X148490476Y-102094761D01*
X148528571Y-102056666D01*
X148604761Y-102018571D01*
X148757142Y-102018571D01*
X148833333Y-102056666D01*
X147095714Y-91080000D02*
X147019523Y-91041904D01*
X146905238Y-91041904D01*
X146790952Y-91080000D01*
X146714761Y-91156190D01*
X146676666Y-91232380D01*
X146638571Y-91384761D01*
X146638571Y-91499047D01*
X146676666Y-91651428D01*
X146714761Y-91727619D01*
X146790952Y-91803809D01*
X146905238Y-91841904D01*
X146981428Y-91841904D01*
X147095714Y-91803809D01*
X147133809Y-91765714D01*
X147133809Y-91499047D01*
X146981428Y-91499047D01*
X147476666Y-91308571D02*
X147476666Y-91841904D01*
X147476666Y-91384761D02*
X147514761Y-91346666D01*
X147590952Y-91308571D01*
X147705238Y-91308571D01*
X147781428Y-91346666D01*
X147819523Y-91422857D01*
X147819523Y-91841904D01*
X148543333Y-91841904D02*
X148543333Y-91041904D01*
X148543333Y-91803809D02*
X148467142Y-91841904D01*
X148314761Y-91841904D01*
X148238571Y-91803809D01*
X148200476Y-91765714D01*
X148162380Y-91689523D01*
X148162380Y-91460952D01*
X148200476Y-91384761D01*
X148238571Y-91346666D01*
X148314761Y-91308571D01*
X148467142Y-91308571D01*
X148543333Y-91346666D01*
X151295476Y-146607142D02*
X151905000Y-146607142D01*
X151295476Y-149207142D02*
X151905000Y-149207142D01*
X151600238Y-149511904D02*
X151600238Y-148902380D01*
X146473333Y-129571904D02*
X146740000Y-130371904D01*
X147006666Y-129571904D01*
X147730476Y-130295714D02*
X147692380Y-130333809D01*
X147578095Y-130371904D01*
X147501904Y-130371904D01*
X147387619Y-130333809D01*
X147311428Y-130257619D01*
X147273333Y-130181428D01*
X147235238Y-130029047D01*
X147235238Y-129914761D01*
X147273333Y-129762380D01*
X147311428Y-129686190D01*
X147387619Y-129610000D01*
X147501904Y-129571904D01*
X147578095Y-129571904D01*
X147692380Y-129610000D01*
X147730476Y-129648095D01*
X148530476Y-130295714D02*
X148492380Y-130333809D01*
X148378095Y-130371904D01*
X148301904Y-130371904D01*
X148187619Y-130333809D01*
X148111428Y-130257619D01*
X148073333Y-130181428D01*
X148035238Y-130029047D01*
X148035238Y-129914761D01*
X148073333Y-129762380D01*
X148111428Y-129686190D01*
X148187619Y-129610000D01*
X148301904Y-129571904D01*
X148378095Y-129571904D01*
X148492380Y-129610000D01*
X148530476Y-129648095D01*
X146143333Y-119011904D02*
X146410000Y-119811904D01*
X146676666Y-119011904D01*
X147400476Y-119735714D02*
X147362380Y-119773809D01*
X147248095Y-119811904D01*
X147171904Y-119811904D01*
X147057619Y-119773809D01*
X146981428Y-119697619D01*
X146943333Y-119621428D01*
X146905238Y-119469047D01*
X146905238Y-119354761D01*
X146943333Y-119202380D01*
X146981428Y-119126190D01*
X147057619Y-119050000D01*
X147171904Y-119011904D01*
X147248095Y-119011904D01*
X147362380Y-119050000D01*
X147400476Y-119088095D01*
X148200476Y-119735714D02*
X148162380Y-119773809D01*
X148048095Y-119811904D01*
X147971904Y-119811904D01*
X147857619Y-119773809D01*
X147781428Y-119697619D01*
X147743333Y-119621428D01*
X147705238Y-119469047D01*
X147705238Y-119354761D01*
X147743333Y-119202380D01*
X147781428Y-119126190D01*
X147857619Y-119050000D01*
X147971904Y-119011904D01*
X148048095Y-119011904D01*
X148162380Y-119050000D01*
X148200476Y-119088095D01*
X146563333Y-108321904D02*
X146830000Y-109121904D01*
X147096666Y-108321904D01*
X147820476Y-109045714D02*
X147782380Y-109083809D01*
X147668095Y-109121904D01*
X147591904Y-109121904D01*
X147477619Y-109083809D01*
X147401428Y-109007619D01*
X147363333Y-108931428D01*
X147325238Y-108779047D01*
X147325238Y-108664761D01*
X147363333Y-108512380D01*
X147401428Y-108436190D01*
X147477619Y-108360000D01*
X147591904Y-108321904D01*
X147668095Y-108321904D01*
X147782380Y-108360000D01*
X147820476Y-108398095D01*
X148620476Y-109045714D02*
X148582380Y-109083809D01*
X148468095Y-109121904D01*
X148391904Y-109121904D01*
X148277619Y-109083809D01*
X148201428Y-109007619D01*
X148163333Y-108931428D01*
X148125238Y-108779047D01*
X148125238Y-108664761D01*
X148163333Y-108512380D01*
X148201428Y-108436190D01*
X148277619Y-108360000D01*
X148391904Y-108321904D01*
X148468095Y-108321904D01*
X148582380Y-108360000D01*
X148620476Y-108398095D01*
X146873333Y-97781904D02*
X147140000Y-98581904D01*
X147406666Y-97781904D01*
X148130476Y-98505714D02*
X148092380Y-98543809D01*
X147978095Y-98581904D01*
X147901904Y-98581904D01*
X147787619Y-98543809D01*
X147711428Y-98467619D01*
X147673333Y-98391428D01*
X147635238Y-98239047D01*
X147635238Y-98124761D01*
X147673333Y-97972380D01*
X147711428Y-97896190D01*
X147787619Y-97820000D01*
X147901904Y-97781904D01*
X147978095Y-97781904D01*
X148092380Y-97820000D01*
X148130476Y-97858095D01*
X148930476Y-98505714D02*
X148892380Y-98543809D01*
X148778095Y-98581904D01*
X148701904Y-98581904D01*
X148587619Y-98543809D01*
X148511428Y-98467619D01*
X148473333Y-98391428D01*
X148435238Y-98239047D01*
X148435238Y-98124761D01*
X148473333Y-97972380D01*
X148511428Y-97896190D01*
X148587619Y-97820000D01*
X148701904Y-97781904D01*
X148778095Y-97781904D01*
X148892380Y-97820000D01*
X148930476Y-97858095D01*
X146513333Y-87041904D02*
X146780000Y-87841904D01*
X147046666Y-87041904D01*
X147770476Y-87765714D02*
X147732380Y-87803809D01*
X147618095Y-87841904D01*
X147541904Y-87841904D01*
X147427619Y-87803809D01*
X147351428Y-87727619D01*
X147313333Y-87651428D01*
X147275238Y-87499047D01*
X147275238Y-87384761D01*
X147313333Y-87232380D01*
X147351428Y-87156190D01*
X147427619Y-87080000D01*
X147541904Y-87041904D01*
X147618095Y-87041904D01*
X147732380Y-87080000D01*
X147770476Y-87118095D01*
X148570476Y-87765714D02*
X148532380Y-87803809D01*
X148418095Y-87841904D01*
X148341904Y-87841904D01*
X148227619Y-87803809D01*
X148151428Y-87727619D01*
X148113333Y-87651428D01*
X148075238Y-87499047D01*
X148075238Y-87384761D01*
X148113333Y-87232380D01*
X148151428Y-87156190D01*
X148227619Y-87080000D01*
X148341904Y-87041904D01*
X148418095Y-87041904D01*
X148532380Y-87080000D01*
X148570476Y-87118095D01*
X146309047Y-132201904D02*
X146309047Y-131401904D01*
X146842380Y-131401904D02*
X146994761Y-131401904D01*
X147070952Y-131440000D01*
X147147142Y-131516190D01*
X147185238Y-131668571D01*
X147185238Y-131935238D01*
X147147142Y-132087619D01*
X147070952Y-132163809D01*
X146994761Y-132201904D01*
X146842380Y-132201904D01*
X146766190Y-132163809D01*
X146690000Y-132087619D01*
X146651904Y-131935238D01*
X146651904Y-131668571D01*
X146690000Y-131516190D01*
X146766190Y-131440000D01*
X146842380Y-131401904D01*
X147490000Y-131478095D02*
X147528095Y-131440000D01*
X147604285Y-131401904D01*
X147794761Y-131401904D01*
X147870952Y-131440000D01*
X147909047Y-131478095D01*
X147947142Y-131554285D01*
X147947142Y-131630476D01*
X147909047Y-131744761D01*
X147451904Y-132201904D01*
X147947142Y-132201904D01*
X148670952Y-131401904D02*
X148290000Y-131401904D01*
X148251904Y-131782857D01*
X148290000Y-131744761D01*
X148366190Y-131706666D01*
X148556666Y-131706666D01*
X148632857Y-131744761D01*
X148670952Y-131782857D01*
X148709047Y-131859047D01*
X148709047Y-132049523D01*
X148670952Y-132125714D01*
X148632857Y-132163809D01*
X148556666Y-132201904D01*
X148366190Y-132201904D01*
X148290000Y-132163809D01*
X148251904Y-132125714D01*
X146319047Y-128331904D02*
X146319047Y-127531904D01*
X146852380Y-127531904D02*
X147004761Y-127531904D01*
X147080952Y-127570000D01*
X147157142Y-127646190D01*
X147195238Y-127798571D01*
X147195238Y-128065238D01*
X147157142Y-128217619D01*
X147080952Y-128293809D01*
X147004761Y-128331904D01*
X146852380Y-128331904D01*
X146776190Y-128293809D01*
X146700000Y-128217619D01*
X146661904Y-128065238D01*
X146661904Y-127798571D01*
X146700000Y-127646190D01*
X146776190Y-127570000D01*
X146852380Y-127531904D01*
X147461904Y-127531904D02*
X147957142Y-127531904D01*
X147690476Y-127836666D01*
X147804761Y-127836666D01*
X147880952Y-127874761D01*
X147919047Y-127912857D01*
X147957142Y-127989047D01*
X147957142Y-128179523D01*
X147919047Y-128255714D01*
X147880952Y-128293809D01*
X147804761Y-128331904D01*
X147576190Y-128331904D01*
X147500000Y-128293809D01*
X147461904Y-128255714D01*
X148261904Y-127608095D02*
X148300000Y-127570000D01*
X148376190Y-127531904D01*
X148566666Y-127531904D01*
X148642857Y-127570000D01*
X148680952Y-127608095D01*
X148719047Y-127684285D01*
X148719047Y-127760476D01*
X148680952Y-127874761D01*
X148223809Y-128331904D01*
X148719047Y-128331904D01*
X146099047Y-121651904D02*
X146099047Y-120851904D01*
X146632380Y-120851904D02*
X146784761Y-120851904D01*
X146860952Y-120890000D01*
X146937142Y-120966190D01*
X146975238Y-121118571D01*
X146975238Y-121385238D01*
X146937142Y-121537619D01*
X146860952Y-121613809D01*
X146784761Y-121651904D01*
X146632380Y-121651904D01*
X146556190Y-121613809D01*
X146480000Y-121537619D01*
X146441904Y-121385238D01*
X146441904Y-121118571D01*
X146480000Y-120966190D01*
X146556190Y-120890000D01*
X146632380Y-120851904D01*
X147280000Y-120928095D02*
X147318095Y-120890000D01*
X147394285Y-120851904D01*
X147584761Y-120851904D01*
X147660952Y-120890000D01*
X147699047Y-120928095D01*
X147737142Y-121004285D01*
X147737142Y-121080476D01*
X147699047Y-121194761D01*
X147241904Y-121651904D01*
X147737142Y-121651904D01*
X148422857Y-120851904D02*
X148270476Y-120851904D01*
X148194285Y-120890000D01*
X148156190Y-120928095D01*
X148080000Y-121042380D01*
X148041904Y-121194761D01*
X148041904Y-121499523D01*
X148080000Y-121575714D01*
X148118095Y-121613809D01*
X148194285Y-121651904D01*
X148346666Y-121651904D01*
X148422857Y-121613809D01*
X148460952Y-121575714D01*
X148499047Y-121499523D01*
X148499047Y-121309047D01*
X148460952Y-121232857D01*
X148422857Y-121194761D01*
X148346666Y-121156666D01*
X148194285Y-121156666D01*
X148118095Y-121194761D01*
X148080000Y-121232857D01*
X148041904Y-121309047D01*
X146279047Y-117661904D02*
X146279047Y-116861904D01*
X146812380Y-116861904D02*
X146964761Y-116861904D01*
X147040952Y-116900000D01*
X147117142Y-116976190D01*
X147155238Y-117128571D01*
X147155238Y-117395238D01*
X147117142Y-117547619D01*
X147040952Y-117623809D01*
X146964761Y-117661904D01*
X146812380Y-117661904D01*
X146736190Y-117623809D01*
X146660000Y-117547619D01*
X146621904Y-117395238D01*
X146621904Y-117128571D01*
X146660000Y-116976190D01*
X146736190Y-116900000D01*
X146812380Y-116861904D01*
X147460000Y-116938095D02*
X147498095Y-116900000D01*
X147574285Y-116861904D01*
X147764761Y-116861904D01*
X147840952Y-116900000D01*
X147879047Y-116938095D01*
X147917142Y-117014285D01*
X147917142Y-117090476D01*
X147879047Y-117204761D01*
X147421904Y-117661904D01*
X147917142Y-117661904D01*
X148183809Y-116861904D02*
X148717142Y-116861904D01*
X148374285Y-117661904D01*
X146499047Y-111031904D02*
X146499047Y-110231904D01*
X147032380Y-110231904D02*
X147184761Y-110231904D01*
X147260952Y-110270000D01*
X147337142Y-110346190D01*
X147375238Y-110498571D01*
X147375238Y-110765238D01*
X147337142Y-110917619D01*
X147260952Y-110993809D01*
X147184761Y-111031904D01*
X147032380Y-111031904D01*
X146956190Y-110993809D01*
X146880000Y-110917619D01*
X146841904Y-110765238D01*
X146841904Y-110498571D01*
X146880000Y-110346190D01*
X146956190Y-110270000D01*
X147032380Y-110231904D01*
X148137142Y-111031904D02*
X147680000Y-111031904D01*
X147908571Y-111031904D02*
X147908571Y-110231904D01*
X147832380Y-110346190D01*
X147756190Y-110422380D01*
X147680000Y-110460476D01*
X148403809Y-110231904D02*
X148899047Y-110231904D01*
X148632380Y-110536666D01*
X148746666Y-110536666D01*
X148822857Y-110574761D01*
X148860952Y-110612857D01*
X148899047Y-110689047D01*
X148899047Y-110879523D01*
X148860952Y-110955714D01*
X148822857Y-110993809D01*
X148746666Y-111031904D01*
X148518095Y-111031904D01*
X148441904Y-110993809D01*
X148403809Y-110955714D01*
X146529047Y-107181904D02*
X146529047Y-106381904D01*
X147062380Y-106381904D02*
X147214761Y-106381904D01*
X147290952Y-106420000D01*
X147367142Y-106496190D01*
X147405238Y-106648571D01*
X147405238Y-106915238D01*
X147367142Y-107067619D01*
X147290952Y-107143809D01*
X147214761Y-107181904D01*
X147062380Y-107181904D01*
X146986190Y-107143809D01*
X146910000Y-107067619D01*
X146871904Y-106915238D01*
X146871904Y-106648571D01*
X146910000Y-106496190D01*
X146986190Y-106420000D01*
X147062380Y-106381904D01*
X147900476Y-106381904D02*
X147976666Y-106381904D01*
X148052857Y-106420000D01*
X148090952Y-106458095D01*
X148129047Y-106534285D01*
X148167142Y-106686666D01*
X148167142Y-106877142D01*
X148129047Y-107029523D01*
X148090952Y-107105714D01*
X148052857Y-107143809D01*
X147976666Y-107181904D01*
X147900476Y-107181904D01*
X147824285Y-107143809D01*
X147786190Y-107105714D01*
X147748095Y-107029523D01*
X147710000Y-106877142D01*
X147710000Y-106686666D01*
X147748095Y-106534285D01*
X147786190Y-106458095D01*
X147824285Y-106420000D01*
X147900476Y-106381904D01*
X148852857Y-106648571D02*
X148852857Y-107181904D01*
X148662380Y-106343809D02*
X148471904Y-106915238D01*
X148967142Y-106915238D01*
X146719047Y-100581904D02*
X146719047Y-99781904D01*
X147252380Y-99781904D02*
X147404761Y-99781904D01*
X147480952Y-99820000D01*
X147557142Y-99896190D01*
X147595238Y-100048571D01*
X147595238Y-100315238D01*
X147557142Y-100467619D01*
X147480952Y-100543809D01*
X147404761Y-100581904D01*
X147252380Y-100581904D01*
X147176190Y-100543809D01*
X147100000Y-100467619D01*
X147061904Y-100315238D01*
X147061904Y-100048571D01*
X147100000Y-99896190D01*
X147176190Y-99820000D01*
X147252380Y-99781904D01*
X148357142Y-100581904D02*
X147900000Y-100581904D01*
X148128571Y-100581904D02*
X148128571Y-99781904D01*
X148052380Y-99896190D01*
X147976190Y-99972380D01*
X147900000Y-100010476D01*
X149042857Y-99781904D02*
X148890476Y-99781904D01*
X148814285Y-99820000D01*
X148776190Y-99858095D01*
X148700000Y-99972380D01*
X148661904Y-100124761D01*
X148661904Y-100429523D01*
X148700000Y-100505714D01*
X148738095Y-100543809D01*
X148814285Y-100581904D01*
X148966666Y-100581904D01*
X149042857Y-100543809D01*
X149080952Y-100505714D01*
X149119047Y-100429523D01*
X149119047Y-100239047D01*
X149080952Y-100162857D01*
X149042857Y-100124761D01*
X148966666Y-100086666D01*
X148814285Y-100086666D01*
X148738095Y-100124761D01*
X148700000Y-100162857D01*
X148661904Y-100239047D01*
X146669047Y-96651904D02*
X146669047Y-95851904D01*
X147202380Y-95851904D02*
X147354761Y-95851904D01*
X147430952Y-95890000D01*
X147507142Y-95966190D01*
X147545238Y-96118571D01*
X147545238Y-96385238D01*
X147507142Y-96537619D01*
X147430952Y-96613809D01*
X147354761Y-96651904D01*
X147202380Y-96651904D01*
X147126190Y-96613809D01*
X147050000Y-96537619D01*
X147011904Y-96385238D01*
X147011904Y-96118571D01*
X147050000Y-95966190D01*
X147126190Y-95890000D01*
X147202380Y-95851904D01*
X148307142Y-96651904D02*
X147850000Y-96651904D01*
X148078571Y-96651904D02*
X148078571Y-95851904D01*
X148002380Y-95966190D01*
X147926190Y-96042380D01*
X147850000Y-96080476D01*
X148573809Y-95851904D02*
X149107142Y-95851904D01*
X148764285Y-96651904D01*
X146419047Y-89601904D02*
X146419047Y-88801904D01*
X146952380Y-88801904D02*
X147104761Y-88801904D01*
X147180952Y-88840000D01*
X147257142Y-88916190D01*
X147295238Y-89068571D01*
X147295238Y-89335238D01*
X147257142Y-89487619D01*
X147180952Y-89563809D01*
X147104761Y-89601904D01*
X146952380Y-89601904D01*
X146876190Y-89563809D01*
X146800000Y-89487619D01*
X146761904Y-89335238D01*
X146761904Y-89068571D01*
X146800000Y-88916190D01*
X146876190Y-88840000D01*
X146952380Y-88801904D01*
X148057142Y-89601904D02*
X147600000Y-89601904D01*
X147828571Y-89601904D02*
X147828571Y-88801904D01*
X147752380Y-88916190D01*
X147676190Y-88992380D01*
X147600000Y-89030476D01*
X148514285Y-89144761D02*
X148438095Y-89106666D01*
X148400000Y-89068571D01*
X148361904Y-88992380D01*
X148361904Y-88954285D01*
X148400000Y-88878095D01*
X148438095Y-88840000D01*
X148514285Y-88801904D01*
X148666666Y-88801904D01*
X148742857Y-88840000D01*
X148780952Y-88878095D01*
X148819047Y-88954285D01*
X148819047Y-88992380D01*
X148780952Y-89068571D01*
X148742857Y-89106666D01*
X148666666Y-89144761D01*
X148514285Y-89144761D01*
X148438095Y-89182857D01*
X148400000Y-89220952D01*
X148361904Y-89297142D01*
X148361904Y-89449523D01*
X148400000Y-89525714D01*
X148438095Y-89563809D01*
X148514285Y-89601904D01*
X148666666Y-89601904D01*
X148742857Y-89563809D01*
X148780952Y-89525714D01*
X148819047Y-89449523D01*
X148819047Y-89297142D01*
X148780952Y-89220952D01*
X148742857Y-89182857D01*
X148666666Y-89144761D01*
X146439047Y-85991904D02*
X146439047Y-85191904D01*
X146972380Y-85191904D02*
X147124761Y-85191904D01*
X147200952Y-85230000D01*
X147277142Y-85306190D01*
X147315238Y-85458571D01*
X147315238Y-85725238D01*
X147277142Y-85877619D01*
X147200952Y-85953809D01*
X147124761Y-85991904D01*
X146972380Y-85991904D01*
X146896190Y-85953809D01*
X146820000Y-85877619D01*
X146781904Y-85725238D01*
X146781904Y-85458571D01*
X146820000Y-85306190D01*
X146896190Y-85230000D01*
X146972380Y-85191904D01*
X148077142Y-85991904D02*
X147620000Y-85991904D01*
X147848571Y-85991904D02*
X147848571Y-85191904D01*
X147772380Y-85306190D01*
X147696190Y-85382380D01*
X147620000Y-85420476D01*
X148458095Y-85991904D02*
X148610476Y-85991904D01*
X148686666Y-85953809D01*
X148724761Y-85915714D01*
X148800952Y-85801428D01*
X148839047Y-85649047D01*
X148839047Y-85344285D01*
X148800952Y-85268095D01*
X148762857Y-85230000D01*
X148686666Y-85191904D01*
X148534285Y-85191904D01*
X148458095Y-85230000D01*
X148420000Y-85268095D01*
X148381904Y-85344285D01*
X148381904Y-85534761D01*
X148420000Y-85610952D01*
X148458095Y-85649047D01*
X148534285Y-85687142D01*
X148686666Y-85687142D01*
X148762857Y-85649047D01*
X148800952Y-85610952D01*
X148839047Y-85534761D01*
X131405714Y-138610000D02*
X131329523Y-138571904D01*
X131215238Y-138571904D01*
X131100952Y-138610000D01*
X131024761Y-138686190D01*
X130986666Y-138762380D01*
X130948571Y-138914761D01*
X130948571Y-139029047D01*
X130986666Y-139181428D01*
X131024761Y-139257619D01*
X131100952Y-139333809D01*
X131215238Y-139371904D01*
X131291428Y-139371904D01*
X131405714Y-139333809D01*
X131443809Y-139295714D01*
X131443809Y-139029047D01*
X131291428Y-139029047D01*
X131786666Y-138838571D02*
X131786666Y-139371904D01*
X131786666Y-138914761D02*
X131824761Y-138876666D01*
X131900952Y-138838571D01*
X132015238Y-138838571D01*
X132091428Y-138876666D01*
X132129523Y-138952857D01*
X132129523Y-139371904D01*
X132853333Y-139371904D02*
X132853333Y-138571904D01*
X132853333Y-139333809D02*
X132777142Y-139371904D01*
X132624761Y-139371904D01*
X132548571Y-139333809D01*
X132510476Y-139295714D01*
X132472380Y-139219523D01*
X132472380Y-138990952D01*
X132510476Y-138914761D01*
X132548571Y-138876666D01*
X132624761Y-138838571D01*
X132777142Y-138838571D01*
X132853333Y-138876666D01*
X129547619Y-138551904D02*
X129166666Y-138551904D01*
X129128571Y-138932857D01*
X129166666Y-138894761D01*
X129242857Y-138856666D01*
X129433333Y-138856666D01*
X129509523Y-138894761D01*
X129547619Y-138932857D01*
X129585714Y-139009047D01*
X129585714Y-139199523D01*
X129547619Y-139275714D01*
X129509523Y-139313809D01*
X129433333Y-139351904D01*
X129242857Y-139351904D01*
X129166666Y-139313809D01*
X129128571Y-139275714D01*
X129814285Y-138551904D02*
X130080952Y-139351904D01*
X130347619Y-138551904D01*
X126800000Y-139351904D02*
X126800000Y-138551904D01*
X127333333Y-138551904D02*
X127485714Y-138551904D01*
X127561904Y-138590000D01*
X127638095Y-138666190D01*
X127676190Y-138818571D01*
X127676190Y-139085238D01*
X127638095Y-139237619D01*
X127561904Y-139313809D01*
X127485714Y-139351904D01*
X127333333Y-139351904D01*
X127257142Y-139313809D01*
X127180952Y-139237619D01*
X127142857Y-139085238D01*
X127142857Y-138818571D01*
X127180952Y-138666190D01*
X127257142Y-138590000D01*
X127333333Y-138551904D01*
X127980952Y-138628095D02*
X128019047Y-138590000D01*
X128095238Y-138551904D01*
X128285714Y-138551904D01*
X128361904Y-138590000D01*
X128400000Y-138628095D01*
X128438095Y-138704285D01*
X128438095Y-138780476D01*
X128400000Y-138894761D01*
X127942857Y-139351904D01*
X128438095Y-139351904D01*
X120751904Y-101961904D02*
X120485238Y-101580952D01*
X120294761Y-101961904D02*
X120294761Y-101161904D01*
X120599523Y-101161904D01*
X120675714Y-101200000D01*
X120713809Y-101238095D01*
X120751904Y-101314285D01*
X120751904Y-101428571D01*
X120713809Y-101504761D01*
X120675714Y-101542857D01*
X120599523Y-101580952D01*
X120294761Y-101580952D01*
X121056666Y-101923809D02*
X121170952Y-101961904D01*
X121361428Y-101961904D01*
X121437619Y-101923809D01*
X121475714Y-101885714D01*
X121513809Y-101809523D01*
X121513809Y-101733333D01*
X121475714Y-101657142D01*
X121437619Y-101619047D01*
X121361428Y-101580952D01*
X121209047Y-101542857D01*
X121132857Y-101504761D01*
X121094761Y-101466666D01*
X121056666Y-101390476D01*
X121056666Y-101314285D01*
X121094761Y-101238095D01*
X121132857Y-101200000D01*
X121209047Y-101161904D01*
X121399523Y-101161904D01*
X121513809Y-101200000D01*
X121742380Y-101161904D02*
X122199523Y-101161904D01*
X121970952Y-101961904D02*
X121970952Y-101161904D01*
X100988571Y-128441904D02*
X100988571Y-127641904D01*
X101293333Y-127641904D01*
X101369523Y-127680000D01*
X101407619Y-127718095D01*
X101445714Y-127794285D01*
X101445714Y-127908571D01*
X101407619Y-127984761D01*
X101369523Y-128022857D01*
X101293333Y-128060952D01*
X100988571Y-128060952D01*
X101712380Y-127641904D02*
X101902857Y-128441904D01*
X102055238Y-127870476D01*
X102207619Y-128441904D01*
X102398095Y-127641904D01*
X103160000Y-128441904D02*
X102893333Y-128060952D01*
X102702857Y-128441904D02*
X102702857Y-127641904D01*
X103007619Y-127641904D01*
X103083809Y-127680000D01*
X103121904Y-127718095D01*
X103160000Y-127794285D01*
X103160000Y-127908571D01*
X103121904Y-127984761D01*
X103083809Y-128022857D01*
X103007619Y-128060952D01*
X102702857Y-128060952D01*
X100360000Y-129703809D02*
X100474285Y-129741904D01*
X100664761Y-129741904D01*
X100740952Y-129703809D01*
X100779047Y-129665714D01*
X100817142Y-129589523D01*
X100817142Y-129513333D01*
X100779047Y-129437142D01*
X100740952Y-129399047D01*
X100664761Y-129360952D01*
X100512380Y-129322857D01*
X100436190Y-129284761D01*
X100398095Y-129246666D01*
X100360000Y-129170476D01*
X100360000Y-129094285D01*
X100398095Y-129018095D01*
X100436190Y-128980000D01*
X100512380Y-128941904D01*
X100702857Y-128941904D01*
X100817142Y-128980000D01*
X101083809Y-128941904D02*
X101274285Y-129741904D01*
X101426666Y-129170476D01*
X101579047Y-129741904D01*
X101769523Y-128941904D01*
X102074285Y-129741904D02*
X102074285Y-128941904D01*
X102340952Y-128941904D02*
X102798095Y-128941904D01*
X102569523Y-129741904D02*
X102569523Y-128941904D01*
X103521904Y-129665714D02*
X103483809Y-129703809D01*
X103369523Y-129741904D01*
X103293333Y-129741904D01*
X103179047Y-129703809D01*
X103102857Y-129627619D01*
X103064761Y-129551428D01*
X103026666Y-129399047D01*
X103026666Y-129284761D01*
X103064761Y-129132380D01*
X103102857Y-129056190D01*
X103179047Y-128980000D01*
X103293333Y-128941904D01*
X103369523Y-128941904D01*
X103483809Y-128980000D01*
X103521904Y-129018095D01*
X103864761Y-129741904D02*
X103864761Y-128941904D01*
X103864761Y-129322857D02*
X104321904Y-129322857D01*
X104321904Y-129741904D02*
X104321904Y-128941904D01*
D13*
G36*
X137996460Y-139238988D02*
G01*
X138045375Y-139257769D01*
X138057492Y-139263384D01*
X138128472Y-139305927D01*
X138176502Y-139359496D01*
X138206346Y-139431516D01*
X138221705Y-139519242D01*
X138237345Y-139608545D01*
X138261309Y-139665508D01*
X138293965Y-139690706D01*
X138328561Y-139687681D01*
X138362456Y-139660108D01*
X138379071Y-139607499D01*
X138379054Y-139527579D01*
X138377769Y-139514160D01*
X138376864Y-139451110D01*
X138392749Y-139399736D01*
X138407045Y-139374246D01*
X138445571Y-139322446D01*
X138488141Y-139293447D01*
X138546004Y-139281451D01*
X138589935Y-139280000D01*
X138665565Y-139291599D01*
X138720068Y-139328474D01*
X138757909Y-139393743D01*
X138759711Y-139398533D01*
X138772535Y-139476836D01*
X138752362Y-139553697D01*
X138698822Y-139630246D01*
X138676455Y-139653074D01*
X138622926Y-139708804D01*
X138597514Y-139746575D01*
X138599958Y-139766916D01*
X138618316Y-139771066D01*
X138640805Y-139757445D01*
X138668674Y-139723177D01*
X138679263Y-139705891D01*
X138735758Y-139639284D01*
X138790866Y-139604291D01*
X138880631Y-139573400D01*
X138958322Y-139573301D01*
X139022792Y-139603777D01*
X139068062Y-139656344D01*
X139096990Y-139731184D01*
X139095069Y-139804271D01*
X139065235Y-139871510D01*
X139010422Y-139928805D01*
X138933568Y-139972061D01*
X138837608Y-139997181D01*
X138822372Y-139999066D01*
X138760531Y-140006836D01*
X138726875Y-140016833D01*
X138715841Y-140034075D01*
X138721863Y-140063581D01*
X138729047Y-140083230D01*
X138740194Y-140106188D01*
X138757404Y-140119212D01*
X138789244Y-140125096D01*
X138844280Y-140126633D01*
X138862230Y-140126666D01*
X138951368Y-140133466D01*
X139016379Y-140156408D01*
X139064679Y-140199309D01*
X139093871Y-140245854D01*
X139116389Y-140320431D01*
X139105977Y-140390207D01*
X139063526Y-140452123D01*
X139024658Y-140483175D01*
X138950900Y-140512793D01*
X138870502Y-140512803D01*
X138790594Y-140484539D01*
X138718303Y-140429333D01*
X138714305Y-140425130D01*
X138679404Y-140397061D01*
X138655699Y-140396262D01*
X138643370Y-140417975D01*
X138642598Y-140457444D01*
X138653563Y-140509915D01*
X138676445Y-140570630D01*
X138706640Y-140627196D01*
X138746460Y-140692356D01*
X138794071Y-140770813D01*
X138839900Y-140846787D01*
X138844712Y-140854800D01*
X138910555Y-140963121D01*
X138962918Y-141045759D01*
X139004628Y-141106710D01*
X139038515Y-141149970D01*
X139067406Y-141179536D01*
X139083712Y-141192502D01*
X139125977Y-141219018D01*
X139157413Y-141223742D01*
X139191452Y-141205856D01*
X139218271Y-141184304D01*
X139260947Y-141132120D01*
X139304431Y-141047028D01*
X139322589Y-141002271D01*
X139372417Y-140893462D01*
X139433114Y-140805184D01*
X139509874Y-140732981D01*
X139607891Y-140672396D01*
X139732360Y-140618975D01*
X139794657Y-140597312D01*
X139984117Y-140550139D01*
X140197793Y-140525354D01*
X140434438Y-140523014D01*
X140692803Y-140543179D01*
X140761466Y-140551855D01*
X140996020Y-140599576D01*
X141231181Y-140678320D01*
X141460828Y-140785920D01*
X141526088Y-140822544D01*
X141589904Y-140862756D01*
X141632569Y-140899245D01*
X141664000Y-140941757D01*
X141682721Y-140976463D01*
X141705092Y-141026670D01*
X141718421Y-141074345D01*
X141724885Y-141131338D01*
X141726661Y-141209495D01*
X141726666Y-141215587D01*
X141725513Y-141292091D01*
X141720302Y-141346955D01*
X141708404Y-141392372D01*
X141687191Y-141440540D01*
X141671726Y-141470496D01*
X141625867Y-141541175D01*
X141557030Y-141625950D01*
X141470149Y-141719730D01*
X141370152Y-141817424D01*
X141261972Y-141913942D01*
X141167372Y-141991174D01*
X140957221Y-142144078D01*
X140752151Y-142271374D01*
X140554066Y-142372273D01*
X140364865Y-142445983D01*
X140186450Y-142491714D01*
X140020723Y-142508676D01*
X139931733Y-142505076D01*
X139835504Y-142489269D01*
X139753938Y-142459656D01*
X139677510Y-142411249D01*
X139596694Y-142339062D01*
X139577551Y-142319671D01*
X139527724Y-142270802D01*
X139484697Y-142233048D01*
X139455055Y-142212000D01*
X139447734Y-142209466D01*
X139414605Y-142223355D01*
X139363979Y-142264209D01*
X139297137Y-142330810D01*
X139215360Y-142421941D01*
X139178374Y-142465441D01*
X139123160Y-142533401D01*
X139068214Y-142604757D01*
X139017627Y-142673752D01*
X138975489Y-142734633D01*
X138945892Y-142781643D01*
X138932924Y-142809027D01*
X138932666Y-142811160D01*
X138926091Y-142828681D01*
X138907929Y-142871654D01*
X138880527Y-142934662D01*
X138846231Y-143012287D01*
X138822600Y-143065236D01*
X138772547Y-143180843D01*
X138738102Y-143271135D01*
X138718516Y-143340454D01*
X138713040Y-143393138D01*
X138720926Y-143433530D01*
X138741426Y-143465970D01*
X138751691Y-143476483D01*
X138790849Y-143513271D01*
X138790850Y-143403059D01*
X138798286Y-143314259D01*
X138822943Y-143250560D01*
X138868339Y-143206089D01*
X138924948Y-143179343D01*
X138986540Y-143164884D01*
X139043467Y-143170969D01*
X139052644Y-143173509D01*
X139107192Y-143201791D01*
X139139947Y-143249730D01*
X139151552Y-143319650D01*
X139142652Y-143413875D01*
X139132668Y-143462498D01*
X139122122Y-143515630D01*
X139122019Y-143545759D01*
X139132742Y-143562220D01*
X139136901Y-143565131D01*
X139183089Y-143580281D01*
X139220364Y-143565897D01*
X139236848Y-143540359D01*
X139273402Y-143478756D01*
X139328674Y-143442410D01*
X139406671Y-143428879D01*
X139420152Y-143428666D01*
X139477636Y-143431263D01*
X139516588Y-143442959D01*
X139552188Y-143469610D01*
X139569359Y-143486239D01*
X139609989Y-143536049D01*
X139625972Y-143583555D01*
X139626870Y-143600539D01*
X139611112Y-143676529D01*
X139567993Y-143741158D01*
X139503473Y-143789106D01*
X139423515Y-143815051D01*
X139383074Y-143818133D01*
X139343157Y-143821246D01*
X139322627Y-143828926D01*
X139321902Y-143830833D01*
X139317723Y-143855803D01*
X139311460Y-143881633D01*
X139307961Y-143903265D01*
X139317243Y-143914638D01*
X139346580Y-143919033D01*
X139395968Y-143919733D01*
X139462831Y-143925518D01*
X139506610Y-143946848D01*
X139533738Y-143989684D01*
X139550644Y-144059990D01*
X139551231Y-144063666D01*
X139553889Y-144118285D01*
X139538034Y-144164560D01*
X139521883Y-144190666D01*
X139493701Y-144226807D01*
X139463882Y-144245398D01*
X139418846Y-144253348D01*
X139395482Y-144254983D01*
X139344209Y-144259471D01*
X139317013Y-144269073D01*
X139304115Y-144289672D01*
X139298440Y-144313365D01*
X139278357Y-144381578D01*
X139247029Y-144422161D01*
X139197429Y-144441089D01*
X139143942Y-144444666D01*
X139078946Y-144440516D01*
X139036853Y-144426301D01*
X139018432Y-144411899D01*
X138992712Y-144373186D01*
X138968830Y-144317000D01*
X138952898Y-144259463D01*
X138949694Y-144230578D01*
X138935973Y-144208497D01*
X138922815Y-144200945D01*
X138891548Y-144191455D01*
X138885824Y-144198673D01*
X138891012Y-144208698D01*
X138897189Y-144245426D01*
X138887023Y-144296548D01*
X138864275Y-144349203D01*
X138839961Y-144383337D01*
X138806401Y-144411869D01*
X138766487Y-144424941D01*
X138715217Y-144427733D01*
X138637941Y-144417540D01*
X138585919Y-144387754D01*
X138560978Y-144339567D01*
X138559273Y-144326133D01*
X138557624Y-144246583D01*
X138567299Y-144188872D01*
X138590964Y-144142097D01*
X138610206Y-144117881D01*
X138660280Y-144060850D01*
X138623851Y-143986058D01*
X138602832Y-143944307D01*
X138583680Y-143915845D01*
X138558693Y-143894835D01*
X138520168Y-143875438D01*
X138460402Y-143851816D01*
X138433133Y-143841505D01*
X138307982Y-143790638D01*
X138212308Y-143743099D01*
X138142208Y-143696495D01*
X138093777Y-143648435D01*
X138076246Y-143622731D01*
X138034570Y-143551617D01*
X138094564Y-143375842D01*
X138117079Y-143303478D01*
X138140408Y-143217626D01*
X138163109Y-143125034D01*
X138183740Y-143032454D01*
X138200860Y-142946635D01*
X138213027Y-142874329D01*
X138218800Y-142822285D01*
X138217687Y-142799261D01*
X138202549Y-142799381D01*
X138168855Y-142817108D01*
X138128334Y-142845343D01*
X137997261Y-142924301D01*
X137848812Y-142975086D01*
X137684902Y-142997363D01*
X137507444Y-142990795D01*
X137398284Y-142973481D01*
X137328540Y-142958676D01*
X137270839Y-142944972D01*
X137233704Y-142934460D01*
X137225583Y-142931100D01*
X137201684Y-142922710D01*
X137153144Y-142909796D01*
X137088516Y-142894556D01*
X137054614Y-142887130D01*
X136980166Y-142871977D01*
X136928709Y-142864470D01*
X136890310Y-142864320D01*
X136855036Y-142871237D01*
X136825918Y-142880458D01*
X136778726Y-142903874D01*
X136727226Y-142940377D01*
X136679708Y-142982561D01*
X136644463Y-143023022D01*
X136629779Y-143054355D01*
X136629733Y-143055697D01*
X136644112Y-143071593D01*
X136676300Y-143085282D01*
X136708384Y-143097775D01*
X136763285Y-143122650D01*
X136833842Y-143156534D01*
X136912894Y-143196054D01*
X136929201Y-143204393D01*
X137071475Y-143282989D01*
X137183031Y-143358169D01*
X137266378Y-143433078D01*
X137324024Y-143510863D01*
X137358476Y-143594669D01*
X137372242Y-143687642D01*
X137371005Y-143758597D01*
X137365010Y-143807501D01*
X137352535Y-143855306D01*
X137330938Y-143907190D01*
X137297574Y-143968332D01*
X137249802Y-144043911D01*
X137184978Y-144139105D01*
X137154833Y-144182200D01*
X137116462Y-144240434D01*
X137087227Y-144291746D01*
X137071924Y-144327456D01*
X137070752Y-144334272D01*
X137076630Y-144368075D01*
X137092554Y-144419330D01*
X137107202Y-144457570D01*
X137131512Y-144509730D01*
X137151013Y-144534115D01*
X137169729Y-144535646D01*
X137170702Y-144535218D01*
X137227084Y-144520324D01*
X137298525Y-144515736D01*
X137369348Y-144521313D01*
X137423875Y-144536917D01*
X137424965Y-144537471D01*
X137476762Y-144580730D01*
X137510020Y-144641708D01*
X137524335Y-144711732D01*
X137519303Y-144782132D01*
X137494523Y-144844237D01*
X137449590Y-144889375D01*
X137441538Y-144893914D01*
X137371220Y-144914274D01*
X137280045Y-144915954D01*
X137175418Y-144898931D01*
X137158919Y-144894736D01*
X137107209Y-144881897D01*
X137076910Y-144879795D01*
X137056774Y-144890209D01*
X137036152Y-144914154D01*
X137012530Y-144949022D01*
X137002279Y-144973739D01*
X137002266Y-144974223D01*
X137012968Y-144994969D01*
X137040676Y-145031197D01*
X137070000Y-145064694D01*
X137110315Y-145112724D01*
X137130764Y-145152133D01*
X137137439Y-145196050D01*
X137137670Y-145210521D01*
X137123365Y-145295384D01*
X137084093Y-145365001D01*
X137025075Y-145414442D01*
X136951531Y-145438776D01*
X136896246Y-145438514D01*
X136823676Y-145415700D01*
X136769839Y-145368262D01*
X136733773Y-145294613D01*
X136714518Y-145193164D01*
X136710910Y-145132125D01*
X136706983Y-145075595D01*
X136697294Y-145044887D01*
X136679292Y-145032109D01*
X136678516Y-145031899D01*
X136653565Y-145035897D01*
X136638927Y-145067987D01*
X136638256Y-145070944D01*
X136613098Y-145131854D01*
X136568399Y-145195771D01*
X136514149Y-145249130D01*
X136498845Y-145260176D01*
X136449383Y-145281260D01*
X136391830Y-145291124D01*
X136386760Y-145291221D01*
X136321731Y-145276045D01*
X136267708Y-145235719D01*
X136229569Y-145178403D01*
X136212191Y-145112253D01*
X136220454Y-145045428D01*
X136228567Y-145026650D01*
X136259155Y-144979157D01*
X136301208Y-144939008D01*
X136363636Y-144898271D01*
X136388433Y-144884330D01*
X136430357Y-144858716D01*
X136456299Y-144837852D01*
X136460399Y-144831015D01*
X136457553Y-144820152D01*
X136444953Y-144820961D01*
X136416506Y-144835792D01*
X136366121Y-144866997D01*
X136364539Y-144868000D01*
X136297014Y-144904323D01*
X136239974Y-144916923D01*
X136181354Y-144907343D01*
X136149506Y-144895482D01*
X136095085Y-144855591D01*
X136063852Y-144792028D01*
X136056634Y-144706555D01*
X136057145Y-144698459D01*
X136068206Y-144641867D01*
X136094901Y-144601384D01*
X136141927Y-144574031D01*
X136213984Y-144556825D01*
X136293833Y-144548288D01*
X136363333Y-144542294D01*
X136405566Y-144535636D01*
X136427103Y-144526276D01*
X136434516Y-144512181D01*
X136434999Y-144504567D01*
X136431358Y-144485976D01*
X136416268Y-144471787D01*
X136383483Y-144459145D01*
X136326757Y-144445194D01*
X136286308Y-144436595D01*
X136241007Y-144412044D01*
X136202107Y-144365016D01*
X136177388Y-144306872D01*
X136172596Y-144270556D01*
X136185943Y-144187785D01*
X136223635Y-144126396D01*
X136281779Y-144089410D01*
X136356479Y-144079850D01*
X136407261Y-144088437D01*
X136449131Y-144104101D01*
X136486903Y-144130254D01*
X136527127Y-144172881D01*
X136576355Y-144237962D01*
X136586238Y-144251900D01*
X136618944Y-144298315D01*
X136658205Y-144181926D01*
X136684778Y-144085143D01*
X136696090Y-144000877D01*
X136691751Y-143935209D01*
X136676299Y-143899580D01*
X136657782Y-143886935D01*
X136621774Y-143877283D01*
X136563191Y-143869771D01*
X136476945Y-143863546D01*
X136453805Y-143862268D01*
X136233982Y-143835047D01*
X136028078Y-143777696D01*
X135852912Y-143699018D01*
X135761890Y-143649759D01*
X135471912Y-143757540D01*
X135309765Y-143815974D01*
X135150914Y-143869128D01*
X134987043Y-143919517D01*
X134809836Y-143969652D01*
X134610978Y-144022046D01*
X134521533Y-144044695D01*
X134222166Y-144126930D01*
X133955330Y-144215507D01*
X133720203Y-144310883D01*
X133515963Y-144413514D01*
X133341789Y-144523857D01*
X133196861Y-144642367D01*
X133080356Y-144769503D01*
X132999641Y-144890753D01*
X132949165Y-144994781D01*
X132913383Y-145103497D01*
X132889829Y-145226450D01*
X132876333Y-145368355D01*
X132877741Y-145544382D01*
X132901981Y-145721517D01*
X132946918Y-145893058D01*
X133010416Y-146052301D01*
X133090339Y-146192546D01*
X133171066Y-146293357D01*
X133275091Y-146388838D01*
X133387478Y-146463024D01*
X133517646Y-146521436D01*
X133613875Y-146552869D01*
X133687416Y-146572494D01*
X133753893Y-146585140D01*
X133821138Y-146591038D01*
X133896985Y-146590415D01*
X133989267Y-146583500D01*
X134105816Y-146570523D01*
X134127460Y-146567872D01*
X134179242Y-146564019D01*
X134213519Y-146571986D01*
X134245943Y-146596698D01*
X134258693Y-146609155D01*
X134300804Y-146670111D01*
X134311465Y-146732999D01*
X134292437Y-146793119D01*
X134245482Y-146845767D01*
X134172360Y-146886242D01*
X134152303Y-146893247D01*
X134100195Y-146904132D01*
X134022415Y-146913424D01*
X133927129Y-146920822D01*
X133822507Y-146926025D01*
X133716717Y-146928729D01*
X133617927Y-146928635D01*
X133534307Y-146925438D01*
X133474024Y-146918839D01*
X133471666Y-146918395D01*
X133390696Y-146896817D01*
X133294971Y-146862629D01*
X133198297Y-146821422D01*
X133114478Y-146778790D01*
X133088537Y-146763167D01*
X133029595Y-146718520D01*
X132957456Y-146653560D01*
X132878885Y-146575327D01*
X132800647Y-146490866D01*
X132729509Y-146407220D01*
X132672235Y-146331430D01*
X132668307Y-146325700D01*
X132565227Y-146148687D01*
X132481974Y-145953092D01*
X132443886Y-145832068D01*
X132429403Y-145775213D01*
X132419004Y-145722234D01*
X132412064Y-145665787D01*
X132407960Y-145598530D01*
X132406065Y-145513119D01*
X132405755Y-145402211D01*
X132405802Y-145384466D01*
X132406494Y-145272647D01*
X132408291Y-145187422D01*
X132411945Y-145121519D01*
X132418211Y-145067668D01*
X132427842Y-145018597D01*
X132441594Y-144967035D01*
X132453033Y-144928953D01*
X132543451Y-144686139D01*
X132660593Y-144461686D01*
X132806620Y-144251959D01*
X132958463Y-144079039D01*
X133101346Y-143940044D01*
X133234945Y-143828839D01*
X133363544Y-143742186D01*
X133488600Y-143678071D01*
X133556412Y-143647732D01*
X133643854Y-143607478D01*
X133740156Y-143562318D01*
X133834548Y-143517266D01*
X133844200Y-143512606D01*
X133933508Y-143469641D01*
X134021720Y-143427575D01*
X134099622Y-143390780D01*
X134157996Y-143363627D01*
X134165933Y-143360003D01*
X134340149Y-143280477D01*
X134486167Y-143212954D01*
X134606856Y-143155967D01*
X134705091Y-143108045D01*
X134783743Y-143067721D01*
X134845684Y-143033526D01*
X134893786Y-143003990D01*
X134930922Y-142977645D01*
X134957818Y-142955010D01*
X135041162Y-142878333D01*
X135015558Y-142810600D01*
X134977595Y-142702803D01*
X134940188Y-142583479D01*
X134905934Y-142462114D01*
X134877434Y-142348192D01*
X134857285Y-142251199D01*
X134850794Y-142209224D01*
X134838269Y-142111650D01*
X134828750Y-142042770D01*
X134821236Y-141997651D01*
X134814725Y-141971358D01*
X134808217Y-141958957D01*
X134800707Y-141955515D01*
X134799274Y-141955466D01*
X134776742Y-141964814D01*
X134735423Y-141989568D01*
X134682219Y-142024793D01*
X134624034Y-142065554D01*
X134567772Y-142106916D01*
X134520335Y-142143944D01*
X134488628Y-142171704D01*
X134479199Y-142184274D01*
X134491697Y-142205685D01*
X134522633Y-142234933D01*
X134531556Y-142241806D01*
X134588957Y-142304620D01*
X134623008Y-142388204D01*
X134631600Y-142464914D01*
X134627170Y-142512813D01*
X134609418Y-142551541D01*
X134571644Y-142595112D01*
X134567263Y-142599520D01*
X134491805Y-142655626D01*
X134407403Y-142680130D01*
X134310216Y-142674107D01*
X134304981Y-142673029D01*
X134238961Y-142647085D01*
X134193285Y-142599810D01*
X134166186Y-142528238D01*
X134155895Y-142429407D01*
X134155778Y-142422862D01*
X134153289Y-142355897D01*
X134148409Y-142297158D01*
X134142384Y-142260266D01*
X134120549Y-142223234D01*
X134086792Y-142212917D01*
X134046226Y-142226760D01*
X134003964Y-142262209D01*
X133965119Y-142316708D01*
X133945010Y-142358901D01*
X133905990Y-142419611D01*
X133846436Y-142472091D01*
X133778562Y-142506916D01*
X133742600Y-142515078D01*
X133666193Y-142508661D01*
X133595238Y-142477394D01*
X133556001Y-142443051D01*
X133523611Y-142380732D01*
X133512578Y-142303920D01*
X133523228Y-142224669D01*
X133548505Y-142166100D01*
X133589398Y-142121158D01*
X133648499Y-142079973D01*
X133712409Y-142050382D01*
X133763919Y-142040133D01*
X133802956Y-142025071D01*
X133835136Y-141987284D01*
X133851891Y-141937872D01*
X133852666Y-141925157D01*
X133846391Y-141896222D01*
X133823996Y-141893777D01*
X133823033Y-141894051D01*
X133723201Y-141919851D01*
X133646483Y-141931111D01*
X133585375Y-141927769D01*
X133532376Y-141909765D01*
X133500682Y-141891464D01*
X133449615Y-141839706D01*
X133423193Y-141773467D01*
X133421944Y-141702041D01*
X133446394Y-141634722D01*
X133483655Y-141591035D01*
X133535810Y-141559649D01*
X133599580Y-141549184D01*
X133609273Y-141549066D01*
X133666234Y-141554941D01*
X133720963Y-141570031D01*
X133763602Y-141590532D01*
X133784295Y-141612641D01*
X133784933Y-141616844D01*
X133797691Y-141636831D01*
X133826131Y-141659946D01*
X133864698Y-141677251D01*
X133899247Y-141669809D01*
X133902331Y-141668207D01*
X133931427Y-141646057D01*
X133930679Y-141624454D01*
X133898803Y-141600684D01*
X133862224Y-141583401D01*
X133788254Y-141538141D01*
X133744355Y-141478025D01*
X133729522Y-141401665D01*
X133729515Y-141399739D01*
X133743072Y-141316572D01*
X133780588Y-141252779D01*
X133837326Y-141211995D01*
X133908550Y-141197855D01*
X133977210Y-141209589D01*
X134040885Y-141245370D01*
X134089319Y-141307193D01*
X134124542Y-141396666D01*
X134144104Y-141456874D01*
X134161745Y-141488828D01*
X134180885Y-141497719D01*
X134189912Y-141495918D01*
X134193995Y-141478344D01*
X134179781Y-141437888D01*
X134165994Y-141410122D01*
X134130854Y-141316196D01*
X134123600Y-141243348D01*
X134126675Y-141186645D01*
X134140194Y-141147395D01*
X134170591Y-141109421D01*
X134181173Y-141098640D01*
X134226440Y-141060333D01*
X134269564Y-141043686D01*
X134305889Y-141041066D01*
X134380621Y-141056160D01*
X134439884Y-141097782D01*
X134479252Y-141160448D01*
X134494301Y-141238670D01*
X134492587Y-141272511D01*
X134489540Y-141310162D01*
X134493732Y-141318019D01*
X134503390Y-141304723D01*
X134520262Y-141279505D01*
X134552665Y-141233705D01*
X134595894Y-141173897D01*
X134643812Y-141108591D01*
X134706869Y-141026727D01*
X134758484Y-140969758D01*
X134804521Y-140933468D01*
X134850844Y-140913642D01*
X134903314Y-140906062D01*
X134926226Y-140905516D01*
X135021624Y-140921337D01*
X135122521Y-140967276D01*
X135226157Y-141040607D01*
X135329772Y-141138601D01*
X135430607Y-141258534D01*
X135525902Y-141397678D01*
X135612898Y-141553306D01*
X135641280Y-141612039D01*
X135674948Y-141688158D01*
X135704084Y-141760579D01*
X135724766Y-141819206D01*
X135731794Y-141845010D01*
X135747561Y-141915544D01*
X135766634Y-141991754D01*
X135786799Y-142065829D01*
X135805847Y-142129961D01*
X135821565Y-142176338D01*
X135831409Y-142196849D01*
X135849034Y-142198064D01*
X135877777Y-142176107D01*
X135918605Y-142129742D01*
X135972486Y-142057735D01*
X136040387Y-141958847D01*
X136123275Y-141831844D01*
X136150874Y-141788601D01*
X136256515Y-141627008D01*
X136351500Y-141492581D01*
X136439229Y-141381674D01*
X136523106Y-141290642D01*
X136606530Y-141215838D01*
X136692904Y-141153619D01*
X136785629Y-141100337D01*
X136799763Y-141093157D01*
X136889239Y-141052197D01*
X136983976Y-141015106D01*
X137069587Y-140987337D01*
X137098239Y-140980018D01*
X137203042Y-140963044D01*
X137333252Y-140952786D01*
X137481078Y-140949282D01*
X137638726Y-140952570D01*
X137798403Y-140962685D01*
X137925133Y-140976069D01*
X138015910Y-140987232D01*
X138079260Y-140993649D01*
X138121282Y-140995352D01*
X138148078Y-140992374D01*
X138165748Y-140984746D01*
X138175139Y-140977390D01*
X138194480Y-140947786D01*
X138190928Y-140909941D01*
X138163145Y-140859034D01*
X138130159Y-140815027D01*
X138106398Y-140784101D01*
X138091344Y-140757229D01*
X138083267Y-140725868D01*
X138080437Y-140681475D01*
X138081123Y-140615508D01*
X138082085Y-140577715D01*
X138086638Y-140406066D01*
X137959000Y-140261832D01*
X137884485Y-140312782D01*
X137802427Y-140352563D01*
X137720415Y-140364049D01*
X137643832Y-140350148D01*
X137578063Y-140313768D01*
X137528492Y-140257816D01*
X137500503Y-140185199D01*
X137498668Y-140104441D01*
X137514459Y-140049715D01*
X137541409Y-140002841D01*
X137545177Y-139998555D01*
X137601567Y-139958159D01*
X137680331Y-139927718D01*
X137770639Y-139910539D01*
X137840632Y-139908399D01*
X137909246Y-139906682D01*
X137952872Y-139890813D01*
X137978972Y-139856334D01*
X137990826Y-139818670D01*
X137993415Y-139792974D01*
X137984179Y-139769682D01*
X137958062Y-139741917D01*
X137910006Y-139702800D01*
X137899907Y-139695001D01*
X137848456Y-139653245D01*
X137807161Y-139615760D01*
X137784152Y-139589983D01*
X137783059Y-139588130D01*
X137770462Y-139546574D01*
X137762581Y-139485483D01*
X137761055Y-139419049D01*
X137761805Y-139404065D01*
X137779257Y-139355115D01*
X137819255Y-139305074D01*
X137872307Y-139263839D01*
X137914544Y-139244768D01*
X137958011Y-139235327D01*
X137996460Y-139238988D01*
G37*
X137996460Y-139238988D02*
X138045375Y-139257769D01*
X138057492Y-139263384D01*
X138128472Y-139305927D01*
X138176502Y-139359496D01*
X138206346Y-139431516D01*
X138221705Y-139519242D01*
X138237345Y-139608545D01*
X138261309Y-139665508D01*
X138293965Y-139690706D01*
X138328561Y-139687681D01*
X138362456Y-139660108D01*
X138379071Y-139607499D01*
X138379054Y-139527579D01*
X138377769Y-139514160D01*
X138376864Y-139451110D01*
X138392749Y-139399736D01*
X138407045Y-139374246D01*
X138445571Y-139322446D01*
X138488141Y-139293447D01*
X138546004Y-139281451D01*
X138589935Y-139280000D01*
X138665565Y-139291599D01*
X138720068Y-139328474D01*
X138757909Y-139393743D01*
X138759711Y-139398533D01*
X138772535Y-139476836D01*
X138752362Y-139553697D01*
X138698822Y-139630246D01*
X138676455Y-139653074D01*
X138622926Y-139708804D01*
X138597514Y-139746575D01*
X138599958Y-139766916D01*
X138618316Y-139771066D01*
X138640805Y-139757445D01*
X138668674Y-139723177D01*
X138679263Y-139705891D01*
X138735758Y-139639284D01*
X138790866Y-139604291D01*
X138880631Y-139573400D01*
X138958322Y-139573301D01*
X139022792Y-139603777D01*
X139068062Y-139656344D01*
X139096990Y-139731184D01*
X139095069Y-139804271D01*
X139065235Y-139871510D01*
X139010422Y-139928805D01*
X138933568Y-139972061D01*
X138837608Y-139997181D01*
X138822372Y-139999066D01*
X138760531Y-140006836D01*
X138726875Y-140016833D01*
X138715841Y-140034075D01*
X138721863Y-140063581D01*
X138729047Y-140083230D01*
X138740194Y-140106188D01*
X138757404Y-140119212D01*
X138789244Y-140125096D01*
X138844280Y-140126633D01*
X138862230Y-140126666D01*
X138951368Y-140133466D01*
X139016379Y-140156408D01*
X139064679Y-140199309D01*
X139093871Y-140245854D01*
X139116389Y-140320431D01*
X139105977Y-140390207D01*
X139063526Y-140452123D01*
X139024658Y-140483175D01*
X138950900Y-140512793D01*
X138870502Y-140512803D01*
X138790594Y-140484539D01*
X138718303Y-140429333D01*
X138714305Y-140425130D01*
X138679404Y-140397061D01*
X138655699Y-140396262D01*
X138643370Y-140417975D01*
X138642598Y-140457444D01*
X138653563Y-140509915D01*
X138676445Y-140570630D01*
X138706640Y-140627196D01*
X138746460Y-140692356D01*
X138794071Y-140770813D01*
X138839900Y-140846787D01*
X138844712Y-140854800D01*
X138910555Y-140963121D01*
X138962918Y-141045759D01*
X139004628Y-141106710D01*
X139038515Y-141149970D01*
X139067406Y-141179536D01*
X139083712Y-141192502D01*
X139125977Y-141219018D01*
X139157413Y-141223742D01*
X139191452Y-141205856D01*
X139218271Y-141184304D01*
X139260947Y-141132120D01*
X139304431Y-141047028D01*
X139322589Y-141002271D01*
X139372417Y-140893462D01*
X139433114Y-140805184D01*
X139509874Y-140732981D01*
X139607891Y-140672396D01*
X139732360Y-140618975D01*
X139794657Y-140597312D01*
X139984117Y-140550139D01*
X140197793Y-140525354D01*
X140434438Y-140523014D01*
X140692803Y-140543179D01*
X140761466Y-140551855D01*
X140996020Y-140599576D01*
X141231181Y-140678320D01*
X141460828Y-140785920D01*
X141526088Y-140822544D01*
X141589904Y-140862756D01*
X141632569Y-140899245D01*
X141664000Y-140941757D01*
X141682721Y-140976463D01*
X141705092Y-141026670D01*
X141718421Y-141074345D01*
X141724885Y-141131338D01*
X141726661Y-141209495D01*
X141726666Y-141215587D01*
X141725513Y-141292091D01*
X141720302Y-141346955D01*
X141708404Y-141392372D01*
X141687191Y-141440540D01*
X141671726Y-141470496D01*
X141625867Y-141541175D01*
X141557030Y-141625950D01*
X141470149Y-141719730D01*
X141370152Y-141817424D01*
X141261972Y-141913942D01*
X141167372Y-141991174D01*
X140957221Y-142144078D01*
X140752151Y-142271374D01*
X140554066Y-142372273D01*
X140364865Y-142445983D01*
X140186450Y-142491714D01*
X140020723Y-142508676D01*
X139931733Y-142505076D01*
X139835504Y-142489269D01*
X139753938Y-142459656D01*
X139677510Y-142411249D01*
X139596694Y-142339062D01*
X139577551Y-142319671D01*
X139527724Y-142270802D01*
X139484697Y-142233048D01*
X139455055Y-142212000D01*
X139447734Y-142209466D01*
X139414605Y-142223355D01*
X139363979Y-142264209D01*
X139297137Y-142330810D01*
X139215360Y-142421941D01*
X139178374Y-142465441D01*
X139123160Y-142533401D01*
X139068214Y-142604757D01*
X139017627Y-142673752D01*
X138975489Y-142734633D01*
X138945892Y-142781643D01*
X138932924Y-142809027D01*
X138932666Y-142811160D01*
X138926091Y-142828681D01*
X138907929Y-142871654D01*
X138880527Y-142934662D01*
X138846231Y-143012287D01*
X138822600Y-143065236D01*
X138772547Y-143180843D01*
X138738102Y-143271135D01*
X138718516Y-143340454D01*
X138713040Y-143393138D01*
X138720926Y-143433530D01*
X138741426Y-143465970D01*
X138751691Y-143476483D01*
X138790849Y-143513271D01*
X138790850Y-143403059D01*
X138798286Y-143314259D01*
X138822943Y-143250560D01*
X138868339Y-143206089D01*
X138924948Y-143179343D01*
X138986540Y-143164884D01*
X139043467Y-143170969D01*
X139052644Y-143173509D01*
X139107192Y-143201791D01*
X139139947Y-143249730D01*
X139151552Y-143319650D01*
X139142652Y-143413875D01*
X139132668Y-143462498D01*
X139122122Y-143515630D01*
X139122019Y-143545759D01*
X139132742Y-143562220D01*
X139136901Y-143565131D01*
X139183089Y-143580281D01*
X139220364Y-143565897D01*
X139236848Y-143540359D01*
X139273402Y-143478756D01*
X139328674Y-143442410D01*
X139406671Y-143428879D01*
X139420152Y-143428666D01*
X139477636Y-143431263D01*
X139516588Y-143442959D01*
X139552188Y-143469610D01*
X139569359Y-143486239D01*
X139609989Y-143536049D01*
X139625972Y-143583555D01*
X139626870Y-143600539D01*
X139611112Y-143676529D01*
X139567993Y-143741158D01*
X139503473Y-143789106D01*
X139423515Y-143815051D01*
X139383074Y-143818133D01*
X139343157Y-143821246D01*
X139322627Y-143828926D01*
X139321902Y-143830833D01*
X139317723Y-143855803D01*
X139311460Y-143881633D01*
X139307961Y-143903265D01*
X139317243Y-143914638D01*
X139346580Y-143919033D01*
X139395968Y-143919733D01*
X139462831Y-143925518D01*
X139506610Y-143946848D01*
X139533738Y-143989684D01*
X139550644Y-144059990D01*
X139551231Y-144063666D01*
X139553889Y-144118285D01*
X139538034Y-144164560D01*
X139521883Y-144190666D01*
X139493701Y-144226807D01*
X139463882Y-144245398D01*
X139418846Y-144253348D01*
X139395482Y-144254983D01*
X139344209Y-144259471D01*
X139317013Y-144269073D01*
X139304115Y-144289672D01*
X139298440Y-144313365D01*
X139278357Y-144381578D01*
X139247029Y-144422161D01*
X139197429Y-144441089D01*
X139143942Y-144444666D01*
X139078946Y-144440516D01*
X139036853Y-144426301D01*
X139018432Y-144411899D01*
X138992712Y-144373186D01*
X138968830Y-144317000D01*
X138952898Y-144259463D01*
X138949694Y-144230578D01*
X138935973Y-144208497D01*
X138922815Y-144200945D01*
X138891548Y-144191455D01*
X138885824Y-144198673D01*
X138891012Y-144208698D01*
X138897189Y-144245426D01*
X138887023Y-144296548D01*
X138864275Y-144349203D01*
X138839961Y-144383337D01*
X138806401Y-144411869D01*
X138766487Y-144424941D01*
X138715217Y-144427733D01*
X138637941Y-144417540D01*
X138585919Y-144387754D01*
X138560978Y-144339567D01*
X138559273Y-144326133D01*
X138557624Y-144246583D01*
X138567299Y-144188872D01*
X138590964Y-144142097D01*
X138610206Y-144117881D01*
X138660280Y-144060850D01*
X138623851Y-143986058D01*
X138602832Y-143944307D01*
X138583680Y-143915845D01*
X138558693Y-143894835D01*
X138520168Y-143875438D01*
X138460402Y-143851816D01*
X138433133Y-143841505D01*
X138307982Y-143790638D01*
X138212308Y-143743099D01*
X138142208Y-143696495D01*
X138093777Y-143648435D01*
X138076246Y-143622731D01*
X138034570Y-143551617D01*
X138094564Y-143375842D01*
X138117079Y-143303478D01*
X138140408Y-143217626D01*
X138163109Y-143125034D01*
X138183740Y-143032454D01*
X138200860Y-142946635D01*
X138213027Y-142874329D01*
X138218800Y-142822285D01*
X138217687Y-142799261D01*
X138202549Y-142799381D01*
X138168855Y-142817108D01*
X138128334Y-142845343D01*
X137997261Y-142924301D01*
X137848812Y-142975086D01*
X137684902Y-142997363D01*
X137507444Y-142990795D01*
X137398284Y-142973481D01*
X137328540Y-142958676D01*
X137270839Y-142944972D01*
X137233704Y-142934460D01*
X137225583Y-142931100D01*
X137201684Y-142922710D01*
X137153144Y-142909796D01*
X137088516Y-142894556D01*
X137054614Y-142887130D01*
X136980166Y-142871977D01*
X136928709Y-142864470D01*
X136890310Y-142864320D01*
X136855036Y-142871237D01*
X136825918Y-142880458D01*
X136778726Y-142903874D01*
X136727226Y-142940377D01*
X136679708Y-142982561D01*
X136644463Y-143023022D01*
X136629779Y-143054355D01*
X136629733Y-143055697D01*
X136644112Y-143071593D01*
X136676300Y-143085282D01*
X136708384Y-143097775D01*
X136763285Y-143122650D01*
X136833842Y-143156534D01*
X136912894Y-143196054D01*
X136929201Y-143204393D01*
X137071475Y-143282989D01*
X137183031Y-143358169D01*
X137266378Y-143433078D01*
X137324024Y-143510863D01*
X137358476Y-143594669D01*
X137372242Y-143687642D01*
X137371005Y-143758597D01*
X137365010Y-143807501D01*
X137352535Y-143855306D01*
X137330938Y-143907190D01*
X137297574Y-143968332D01*
X137249802Y-144043911D01*
X137184978Y-144139105D01*
X137154833Y-144182200D01*
X137116462Y-144240434D01*
X137087227Y-144291746D01*
X137071924Y-144327456D01*
X137070752Y-144334272D01*
X137076630Y-144368075D01*
X137092554Y-144419330D01*
X137107202Y-144457570D01*
X137131512Y-144509730D01*
X137151013Y-144534115D01*
X137169729Y-144535646D01*
X137170702Y-144535218D01*
X137227084Y-144520324D01*
X137298525Y-144515736D01*
X137369348Y-144521313D01*
X137423875Y-144536917D01*
X137424965Y-144537471D01*
X137476762Y-144580730D01*
X137510020Y-144641708D01*
X137524335Y-144711732D01*
X137519303Y-144782132D01*
X137494523Y-144844237D01*
X137449590Y-144889375D01*
X137441538Y-144893914D01*
X137371220Y-144914274D01*
X137280045Y-144915954D01*
X137175418Y-144898931D01*
X137158919Y-144894736D01*
X137107209Y-144881897D01*
X137076910Y-144879795D01*
X137056774Y-144890209D01*
X137036152Y-144914154D01*
X137012530Y-144949022D01*
X137002279Y-144973739D01*
X137002266Y-144974223D01*
X137012968Y-144994969D01*
X137040676Y-145031197D01*
X137070000Y-145064694D01*
X137110315Y-145112724D01*
X137130764Y-145152133D01*
X137137439Y-145196050D01*
X137137670Y-145210521D01*
X137123365Y-145295384D01*
X137084093Y-145365001D01*
X137025075Y-145414442D01*
X136951531Y-145438776D01*
X136896246Y-145438514D01*
X136823676Y-145415700D01*
X136769839Y-145368262D01*
X136733773Y-145294613D01*
X136714518Y-145193164D01*
X136710910Y-145132125D01*
X136706983Y-145075595D01*
X136697294Y-145044887D01*
X136679292Y-145032109D01*
X136678516Y-145031899D01*
X136653565Y-145035897D01*
X136638927Y-145067987D01*
X136638256Y-145070944D01*
X136613098Y-145131854D01*
X136568399Y-145195771D01*
X136514149Y-145249130D01*
X136498845Y-145260176D01*
X136449383Y-145281260D01*
X136391830Y-145291124D01*
X136386760Y-145291221D01*
X136321731Y-145276045D01*
X136267708Y-145235719D01*
X136229569Y-145178403D01*
X136212191Y-145112253D01*
X136220454Y-145045428D01*
X136228567Y-145026650D01*
X136259155Y-144979157D01*
X136301208Y-144939008D01*
X136363636Y-144898271D01*
X136388433Y-144884330D01*
X136430357Y-144858716D01*
X136456299Y-144837852D01*
X136460399Y-144831015D01*
X136457553Y-144820152D01*
X136444953Y-144820961D01*
X136416506Y-144835792D01*
X136366121Y-144866997D01*
X136364539Y-144868000D01*
X136297014Y-144904323D01*
X136239974Y-144916923D01*
X136181354Y-144907343D01*
X136149506Y-144895482D01*
X136095085Y-144855591D01*
X136063852Y-144792028D01*
X136056634Y-144706555D01*
X136057145Y-144698459D01*
X136068206Y-144641867D01*
X136094901Y-144601384D01*
X136141927Y-144574031D01*
X136213984Y-144556825D01*
X136293833Y-144548288D01*
X136363333Y-144542294D01*
X136405566Y-144535636D01*
X136427103Y-144526276D01*
X136434516Y-144512181D01*
X136434999Y-144504567D01*
X136431358Y-144485976D01*
X136416268Y-144471787D01*
X136383483Y-144459145D01*
X136326757Y-144445194D01*
X136286308Y-144436595D01*
X136241007Y-144412044D01*
X136202107Y-144365016D01*
X136177388Y-144306872D01*
X136172596Y-144270556D01*
X136185943Y-144187785D01*
X136223635Y-144126396D01*
X136281779Y-144089410D01*
X136356479Y-144079850D01*
X136407261Y-144088437D01*
X136449131Y-144104101D01*
X136486903Y-144130254D01*
X136527127Y-144172881D01*
X136576355Y-144237962D01*
X136586238Y-144251900D01*
X136618944Y-144298315D01*
X136658205Y-144181926D01*
X136684778Y-144085143D01*
X136696090Y-144000877D01*
X136691751Y-143935209D01*
X136676299Y-143899580D01*
X136657782Y-143886935D01*
X136621774Y-143877283D01*
X136563191Y-143869771D01*
X136476945Y-143863546D01*
X136453805Y-143862268D01*
X136233982Y-143835047D01*
X136028078Y-143777696D01*
X135852912Y-143699018D01*
X135761890Y-143649759D01*
X135471912Y-143757540D01*
X135309765Y-143815974D01*
X135150914Y-143869128D01*
X134987043Y-143919517D01*
X134809836Y-143969652D01*
X134610978Y-144022046D01*
X134521533Y-144044695D01*
X134222166Y-144126930D01*
X133955330Y-144215507D01*
X133720203Y-144310883D01*
X133515963Y-144413514D01*
X133341789Y-144523857D01*
X133196861Y-144642367D01*
X133080356Y-144769503D01*
X132999641Y-144890753D01*
X132949165Y-144994781D01*
X132913383Y-145103497D01*
X132889829Y-145226450D01*
X132876333Y-145368355D01*
X132877741Y-145544382D01*
X132901981Y-145721517D01*
X132946918Y-145893058D01*
X133010416Y-146052301D01*
X133090339Y-146192546D01*
X133171066Y-146293357D01*
X133275091Y-146388838D01*
X133387478Y-146463024D01*
X133517646Y-146521436D01*
X133613875Y-146552869D01*
X133687416Y-146572494D01*
X133753893Y-146585140D01*
X133821138Y-146591038D01*
X133896985Y-146590415D01*
X133989267Y-146583500D01*
X134105816Y-146570523D01*
X134127460Y-146567872D01*
X134179242Y-146564019D01*
X134213519Y-146571986D01*
X134245943Y-146596698D01*
X134258693Y-146609155D01*
X134300804Y-146670111D01*
X134311465Y-146732999D01*
X134292437Y-146793119D01*
X134245482Y-146845767D01*
X134172360Y-146886242D01*
X134152303Y-146893247D01*
X134100195Y-146904132D01*
X134022415Y-146913424D01*
X133927129Y-146920822D01*
X133822507Y-146926025D01*
X133716717Y-146928729D01*
X133617927Y-146928635D01*
X133534307Y-146925438D01*
X133474024Y-146918839D01*
X133471666Y-146918395D01*
X133390696Y-146896817D01*
X133294971Y-146862629D01*
X133198297Y-146821422D01*
X133114478Y-146778790D01*
X133088537Y-146763167D01*
X133029595Y-146718520D01*
X132957456Y-146653560D01*
X132878885Y-146575327D01*
X132800647Y-146490866D01*
X132729509Y-146407220D01*
X132672235Y-146331430D01*
X132668307Y-146325700D01*
X132565227Y-146148687D01*
X132481974Y-145953092D01*
X132443886Y-145832068D01*
X132429403Y-145775213D01*
X132419004Y-145722234D01*
X132412064Y-145665787D01*
X132407960Y-145598530D01*
X132406065Y-145513119D01*
X132405755Y-145402211D01*
X132405802Y-145384466D01*
X132406494Y-145272647D01*
X132408291Y-145187422D01*
X132411945Y-145121519D01*
X132418211Y-145067668D01*
X132427842Y-145018597D01*
X132441594Y-144967035D01*
X132453033Y-144928953D01*
X132543451Y-144686139D01*
X132660593Y-144461686D01*
X132806620Y-144251959D01*
X132958463Y-144079039D01*
X133101346Y-143940044D01*
X133234945Y-143828839D01*
X133363544Y-143742186D01*
X133488600Y-143678071D01*
X133556412Y-143647732D01*
X133643854Y-143607478D01*
X133740156Y-143562318D01*
X133834548Y-143517266D01*
X133844200Y-143512606D01*
X133933508Y-143469641D01*
X134021720Y-143427575D01*
X134099622Y-143390780D01*
X134157996Y-143363627D01*
X134165933Y-143360003D01*
X134340149Y-143280477D01*
X134486167Y-143212954D01*
X134606856Y-143155967D01*
X134705091Y-143108045D01*
X134783743Y-143067721D01*
X134845684Y-143033526D01*
X134893786Y-143003990D01*
X134930922Y-142977645D01*
X134957818Y-142955010D01*
X135041162Y-142878333D01*
X135015558Y-142810600D01*
X134977595Y-142702803D01*
X134940188Y-142583479D01*
X134905934Y-142462114D01*
X134877434Y-142348192D01*
X134857285Y-142251199D01*
X134850794Y-142209224D01*
X134838269Y-142111650D01*
X134828750Y-142042770D01*
X134821236Y-141997651D01*
X134814725Y-141971358D01*
X134808217Y-141958957D01*
X134800707Y-141955515D01*
X134799274Y-141955466D01*
X134776742Y-141964814D01*
X134735423Y-141989568D01*
X134682219Y-142024793D01*
X134624034Y-142065554D01*
X134567772Y-142106916D01*
X134520335Y-142143944D01*
X134488628Y-142171704D01*
X134479199Y-142184274D01*
X134491697Y-142205685D01*
X134522633Y-142234933D01*
X134531556Y-142241806D01*
X134588957Y-142304620D01*
X134623008Y-142388204D01*
X134631600Y-142464914D01*
X134627170Y-142512813D01*
X134609418Y-142551541D01*
X134571644Y-142595112D01*
X134567263Y-142599520D01*
X134491805Y-142655626D01*
X134407403Y-142680130D01*
X134310216Y-142674107D01*
X134304981Y-142673029D01*
X134238961Y-142647085D01*
X134193285Y-142599810D01*
X134166186Y-142528238D01*
X134155895Y-142429407D01*
X134155778Y-142422862D01*
X134153289Y-142355897D01*
X134148409Y-142297158D01*
X134142384Y-142260266D01*
X134120549Y-142223234D01*
X134086792Y-142212917D01*
X134046226Y-142226760D01*
X134003964Y-142262209D01*
X133965119Y-142316708D01*
X133945010Y-142358901D01*
X133905990Y-142419611D01*
X133846436Y-142472091D01*
X133778562Y-142506916D01*
X133742600Y-142515078D01*
X133666193Y-142508661D01*
X133595238Y-142477394D01*
X133556001Y-142443051D01*
X133523611Y-142380732D01*
X133512578Y-142303920D01*
X133523228Y-142224669D01*
X133548505Y-142166100D01*
X133589398Y-142121158D01*
X133648499Y-142079973D01*
X133712409Y-142050382D01*
X133763919Y-142040133D01*
X133802956Y-142025071D01*
X133835136Y-141987284D01*
X133851891Y-141937872D01*
X133852666Y-141925157D01*
X133846391Y-141896222D01*
X133823996Y-141893777D01*
X133823033Y-141894051D01*
X133723201Y-141919851D01*
X133646483Y-141931111D01*
X133585375Y-141927769D01*
X133532376Y-141909765D01*
X133500682Y-141891464D01*
X133449615Y-141839706D01*
X133423193Y-141773467D01*
X133421944Y-141702041D01*
X133446394Y-141634722D01*
X133483655Y-141591035D01*
X133535810Y-141559649D01*
X133599580Y-141549184D01*
X133609273Y-141549066D01*
X133666234Y-141554941D01*
X133720963Y-141570031D01*
X133763602Y-141590532D01*
X133784295Y-141612641D01*
X133784933Y-141616844D01*
X133797691Y-141636831D01*
X133826131Y-141659946D01*
X133864698Y-141677251D01*
X133899247Y-141669809D01*
X133902331Y-141668207D01*
X133931427Y-141646057D01*
X133930679Y-141624454D01*
X133898803Y-141600684D01*
X133862224Y-141583401D01*
X133788254Y-141538141D01*
X133744355Y-141478025D01*
X133729522Y-141401665D01*
X133729515Y-141399739D01*
X133743072Y-141316572D01*
X133780588Y-141252779D01*
X133837326Y-141211995D01*
X133908550Y-141197855D01*
X133977210Y-141209589D01*
X134040885Y-141245370D01*
X134089319Y-141307193D01*
X134124542Y-141396666D01*
X134144104Y-141456874D01*
X134161745Y-141488828D01*
X134180885Y-141497719D01*
X134189912Y-141495918D01*
X134193995Y-141478344D01*
X134179781Y-141437888D01*
X134165994Y-141410122D01*
X134130854Y-141316196D01*
X134123600Y-141243348D01*
X134126675Y-141186645D01*
X134140194Y-141147395D01*
X134170591Y-141109421D01*
X134181173Y-141098640D01*
X134226440Y-141060333D01*
X134269564Y-141043686D01*
X134305889Y-141041066D01*
X134380621Y-141056160D01*
X134439884Y-141097782D01*
X134479252Y-141160448D01*
X134494301Y-141238670D01*
X134492587Y-141272511D01*
X134489540Y-141310162D01*
X134493732Y-141318019D01*
X134503390Y-141304723D01*
X134520262Y-141279505D01*
X134552665Y-141233705D01*
X134595894Y-141173897D01*
X134643812Y-141108591D01*
X134706869Y-141026727D01*
X134758484Y-140969758D01*
X134804521Y-140933468D01*
X134850844Y-140913642D01*
X134903314Y-140906062D01*
X134926226Y-140905516D01*
X135021624Y-140921337D01*
X135122521Y-140967276D01*
X135226157Y-141040607D01*
X135329772Y-141138601D01*
X135430607Y-141258534D01*
X135525902Y-141397678D01*
X135612898Y-141553306D01*
X135641280Y-141612039D01*
X135674948Y-141688158D01*
X135704084Y-141760579D01*
X135724766Y-141819206D01*
X135731794Y-141845010D01*
X135747561Y-141915544D01*
X135766634Y-141991754D01*
X135786799Y-142065829D01*
X135805847Y-142129961D01*
X135821565Y-142176338D01*
X135831409Y-142196849D01*
X135849034Y-142198064D01*
X135877777Y-142176107D01*
X135918605Y-142129742D01*
X135972486Y-142057735D01*
X136040387Y-141958847D01*
X136123275Y-141831844D01*
X136150874Y-141788601D01*
X136256515Y-141627008D01*
X136351500Y-141492581D01*
X136439229Y-141381674D01*
X136523106Y-141290642D01*
X136606530Y-141215838D01*
X136692904Y-141153619D01*
X136785629Y-141100337D01*
X136799763Y-141093157D01*
X136889239Y-141052197D01*
X136983976Y-141015106D01*
X137069587Y-140987337D01*
X137098239Y-140980018D01*
X137203042Y-140963044D01*
X137333252Y-140952786D01*
X137481078Y-140949282D01*
X137638726Y-140952570D01*
X137798403Y-140962685D01*
X137925133Y-140976069D01*
X138015910Y-140987232D01*
X138079260Y-140993649D01*
X138121282Y-140995352D01*
X138148078Y-140992374D01*
X138165748Y-140984746D01*
X138175139Y-140977390D01*
X138194480Y-140947786D01*
X138190928Y-140909941D01*
X138163145Y-140859034D01*
X138130159Y-140815027D01*
X138106398Y-140784101D01*
X138091344Y-140757229D01*
X138083267Y-140725868D01*
X138080437Y-140681475D01*
X138081123Y-140615508D01*
X138082085Y-140577715D01*
X138086638Y-140406066D01*
X137959000Y-140261832D01*
X137884485Y-140312782D01*
X137802427Y-140352563D01*
X137720415Y-140364049D01*
X137643832Y-140350148D01*
X137578063Y-140313768D01*
X137528492Y-140257816D01*
X137500503Y-140185199D01*
X137498668Y-140104441D01*
X137514459Y-140049715D01*
X137541409Y-140002841D01*
X137545177Y-139998555D01*
X137601567Y-139958159D01*
X137680331Y-139927718D01*
X137770639Y-139910539D01*
X137840632Y-139908399D01*
X137909246Y-139906682D01*
X137952872Y-139890813D01*
X137978972Y-139856334D01*
X137990826Y-139818670D01*
X137993415Y-139792974D01*
X137984179Y-139769682D01*
X137958062Y-139741917D01*
X137910006Y-139702800D01*
X137899907Y-139695001D01*
X137848456Y-139653245D01*
X137807161Y-139615760D01*
X137784152Y-139589983D01*
X137783059Y-139588130D01*
X137770462Y-139546574D01*
X137762581Y-139485483D01*
X137761055Y-139419049D01*
X137761805Y-139404065D01*
X137779257Y-139355115D01*
X137819255Y-139305074D01*
X137872307Y-139263839D01*
X137914544Y-139244768D01*
X137958011Y-139235327D01*
X137996460Y-139238988D01*
D14*
X119412742Y-122692500D02*
X119887258Y-122692500D01*
X119412742Y-121647500D02*
X119887258Y-121647500D01*
D15*
X148410000Y-139600000D02*
G75*
G03*
X148410000Y-139600000I-125000J0D01*
G01*
D14*
X119837500Y-111622742D02*
X119837500Y-112097258D01*
X120882500Y-111622742D02*
X120882500Y-112097258D01*
X121045000Y-109380000D02*
X121045000Y-106895000D01*
X121045000Y-106895000D02*
X119675000Y-106895000D01*
X119675000Y-106895000D02*
X119675000Y-109380000D01*
X104782742Y-139942500D02*
X105257258Y-139942500D01*
X104782742Y-138897500D02*
X105257258Y-138897500D01*
X100175000Y-140115000D02*
X102660000Y-140115000D01*
X100175000Y-138745000D02*
X100175000Y-140115000D01*
X102660000Y-138745000D02*
X100175000Y-138745000D01*
X120955000Y-157078748D02*
X120955000Y-157601252D01*
X119485000Y-157078748D02*
X119485000Y-157601252D01*
X112015000Y-128871252D02*
X112015000Y-128348748D01*
X113485000Y-128871252D02*
X113485000Y-128348748D01*
X106445000Y-128901252D02*
X106445000Y-128378748D01*
X107915000Y-128901252D02*
X107915000Y-128378748D01*
X110441252Y-114425000D02*
X109918748Y-114425000D01*
X110441252Y-112955000D02*
X109918748Y-112955000D01*
D10*
X103660000Y-107520000D02*
X96560000Y-107520000D01*
X103660000Y-116320000D02*
X96560000Y-116320000D01*
X96560000Y-116320000D02*
X96560000Y-107520000D01*
X103660000Y-107520000D02*
X103660000Y-116320000D01*
X97660000Y-116120000D02*
X97660000Y-107720000D01*
D16*
X103180000Y-111920000D02*
X96860000Y-111920000D01*
D14*
X157370000Y-137810000D02*
X156120000Y-137810000D01*
X157370000Y-139060000D02*
X157370000Y-137810000D01*
X152960000Y-141170000D02*
X153460000Y-141170000D01*
X153460000Y-141270000D02*
X152960000Y-141270000D01*
X153460000Y-141070000D02*
X153460000Y-141270000D01*
X152960000Y-141070000D02*
X153460000Y-141070000D01*
X154460000Y-144230000D02*
X154460000Y-143620000D01*
X155760000Y-144230000D02*
X155760000Y-143620000D01*
X154460000Y-138110000D02*
X154460000Y-138720000D01*
X155760000Y-138110000D02*
X155760000Y-138720000D01*
X156460000Y-141670000D02*
X157070000Y-141670000D01*
X156460000Y-143620000D02*
X156460000Y-141670000D01*
X152960000Y-143620000D02*
X156460000Y-143620000D01*
X152960000Y-138720000D02*
X152960000Y-143620000D01*
X156460000Y-138720000D02*
X152960000Y-138720000D01*
X156460000Y-140670000D02*
X156460000Y-138720000D01*
X157070000Y-140670000D02*
X156460000Y-140670000D01*
X157170000Y-139870000D02*
X157170000Y-139570000D01*
X157270000Y-139570000D02*
X157070000Y-139570000D01*
X157270000Y-139870000D02*
X157270000Y-139570000D01*
X157070000Y-139870000D02*
X157270000Y-139870000D01*
X157070000Y-144230000D02*
X157070000Y-138110000D01*
X152350000Y-144230000D02*
X157070000Y-144230000D01*
X152350000Y-138110000D02*
X152350000Y-144230000D01*
X157070000Y-138110000D02*
X152350000Y-138110000D01*
X151060000Y-134910000D02*
X151060000Y-135190000D01*
X151060000Y-135190000D02*
X149460000Y-135190000D01*
X149460000Y-135190000D02*
X149460000Y-136110000D01*
X149460000Y-136110000D02*
X157280000Y-136110000D01*
X157280000Y-136110000D02*
X157280000Y-125990000D01*
X157280000Y-125990000D02*
X149460000Y-125990000D01*
X149460000Y-125990000D02*
X149460000Y-126910000D01*
X149460000Y-126910000D02*
X151060000Y-126910000D01*
X151060000Y-126910000D02*
X151060000Y-127190000D01*
X157280000Y-133550000D02*
X152920000Y-133550000D01*
X152920000Y-133550000D02*
X152920000Y-128550000D01*
X152920000Y-128550000D02*
X157280000Y-128550000D01*
X151060000Y-136110000D02*
X151060000Y-135190000D01*
X151060000Y-125990000D02*
X151060000Y-126910000D01*
X153420000Y-135350000D02*
X155020000Y-135350000D01*
X155020000Y-135350000D02*
X155020000Y-134350000D01*
X155020000Y-134350000D02*
X153420000Y-134350000D01*
X153420000Y-134350000D02*
X153420000Y-135350000D01*
X153420000Y-126750000D02*
X155020000Y-126750000D01*
X155020000Y-126750000D02*
X155020000Y-127750000D01*
X155020000Y-127750000D02*
X153420000Y-127750000D01*
X153420000Y-127750000D02*
X153420000Y-126750000D01*
X155020000Y-134350000D02*
X157280000Y-134350000D01*
X155020000Y-134850000D02*
X157280000Y-134850000D01*
X151060000Y-134910000D02*
X149845000Y-134910000D01*
X151050000Y-124280000D02*
X149835000Y-124280000D01*
X155010000Y-124220000D02*
X157270000Y-124220000D01*
X155010000Y-123720000D02*
X157270000Y-123720000D01*
X153410000Y-117120000D02*
X153410000Y-116120000D01*
X155010000Y-117120000D02*
X153410000Y-117120000D01*
X155010000Y-116120000D02*
X155010000Y-117120000D01*
X153410000Y-116120000D02*
X155010000Y-116120000D01*
X153410000Y-123720000D02*
X153410000Y-124720000D01*
X155010000Y-123720000D02*
X153410000Y-123720000D01*
X155010000Y-124720000D02*
X155010000Y-123720000D01*
X153410000Y-124720000D02*
X155010000Y-124720000D01*
X151050000Y-115360000D02*
X151050000Y-116280000D01*
X151050000Y-125480000D02*
X151050000Y-124560000D01*
X152910000Y-117920000D02*
X157270000Y-117920000D01*
X152910000Y-122920000D02*
X152910000Y-117920000D01*
X157270000Y-122920000D02*
X152910000Y-122920000D01*
X151050000Y-116280000D02*
X151050000Y-116560000D01*
X149450000Y-116280000D02*
X151050000Y-116280000D01*
X149450000Y-115360000D02*
X149450000Y-116280000D01*
X157270000Y-115360000D02*
X149450000Y-115360000D01*
X157270000Y-125480000D02*
X157270000Y-115360000D01*
X149450000Y-125480000D02*
X157270000Y-125480000D01*
X149450000Y-124560000D02*
X149450000Y-125480000D01*
X151050000Y-124560000D02*
X149450000Y-124560000D01*
X151050000Y-124280000D02*
X151050000Y-124560000D01*
X151050000Y-113670000D02*
X149835000Y-113670000D01*
X155010000Y-113610000D02*
X157270000Y-113610000D01*
X155010000Y-113110000D02*
X157270000Y-113110000D01*
X153410000Y-106510000D02*
X153410000Y-105510000D01*
X155010000Y-106510000D02*
X153410000Y-106510000D01*
X155010000Y-105510000D02*
X155010000Y-106510000D01*
X153410000Y-105510000D02*
X155010000Y-105510000D01*
X153410000Y-113110000D02*
X153410000Y-114110000D01*
X155010000Y-113110000D02*
X153410000Y-113110000D01*
X155010000Y-114110000D02*
X155010000Y-113110000D01*
X153410000Y-114110000D02*
X155010000Y-114110000D01*
X151050000Y-104750000D02*
X151050000Y-105670000D01*
X151050000Y-114870000D02*
X151050000Y-113950000D01*
X152910000Y-107310000D02*
X157270000Y-107310000D01*
X152910000Y-112310000D02*
X152910000Y-107310000D01*
X157270000Y-112310000D02*
X152910000Y-112310000D01*
X151050000Y-105670000D02*
X151050000Y-105950000D01*
X149450000Y-105670000D02*
X151050000Y-105670000D01*
X149450000Y-104750000D02*
X149450000Y-105670000D01*
X157270000Y-104750000D02*
X149450000Y-104750000D01*
X157270000Y-114870000D02*
X157270000Y-104750000D01*
X149450000Y-114870000D02*
X157270000Y-114870000D01*
X149450000Y-113950000D02*
X149450000Y-114870000D01*
X151050000Y-113950000D02*
X149450000Y-113950000D01*
X151050000Y-113670000D02*
X151050000Y-113950000D01*
X151070000Y-102990000D02*
X149855000Y-102990000D01*
X155030000Y-102930000D02*
X157290000Y-102930000D01*
X155030000Y-102430000D02*
X157290000Y-102430000D01*
X153430000Y-95830000D02*
X153430000Y-94830000D01*
X155030000Y-95830000D02*
X153430000Y-95830000D01*
X155030000Y-94830000D02*
X155030000Y-95830000D01*
X153430000Y-94830000D02*
X155030000Y-94830000D01*
X153430000Y-102430000D02*
X153430000Y-103430000D01*
X155030000Y-102430000D02*
X153430000Y-102430000D01*
X155030000Y-103430000D02*
X155030000Y-102430000D01*
X153430000Y-103430000D02*
X155030000Y-103430000D01*
X151070000Y-94070000D02*
X151070000Y-94990000D01*
X151070000Y-104190000D02*
X151070000Y-103270000D01*
X152930000Y-96630000D02*
X157290000Y-96630000D01*
X152930000Y-101630000D02*
X152930000Y-96630000D01*
X157290000Y-101630000D02*
X152930000Y-101630000D01*
X151070000Y-94990000D02*
X151070000Y-95270000D01*
X149470000Y-94990000D02*
X151070000Y-94990000D01*
X149470000Y-94070000D02*
X149470000Y-94990000D01*
X157290000Y-94070000D02*
X149470000Y-94070000D01*
X157290000Y-104190000D02*
X157290000Y-94070000D01*
X149470000Y-104190000D02*
X157290000Y-104190000D01*
X149470000Y-103270000D02*
X149470000Y-104190000D01*
X151070000Y-103270000D02*
X149470000Y-103270000D01*
X151070000Y-102990000D02*
X151070000Y-103270000D01*
X151080000Y-92370000D02*
X149865000Y-92370000D01*
X155040000Y-92310000D02*
X157300000Y-92310000D01*
X155040000Y-91810000D02*
X157300000Y-91810000D01*
X153440000Y-85210000D02*
X153440000Y-84210000D01*
X155040000Y-85210000D02*
X153440000Y-85210000D01*
X155040000Y-84210000D02*
X155040000Y-85210000D01*
X153440000Y-84210000D02*
X155040000Y-84210000D01*
X153440000Y-91810000D02*
X153440000Y-92810000D01*
X155040000Y-91810000D02*
X153440000Y-91810000D01*
X155040000Y-92810000D02*
X155040000Y-91810000D01*
X153440000Y-92810000D02*
X155040000Y-92810000D01*
X151080000Y-83450000D02*
X151080000Y-84370000D01*
X151080000Y-93570000D02*
X151080000Y-92650000D01*
X152940000Y-86010000D02*
X157300000Y-86010000D01*
X152940000Y-91010000D02*
X152940000Y-86010000D01*
X157300000Y-91010000D02*
X152940000Y-91010000D01*
X151080000Y-84370000D02*
X151080000Y-84650000D01*
X149480000Y-84370000D02*
X151080000Y-84370000D01*
X149480000Y-83450000D02*
X149480000Y-84370000D01*
X157300000Y-83450000D02*
X149480000Y-83450000D01*
X157300000Y-93570000D02*
X157300000Y-83450000D01*
X149480000Y-93570000D02*
X157300000Y-93570000D01*
X149480000Y-92650000D02*
X149480000Y-93570000D01*
X151080000Y-92650000D02*
X149480000Y-92650000D01*
X151080000Y-92370000D02*
X151080000Y-92650000D01*
X110230000Y-118990000D02*
X108530000Y-118990000D01*
X108530000Y-118990000D02*
X108530000Y-121540000D01*
X110230000Y-118990000D02*
X110230000Y-121540000D01*
X128422936Y-153740000D02*
X132777064Y-153740000D01*
X128422936Y-150320000D02*
X132777064Y-150320000D01*
X133437500Y-157547258D02*
X133437500Y-157072742D01*
X134482500Y-157547258D02*
X134482500Y-157072742D01*
X143140000Y-147050000D02*
X141440000Y-147050000D01*
X137620000Y-147050000D02*
X139320000Y-147050000D01*
X137620000Y-151505563D02*
X137620000Y-147050000D01*
X143140000Y-151505563D02*
X143140000Y-147050000D01*
X142075563Y-152570000D02*
X141440000Y-152570000D01*
X138684437Y-152570000D02*
X139320000Y-152570000D01*
X138684437Y-152570000D02*
X137620000Y-151505563D01*
X142075563Y-152570000D02*
X143140000Y-151505563D01*
X138695000Y-153435000D02*
X138695000Y-152810000D01*
X138382500Y-153122500D02*
X139007500Y-153122500D01*
D17*
X108990000Y-150990000D02*
X122790000Y-150990000D01*
X122790000Y-138390000D02*
X108990000Y-138390000D01*
X106750000Y-141130000D02*
X101550000Y-141130000D01*
X106750000Y-152030000D02*
X106750000Y-141130000D01*
X96950000Y-152030000D02*
X106750000Y-152030000D01*
X96950000Y-143630000D02*
X96950000Y-152030000D01*
X141410000Y-156780000D02*
X141410000Y-156780000D01*
X141410000Y-156980000D02*
X141410000Y-156980000D01*
D10*
X142610000Y-159230000D02*
X145060000Y-159230000D01*
X142610000Y-156330000D02*
X145210000Y-156330000D01*
D17*
X141410000Y-156980000D02*
G75*
G03*
X141410000Y-156780000I0J100000D01*
G01*
X141410000Y-156780000D02*
G75*
G03*
X141410000Y-156980000I0J-100000D01*
G01*
D14*
X127050000Y-115210000D02*
X124250000Y-115210000D01*
X123600000Y-114510000D02*
X123600000Y-113910000D01*
X124250000Y-113210000D02*
X127050000Y-113210000D01*
X127700000Y-113910000D02*
X127700000Y-114510000D01*
X127700000Y-114510000D02*
G75*
G02*
X127000000Y-115210000I-700000J0D01*
G01*
X127000000Y-113210000D02*
G75*
G02*
X127700000Y-113910000I0J-700000D01*
G01*
X123600000Y-113910000D02*
G75*
G02*
X124300000Y-113210000I700000J0D01*
G01*
X124300000Y-115210000D02*
G75*
G02*
X123600000Y-114510000I0J700000D01*
G01*
X119545000Y-109390000D02*
X119545000Y-106905000D01*
X119545000Y-106905000D02*
X118175000Y-106905000D01*
X118175000Y-106905000D02*
X118175000Y-109390000D01*
X116645000Y-106905000D02*
X116645000Y-109390000D01*
X118015000Y-106905000D02*
X116645000Y-106905000D01*
X118015000Y-109390000D02*
X118015000Y-106905000D01*
X116405000Y-133120000D02*
X116405000Y-130635000D01*
X116405000Y-130635000D02*
X115035000Y-130635000D01*
X115035000Y-130635000D02*
X115035000Y-133120000D01*
X118340000Y-111627221D02*
X118340000Y-111952779D01*
X119360000Y-111627221D02*
X119360000Y-111952779D01*
X116810000Y-111627221D02*
X116810000Y-111952779D01*
X117830000Y-111627221D02*
X117830000Y-111952779D01*
X100050000Y-87331422D02*
X100050000Y-87848578D01*
X101470000Y-87331422D02*
X101470000Y-87848578D01*
X100010000Y-82798578D02*
X100010000Y-82281422D01*
X98590000Y-82798578D02*
X98590000Y-82281422D01*
D17*
X107442703Y-110038439D02*
X108485685Y-111081421D01*
X107354315Y-110798579D02*
X108061421Y-111505685D01*
X107625685Y-108961421D02*
X106918579Y-108254315D01*
X107537297Y-109721561D02*
X106494315Y-108678579D01*
X106400000Y-114440000D02*
X106400000Y-115440000D01*
X107000000Y-113965000D02*
X107000000Y-115440000D01*
D14*
X109720000Y-132140000D02*
X111120000Y-132140000D01*
X111820000Y-132840000D02*
X111820000Y-133440000D01*
X111120000Y-134140000D02*
X109720000Y-134140000D01*
X109020000Y-133440000D02*
X109020000Y-132840000D01*
X109020000Y-132840000D02*
G75*
G02*
X109720000Y-132140000I700000J0D01*
G01*
X109720000Y-134140000D02*
G75*
G02*
X109020000Y-133440000I0J700000D01*
G01*
X111820000Y-133440000D02*
G75*
G02*
X111120000Y-134140000I-700000J0D01*
G01*
X111120000Y-132140000D02*
G75*
G02*
X111820000Y-132840000I0J-700000D01*
G01*
X114015000Y-106550000D02*
X114490000Y-106550000D01*
X114490000Y-106550000D02*
X114490000Y-107025000D01*
X110745000Y-110770000D02*
X110270000Y-110770000D01*
X110270000Y-110770000D02*
X110270000Y-110295000D01*
X114015000Y-110770000D02*
X114490000Y-110770000D01*
X114490000Y-110770000D02*
X114490000Y-110295000D01*
X110745000Y-106550000D02*
X110270000Y-106550000D01*
D12*
X101510000Y-81570000D02*
X101510000Y-81570000D01*
X101610000Y-81570000D02*
X101610000Y-81570000D01*
D10*
X120610000Y-99820000D02*
X120610000Y-99070000D01*
X118110000Y-99820000D02*
X120610000Y-99820000D01*
X102610000Y-99820000D02*
X105110000Y-99820000D01*
X102610000Y-99070000D02*
X102610000Y-99820000D01*
X120610000Y-74320000D02*
X120610000Y-81070000D01*
X102610000Y-74320000D02*
X120610000Y-74320000D01*
X102610000Y-81070000D02*
X102610000Y-74320000D01*
D12*
X101610000Y-81570000D02*
G75*
G02*
X101510000Y-81570000I-50000J0D01*
G01*
X101510000Y-81570000D02*
G75*
G02*
X101610000Y-81570000I50000J0D01*
G01*
D14*
X149150000Y-139067221D02*
X149150000Y-139392779D01*
X150170000Y-139067221D02*
X150170000Y-139392779D01*
X113440000Y-103490000D02*
X113440000Y-101590000D01*
X111120000Y-102090000D02*
X111120000Y-103490000D01*
X149270000Y-77657221D02*
X149270000Y-77982779D01*
X150290000Y-77657221D02*
X150290000Y-77982779D01*
X147740000Y-77657221D02*
X147740000Y-77982779D01*
X148760000Y-77657221D02*
X148760000Y-77982779D01*
D17*
X133440000Y-126295000D02*
X135540000Y-126295000D01*
X135890000Y-130990000D02*
X135890000Y-126390000D01*
X141690000Y-130990000D02*
X135890000Y-130990000D01*
X141690000Y-126390000D02*
X141690000Y-130990000D01*
X135890000Y-126390000D02*
X141690000Y-126390000D01*
X133480000Y-120805000D02*
X135580000Y-120805000D01*
X135930000Y-125500000D02*
X135930000Y-120900000D01*
X141730000Y-125500000D02*
X135930000Y-125500000D01*
X141730000Y-120900000D02*
X141730000Y-125500000D01*
X135930000Y-120900000D02*
X141730000Y-120900000D01*
X133480000Y-115305000D02*
X135580000Y-115305000D01*
X135930000Y-120000000D02*
X135930000Y-115400000D01*
X141730000Y-120000000D02*
X135930000Y-120000000D01*
X141730000Y-115400000D02*
X141730000Y-120000000D01*
X135930000Y-115400000D02*
X141730000Y-115400000D01*
X133480000Y-109805000D02*
X135580000Y-109805000D01*
X135930000Y-114500000D02*
X135930000Y-109900000D01*
X141730000Y-114500000D02*
X135930000Y-114500000D01*
X141730000Y-109900000D02*
X141730000Y-114500000D01*
X135930000Y-109900000D02*
X141730000Y-109900000D01*
X133480000Y-104305000D02*
X135580000Y-104305000D01*
X135930000Y-109000000D02*
X135930000Y-104400000D01*
X141730000Y-109000000D02*
X135930000Y-109000000D01*
X141730000Y-104400000D02*
X141730000Y-109000000D01*
X135930000Y-104400000D02*
X141730000Y-104400000D01*
X133480000Y-98585000D02*
X135580000Y-98585000D01*
X135930000Y-103280000D02*
X135930000Y-98680000D01*
X141730000Y-103280000D02*
X135930000Y-103280000D01*
X141730000Y-98680000D02*
X141730000Y-103280000D01*
X135930000Y-98680000D02*
X141730000Y-98680000D01*
X133480000Y-93085000D02*
X135580000Y-93085000D01*
X135930000Y-97780000D02*
X135930000Y-93180000D01*
X141730000Y-97780000D02*
X135930000Y-97780000D01*
X141730000Y-93180000D02*
X141730000Y-97780000D01*
X135930000Y-93180000D02*
X141730000Y-93180000D01*
X133480000Y-87585000D02*
X135580000Y-87585000D01*
X135930000Y-92280000D02*
X135930000Y-87680000D01*
X141730000Y-92280000D02*
X135930000Y-92280000D01*
X141730000Y-87680000D02*
X141730000Y-92280000D01*
X135930000Y-87680000D02*
X141730000Y-87680000D01*
X133480000Y-82085000D02*
X135580000Y-82085000D01*
X135930000Y-86780000D02*
X135930000Y-82180000D01*
X141730000Y-86780000D02*
X135930000Y-86780000D01*
X141730000Y-82180000D02*
X141730000Y-86780000D01*
X135930000Y-82180000D02*
X141730000Y-82180000D01*
X133480000Y-76585000D02*
X135580000Y-76585000D01*
X135930000Y-81280000D02*
X135930000Y-76680000D01*
X141730000Y-81280000D02*
X135930000Y-81280000D01*
X141730000Y-76680000D02*
X141730000Y-81280000D01*
X135930000Y-76680000D02*
X141730000Y-76680000D01*
D10*
X118200000Y-102570000D02*
X124200000Y-102570000D01*
X118200000Y-106120000D02*
X124200000Y-106070000D01*
D14*
X115260000Y-113367221D02*
X115260000Y-113692779D01*
X116280000Y-113367221D02*
X116280000Y-113692779D01*
X114780000Y-113692779D02*
X114780000Y-113367221D01*
X113760000Y-113692779D02*
X113760000Y-113367221D01*
X112250000Y-113357221D02*
X112250000Y-113682779D01*
X113270000Y-113357221D02*
X113270000Y-113682779D01*
X131082779Y-126900000D02*
X130757221Y-126900000D01*
X131082779Y-127920000D02*
X130757221Y-127920000D01*
X131032779Y-121410000D02*
X130707221Y-121410000D01*
X131032779Y-122430000D02*
X130707221Y-122430000D01*
X131072779Y-116980000D02*
X130747221Y-116980000D01*
X131072779Y-118000000D02*
X130747221Y-118000000D01*
X131092779Y-113750000D02*
X130767221Y-113750000D01*
X131092779Y-114770000D02*
X130767221Y-114770000D01*
X131092779Y-104890000D02*
X130767221Y-104890000D01*
X131092779Y-105910000D02*
X130767221Y-105910000D01*
X131092779Y-99170000D02*
X130767221Y-99170000D01*
X131092779Y-100190000D02*
X130767221Y-100190000D01*
X131092779Y-93770000D02*
X130767221Y-93770000D01*
X131092779Y-94790000D02*
X130767221Y-94790000D01*
X131092779Y-88170000D02*
X130767221Y-88170000D01*
X131092779Y-89190000D02*
X130767221Y-89190000D01*
X130992779Y-82670000D02*
X130667221Y-82670000D01*
X130992779Y-83690000D02*
X130667221Y-83690000D01*
X130992779Y-77170000D02*
X130667221Y-77170000D01*
X130992779Y-78190000D02*
X130667221Y-78190000D01*
X100077221Y-85550000D02*
X100402779Y-85550000D01*
X100077221Y-84530000D02*
X100402779Y-84530000D01*
X118880000Y-117510000D02*
X116430000Y-117510000D01*
X117080000Y-120730000D02*
X118880000Y-120730000D01*
X120140000Y-118797221D02*
X120140000Y-119122779D01*
X121160000Y-118797221D02*
X121160000Y-119122779D01*
X115910000Y-117552779D02*
X115910000Y-117227221D01*
X114890000Y-117552779D02*
X114890000Y-117227221D01*
X110512779Y-111560000D02*
X110187221Y-111560000D01*
X110512779Y-112580000D02*
X110187221Y-112580000D01*
X101570000Y-82492779D02*
X101570000Y-82167221D01*
X100550000Y-82492779D02*
X100550000Y-82167221D01*
X108520000Y-125210000D02*
X108520000Y-122660000D01*
X110220000Y-125210000D02*
X110220000Y-122660000D01*
X108520000Y-125210000D02*
X110220000Y-125210000D01*
X113080000Y-125270000D02*
X111620000Y-125270000D01*
X113080000Y-122110000D02*
X110920000Y-122110000D01*
X113080000Y-122110000D02*
X113080000Y-123040000D01*
X113080000Y-125270000D02*
X113080000Y-124340000D01*
X106692779Y-130980000D02*
X106367221Y-130980000D01*
X106692779Y-132000000D02*
X106367221Y-132000000D01*
X108270000Y-122092779D02*
X108270000Y-121767221D01*
X107250000Y-122092779D02*
X107250000Y-121767221D01*
X113277221Y-133580000D02*
X113602779Y-133580000D01*
X113277221Y-132560000D02*
X113602779Y-132560000D01*
X109070000Y-132150000D02*
X111520000Y-132150000D01*
X110870000Y-128930000D02*
X109070000Y-128930000D01*
X121420580Y-124060000D02*
X121139420Y-124060000D01*
X121420580Y-123040000D02*
X121139420Y-123040000D01*
X121420580Y-125580000D02*
X121139420Y-125580000D01*
X121420580Y-124560000D02*
X121139420Y-124560000D01*
X119910580Y-127330000D02*
X119629420Y-127330000D01*
X119910580Y-128350000D02*
X119629420Y-128350000D01*
X126710000Y-126270580D02*
X126710000Y-125989420D01*
X125690000Y-126270580D02*
X125690000Y-125989420D01*
X104871250Y-155766250D02*
X104083750Y-155766250D01*
X104477500Y-155372500D02*
X104477500Y-156160000D01*
X100284437Y-156400000D02*
X99220000Y-157464437D01*
X104975563Y-156400000D02*
X106040000Y-157464437D01*
X104975563Y-156400000D02*
X103690000Y-156400000D01*
X100284437Y-156400000D02*
X101570000Y-156400000D01*
X99220000Y-157464437D02*
X99220000Y-163220000D01*
X106040000Y-157464437D02*
X106040000Y-163220000D01*
X106040000Y-163220000D02*
X103690000Y-163220000D01*
X99220000Y-163220000D02*
X101570000Y-163220000D01*
X136070000Y-160909420D02*
X136070000Y-161190580D01*
X135050000Y-160909420D02*
X135050000Y-161190580D01*
X127129420Y-164110000D02*
X127410580Y-164110000D01*
X127129420Y-163090000D02*
X127410580Y-163090000D01*
X137145000Y-151321252D02*
X137145000Y-150798748D01*
X135675000Y-151321252D02*
X135675000Y-150798748D01*
X149189420Y-155090000D02*
X149470580Y-155090000D01*
X149189420Y-154070000D02*
X149470580Y-154070000D01*
D17*
X102550000Y-153075000D02*
X99850000Y-153075000D01*
X103320000Y-154725000D02*
X99850000Y-154725000D01*
D14*
X133920000Y-164857000D02*
X131435000Y-164857000D01*
X131435000Y-164857000D02*
X131435000Y-166227000D01*
X131435000Y-166227000D02*
X133920000Y-166227000D01*
X131455000Y-164677000D02*
X133940000Y-164677000D01*
X131455000Y-163307000D02*
X131455000Y-164677000D01*
X133940000Y-163307000D02*
X131455000Y-163307000D01*
D17*
X113230000Y-152735000D02*
X113230000Y-160685000D01*
X119130000Y-160685000D02*
X119130000Y-152135000D01*
X112760000Y-160615000D02*
X112760000Y-152065000D01*
X106860000Y-152665000D02*
X106860000Y-160615000D01*
X122945000Y-126060000D02*
X123795000Y-126060000D01*
X123795000Y-126060000D02*
X123795000Y-128960000D01*
X123795000Y-128960000D02*
X122945000Y-128960000D01*
X122945000Y-128960000D02*
X122945000Y-126060000D01*
X121545000Y-125960000D02*
X122595000Y-125960000D01*
X127620000Y-160800000D02*
X127620000Y-157600000D01*
X127620000Y-157600000D02*
X132520000Y-157600000D01*
X132520000Y-157600000D02*
X132520000Y-160800000D01*
X132520000Y-160800000D02*
X127620000Y-160800000D01*
X127395000Y-162675000D02*
X127395000Y-161150000D01*
D14*
X123010000Y-158110000D02*
X123010000Y-156650000D01*
X126170000Y-158110000D02*
X126170000Y-155950000D01*
X126170000Y-158110000D02*
X125240000Y-158110000D01*
X123010000Y-158110000D02*
X123940000Y-158110000D01*
X127197258Y-128117500D02*
X126722742Y-128117500D01*
X127197258Y-129162500D02*
X126722742Y-129162500D01*
X134512500Y-161287258D02*
X134512500Y-160812742D01*
X133467500Y-161287258D02*
X133467500Y-160812742D01*
X128482742Y-165017500D02*
X128957258Y-165017500D01*
X128482742Y-166062500D02*
X128957258Y-166062500D01*
X135982500Y-157072742D02*
X135982500Y-157547258D01*
X134937500Y-157072742D02*
X134937500Y-157547258D01*
X153042500Y-159522742D02*
X153042500Y-159997258D01*
X151997500Y-159522742D02*
X151997500Y-159997258D01*
X145682742Y-155102500D02*
X146157258Y-155102500D01*
X145682742Y-154057500D02*
X146157258Y-154057500D01*
X100900000Y-119330000D02*
X103500000Y-119330000D01*
X105650000Y-125630000D02*
X105400000Y-125630000D01*
X105650000Y-119330000D02*
X105650000Y-125630000D01*
X105400000Y-119330000D02*
X105650000Y-119330000D01*
X103500000Y-125630000D02*
X100900000Y-125630000D01*
X98750000Y-119330000D02*
X99000000Y-119330000D01*
X98750000Y-125630000D02*
X98750000Y-119330000D01*
X99000000Y-125630000D02*
X98750000Y-125630000D01*
X121370000Y-157029420D02*
X121370000Y-157310580D01*
X122390000Y-157029420D02*
X122390000Y-157310580D01*
D17*
X151190000Y-159380000D02*
X149990000Y-159380000D01*
X149640000Y-156330000D02*
X149640000Y-159230000D01*
X149040000Y-156330000D02*
X149640000Y-156330000D01*
X149040000Y-159230000D02*
X149040000Y-156330000D01*
X149640000Y-159230000D02*
X149040000Y-159230000D01*
D14*
X144960000Y-75680000D02*
X144960000Y-70960000D01*
X144960000Y-70960000D02*
X134840000Y-70960000D01*
X134840000Y-70960000D02*
X134840000Y-75680000D01*
X134840000Y-75680000D02*
X144960000Y-75680000D01*
X143200000Y-75680000D02*
X143200000Y-75880000D01*
X143200000Y-75880000D02*
X143500000Y-75880000D01*
X143500000Y-75880000D02*
X143500000Y-75680000D01*
X143200000Y-75780000D02*
X143500000Y-75780000D01*
X142400000Y-75680000D02*
X142400000Y-75070000D01*
X142400000Y-75070000D02*
X144350000Y-75070000D01*
X144350000Y-75070000D02*
X144350000Y-71570000D01*
X144350000Y-71570000D02*
X135450000Y-71570000D01*
X135450000Y-71570000D02*
X135450000Y-75070000D01*
X135450000Y-75070000D02*
X137400000Y-75070000D01*
X137400000Y-75070000D02*
X137400000Y-75680000D01*
X144960000Y-74370000D02*
X144350000Y-74370000D01*
X144960000Y-73070000D02*
X144350000Y-73070000D01*
X134840000Y-74370000D02*
X135450000Y-74370000D01*
X134840000Y-73070000D02*
X135450000Y-73070000D01*
X142000000Y-71570000D02*
X142000000Y-72070000D01*
X142000000Y-72070000D02*
X141800000Y-72070000D01*
X141800000Y-72070000D02*
X141800000Y-71570000D01*
X141900000Y-71570000D02*
X141900000Y-72070000D01*
X140000000Y-71570000D02*
X140000000Y-72070000D01*
X140000000Y-72070000D02*
X139800000Y-72070000D01*
X139800000Y-72070000D02*
X139800000Y-71570000D01*
X139900000Y-71570000D02*
X139900000Y-72070000D01*
X138000000Y-71570000D02*
X138000000Y-72070000D01*
X138000000Y-72070000D02*
X137800000Y-72070000D01*
X137800000Y-72070000D02*
X137800000Y-71570000D01*
X137900000Y-71570000D02*
X137900000Y-72070000D01*
X144010000Y-75980000D02*
X145260000Y-75980000D01*
X145260000Y-75980000D02*
X145260000Y-74730000D01*
X157060000Y-144710000D02*
X152340000Y-144710000D01*
X152340000Y-144710000D02*
X152340000Y-150830000D01*
X152340000Y-150830000D02*
X157060000Y-150830000D01*
X157060000Y-150830000D02*
X157060000Y-144710000D01*
X157060000Y-146470000D02*
X157260000Y-146470000D01*
X157260000Y-146470000D02*
X157260000Y-146170000D01*
X157260000Y-146170000D02*
X157060000Y-146170000D01*
X157160000Y-146470000D02*
X157160000Y-146170000D01*
X157060000Y-147270000D02*
X156450000Y-147270000D01*
X156450000Y-147270000D02*
X156450000Y-145320000D01*
X156450000Y-145320000D02*
X152950000Y-145320000D01*
X152950000Y-145320000D02*
X152950000Y-150220000D01*
X152950000Y-150220000D02*
X156450000Y-150220000D01*
X156450000Y-150220000D02*
X156450000Y-148270000D01*
X156450000Y-148270000D02*
X157060000Y-148270000D01*
X155750000Y-144710000D02*
X155750000Y-145320000D01*
X154450000Y-144710000D02*
X154450000Y-145320000D01*
X155750000Y-150830000D02*
X155750000Y-150220000D01*
X154450000Y-150830000D02*
X154450000Y-150220000D01*
X152950000Y-147670000D02*
X153450000Y-147670000D01*
X153450000Y-147670000D02*
X153450000Y-147870000D01*
X153450000Y-147870000D02*
X152950000Y-147870000D01*
X152950000Y-147770000D02*
X153450000Y-147770000D01*
X157360000Y-145660000D02*
X157360000Y-144410000D01*
X157360000Y-144410000D02*
X156110000Y-144410000D01*
X125650000Y-133590000D02*
X125650000Y-138310000D01*
X125650000Y-138310000D02*
X133770000Y-138310000D01*
X133770000Y-138310000D02*
X133770000Y-133590000D01*
X133770000Y-133590000D02*
X125650000Y-133590000D01*
X127410000Y-133590000D02*
X127410000Y-133390000D01*
X127410000Y-133390000D02*
X127110000Y-133390000D01*
X127110000Y-133390000D02*
X127110000Y-133590000D01*
X127410000Y-133490000D02*
X127110000Y-133490000D01*
X128210000Y-133590000D02*
X128210000Y-134200000D01*
X128210000Y-134200000D02*
X126260000Y-134200000D01*
X126260000Y-134200000D02*
X126260000Y-137700000D01*
X126260000Y-137700000D02*
X133160000Y-137700000D01*
X133160000Y-137700000D02*
X133160000Y-134200000D01*
X133160000Y-134200000D02*
X131210000Y-134200000D01*
X131210000Y-134200000D02*
X131210000Y-133590000D01*
X125650000Y-134900000D02*
X126260000Y-134900000D01*
X125650000Y-136200000D02*
X126260000Y-136200000D01*
X133770000Y-134900000D02*
X133160000Y-134900000D01*
X133770000Y-136200000D02*
X133160000Y-136200000D01*
X128610000Y-137700000D02*
X128610000Y-137200000D01*
X128610000Y-137200000D02*
X128810000Y-137200000D01*
X128810000Y-137200000D02*
X128810000Y-137700000D01*
X128710000Y-137700000D02*
X128710000Y-137200000D01*
X130610000Y-137700000D02*
X130610000Y-137200000D01*
X130610000Y-137200000D02*
X130810000Y-137200000D01*
X130810000Y-137200000D02*
X130810000Y-137700000D01*
X130710000Y-137700000D02*
X130710000Y-137200000D01*
X126600000Y-133290000D02*
X125350000Y-133290000D01*
X125350000Y-133290000D02*
X125350000Y-134540000D01*
X121140000Y-106530000D02*
X121140000Y-107780000D01*
X122390000Y-106530000D02*
X121140000Y-106530000D01*
X128500000Y-110940000D02*
X128500000Y-110440000D01*
X128600000Y-110440000D02*
X128600000Y-110940000D01*
X128400000Y-110440000D02*
X128600000Y-110440000D01*
X128400000Y-110940000D02*
X128400000Y-110440000D01*
X126500000Y-110940000D02*
X126500000Y-110440000D01*
X126600000Y-110440000D02*
X126600000Y-110940000D01*
X126400000Y-110440000D02*
X126600000Y-110440000D01*
X126400000Y-110940000D02*
X126400000Y-110440000D01*
X124500000Y-110940000D02*
X124500000Y-110440000D01*
X124600000Y-110440000D02*
X124600000Y-110940000D01*
X124400000Y-110440000D02*
X124600000Y-110440000D01*
X124400000Y-110940000D02*
X124400000Y-110440000D01*
X131560000Y-109440000D02*
X130950000Y-109440000D01*
X131560000Y-108140000D02*
X130950000Y-108140000D01*
X121440000Y-109440000D02*
X122050000Y-109440000D01*
X121440000Y-108140000D02*
X122050000Y-108140000D01*
X129000000Y-107440000D02*
X129000000Y-106830000D01*
X130950000Y-107440000D02*
X129000000Y-107440000D01*
X130950000Y-110940000D02*
X130950000Y-107440000D01*
X122050000Y-110940000D02*
X130950000Y-110940000D01*
X122050000Y-107440000D02*
X122050000Y-110940000D01*
X124000000Y-107440000D02*
X122050000Y-107440000D01*
X124000000Y-106830000D02*
X124000000Y-107440000D01*
X123200000Y-106730000D02*
X122900000Y-106730000D01*
X122900000Y-106630000D02*
X122900000Y-106830000D01*
X123200000Y-106630000D02*
X122900000Y-106630000D01*
X123200000Y-106830000D02*
X123200000Y-106630000D01*
X131560000Y-106830000D02*
X121440000Y-106830000D01*
X131560000Y-111550000D02*
X131560000Y-106830000D01*
X121440000Y-111550000D02*
X131560000Y-111550000D01*
X121440000Y-106830000D02*
X121440000Y-111550000D01*
X98157500Y-104902742D02*
X98157500Y-105377258D01*
X99202500Y-104902742D02*
X99202500Y-105377258D01*
X101267500Y-104902742D02*
X101267500Y-105377258D01*
X102312500Y-104902742D02*
X102312500Y-105377258D01*
X100792500Y-104902742D02*
X100792500Y-105377258D01*
X99747500Y-104902742D02*
X99747500Y-105377258D01*
X120399420Y-129090000D02*
X120680580Y-129090000D01*
X120399420Y-130110000D02*
X120680580Y-130110000D01*
X121822742Y-130457500D02*
X122297258Y-130457500D01*
X121822742Y-131502500D02*
X122297258Y-131502500D01*
X153260000Y-79289420D02*
X153260000Y-79570580D01*
X154280000Y-79289420D02*
X154280000Y-79570580D01*
D10*
X155900000Y-76810000D02*
X155900000Y-76810000D01*
X155900000Y-76910000D02*
X155900000Y-76910000D01*
X155900000Y-76810000D02*
G75*
G02*
X155900000Y-76910000I0J-50000D01*
G01*
X155900000Y-76910000D02*
G75*
G02*
X155900000Y-76810000I0J50000D01*
G01*
D14*
X113015000Y-117471252D02*
X113015000Y-116948748D01*
X114485000Y-117471252D02*
X114485000Y-116948748D01*
X121565000Y-118948748D02*
X121565000Y-119471252D01*
X123035000Y-118948748D02*
X123035000Y-119471252D01*
M02*
