G04 #@! TF.GenerationSoftware,KiCad,Pcbnew,7.0.2*
G04 #@! TF.CreationDate,2023-10-05T20:12:05+02:00*
G04 #@! TF.ProjectId,Harpe_ESP32,48617270-655f-4455-9350-33322e6b6963,rev?*
G04 #@! TF.SameCoordinates,Original*
G04 #@! TF.FileFunction,Soldermask,Bot*
G04 #@! TF.FilePolarity,Negative*
%FSLAX46Y46*%
G04 Gerber Fmt 4.6, Leading zero omitted, Abs format (unit mm)*
G04 Created by KiCad (PCBNEW 7.0.2) date 2023-10-05 20:12:05*
%MOMM*%
%LPD*%
G01*
G04 APERTURE LIST*
G04 Aperture macros list*
%AMRoundRect*
0 Rectangle with rounded corners*
0 $1 Rounding radius*
0 $2 $3 $4 $5 $6 $7 $8 $9 X,Y pos of 4 corners*
0 Add a 4 corners polygon primitive as box body*
4,1,4,$2,$3,$4,$5,$6,$7,$8,$9,$2,$3,0*
0 Add four circle primitives for the rounded corners*
1,1,$1+$1,$2,$3*
1,1,$1+$1,$4,$5*
1,1,$1+$1,$6,$7*
1,1,$1+$1,$8,$9*
0 Add four rect primitives between the rounded corners*
20,1,$1+$1,$2,$3,$4,$5,0*
20,1,$1+$1,$4,$5,$6,$7,0*
20,1,$1+$1,$6,$7,$8,$9,0*
20,1,$1+$1,$8,$9,$2,$3,0*%
%AMFreePoly0*
4,1,19,0.000000,0.744911,0.071157,0.744911,0.207708,0.704816,0.327430,0.627875,0.420627,0.520320,0.479746,0.390866,0.500000,0.250000,0.500000,-0.250000,0.479746,-0.390866,0.420627,-0.520320,0.327430,-0.627875,0.207708,-0.704816,0.071157,-0.744911,0.000000,-0.744911,0.000000,-0.750000,-0.500000,-0.750000,-0.500000,0.750000,0.000000,0.750000,0.000000,0.744911,0.000000,0.744911,
$1*%
%AMFreePoly1*
4,1,19,0.500000,-0.750000,0.000000,-0.750000,0.000000,-0.744911,-0.071157,-0.744911,-0.207708,-0.704816,-0.327430,-0.627875,-0.420627,-0.520320,-0.479746,-0.390866,-0.500000,-0.250000,-0.500000,0.250000,-0.479746,0.390866,-0.420627,0.520320,-0.327430,0.627875,-0.207708,0.704816,-0.071157,0.744911,0.000000,0.744911,0.000000,0.750000,0.500000,0.750000,0.500000,-0.750000,0.500000,-0.750000,
$1*%
G04 Aperture macros list end*
%ADD10RoundRect,0.250000X-0.350000X-0.625000X0.350000X-0.625000X0.350000X0.625000X-0.350000X0.625000X0*%
%ADD11O,1.200000X1.750000*%
%ADD12R,1.950000X1.950000*%
%ADD13C,1.950000*%
%ADD14C,0.650000*%
%ADD15RoundRect,0.500000X-0.300000X0.000000X-0.300000X0.000000X0.300000X0.000000X0.300000X0.000000X0*%
%ADD16C,1.500000*%
%ADD17C,1.575000*%
%ADD18FreePoly0,180.000000*%
%ADD19FreePoly1,180.000000*%
G04 APERTURE END LIST*
D10*
X129660000Y-95290000D03*
D11*
X131660000Y-95290000D03*
D10*
X129620000Y-89640000D03*
D11*
X131620000Y-89640000D03*
D12*
X117860000Y-154070000D03*
D13*
X117860000Y-162270000D03*
X122860000Y-154070000D03*
X122860000Y-162270000D03*
D14*
X102810000Y-109020000D03*
X102810000Y-114820000D03*
D15*
X103340000Y-107600000D03*
X99160000Y-107600000D03*
X103340000Y-116240000D03*
X99160000Y-116240000D03*
D16*
X101230000Y-140820000D03*
X101230000Y-138320000D03*
X101230000Y-135820000D03*
X101230000Y-133320000D03*
D17*
X123410000Y-140650000D03*
X120870000Y-140650000D03*
X118330000Y-140650000D03*
D12*
X150680000Y-91230000D03*
D13*
X158880000Y-91230000D03*
X150680000Y-86230000D03*
X158880000Y-86230000D03*
D12*
X150660000Y-118230000D03*
D13*
X158860000Y-118230000D03*
X150660000Y-113230000D03*
X158860000Y-113230000D03*
D12*
X150680000Y-104730000D03*
D13*
X158880000Y-104730000D03*
X150680000Y-99730000D03*
X158880000Y-99730000D03*
D16*
X101220000Y-152840000D03*
X101220000Y-150340000D03*
X101220000Y-147840000D03*
X101220000Y-145340000D03*
D12*
X150680000Y-158780000D03*
D13*
X158880000Y-158780000D03*
X150680000Y-153780000D03*
X158880000Y-153780000D03*
D12*
X150690000Y-145280000D03*
D13*
X158890000Y-145280000D03*
X150690000Y-140280000D03*
X158890000Y-140280000D03*
D12*
X150670000Y-131770000D03*
D13*
X158870000Y-131770000D03*
X150670000Y-126770000D03*
X158870000Y-126770000D03*
D18*
X121910000Y-114250000D03*
D19*
X123210000Y-114250000D03*
M02*
