G04 #@! TF.GenerationSoftware,KiCad,Pcbnew,(5.1.10)-1*
G04 #@! TF.CreationDate,2021-12-13T22:20:53+01:00*
G04 #@! TF.ProjectId,TestboardV2.3,54657374-626f-4617-9264-56322e332e6b,rev?*
G04 #@! TF.SameCoordinates,Original*
G04 #@! TF.FileFunction,Soldermask,Top*
G04 #@! TF.FilePolarity,Negative*
%FSLAX46Y46*%
G04 Gerber Fmt 4.6, Leading zero omitted, Abs format (unit mm)*
G04 Created by KiCad (PCBNEW (5.1.10)-1) date 2021-12-13 22:20:53*
%MOMM*%
%LPD*%
G01*
G04 APERTURE LIST*
%ADD10R,0.900000X1.300000*%
%ADD11R,0.750000X0.300000*%
%ADD12R,1.450000X0.300000*%
%ADD13C,0.670000*%
%ADD14O,1.750000X1.200000*%
%ADD15R,0.450000X0.600000*%
%ADD16R,3.650000X3.750000*%
%ADD17C,2.175000*%
%ADD18R,2.175000X2.175000*%
%ADD19R,1.400000X0.600000*%
%ADD20R,1.000000X1.500000*%
%ADD21C,0.100000*%
%ADD22R,0.420000X0.550000*%
%ADD23R,1.330000X1.330000*%
%ADD24R,2.000000X0.900000*%
%ADD25R,0.900000X2.000000*%
%ADD26R,0.400000X0.650000*%
%ADD27R,2.100000X1.550000*%
%ADD28C,3.000000*%
%ADD29R,2.000000X1.500000*%
%ADD30R,1.060000X0.650000*%
%ADD31R,0.900000X0.800000*%
%ADD32R,1.240000X1.120000*%
%ADD33R,3.200000X2.250000*%
%ADD34R,1.050000X0.450000*%
%ADD35R,0.650000X1.525000*%
%ADD36R,0.800000X0.900000*%
%ADD37R,1.300000X1.550000*%
%ADD38R,1.200000X0.600000*%
%ADD39O,1.200000X1.750000*%
%ADD40R,0.300000X0.500000*%
G04 APERTURE END LIST*
G36*
G01*
X120075000Y-122445000D02*
X120075000Y-121895000D01*
G75*
G02*
X120275000Y-121695000I200000J0D01*
G01*
X120675000Y-121695000D01*
G75*
G02*
X120875000Y-121895000I0J-200000D01*
G01*
X120875000Y-122445000D01*
G75*
G02*
X120675000Y-122645000I-200000J0D01*
G01*
X120275000Y-122645000D01*
G75*
G02*
X120075000Y-122445000I0J200000D01*
G01*
G37*
G36*
G01*
X118425000Y-122445000D02*
X118425000Y-121895000D01*
G75*
G02*
X118625000Y-121695000I200000J0D01*
G01*
X119025000Y-121695000D01*
G75*
G02*
X119225000Y-121895000I0J-200000D01*
G01*
X119225000Y-122445000D01*
G75*
G02*
X119025000Y-122645000I-200000J0D01*
G01*
X118625000Y-122645000D01*
G75*
G02*
X118425000Y-122445000I0J200000D01*
G01*
G37*
D10*
X146910000Y-138200000D03*
D11*
X145910000Y-138950000D03*
X145910000Y-138450000D03*
X145910000Y-137950000D03*
X145910000Y-137450000D03*
X147910000Y-137450000D03*
X147910000Y-137950000D03*
X147910000Y-138450000D03*
X147910000Y-138950000D03*
G36*
G01*
X120085000Y-110635000D02*
X120635000Y-110635000D01*
G75*
G02*
X120835000Y-110835000I0J-200000D01*
G01*
X120835000Y-111235000D01*
G75*
G02*
X120635000Y-111435000I-200000J0D01*
G01*
X120085000Y-111435000D01*
G75*
G02*
X119885000Y-111235000I0J200000D01*
G01*
X119885000Y-110835000D01*
G75*
G02*
X120085000Y-110635000I200000J0D01*
G01*
G37*
G36*
G01*
X120085000Y-112285000D02*
X120635000Y-112285000D01*
G75*
G02*
X120835000Y-112485000I0J-200000D01*
G01*
X120835000Y-112885000D01*
G75*
G02*
X120635000Y-113085000I-200000J0D01*
G01*
X120085000Y-113085000D01*
G75*
G02*
X119885000Y-112885000I0J200000D01*
G01*
X119885000Y-112485000D01*
G75*
G02*
X120085000Y-112285000I200000J0D01*
G01*
G37*
G36*
G01*
X120147500Y-108780000D02*
X120572500Y-108780000D01*
G75*
G02*
X120785000Y-108992500I0J-212500D01*
G01*
X120785000Y-109792500D01*
G75*
G02*
X120572500Y-110005000I-212500J0D01*
G01*
X120147500Y-110005000D01*
G75*
G02*
X119935000Y-109792500I0J212500D01*
G01*
X119935000Y-108992500D01*
G75*
G02*
X120147500Y-108780000I212500J0D01*
G01*
G37*
G36*
G01*
X120147500Y-107155000D02*
X120572500Y-107155000D01*
G75*
G02*
X120785000Y-107367500I0J-212500D01*
G01*
X120785000Y-108167500D01*
G75*
G02*
X120572500Y-108380000I-212500J0D01*
G01*
X120147500Y-108380000D01*
G75*
G02*
X119935000Y-108167500I0J212500D01*
G01*
X119935000Y-107367500D01*
G75*
G02*
X120147500Y-107155000I212500J0D01*
G01*
G37*
G36*
G01*
X105445000Y-139695000D02*
X105445000Y-139145000D01*
G75*
G02*
X105645000Y-138945000I200000J0D01*
G01*
X106045000Y-138945000D01*
G75*
G02*
X106245000Y-139145000I0J-200000D01*
G01*
X106245000Y-139695000D01*
G75*
G02*
X106045000Y-139895000I-200000J0D01*
G01*
X105645000Y-139895000D01*
G75*
G02*
X105445000Y-139695000I0J200000D01*
G01*
G37*
G36*
G01*
X103795000Y-139695000D02*
X103795000Y-139145000D01*
G75*
G02*
X103995000Y-138945000I200000J0D01*
G01*
X104395000Y-138945000D01*
G75*
G02*
X104595000Y-139145000I0J-200000D01*
G01*
X104595000Y-139695000D01*
G75*
G02*
X104395000Y-139895000I-200000J0D01*
G01*
X103995000Y-139895000D01*
G75*
G02*
X103795000Y-139695000I0J200000D01*
G01*
G37*
G36*
G01*
X102060000Y-139642500D02*
X102060000Y-139217500D01*
G75*
G02*
X102272500Y-139005000I212500J0D01*
G01*
X103072500Y-139005000D01*
G75*
G02*
X103285000Y-139217500I0J-212500D01*
G01*
X103285000Y-139642500D01*
G75*
G02*
X103072500Y-139855000I-212500J0D01*
G01*
X102272500Y-139855000D01*
G75*
G02*
X102060000Y-139642500I0J212500D01*
G01*
G37*
G36*
G01*
X100435000Y-139642500D02*
X100435000Y-139217500D01*
G75*
G02*
X100647500Y-139005000I212500J0D01*
G01*
X101447500Y-139005000D01*
G75*
G02*
X101660000Y-139217500I0J-212500D01*
G01*
X101660000Y-139642500D01*
G75*
G02*
X101447500Y-139855000I-212500J0D01*
G01*
X100647500Y-139855000D01*
G75*
G02*
X100435000Y-139642500I0J212500D01*
G01*
G37*
G36*
G01*
X119745000Y-157790000D02*
X120695000Y-157790000D01*
G75*
G02*
X120945000Y-158040000I0J-250000D01*
G01*
X120945000Y-158540000D01*
G75*
G02*
X120695000Y-158790000I-250000J0D01*
G01*
X119745000Y-158790000D01*
G75*
G02*
X119495000Y-158540000I0J250000D01*
G01*
X119495000Y-158040000D01*
G75*
G02*
X119745000Y-157790000I250000J0D01*
G01*
G37*
G36*
G01*
X119745000Y-155890000D02*
X120695000Y-155890000D01*
G75*
G02*
X120945000Y-156140000I0J-250000D01*
G01*
X120945000Y-156640000D01*
G75*
G02*
X120695000Y-156890000I-250000J0D01*
G01*
X119745000Y-156890000D01*
G75*
G02*
X119495000Y-156640000I0J250000D01*
G01*
X119495000Y-156140000D01*
G75*
G02*
X119745000Y-155890000I250000J0D01*
G01*
G37*
G36*
G01*
X113225000Y-128160000D02*
X112275000Y-128160000D01*
G75*
G02*
X112025000Y-127910000I0J250000D01*
G01*
X112025000Y-127410000D01*
G75*
G02*
X112275000Y-127160000I250000J0D01*
G01*
X113225000Y-127160000D01*
G75*
G02*
X113475000Y-127410000I0J-250000D01*
G01*
X113475000Y-127910000D01*
G75*
G02*
X113225000Y-128160000I-250000J0D01*
G01*
G37*
G36*
G01*
X113225000Y-130060000D02*
X112275000Y-130060000D01*
G75*
G02*
X112025000Y-129810000I0J250000D01*
G01*
X112025000Y-129310000D01*
G75*
G02*
X112275000Y-129060000I250000J0D01*
G01*
X113225000Y-129060000D01*
G75*
G02*
X113475000Y-129310000I0J-250000D01*
G01*
X113475000Y-129810000D01*
G75*
G02*
X113225000Y-130060000I-250000J0D01*
G01*
G37*
G36*
G01*
X107655000Y-128190000D02*
X106705000Y-128190000D01*
G75*
G02*
X106455000Y-127940000I0J250000D01*
G01*
X106455000Y-127440000D01*
G75*
G02*
X106705000Y-127190000I250000J0D01*
G01*
X107655000Y-127190000D01*
G75*
G02*
X107905000Y-127440000I0J-250000D01*
G01*
X107905000Y-127940000D01*
G75*
G02*
X107655000Y-128190000I-250000J0D01*
G01*
G37*
G36*
G01*
X107655000Y-130090000D02*
X106705000Y-130090000D01*
G75*
G02*
X106455000Y-129840000I0J250000D01*
G01*
X106455000Y-129340000D01*
G75*
G02*
X106705000Y-129090000I250000J0D01*
G01*
X107655000Y-129090000D01*
G75*
G02*
X107905000Y-129340000I0J-250000D01*
G01*
X107905000Y-129840000D01*
G75*
G02*
X107655000Y-130090000I-250000J0D01*
G01*
G37*
G36*
G01*
X109730000Y-113215000D02*
X109730000Y-114165000D01*
G75*
G02*
X109480000Y-114415000I-250000J0D01*
G01*
X108980000Y-114415000D01*
G75*
G02*
X108730000Y-114165000I0J250000D01*
G01*
X108730000Y-113215000D01*
G75*
G02*
X108980000Y-112965000I250000J0D01*
G01*
X109480000Y-112965000D01*
G75*
G02*
X109730000Y-113215000I0J-250000D01*
G01*
G37*
G36*
G01*
X111630000Y-113215000D02*
X111630000Y-114165000D01*
G75*
G02*
X111380000Y-114415000I-250000J0D01*
G01*
X110880000Y-114415000D01*
G75*
G02*
X110630000Y-114165000I0J250000D01*
G01*
X110630000Y-113215000D01*
G75*
G02*
X110880000Y-112965000I250000J0D01*
G01*
X111380000Y-112965000D01*
G75*
G02*
X111630000Y-113215000I0J-250000D01*
G01*
G37*
D12*
X104260000Y-111170000D03*
X104260000Y-111670000D03*
X104260000Y-112170000D03*
X104260000Y-112670000D03*
X104260000Y-113170000D03*
X104260000Y-114220000D03*
X104260000Y-115020000D03*
X104260000Y-115320000D03*
X104260000Y-114520000D03*
X104260000Y-113670000D03*
X104260000Y-110670000D03*
X104260000Y-109620000D03*
X104260000Y-108820000D03*
G36*
G01*
X103040000Y-107100000D02*
X103640000Y-107100000D01*
G75*
G02*
X104140000Y-107600000I0J-500000D01*
G01*
X104140000Y-107600000D01*
G75*
G02*
X103640000Y-108100000I-500000J0D01*
G01*
X103040000Y-108100000D01*
G75*
G02*
X102540000Y-107600000I0J500000D01*
G01*
X102540000Y-107600000D01*
G75*
G02*
X103040000Y-107100000I500000J0D01*
G01*
G37*
G36*
G01*
X103040000Y-115740000D02*
X103640000Y-115740000D01*
G75*
G02*
X104140000Y-116240000I0J-500000D01*
G01*
X104140000Y-116240000D01*
G75*
G02*
X103640000Y-116740000I-500000J0D01*
G01*
X103040000Y-116740000D01*
G75*
G02*
X102540000Y-116240000I0J500000D01*
G01*
X102540000Y-116240000D01*
G75*
G02*
X103040000Y-115740000I500000J0D01*
G01*
G37*
G36*
G01*
X98860000Y-115740000D02*
X99460000Y-115740000D01*
G75*
G02*
X99960000Y-116240000I0J-500000D01*
G01*
X99960000Y-116240000D01*
G75*
G02*
X99460000Y-116740000I-500000J0D01*
G01*
X98860000Y-116740000D01*
G75*
G02*
X98360000Y-116240000I0J500000D01*
G01*
X98360000Y-116240000D01*
G75*
G02*
X98860000Y-115740000I500000J0D01*
G01*
G37*
G36*
G01*
X98860000Y-107100000D02*
X99460000Y-107100000D01*
G75*
G02*
X99960000Y-107600000I0J-500000D01*
G01*
X99960000Y-107600000D01*
G75*
G02*
X99460000Y-108100000I-500000J0D01*
G01*
X98860000Y-108100000D01*
G75*
G02*
X98360000Y-107600000I0J500000D01*
G01*
X98360000Y-107600000D01*
G75*
G02*
X98860000Y-107100000I500000J0D01*
G01*
G37*
X104260000Y-110170000D03*
X104260000Y-109320000D03*
X104260000Y-108520000D03*
D13*
X102810000Y-109020000D03*
X102810000Y-114820000D03*
D14*
X155260000Y-142170000D03*
G36*
G01*
X154634999Y-139570000D02*
X155885001Y-139570000D01*
G75*
G02*
X156135000Y-139819999I0J-249999D01*
G01*
X156135000Y-140520001D01*
G75*
G02*
X155885001Y-140770000I-249999J0D01*
G01*
X154634999Y-140770000D01*
G75*
G02*
X154385000Y-140520001I0J249999D01*
G01*
X154385000Y-139819999D01*
G75*
G02*
X154634999Y-139570000I249999J0D01*
G01*
G37*
G36*
G01*
X151545400Y-134650000D02*
X150294600Y-134650000D01*
G75*
G02*
X150045000Y-134400400I0J249600D01*
G01*
X150045000Y-133699600D01*
G75*
G02*
X150294600Y-133450000I249600J0D01*
G01*
X151545400Y-133450000D01*
G75*
G02*
X151795000Y-133699600I0J-249600D01*
G01*
X151795000Y-134400400D01*
G75*
G02*
X151545400Y-134650000I-249600J0D01*
G01*
G37*
X150920000Y-132050000D03*
X150920000Y-130050000D03*
X150920000Y-128050000D03*
X150910000Y-117420000D03*
X150910000Y-119420000D03*
X150910000Y-121420000D03*
G36*
G01*
X151535400Y-124020000D02*
X150284600Y-124020000D01*
G75*
G02*
X150035000Y-123770400I0J249600D01*
G01*
X150035000Y-123069600D01*
G75*
G02*
X150284600Y-122820000I249600J0D01*
G01*
X151535400Y-122820000D01*
G75*
G02*
X151785000Y-123069600I0J-249600D01*
G01*
X151785000Y-123770400D01*
G75*
G02*
X151535400Y-124020000I-249600J0D01*
G01*
G37*
X150910000Y-106810000D03*
X150910000Y-108810000D03*
X150910000Y-110810000D03*
G36*
G01*
X151535400Y-113410000D02*
X150284600Y-113410000D01*
G75*
G02*
X150035000Y-113160400I0J249600D01*
G01*
X150035000Y-112459600D01*
G75*
G02*
X150284600Y-112210000I249600J0D01*
G01*
X151535400Y-112210000D01*
G75*
G02*
X151785000Y-112459600I0J-249600D01*
G01*
X151785000Y-113160400D01*
G75*
G02*
X151535400Y-113410000I-249600J0D01*
G01*
G37*
X150930000Y-96130000D03*
X150930000Y-98130000D03*
X150930000Y-100130000D03*
G36*
G01*
X151555400Y-102730000D02*
X150304600Y-102730000D01*
G75*
G02*
X150055000Y-102480400I0J249600D01*
G01*
X150055000Y-101779600D01*
G75*
G02*
X150304600Y-101530000I249600J0D01*
G01*
X151555400Y-101530000D01*
G75*
G02*
X151805000Y-101779600I0J-249600D01*
G01*
X151805000Y-102480400D01*
G75*
G02*
X151555400Y-102730000I-249600J0D01*
G01*
G37*
X150940000Y-85510000D03*
X150940000Y-87510000D03*
X150940000Y-89510000D03*
G36*
G01*
X151565400Y-92110000D02*
X150314600Y-92110000D01*
G75*
G02*
X150065000Y-91860400I0J249600D01*
G01*
X150065000Y-91159600D01*
G75*
G02*
X150314600Y-90910000I249600J0D01*
G01*
X151565400Y-90910000D01*
G75*
G02*
X151815000Y-91159600I0J-249600D01*
G01*
X151815000Y-91860400D01*
G75*
G02*
X151565400Y-92110000I-249600J0D01*
G01*
G37*
D15*
X109380000Y-121540000D03*
X109380000Y-119440000D03*
G36*
G01*
X132950000Y-153455001D02*
X132950000Y-150604999D01*
G75*
G02*
X133199999Y-150355000I249999J0D01*
G01*
X133925001Y-150355000D01*
G75*
G02*
X134175000Y-150604999I0J-249999D01*
G01*
X134175000Y-153455001D01*
G75*
G02*
X133925001Y-153705000I-249999J0D01*
G01*
X133199999Y-153705000D01*
G75*
G02*
X132950000Y-153455001I0J249999D01*
G01*
G37*
G36*
G01*
X127025000Y-153455001D02*
X127025000Y-150604999D01*
G75*
G02*
X127274999Y-150355000I249999J0D01*
G01*
X128000001Y-150355000D01*
G75*
G02*
X128250000Y-150604999I0J-249999D01*
G01*
X128250000Y-153455001D01*
G75*
G02*
X128000001Y-153705000I-249999J0D01*
G01*
X127274999Y-153705000D01*
G75*
G02*
X127025000Y-153455001I0J249999D01*
G01*
G37*
G36*
G01*
X134235000Y-156885000D02*
X133685000Y-156885000D01*
G75*
G02*
X133485000Y-156685000I0J200000D01*
G01*
X133485000Y-156285000D01*
G75*
G02*
X133685000Y-156085000I200000J0D01*
G01*
X134235000Y-156085000D01*
G75*
G02*
X134435000Y-156285000I0J-200000D01*
G01*
X134435000Y-156685000D01*
G75*
G02*
X134235000Y-156885000I-200000J0D01*
G01*
G37*
G36*
G01*
X134235000Y-158535000D02*
X133685000Y-158535000D01*
G75*
G02*
X133485000Y-158335000I0J200000D01*
G01*
X133485000Y-157935000D01*
G75*
G02*
X133685000Y-157735000I200000J0D01*
G01*
X134235000Y-157735000D01*
G75*
G02*
X134435000Y-157935000I0J-200000D01*
G01*
X134435000Y-158335000D01*
G75*
G02*
X134235000Y-158535000I-200000J0D01*
G01*
G37*
G36*
G01*
X140930000Y-149110000D02*
X139830000Y-149110000D01*
G75*
G02*
X139580000Y-148860000I0J250000D01*
G01*
X139580000Y-146360000D01*
G75*
G02*
X139830000Y-146110000I250000J0D01*
G01*
X140930000Y-146110000D01*
G75*
G02*
X141180000Y-146360000I0J-250000D01*
G01*
X141180000Y-148860000D01*
G75*
G02*
X140930000Y-149110000I-250000J0D01*
G01*
G37*
G36*
G01*
X140930000Y-153510000D02*
X139830000Y-153510000D01*
G75*
G02*
X139580000Y-153260000I0J250000D01*
G01*
X139580000Y-150760000D01*
G75*
G02*
X139830000Y-150510000I250000J0D01*
G01*
X140930000Y-150510000D01*
G75*
G02*
X141180000Y-150760000I0J-250000D01*
G01*
X141180000Y-153260000D01*
G75*
G02*
X140930000Y-153510000I-250000J0D01*
G01*
G37*
D16*
X121740000Y-144690000D03*
X110040000Y-144690000D03*
D17*
X101550000Y-148630000D03*
D18*
X101550000Y-143630000D03*
D19*
X145060000Y-158730000D03*
X145060000Y-157780000D03*
X145060000Y-156830000D03*
X142760000Y-158730000D03*
X142760000Y-157780000D03*
X142760000Y-156830000D03*
D20*
X125650000Y-114210000D03*
D21*
G36*
X124350000Y-114959398D02*
G01*
X124325466Y-114959398D01*
X124276635Y-114954588D01*
X124228510Y-114945016D01*
X124181555Y-114930772D01*
X124136222Y-114911995D01*
X124092949Y-114888864D01*
X124052150Y-114861604D01*
X124014221Y-114830476D01*
X123979524Y-114795779D01*
X123948396Y-114757850D01*
X123921136Y-114717051D01*
X123898005Y-114673778D01*
X123879228Y-114628445D01*
X123864984Y-114581490D01*
X123855412Y-114533365D01*
X123850602Y-114484534D01*
X123850602Y-114460000D01*
X123850000Y-114460000D01*
X123850000Y-113960000D01*
X123850602Y-113960000D01*
X123850602Y-113935466D01*
X123855412Y-113886635D01*
X123864984Y-113838510D01*
X123879228Y-113791555D01*
X123898005Y-113746222D01*
X123921136Y-113702949D01*
X123948396Y-113662150D01*
X123979524Y-113624221D01*
X124014221Y-113589524D01*
X124052150Y-113558396D01*
X124092949Y-113531136D01*
X124136222Y-113508005D01*
X124181555Y-113489228D01*
X124228510Y-113474984D01*
X124276635Y-113465412D01*
X124325466Y-113460602D01*
X124350000Y-113460602D01*
X124350000Y-113460000D01*
X124900000Y-113460000D01*
X124900000Y-114960000D01*
X124350000Y-114960000D01*
X124350000Y-114959398D01*
G37*
G36*
X126400000Y-113460000D02*
G01*
X126950000Y-113460000D01*
X126950000Y-113460602D01*
X126974534Y-113460602D01*
X127023365Y-113465412D01*
X127071490Y-113474984D01*
X127118445Y-113489228D01*
X127163778Y-113508005D01*
X127207051Y-113531136D01*
X127247850Y-113558396D01*
X127285779Y-113589524D01*
X127320476Y-113624221D01*
X127351604Y-113662150D01*
X127378864Y-113702949D01*
X127401995Y-113746222D01*
X127420772Y-113791555D01*
X127435016Y-113838510D01*
X127444588Y-113886635D01*
X127449398Y-113935466D01*
X127449398Y-113960000D01*
X127450000Y-113960000D01*
X127450000Y-114460000D01*
X127449398Y-114460000D01*
X127449398Y-114484534D01*
X127444588Y-114533365D01*
X127435016Y-114581490D01*
X127420772Y-114628445D01*
X127401995Y-114673778D01*
X127378864Y-114717051D01*
X127351604Y-114757850D01*
X127320476Y-114795779D01*
X127285779Y-114830476D01*
X127247850Y-114861604D01*
X127207051Y-114888864D01*
X127163778Y-114911995D01*
X127118445Y-114930772D01*
X127071490Y-114945016D01*
X127023365Y-114954588D01*
X126974534Y-114959398D01*
X126950000Y-114959398D01*
X126950000Y-114960000D01*
X126400000Y-114960000D01*
X126400000Y-113460000D01*
G37*
G36*
G01*
X118647500Y-108790000D02*
X119072500Y-108790000D01*
G75*
G02*
X119285000Y-109002500I0J-212500D01*
G01*
X119285000Y-109802500D01*
G75*
G02*
X119072500Y-110015000I-212500J0D01*
G01*
X118647500Y-110015000D01*
G75*
G02*
X118435000Y-109802500I0J212500D01*
G01*
X118435000Y-109002500D01*
G75*
G02*
X118647500Y-108790000I212500J0D01*
G01*
G37*
G36*
G01*
X118647500Y-107165000D02*
X119072500Y-107165000D01*
G75*
G02*
X119285000Y-107377500I0J-212500D01*
G01*
X119285000Y-108177500D01*
G75*
G02*
X119072500Y-108390000I-212500J0D01*
G01*
X118647500Y-108390000D01*
G75*
G02*
X118435000Y-108177500I0J212500D01*
G01*
X118435000Y-107377500D01*
G75*
G02*
X118647500Y-107165000I212500J0D01*
G01*
G37*
G36*
G01*
X117117500Y-107165000D02*
X117542500Y-107165000D01*
G75*
G02*
X117755000Y-107377500I0J-212500D01*
G01*
X117755000Y-108177500D01*
G75*
G02*
X117542500Y-108390000I-212500J0D01*
G01*
X117117500Y-108390000D01*
G75*
G02*
X116905000Y-108177500I0J212500D01*
G01*
X116905000Y-107377500D01*
G75*
G02*
X117117500Y-107165000I212500J0D01*
G01*
G37*
G36*
G01*
X117117500Y-108790000D02*
X117542500Y-108790000D01*
G75*
G02*
X117755000Y-109002500I0J-212500D01*
G01*
X117755000Y-109802500D01*
G75*
G02*
X117542500Y-110015000I-212500J0D01*
G01*
X117117500Y-110015000D01*
G75*
G02*
X116905000Y-109802500I0J212500D01*
G01*
X116905000Y-109002500D01*
G75*
G02*
X117117500Y-108790000I212500J0D01*
G01*
G37*
G36*
G01*
X115507500Y-132520000D02*
X115932500Y-132520000D01*
G75*
G02*
X116145000Y-132732500I0J-212500D01*
G01*
X116145000Y-133532500D01*
G75*
G02*
X115932500Y-133745000I-212500J0D01*
G01*
X115507500Y-133745000D01*
G75*
G02*
X115295000Y-133532500I0J212500D01*
G01*
X115295000Y-132732500D01*
G75*
G02*
X115507500Y-132520000I212500J0D01*
G01*
G37*
G36*
G01*
X115507500Y-130895000D02*
X115932500Y-130895000D01*
G75*
G02*
X116145000Y-131107500I0J-212500D01*
G01*
X116145000Y-131907500D01*
G75*
G02*
X115932500Y-132120000I-212500J0D01*
G01*
X115507500Y-132120000D01*
G75*
G02*
X115295000Y-131907500I0J212500D01*
G01*
X115295000Y-131107500D01*
G75*
G02*
X115507500Y-130895000I212500J0D01*
G01*
G37*
G36*
G01*
X118593750Y-112140000D02*
X119106250Y-112140000D01*
G75*
G02*
X119325000Y-112358750I0J-218750D01*
G01*
X119325000Y-112796250D01*
G75*
G02*
X119106250Y-113015000I-218750J0D01*
G01*
X118593750Y-113015000D01*
G75*
G02*
X118375000Y-112796250I0J218750D01*
G01*
X118375000Y-112358750D01*
G75*
G02*
X118593750Y-112140000I218750J0D01*
G01*
G37*
G36*
G01*
X118593750Y-110565000D02*
X119106250Y-110565000D01*
G75*
G02*
X119325000Y-110783750I0J-218750D01*
G01*
X119325000Y-111221250D01*
G75*
G02*
X119106250Y-111440000I-218750J0D01*
G01*
X118593750Y-111440000D01*
G75*
G02*
X118375000Y-111221250I0J218750D01*
G01*
X118375000Y-110783750D01*
G75*
G02*
X118593750Y-110565000I218750J0D01*
G01*
G37*
G36*
G01*
X117063750Y-112140000D02*
X117576250Y-112140000D01*
G75*
G02*
X117795000Y-112358750I0J-218750D01*
G01*
X117795000Y-112796250D01*
G75*
G02*
X117576250Y-113015000I-218750J0D01*
G01*
X117063750Y-113015000D01*
G75*
G02*
X116845000Y-112796250I0J218750D01*
G01*
X116845000Y-112358750D01*
G75*
G02*
X117063750Y-112140000I218750J0D01*
G01*
G37*
G36*
G01*
X117063750Y-110565000D02*
X117576250Y-110565000D01*
G75*
G02*
X117795000Y-110783750I0J-218750D01*
G01*
X117795000Y-111221250D01*
G75*
G02*
X117576250Y-111440000I-218750J0D01*
G01*
X117063750Y-111440000D01*
G75*
G02*
X116845000Y-111221250I0J218750D01*
G01*
X116845000Y-110783750D01*
G75*
G02*
X117063750Y-110565000I218750J0D01*
G01*
G37*
G36*
G01*
X100303750Y-88040000D02*
X101216250Y-88040000D01*
G75*
G02*
X101460000Y-88283750I0J-243750D01*
G01*
X101460000Y-88771250D01*
G75*
G02*
X101216250Y-89015000I-243750J0D01*
G01*
X100303750Y-89015000D01*
G75*
G02*
X100060000Y-88771250I0J243750D01*
G01*
X100060000Y-88283750D01*
G75*
G02*
X100303750Y-88040000I243750J0D01*
G01*
G37*
G36*
G01*
X100303750Y-86165000D02*
X101216250Y-86165000D01*
G75*
G02*
X101460000Y-86408750I0J-243750D01*
G01*
X101460000Y-86896250D01*
G75*
G02*
X101216250Y-87140000I-243750J0D01*
G01*
X100303750Y-87140000D01*
G75*
G02*
X100060000Y-86896250I0J243750D01*
G01*
X100060000Y-86408750D01*
G75*
G02*
X100303750Y-86165000I243750J0D01*
G01*
G37*
G36*
G01*
X99756250Y-82090000D02*
X98843750Y-82090000D01*
G75*
G02*
X98600000Y-81846250I0J243750D01*
G01*
X98600000Y-81358750D01*
G75*
G02*
X98843750Y-81115000I243750J0D01*
G01*
X99756250Y-81115000D01*
G75*
G02*
X100000000Y-81358750I0J-243750D01*
G01*
X100000000Y-81846250D01*
G75*
G02*
X99756250Y-82090000I-243750J0D01*
G01*
G37*
G36*
G01*
X99756250Y-83965000D02*
X98843750Y-83965000D01*
G75*
G02*
X98600000Y-83721250I0J243750D01*
G01*
X98600000Y-83233750D01*
G75*
G02*
X98843750Y-82990000I243750J0D01*
G01*
X99756250Y-82990000D01*
G75*
G02*
X100000000Y-83233750I0J-243750D01*
G01*
X100000000Y-83721250D01*
G75*
G02*
X99756250Y-83965000I-243750J0D01*
G01*
G37*
G36*
X107470987Y-110787972D02*
G01*
X107082078Y-110399063D01*
X107379063Y-110102078D01*
X107767972Y-110490987D01*
X107470987Y-110787972D01*
G37*
G36*
X108460937Y-111777922D02*
G01*
X108072028Y-111389013D01*
X108369013Y-111092028D01*
X108757922Y-111480937D01*
X108460937Y-111777922D01*
G37*
G36*
X106519063Y-107982078D02*
G01*
X106907972Y-108370987D01*
X106610987Y-108667972D01*
X106222078Y-108279063D01*
X106519063Y-107982078D01*
G37*
G36*
X107509013Y-108972028D02*
G01*
X107897922Y-109360937D01*
X107600937Y-109657922D01*
X107212028Y-109269013D01*
X107509013Y-108972028D01*
G37*
D22*
X106700000Y-115640000D03*
X106700000Y-114240000D03*
D21*
G36*
X111070000Y-132390602D02*
G01*
X111094534Y-132390602D01*
X111143365Y-132395412D01*
X111191490Y-132404984D01*
X111238445Y-132419228D01*
X111283778Y-132438005D01*
X111327051Y-132461136D01*
X111367850Y-132488396D01*
X111405779Y-132519524D01*
X111440476Y-132554221D01*
X111471604Y-132592150D01*
X111498864Y-132632949D01*
X111521995Y-132676222D01*
X111540772Y-132721555D01*
X111555016Y-132768510D01*
X111564588Y-132816635D01*
X111569398Y-132865466D01*
X111569398Y-132890000D01*
X111570000Y-132890000D01*
X111570000Y-133390000D01*
X111569398Y-133390000D01*
X111569398Y-133414534D01*
X111564588Y-133463365D01*
X111555016Y-133511490D01*
X111540772Y-133558445D01*
X111521995Y-133603778D01*
X111498864Y-133647051D01*
X111471604Y-133687850D01*
X111440476Y-133725779D01*
X111405779Y-133760476D01*
X111367850Y-133791604D01*
X111327051Y-133818864D01*
X111283778Y-133841995D01*
X111238445Y-133860772D01*
X111191490Y-133875016D01*
X111143365Y-133884588D01*
X111094534Y-133889398D01*
X111070000Y-133889398D01*
X111070000Y-133890000D01*
X110570000Y-133890000D01*
X110570000Y-132390000D01*
X111070000Y-132390000D01*
X111070000Y-132390602D01*
G37*
G36*
X110270000Y-133890000D02*
G01*
X109770000Y-133890000D01*
X109770000Y-133889398D01*
X109745466Y-133889398D01*
X109696635Y-133884588D01*
X109648510Y-133875016D01*
X109601555Y-133860772D01*
X109556222Y-133841995D01*
X109512949Y-133818864D01*
X109472150Y-133791604D01*
X109434221Y-133760476D01*
X109399524Y-133725779D01*
X109368396Y-133687850D01*
X109341136Y-133647051D01*
X109318005Y-133603778D01*
X109299228Y-133558445D01*
X109284984Y-133511490D01*
X109275412Y-133463365D01*
X109270602Y-133414534D01*
X109270602Y-133390000D01*
X109270000Y-133390000D01*
X109270000Y-132890000D01*
X109270602Y-132890000D01*
X109270602Y-132865466D01*
X109275412Y-132816635D01*
X109284984Y-132768510D01*
X109299228Y-132721555D01*
X109318005Y-132676222D01*
X109341136Y-132632949D01*
X109368396Y-132592150D01*
X109399524Y-132554221D01*
X109434221Y-132519524D01*
X109472150Y-132488396D01*
X109512949Y-132461136D01*
X109556222Y-132438005D01*
X109601555Y-132419228D01*
X109648510Y-132404984D01*
X109696635Y-132395412D01*
X109745466Y-132390602D01*
X109770000Y-132390602D01*
X109770000Y-132390000D01*
X110270000Y-132390000D01*
X110270000Y-133890000D01*
G37*
G36*
G01*
X111080000Y-109710000D02*
X111080000Y-107610000D01*
G75*
G02*
X111330000Y-107360000I250000J0D01*
G01*
X113430000Y-107360000D01*
G75*
G02*
X113680000Y-107610000I0J-250000D01*
G01*
X113680000Y-109710000D01*
G75*
G02*
X113430000Y-109960000I-250000J0D01*
G01*
X111330000Y-109960000D01*
G75*
G02*
X111080000Y-109710000I0J250000D01*
G01*
G37*
G36*
G01*
X110030000Y-107472500D02*
X110030000Y-107347500D01*
G75*
G02*
X110092500Y-107285000I62500J0D01*
G01*
X110792500Y-107285000D01*
G75*
G02*
X110855000Y-107347500I0J-62500D01*
G01*
X110855000Y-107472500D01*
G75*
G02*
X110792500Y-107535000I-62500J0D01*
G01*
X110092500Y-107535000D01*
G75*
G02*
X110030000Y-107472500I0J62500D01*
G01*
G37*
G36*
G01*
X110030000Y-107972500D02*
X110030000Y-107847500D01*
G75*
G02*
X110092500Y-107785000I62500J0D01*
G01*
X110792500Y-107785000D01*
G75*
G02*
X110855000Y-107847500I0J-62500D01*
G01*
X110855000Y-107972500D01*
G75*
G02*
X110792500Y-108035000I-62500J0D01*
G01*
X110092500Y-108035000D01*
G75*
G02*
X110030000Y-107972500I0J62500D01*
G01*
G37*
G36*
G01*
X110030000Y-108472500D02*
X110030000Y-108347500D01*
G75*
G02*
X110092500Y-108285000I62500J0D01*
G01*
X110792500Y-108285000D01*
G75*
G02*
X110855000Y-108347500I0J-62500D01*
G01*
X110855000Y-108472500D01*
G75*
G02*
X110792500Y-108535000I-62500J0D01*
G01*
X110092500Y-108535000D01*
G75*
G02*
X110030000Y-108472500I0J62500D01*
G01*
G37*
G36*
G01*
X110030000Y-108972500D02*
X110030000Y-108847500D01*
G75*
G02*
X110092500Y-108785000I62500J0D01*
G01*
X110792500Y-108785000D01*
G75*
G02*
X110855000Y-108847500I0J-62500D01*
G01*
X110855000Y-108972500D01*
G75*
G02*
X110792500Y-109035000I-62500J0D01*
G01*
X110092500Y-109035000D01*
G75*
G02*
X110030000Y-108972500I0J62500D01*
G01*
G37*
G36*
G01*
X110030000Y-109472500D02*
X110030000Y-109347500D01*
G75*
G02*
X110092500Y-109285000I62500J0D01*
G01*
X110792500Y-109285000D01*
G75*
G02*
X110855000Y-109347500I0J-62500D01*
G01*
X110855000Y-109472500D01*
G75*
G02*
X110792500Y-109535000I-62500J0D01*
G01*
X110092500Y-109535000D01*
G75*
G02*
X110030000Y-109472500I0J62500D01*
G01*
G37*
G36*
G01*
X110030000Y-109972500D02*
X110030000Y-109847500D01*
G75*
G02*
X110092500Y-109785000I62500J0D01*
G01*
X110792500Y-109785000D01*
G75*
G02*
X110855000Y-109847500I0J-62500D01*
G01*
X110855000Y-109972500D01*
G75*
G02*
X110792500Y-110035000I-62500J0D01*
G01*
X110092500Y-110035000D01*
G75*
G02*
X110030000Y-109972500I0J62500D01*
G01*
G37*
G36*
G01*
X111005000Y-110947500D02*
X111005000Y-110247500D01*
G75*
G02*
X111067500Y-110185000I62500J0D01*
G01*
X111192500Y-110185000D01*
G75*
G02*
X111255000Y-110247500I0J-62500D01*
G01*
X111255000Y-110947500D01*
G75*
G02*
X111192500Y-111010000I-62500J0D01*
G01*
X111067500Y-111010000D01*
G75*
G02*
X111005000Y-110947500I0J62500D01*
G01*
G37*
G36*
G01*
X111505000Y-110947500D02*
X111505000Y-110247500D01*
G75*
G02*
X111567500Y-110185000I62500J0D01*
G01*
X111692500Y-110185000D01*
G75*
G02*
X111755000Y-110247500I0J-62500D01*
G01*
X111755000Y-110947500D01*
G75*
G02*
X111692500Y-111010000I-62500J0D01*
G01*
X111567500Y-111010000D01*
G75*
G02*
X111505000Y-110947500I0J62500D01*
G01*
G37*
G36*
G01*
X112005000Y-110947500D02*
X112005000Y-110247500D01*
G75*
G02*
X112067500Y-110185000I62500J0D01*
G01*
X112192500Y-110185000D01*
G75*
G02*
X112255000Y-110247500I0J-62500D01*
G01*
X112255000Y-110947500D01*
G75*
G02*
X112192500Y-111010000I-62500J0D01*
G01*
X112067500Y-111010000D01*
G75*
G02*
X112005000Y-110947500I0J62500D01*
G01*
G37*
G36*
G01*
X112505000Y-110947500D02*
X112505000Y-110247500D01*
G75*
G02*
X112567500Y-110185000I62500J0D01*
G01*
X112692500Y-110185000D01*
G75*
G02*
X112755000Y-110247500I0J-62500D01*
G01*
X112755000Y-110947500D01*
G75*
G02*
X112692500Y-111010000I-62500J0D01*
G01*
X112567500Y-111010000D01*
G75*
G02*
X112505000Y-110947500I0J62500D01*
G01*
G37*
G36*
G01*
X113005000Y-110947500D02*
X113005000Y-110247500D01*
G75*
G02*
X113067500Y-110185000I62500J0D01*
G01*
X113192500Y-110185000D01*
G75*
G02*
X113255000Y-110247500I0J-62500D01*
G01*
X113255000Y-110947500D01*
G75*
G02*
X113192500Y-111010000I-62500J0D01*
G01*
X113067500Y-111010000D01*
G75*
G02*
X113005000Y-110947500I0J62500D01*
G01*
G37*
G36*
G01*
X113505000Y-110947500D02*
X113505000Y-110247500D01*
G75*
G02*
X113567500Y-110185000I62500J0D01*
G01*
X113692500Y-110185000D01*
G75*
G02*
X113755000Y-110247500I0J-62500D01*
G01*
X113755000Y-110947500D01*
G75*
G02*
X113692500Y-111010000I-62500J0D01*
G01*
X113567500Y-111010000D01*
G75*
G02*
X113505000Y-110947500I0J62500D01*
G01*
G37*
G36*
G01*
X113905000Y-109972500D02*
X113905000Y-109847500D01*
G75*
G02*
X113967500Y-109785000I62500J0D01*
G01*
X114667500Y-109785000D01*
G75*
G02*
X114730000Y-109847500I0J-62500D01*
G01*
X114730000Y-109972500D01*
G75*
G02*
X114667500Y-110035000I-62500J0D01*
G01*
X113967500Y-110035000D01*
G75*
G02*
X113905000Y-109972500I0J62500D01*
G01*
G37*
G36*
G01*
X113905000Y-109472500D02*
X113905000Y-109347500D01*
G75*
G02*
X113967500Y-109285000I62500J0D01*
G01*
X114667500Y-109285000D01*
G75*
G02*
X114730000Y-109347500I0J-62500D01*
G01*
X114730000Y-109472500D01*
G75*
G02*
X114667500Y-109535000I-62500J0D01*
G01*
X113967500Y-109535000D01*
G75*
G02*
X113905000Y-109472500I0J62500D01*
G01*
G37*
G36*
G01*
X113905000Y-108972500D02*
X113905000Y-108847500D01*
G75*
G02*
X113967500Y-108785000I62500J0D01*
G01*
X114667500Y-108785000D01*
G75*
G02*
X114730000Y-108847500I0J-62500D01*
G01*
X114730000Y-108972500D01*
G75*
G02*
X114667500Y-109035000I-62500J0D01*
G01*
X113967500Y-109035000D01*
G75*
G02*
X113905000Y-108972500I0J62500D01*
G01*
G37*
G36*
G01*
X113905000Y-108472500D02*
X113905000Y-108347500D01*
G75*
G02*
X113967500Y-108285000I62500J0D01*
G01*
X114667500Y-108285000D01*
G75*
G02*
X114730000Y-108347500I0J-62500D01*
G01*
X114730000Y-108472500D01*
G75*
G02*
X114667500Y-108535000I-62500J0D01*
G01*
X113967500Y-108535000D01*
G75*
G02*
X113905000Y-108472500I0J62500D01*
G01*
G37*
G36*
G01*
X113905000Y-107972500D02*
X113905000Y-107847500D01*
G75*
G02*
X113967500Y-107785000I62500J0D01*
G01*
X114667500Y-107785000D01*
G75*
G02*
X114730000Y-107847500I0J-62500D01*
G01*
X114730000Y-107972500D01*
G75*
G02*
X114667500Y-108035000I-62500J0D01*
G01*
X113967500Y-108035000D01*
G75*
G02*
X113905000Y-107972500I0J62500D01*
G01*
G37*
G36*
G01*
X113905000Y-107472500D02*
X113905000Y-107347500D01*
G75*
G02*
X113967500Y-107285000I62500J0D01*
G01*
X114667500Y-107285000D01*
G75*
G02*
X114730000Y-107347500I0J-62500D01*
G01*
X114730000Y-107472500D01*
G75*
G02*
X114667500Y-107535000I-62500J0D01*
G01*
X113967500Y-107535000D01*
G75*
G02*
X113905000Y-107472500I0J62500D01*
G01*
G37*
G36*
G01*
X113505000Y-107072500D02*
X113505000Y-106372500D01*
G75*
G02*
X113567500Y-106310000I62500J0D01*
G01*
X113692500Y-106310000D01*
G75*
G02*
X113755000Y-106372500I0J-62500D01*
G01*
X113755000Y-107072500D01*
G75*
G02*
X113692500Y-107135000I-62500J0D01*
G01*
X113567500Y-107135000D01*
G75*
G02*
X113505000Y-107072500I0J62500D01*
G01*
G37*
G36*
G01*
X113005000Y-107072500D02*
X113005000Y-106372500D01*
G75*
G02*
X113067500Y-106310000I62500J0D01*
G01*
X113192500Y-106310000D01*
G75*
G02*
X113255000Y-106372500I0J-62500D01*
G01*
X113255000Y-107072500D01*
G75*
G02*
X113192500Y-107135000I-62500J0D01*
G01*
X113067500Y-107135000D01*
G75*
G02*
X113005000Y-107072500I0J62500D01*
G01*
G37*
G36*
G01*
X112505000Y-107072500D02*
X112505000Y-106372500D01*
G75*
G02*
X112567500Y-106310000I62500J0D01*
G01*
X112692500Y-106310000D01*
G75*
G02*
X112755000Y-106372500I0J-62500D01*
G01*
X112755000Y-107072500D01*
G75*
G02*
X112692500Y-107135000I-62500J0D01*
G01*
X112567500Y-107135000D01*
G75*
G02*
X112505000Y-107072500I0J62500D01*
G01*
G37*
G36*
G01*
X112005000Y-107072500D02*
X112005000Y-106372500D01*
G75*
G02*
X112067500Y-106310000I62500J0D01*
G01*
X112192500Y-106310000D01*
G75*
G02*
X112255000Y-106372500I0J-62500D01*
G01*
X112255000Y-107072500D01*
G75*
G02*
X112192500Y-107135000I-62500J0D01*
G01*
X112067500Y-107135000D01*
G75*
G02*
X112005000Y-107072500I0J62500D01*
G01*
G37*
G36*
G01*
X111505000Y-107072500D02*
X111505000Y-106372500D01*
G75*
G02*
X111567500Y-106310000I62500J0D01*
G01*
X111692500Y-106310000D01*
G75*
G02*
X111755000Y-106372500I0J-62500D01*
G01*
X111755000Y-107072500D01*
G75*
G02*
X111692500Y-107135000I-62500J0D01*
G01*
X111567500Y-107135000D01*
G75*
G02*
X111505000Y-107072500I0J62500D01*
G01*
G37*
G36*
G01*
X111005000Y-107072500D02*
X111005000Y-106372500D01*
G75*
G02*
X111067500Y-106310000I62500J0D01*
G01*
X111192500Y-106310000D01*
G75*
G02*
X111255000Y-106372500I0J-62500D01*
G01*
X111255000Y-107072500D01*
G75*
G02*
X111192500Y-107135000I-62500J0D01*
G01*
X111067500Y-107135000D01*
G75*
G02*
X111005000Y-107072500I0J62500D01*
G01*
G37*
D23*
X112445000Y-91145000D03*
X112445000Y-89310000D03*
X112445000Y-87475000D03*
X110610000Y-87475000D03*
X110610000Y-89310000D03*
X110610000Y-91145000D03*
X108775000Y-91145000D03*
X108775000Y-89310000D03*
X108775000Y-87475000D03*
D24*
X120110000Y-81810000D03*
X120110000Y-83080000D03*
X120110000Y-84350000D03*
X120110000Y-85620000D03*
X120110000Y-86890000D03*
X120110000Y-88160000D03*
X120110000Y-89430000D03*
X120110000Y-90700000D03*
X120110000Y-91970000D03*
X120110000Y-93240000D03*
X120110000Y-94510000D03*
X120110000Y-95780000D03*
X120110000Y-97050000D03*
X120110000Y-98320000D03*
D25*
X117325000Y-99320000D03*
X116055000Y-99320000D03*
X114785000Y-99320000D03*
X113515000Y-99320000D03*
X112245000Y-99320000D03*
X110975000Y-99320000D03*
X109705000Y-99320000D03*
X108435000Y-99320000D03*
X107165000Y-99320000D03*
X105895000Y-99320000D03*
D24*
X103110000Y-98320000D03*
X103110000Y-97050000D03*
X103110000Y-95780000D03*
X103110000Y-94510000D03*
X103110000Y-93240000D03*
X103110000Y-91970000D03*
X103110000Y-90700000D03*
X103110000Y-89430000D03*
X103110000Y-88160000D03*
X103110000Y-86890000D03*
X103110000Y-85620000D03*
X103110000Y-84350000D03*
X103110000Y-83080000D03*
X103110000Y-81810000D03*
G36*
G01*
X149403750Y-139580000D02*
X149916250Y-139580000D01*
G75*
G02*
X150135000Y-139798750I0J-218750D01*
G01*
X150135000Y-140236250D01*
G75*
G02*
X149916250Y-140455000I-218750J0D01*
G01*
X149403750Y-140455000D01*
G75*
G02*
X149185000Y-140236250I0J218750D01*
G01*
X149185000Y-139798750D01*
G75*
G02*
X149403750Y-139580000I218750J0D01*
G01*
G37*
G36*
G01*
X149403750Y-138005000D02*
X149916250Y-138005000D01*
G75*
G02*
X150135000Y-138223750I0J-218750D01*
G01*
X150135000Y-138661250D01*
G75*
G02*
X149916250Y-138880000I-218750J0D01*
G01*
X149403750Y-138880000D01*
G75*
G02*
X149185000Y-138661250I0J218750D01*
G01*
X149185000Y-138223750D01*
G75*
G02*
X149403750Y-138005000I218750J0D01*
G01*
G37*
D26*
X112930000Y-101840000D03*
X111630000Y-101840000D03*
X112280000Y-103740000D03*
X112280000Y-101840000D03*
X111630000Y-103740000D03*
X112930000Y-103740000D03*
G36*
G01*
X149523750Y-78170000D02*
X150036250Y-78170000D01*
G75*
G02*
X150255000Y-78388750I0J-218750D01*
G01*
X150255000Y-78826250D01*
G75*
G02*
X150036250Y-79045000I-218750J0D01*
G01*
X149523750Y-79045000D01*
G75*
G02*
X149305000Y-78826250I0J218750D01*
G01*
X149305000Y-78388750D01*
G75*
G02*
X149523750Y-78170000I218750J0D01*
G01*
G37*
G36*
G01*
X149523750Y-76595000D02*
X150036250Y-76595000D01*
G75*
G02*
X150255000Y-76813750I0J-218750D01*
G01*
X150255000Y-77251250D01*
G75*
G02*
X150036250Y-77470000I-218750J0D01*
G01*
X149523750Y-77470000D01*
G75*
G02*
X149305000Y-77251250I0J218750D01*
G01*
X149305000Y-76813750D01*
G75*
G02*
X149523750Y-76595000I218750J0D01*
G01*
G37*
G36*
G01*
X147993750Y-78170000D02*
X148506250Y-78170000D01*
G75*
G02*
X148725000Y-78388750I0J-218750D01*
G01*
X148725000Y-78826250D01*
G75*
G02*
X148506250Y-79045000I-218750J0D01*
G01*
X147993750Y-79045000D01*
G75*
G02*
X147775000Y-78826250I0J218750D01*
G01*
X147775000Y-78388750D01*
G75*
G02*
X147993750Y-78170000I218750J0D01*
G01*
G37*
G36*
G01*
X147993750Y-76595000D02*
X148506250Y-76595000D01*
G75*
G02*
X148725000Y-76813750I0J-218750D01*
G01*
X148725000Y-77251250D01*
G75*
G02*
X148506250Y-77470000I-218750J0D01*
G01*
X147993750Y-77470000D01*
G75*
G02*
X147775000Y-77251250I0J218750D01*
G01*
X147775000Y-76813750D01*
G75*
G02*
X147993750Y-76595000I218750J0D01*
G01*
G37*
D27*
X143090000Y-127420000D03*
X143090000Y-129960000D03*
X134490000Y-129960000D03*
X134490000Y-127420000D03*
X143130000Y-121930000D03*
X143130000Y-124470000D03*
X134530000Y-124470000D03*
X134530000Y-121930000D03*
X143130000Y-116430000D03*
X143130000Y-118970000D03*
X134530000Y-118970000D03*
X134530000Y-116430000D03*
X143130000Y-110930000D03*
X143130000Y-113470000D03*
X134530000Y-113470000D03*
X134530000Y-110930000D03*
X143130000Y-105430000D03*
X143130000Y-107970000D03*
X134530000Y-107970000D03*
X134530000Y-105430000D03*
X143130000Y-99710000D03*
X143130000Y-102250000D03*
X134530000Y-102250000D03*
X134530000Y-99710000D03*
X143130000Y-94210000D03*
X143130000Y-96750000D03*
X134530000Y-96750000D03*
X134530000Y-94210000D03*
X143130000Y-88710000D03*
X143130000Y-91250000D03*
X134530000Y-91250000D03*
X134530000Y-88710000D03*
X143130000Y-83210000D03*
X143130000Y-85750000D03*
X134530000Y-85750000D03*
X134530000Y-83210000D03*
X143130000Y-77710000D03*
X143130000Y-80250000D03*
X134530000Y-80250000D03*
X134530000Y-77710000D03*
D28*
X148260000Y-165210000D03*
X149340000Y-72460000D03*
X106750000Y-165260000D03*
X123650000Y-82470000D03*
D29*
X125300000Y-104320000D03*
X117100000Y-104320000D03*
G36*
G01*
X115513750Y-113880000D02*
X116026250Y-113880000D01*
G75*
G02*
X116245000Y-114098750I0J-218750D01*
G01*
X116245000Y-114536250D01*
G75*
G02*
X116026250Y-114755000I-218750J0D01*
G01*
X115513750Y-114755000D01*
G75*
G02*
X115295000Y-114536250I0J218750D01*
G01*
X115295000Y-114098750D01*
G75*
G02*
X115513750Y-113880000I218750J0D01*
G01*
G37*
G36*
G01*
X115513750Y-112305000D02*
X116026250Y-112305000D01*
G75*
G02*
X116245000Y-112523750I0J-218750D01*
G01*
X116245000Y-112961250D01*
G75*
G02*
X116026250Y-113180000I-218750J0D01*
G01*
X115513750Y-113180000D01*
G75*
G02*
X115295000Y-112961250I0J218750D01*
G01*
X115295000Y-112523750D01*
G75*
G02*
X115513750Y-112305000I218750J0D01*
G01*
G37*
G36*
G01*
X114526250Y-113180000D02*
X114013750Y-113180000D01*
G75*
G02*
X113795000Y-112961250I0J218750D01*
G01*
X113795000Y-112523750D01*
G75*
G02*
X114013750Y-112305000I218750J0D01*
G01*
X114526250Y-112305000D01*
G75*
G02*
X114745000Y-112523750I0J-218750D01*
G01*
X114745000Y-112961250D01*
G75*
G02*
X114526250Y-113180000I-218750J0D01*
G01*
G37*
G36*
G01*
X114526250Y-114755000D02*
X114013750Y-114755000D01*
G75*
G02*
X113795000Y-114536250I0J218750D01*
G01*
X113795000Y-114098750D01*
G75*
G02*
X114013750Y-113880000I218750J0D01*
G01*
X114526250Y-113880000D01*
G75*
G02*
X114745000Y-114098750I0J-218750D01*
G01*
X114745000Y-114536250D01*
G75*
G02*
X114526250Y-114755000I-218750J0D01*
G01*
G37*
G36*
G01*
X112503750Y-113870000D02*
X113016250Y-113870000D01*
G75*
G02*
X113235000Y-114088750I0J-218750D01*
G01*
X113235000Y-114526250D01*
G75*
G02*
X113016250Y-114745000I-218750J0D01*
G01*
X112503750Y-114745000D01*
G75*
G02*
X112285000Y-114526250I0J218750D01*
G01*
X112285000Y-114088750D01*
G75*
G02*
X112503750Y-113870000I218750J0D01*
G01*
G37*
G36*
G01*
X112503750Y-112295000D02*
X113016250Y-112295000D01*
G75*
G02*
X113235000Y-112513750I0J-218750D01*
G01*
X113235000Y-112951250D01*
G75*
G02*
X113016250Y-113170000I-218750J0D01*
G01*
X112503750Y-113170000D01*
G75*
G02*
X112285000Y-112951250I0J218750D01*
G01*
X112285000Y-112513750D01*
G75*
G02*
X112503750Y-112295000I218750J0D01*
G01*
G37*
G36*
G01*
X130570000Y-127153750D02*
X130570000Y-127666250D01*
G75*
G02*
X130351250Y-127885000I-218750J0D01*
G01*
X129913750Y-127885000D01*
G75*
G02*
X129695000Y-127666250I0J218750D01*
G01*
X129695000Y-127153750D01*
G75*
G02*
X129913750Y-126935000I218750J0D01*
G01*
X130351250Y-126935000D01*
G75*
G02*
X130570000Y-127153750I0J-218750D01*
G01*
G37*
G36*
G01*
X132145000Y-127153750D02*
X132145000Y-127666250D01*
G75*
G02*
X131926250Y-127885000I-218750J0D01*
G01*
X131488750Y-127885000D01*
G75*
G02*
X131270000Y-127666250I0J218750D01*
G01*
X131270000Y-127153750D01*
G75*
G02*
X131488750Y-126935000I218750J0D01*
G01*
X131926250Y-126935000D01*
G75*
G02*
X132145000Y-127153750I0J-218750D01*
G01*
G37*
G36*
G01*
X130520000Y-121663750D02*
X130520000Y-122176250D01*
G75*
G02*
X130301250Y-122395000I-218750J0D01*
G01*
X129863750Y-122395000D01*
G75*
G02*
X129645000Y-122176250I0J218750D01*
G01*
X129645000Y-121663750D01*
G75*
G02*
X129863750Y-121445000I218750J0D01*
G01*
X130301250Y-121445000D01*
G75*
G02*
X130520000Y-121663750I0J-218750D01*
G01*
G37*
G36*
G01*
X132095000Y-121663750D02*
X132095000Y-122176250D01*
G75*
G02*
X131876250Y-122395000I-218750J0D01*
G01*
X131438750Y-122395000D01*
G75*
G02*
X131220000Y-122176250I0J218750D01*
G01*
X131220000Y-121663750D01*
G75*
G02*
X131438750Y-121445000I218750J0D01*
G01*
X131876250Y-121445000D01*
G75*
G02*
X132095000Y-121663750I0J-218750D01*
G01*
G37*
G36*
G01*
X130560000Y-117233750D02*
X130560000Y-117746250D01*
G75*
G02*
X130341250Y-117965000I-218750J0D01*
G01*
X129903750Y-117965000D01*
G75*
G02*
X129685000Y-117746250I0J218750D01*
G01*
X129685000Y-117233750D01*
G75*
G02*
X129903750Y-117015000I218750J0D01*
G01*
X130341250Y-117015000D01*
G75*
G02*
X130560000Y-117233750I0J-218750D01*
G01*
G37*
G36*
G01*
X132135000Y-117233750D02*
X132135000Y-117746250D01*
G75*
G02*
X131916250Y-117965000I-218750J0D01*
G01*
X131478750Y-117965000D01*
G75*
G02*
X131260000Y-117746250I0J218750D01*
G01*
X131260000Y-117233750D01*
G75*
G02*
X131478750Y-117015000I218750J0D01*
G01*
X131916250Y-117015000D01*
G75*
G02*
X132135000Y-117233750I0J-218750D01*
G01*
G37*
G36*
G01*
X130580000Y-114003750D02*
X130580000Y-114516250D01*
G75*
G02*
X130361250Y-114735000I-218750J0D01*
G01*
X129923750Y-114735000D01*
G75*
G02*
X129705000Y-114516250I0J218750D01*
G01*
X129705000Y-114003750D01*
G75*
G02*
X129923750Y-113785000I218750J0D01*
G01*
X130361250Y-113785000D01*
G75*
G02*
X130580000Y-114003750I0J-218750D01*
G01*
G37*
G36*
G01*
X132155000Y-114003750D02*
X132155000Y-114516250D01*
G75*
G02*
X131936250Y-114735000I-218750J0D01*
G01*
X131498750Y-114735000D01*
G75*
G02*
X131280000Y-114516250I0J218750D01*
G01*
X131280000Y-114003750D01*
G75*
G02*
X131498750Y-113785000I218750J0D01*
G01*
X131936250Y-113785000D01*
G75*
G02*
X132155000Y-114003750I0J-218750D01*
G01*
G37*
G36*
G01*
X130580000Y-105143750D02*
X130580000Y-105656250D01*
G75*
G02*
X130361250Y-105875000I-218750J0D01*
G01*
X129923750Y-105875000D01*
G75*
G02*
X129705000Y-105656250I0J218750D01*
G01*
X129705000Y-105143750D01*
G75*
G02*
X129923750Y-104925000I218750J0D01*
G01*
X130361250Y-104925000D01*
G75*
G02*
X130580000Y-105143750I0J-218750D01*
G01*
G37*
G36*
G01*
X132155000Y-105143750D02*
X132155000Y-105656250D01*
G75*
G02*
X131936250Y-105875000I-218750J0D01*
G01*
X131498750Y-105875000D01*
G75*
G02*
X131280000Y-105656250I0J218750D01*
G01*
X131280000Y-105143750D01*
G75*
G02*
X131498750Y-104925000I218750J0D01*
G01*
X131936250Y-104925000D01*
G75*
G02*
X132155000Y-105143750I0J-218750D01*
G01*
G37*
G36*
G01*
X130580000Y-99423750D02*
X130580000Y-99936250D01*
G75*
G02*
X130361250Y-100155000I-218750J0D01*
G01*
X129923750Y-100155000D01*
G75*
G02*
X129705000Y-99936250I0J218750D01*
G01*
X129705000Y-99423750D01*
G75*
G02*
X129923750Y-99205000I218750J0D01*
G01*
X130361250Y-99205000D01*
G75*
G02*
X130580000Y-99423750I0J-218750D01*
G01*
G37*
G36*
G01*
X132155000Y-99423750D02*
X132155000Y-99936250D01*
G75*
G02*
X131936250Y-100155000I-218750J0D01*
G01*
X131498750Y-100155000D01*
G75*
G02*
X131280000Y-99936250I0J218750D01*
G01*
X131280000Y-99423750D01*
G75*
G02*
X131498750Y-99205000I218750J0D01*
G01*
X131936250Y-99205000D01*
G75*
G02*
X132155000Y-99423750I0J-218750D01*
G01*
G37*
G36*
G01*
X130580000Y-94023750D02*
X130580000Y-94536250D01*
G75*
G02*
X130361250Y-94755000I-218750J0D01*
G01*
X129923750Y-94755000D01*
G75*
G02*
X129705000Y-94536250I0J218750D01*
G01*
X129705000Y-94023750D01*
G75*
G02*
X129923750Y-93805000I218750J0D01*
G01*
X130361250Y-93805000D01*
G75*
G02*
X130580000Y-94023750I0J-218750D01*
G01*
G37*
G36*
G01*
X132155000Y-94023750D02*
X132155000Y-94536250D01*
G75*
G02*
X131936250Y-94755000I-218750J0D01*
G01*
X131498750Y-94755000D01*
G75*
G02*
X131280000Y-94536250I0J218750D01*
G01*
X131280000Y-94023750D01*
G75*
G02*
X131498750Y-93805000I218750J0D01*
G01*
X131936250Y-93805000D01*
G75*
G02*
X132155000Y-94023750I0J-218750D01*
G01*
G37*
G36*
G01*
X130580000Y-88423750D02*
X130580000Y-88936250D01*
G75*
G02*
X130361250Y-89155000I-218750J0D01*
G01*
X129923750Y-89155000D01*
G75*
G02*
X129705000Y-88936250I0J218750D01*
G01*
X129705000Y-88423750D01*
G75*
G02*
X129923750Y-88205000I218750J0D01*
G01*
X130361250Y-88205000D01*
G75*
G02*
X130580000Y-88423750I0J-218750D01*
G01*
G37*
G36*
G01*
X132155000Y-88423750D02*
X132155000Y-88936250D01*
G75*
G02*
X131936250Y-89155000I-218750J0D01*
G01*
X131498750Y-89155000D01*
G75*
G02*
X131280000Y-88936250I0J218750D01*
G01*
X131280000Y-88423750D01*
G75*
G02*
X131498750Y-88205000I218750J0D01*
G01*
X131936250Y-88205000D01*
G75*
G02*
X132155000Y-88423750I0J-218750D01*
G01*
G37*
G36*
G01*
X130480000Y-82923750D02*
X130480000Y-83436250D01*
G75*
G02*
X130261250Y-83655000I-218750J0D01*
G01*
X129823750Y-83655000D01*
G75*
G02*
X129605000Y-83436250I0J218750D01*
G01*
X129605000Y-82923750D01*
G75*
G02*
X129823750Y-82705000I218750J0D01*
G01*
X130261250Y-82705000D01*
G75*
G02*
X130480000Y-82923750I0J-218750D01*
G01*
G37*
G36*
G01*
X132055000Y-82923750D02*
X132055000Y-83436250D01*
G75*
G02*
X131836250Y-83655000I-218750J0D01*
G01*
X131398750Y-83655000D01*
G75*
G02*
X131180000Y-83436250I0J218750D01*
G01*
X131180000Y-82923750D01*
G75*
G02*
X131398750Y-82705000I218750J0D01*
G01*
X131836250Y-82705000D01*
G75*
G02*
X132055000Y-82923750I0J-218750D01*
G01*
G37*
G36*
G01*
X130480000Y-77423750D02*
X130480000Y-77936250D01*
G75*
G02*
X130261250Y-78155000I-218750J0D01*
G01*
X129823750Y-78155000D01*
G75*
G02*
X129605000Y-77936250I0J218750D01*
G01*
X129605000Y-77423750D01*
G75*
G02*
X129823750Y-77205000I218750J0D01*
G01*
X130261250Y-77205000D01*
G75*
G02*
X130480000Y-77423750I0J-218750D01*
G01*
G37*
G36*
G01*
X132055000Y-77423750D02*
X132055000Y-77936250D01*
G75*
G02*
X131836250Y-78155000I-218750J0D01*
G01*
X131398750Y-78155000D01*
G75*
G02*
X131180000Y-77936250I0J218750D01*
G01*
X131180000Y-77423750D01*
G75*
G02*
X131398750Y-77205000I218750J0D01*
G01*
X131836250Y-77205000D01*
G75*
G02*
X132055000Y-77423750I0J-218750D01*
G01*
G37*
G36*
G01*
X100590000Y-85296250D02*
X100590000Y-84783750D01*
G75*
G02*
X100808750Y-84565000I218750J0D01*
G01*
X101246250Y-84565000D01*
G75*
G02*
X101465000Y-84783750I0J-218750D01*
G01*
X101465000Y-85296250D01*
G75*
G02*
X101246250Y-85515000I-218750J0D01*
G01*
X100808750Y-85515000D01*
G75*
G02*
X100590000Y-85296250I0J218750D01*
G01*
G37*
G36*
G01*
X99015000Y-85296250D02*
X99015000Y-84783750D01*
G75*
G02*
X99233750Y-84565000I218750J0D01*
G01*
X99671250Y-84565000D01*
G75*
G02*
X99890000Y-84783750I0J-218750D01*
G01*
X99890000Y-85296250D01*
G75*
G02*
X99671250Y-85515000I-218750J0D01*
G01*
X99233750Y-85515000D01*
G75*
G02*
X99015000Y-85296250I0J218750D01*
G01*
G37*
D30*
X119080000Y-118170000D03*
X119080000Y-120070000D03*
X116880000Y-120070000D03*
X116880000Y-119120000D03*
X116880000Y-118170000D03*
G36*
G01*
X120393750Y-119310000D02*
X120906250Y-119310000D01*
G75*
G02*
X121125000Y-119528750I0J-218750D01*
G01*
X121125000Y-119966250D01*
G75*
G02*
X120906250Y-120185000I-218750J0D01*
G01*
X120393750Y-120185000D01*
G75*
G02*
X120175000Y-119966250I0J218750D01*
G01*
X120175000Y-119528750D01*
G75*
G02*
X120393750Y-119310000I218750J0D01*
G01*
G37*
G36*
G01*
X120393750Y-117735000D02*
X120906250Y-117735000D01*
G75*
G02*
X121125000Y-117953750I0J-218750D01*
G01*
X121125000Y-118391250D01*
G75*
G02*
X120906250Y-118610000I-218750J0D01*
G01*
X120393750Y-118610000D01*
G75*
G02*
X120175000Y-118391250I0J218750D01*
G01*
X120175000Y-117953750D01*
G75*
G02*
X120393750Y-117735000I218750J0D01*
G01*
G37*
G36*
G01*
X115656250Y-117040000D02*
X115143750Y-117040000D01*
G75*
G02*
X114925000Y-116821250I0J218750D01*
G01*
X114925000Y-116383750D01*
G75*
G02*
X115143750Y-116165000I218750J0D01*
G01*
X115656250Y-116165000D01*
G75*
G02*
X115875000Y-116383750I0J-218750D01*
G01*
X115875000Y-116821250D01*
G75*
G02*
X115656250Y-117040000I-218750J0D01*
G01*
G37*
G36*
G01*
X115656250Y-118615000D02*
X115143750Y-118615000D01*
G75*
G02*
X114925000Y-118396250I0J218750D01*
G01*
X114925000Y-117958750D01*
G75*
G02*
X115143750Y-117740000I218750J0D01*
G01*
X115656250Y-117740000D01*
G75*
G02*
X115875000Y-117958750I0J-218750D01*
G01*
X115875000Y-118396250D01*
G75*
G02*
X115656250Y-118615000I-218750J0D01*
G01*
G37*
G36*
G01*
X110000000Y-111813750D02*
X110000000Y-112326250D01*
G75*
G02*
X109781250Y-112545000I-218750J0D01*
G01*
X109343750Y-112545000D01*
G75*
G02*
X109125000Y-112326250I0J218750D01*
G01*
X109125000Y-111813750D01*
G75*
G02*
X109343750Y-111595000I218750J0D01*
G01*
X109781250Y-111595000D01*
G75*
G02*
X110000000Y-111813750I0J-218750D01*
G01*
G37*
G36*
G01*
X111575000Y-111813750D02*
X111575000Y-112326250D01*
G75*
G02*
X111356250Y-112545000I-218750J0D01*
G01*
X110918750Y-112545000D01*
G75*
G02*
X110700000Y-112326250I0J218750D01*
G01*
X110700000Y-111813750D01*
G75*
G02*
X110918750Y-111595000I218750J0D01*
G01*
X111356250Y-111595000D01*
G75*
G02*
X111575000Y-111813750I0J-218750D01*
G01*
G37*
G36*
G01*
X101316250Y-81980000D02*
X100803750Y-81980000D01*
G75*
G02*
X100585000Y-81761250I0J218750D01*
G01*
X100585000Y-81323750D01*
G75*
G02*
X100803750Y-81105000I218750J0D01*
G01*
X101316250Y-81105000D01*
G75*
G02*
X101535000Y-81323750I0J-218750D01*
G01*
X101535000Y-81761250D01*
G75*
G02*
X101316250Y-81980000I-218750J0D01*
G01*
G37*
G36*
G01*
X101316250Y-83555000D02*
X100803750Y-83555000D01*
G75*
G02*
X100585000Y-83336250I0J218750D01*
G01*
X100585000Y-82898750D01*
G75*
G02*
X100803750Y-82680000I218750J0D01*
G01*
X101316250Y-82680000D01*
G75*
G02*
X101535000Y-82898750I0J-218750D01*
G01*
X101535000Y-83336250D01*
G75*
G02*
X101316250Y-83555000I-218750J0D01*
G01*
G37*
D15*
X109370000Y-122660000D03*
X109370000Y-124760000D03*
D31*
X113320000Y-123690000D03*
X111320000Y-124640000D03*
X111320000Y-122740000D03*
G36*
G01*
X106180000Y-131233750D02*
X106180000Y-131746250D01*
G75*
G02*
X105961250Y-131965000I-218750J0D01*
G01*
X105523750Y-131965000D01*
G75*
G02*
X105305000Y-131746250I0J218750D01*
G01*
X105305000Y-131233750D01*
G75*
G02*
X105523750Y-131015000I218750J0D01*
G01*
X105961250Y-131015000D01*
G75*
G02*
X106180000Y-131233750I0J-218750D01*
G01*
G37*
G36*
G01*
X107755000Y-131233750D02*
X107755000Y-131746250D01*
G75*
G02*
X107536250Y-131965000I-218750J0D01*
G01*
X107098750Y-131965000D01*
G75*
G02*
X106880000Y-131746250I0J218750D01*
G01*
X106880000Y-131233750D01*
G75*
G02*
X107098750Y-131015000I218750J0D01*
G01*
X107536250Y-131015000D01*
G75*
G02*
X107755000Y-131233750I0J-218750D01*
G01*
G37*
G36*
G01*
X108016250Y-121580000D02*
X107503750Y-121580000D01*
G75*
G02*
X107285000Y-121361250I0J218750D01*
G01*
X107285000Y-120923750D01*
G75*
G02*
X107503750Y-120705000I218750J0D01*
G01*
X108016250Y-120705000D01*
G75*
G02*
X108235000Y-120923750I0J-218750D01*
G01*
X108235000Y-121361250D01*
G75*
G02*
X108016250Y-121580000I-218750J0D01*
G01*
G37*
G36*
G01*
X108016250Y-123155000D02*
X107503750Y-123155000D01*
G75*
G02*
X107285000Y-122936250I0J218750D01*
G01*
X107285000Y-122498750D01*
G75*
G02*
X107503750Y-122280000I218750J0D01*
G01*
X108016250Y-122280000D01*
G75*
G02*
X108235000Y-122498750I0J-218750D01*
G01*
X108235000Y-122936250D01*
G75*
G02*
X108016250Y-123155000I-218750J0D01*
G01*
G37*
G36*
G01*
X113790000Y-133326250D02*
X113790000Y-132813750D01*
G75*
G02*
X114008750Y-132595000I218750J0D01*
G01*
X114446250Y-132595000D01*
G75*
G02*
X114665000Y-132813750I0J-218750D01*
G01*
X114665000Y-133326250D01*
G75*
G02*
X114446250Y-133545000I-218750J0D01*
G01*
X114008750Y-133545000D01*
G75*
G02*
X113790000Y-133326250I0J218750D01*
G01*
G37*
G36*
G01*
X112215000Y-133326250D02*
X112215000Y-132813750D01*
G75*
G02*
X112433750Y-132595000I218750J0D01*
G01*
X112871250Y-132595000D01*
G75*
G02*
X113090000Y-132813750I0J-218750D01*
G01*
X113090000Y-133326250D01*
G75*
G02*
X112871250Y-133545000I-218750J0D01*
G01*
X112433750Y-133545000D01*
G75*
G02*
X112215000Y-133326250I0J218750D01*
G01*
G37*
D30*
X108870000Y-131490000D03*
X108870000Y-129590000D03*
X111070000Y-129590000D03*
X111070000Y-130540000D03*
X111070000Y-131490000D03*
G36*
G01*
X120955000Y-123300000D02*
X120955000Y-123800000D01*
G75*
G02*
X120730000Y-124025000I-225000J0D01*
G01*
X120280000Y-124025000D01*
G75*
G02*
X120055000Y-123800000I0J225000D01*
G01*
X120055000Y-123300000D01*
G75*
G02*
X120280000Y-123075000I225000J0D01*
G01*
X120730000Y-123075000D01*
G75*
G02*
X120955000Y-123300000I0J-225000D01*
G01*
G37*
G36*
G01*
X122505000Y-123300000D02*
X122505000Y-123800000D01*
G75*
G02*
X122280000Y-124025000I-225000J0D01*
G01*
X121830000Y-124025000D01*
G75*
G02*
X121605000Y-123800000I0J225000D01*
G01*
X121605000Y-123300000D01*
G75*
G02*
X121830000Y-123075000I225000J0D01*
G01*
X122280000Y-123075000D01*
G75*
G02*
X122505000Y-123300000I0J-225000D01*
G01*
G37*
G36*
G01*
X120955000Y-124820000D02*
X120955000Y-125320000D01*
G75*
G02*
X120730000Y-125545000I-225000J0D01*
G01*
X120280000Y-125545000D01*
G75*
G02*
X120055000Y-125320000I0J225000D01*
G01*
X120055000Y-124820000D01*
G75*
G02*
X120280000Y-124595000I225000J0D01*
G01*
X120730000Y-124595000D01*
G75*
G02*
X120955000Y-124820000I0J-225000D01*
G01*
G37*
G36*
G01*
X122505000Y-124820000D02*
X122505000Y-125320000D01*
G75*
G02*
X122280000Y-125545000I-225000J0D01*
G01*
X121830000Y-125545000D01*
G75*
G02*
X121605000Y-125320000I0J225000D01*
G01*
X121605000Y-124820000D01*
G75*
G02*
X121830000Y-124595000I225000J0D01*
G01*
X122280000Y-124595000D01*
G75*
G02*
X122505000Y-124820000I0J-225000D01*
G01*
G37*
G36*
G01*
X120995000Y-127590000D02*
X120995000Y-128090000D01*
G75*
G02*
X120770000Y-128315000I-225000J0D01*
G01*
X120320000Y-128315000D01*
G75*
G02*
X120095000Y-128090000I0J225000D01*
G01*
X120095000Y-127590000D01*
G75*
G02*
X120320000Y-127365000I225000J0D01*
G01*
X120770000Y-127365000D01*
G75*
G02*
X120995000Y-127590000I0J-225000D01*
G01*
G37*
G36*
G01*
X119445000Y-127590000D02*
X119445000Y-128090000D01*
G75*
G02*
X119220000Y-128315000I-225000J0D01*
G01*
X118770000Y-128315000D01*
G75*
G02*
X118545000Y-128090000I0J225000D01*
G01*
X118545000Y-127590000D01*
G75*
G02*
X118770000Y-127365000I225000J0D01*
G01*
X119220000Y-127365000D01*
G75*
G02*
X119445000Y-127590000I0J-225000D01*
G01*
G37*
G36*
G01*
X126450000Y-127355000D02*
X125950000Y-127355000D01*
G75*
G02*
X125725000Y-127130000I0J225000D01*
G01*
X125725000Y-126680000D01*
G75*
G02*
X125950000Y-126455000I225000J0D01*
G01*
X126450000Y-126455000D01*
G75*
G02*
X126675000Y-126680000I0J-225000D01*
G01*
X126675000Y-127130000D01*
G75*
G02*
X126450000Y-127355000I-225000J0D01*
G01*
G37*
G36*
G01*
X126450000Y-125805000D02*
X125950000Y-125805000D01*
G75*
G02*
X125725000Y-125580000I0J225000D01*
G01*
X125725000Y-125130000D01*
G75*
G02*
X125950000Y-124905000I225000J0D01*
G01*
X126450000Y-124905000D01*
G75*
G02*
X126675000Y-125130000I0J-225000D01*
G01*
X126675000Y-125580000D01*
G75*
G02*
X126450000Y-125805000I-225000J0D01*
G01*
G37*
G36*
G01*
X102080000Y-155360000D02*
X103180000Y-155360000D01*
G75*
G02*
X103430000Y-155610000I0J-250000D01*
G01*
X103430000Y-158610000D01*
G75*
G02*
X103180000Y-158860000I-250000J0D01*
G01*
X102080000Y-158860000D01*
G75*
G02*
X101830000Y-158610000I0J250000D01*
G01*
X101830000Y-155610000D01*
G75*
G02*
X102080000Y-155360000I250000J0D01*
G01*
G37*
G36*
G01*
X102080000Y-160760000D02*
X103180000Y-160760000D01*
G75*
G02*
X103430000Y-161010000I0J-250000D01*
G01*
X103430000Y-164010000D01*
G75*
G02*
X103180000Y-164260000I-250000J0D01*
G01*
X102080000Y-164260000D01*
G75*
G02*
X101830000Y-164010000I0J250000D01*
G01*
X101830000Y-161010000D01*
G75*
G02*
X102080000Y-160760000I250000J0D01*
G01*
G37*
G36*
G01*
X135310000Y-161375000D02*
X135810000Y-161375000D01*
G75*
G02*
X136035000Y-161600000I0J-225000D01*
G01*
X136035000Y-162050000D01*
G75*
G02*
X135810000Y-162275000I-225000J0D01*
G01*
X135310000Y-162275000D01*
G75*
G02*
X135085000Y-162050000I0J225000D01*
G01*
X135085000Y-161600000D01*
G75*
G02*
X135310000Y-161375000I225000J0D01*
G01*
G37*
G36*
G01*
X135310000Y-159825000D02*
X135810000Y-159825000D01*
G75*
G02*
X136035000Y-160050000I0J-225000D01*
G01*
X136035000Y-160500000D01*
G75*
G02*
X135810000Y-160725000I-225000J0D01*
G01*
X135310000Y-160725000D01*
G75*
G02*
X135085000Y-160500000I0J225000D01*
G01*
X135085000Y-160050000D01*
G75*
G02*
X135310000Y-159825000I225000J0D01*
G01*
G37*
G36*
G01*
X126045000Y-163850000D02*
X126045000Y-163350000D01*
G75*
G02*
X126270000Y-163125000I225000J0D01*
G01*
X126720000Y-163125000D01*
G75*
G02*
X126945000Y-163350000I0J-225000D01*
G01*
X126945000Y-163850000D01*
G75*
G02*
X126720000Y-164075000I-225000J0D01*
G01*
X126270000Y-164075000D01*
G75*
G02*
X126045000Y-163850000I0J225000D01*
G01*
G37*
G36*
G01*
X127595000Y-163850000D02*
X127595000Y-163350000D01*
G75*
G02*
X127820000Y-163125000I225000J0D01*
G01*
X128270000Y-163125000D01*
G75*
G02*
X128495000Y-163350000I0J-225000D01*
G01*
X128495000Y-163850000D01*
G75*
G02*
X128270000Y-164075000I-225000J0D01*
G01*
X127820000Y-164075000D01*
G75*
G02*
X127595000Y-163850000I0J225000D01*
G01*
G37*
G36*
G01*
X136885000Y-152510000D02*
X135935000Y-152510000D01*
G75*
G02*
X135685000Y-152260000I0J250000D01*
G01*
X135685000Y-151760000D01*
G75*
G02*
X135935000Y-151510000I250000J0D01*
G01*
X136885000Y-151510000D01*
G75*
G02*
X137135000Y-151760000I0J-250000D01*
G01*
X137135000Y-152260000D01*
G75*
G02*
X136885000Y-152510000I-250000J0D01*
G01*
G37*
G36*
G01*
X136885000Y-150610000D02*
X135935000Y-150610000D01*
G75*
G02*
X135685000Y-150360000I0J250000D01*
G01*
X135685000Y-149860000D01*
G75*
G02*
X135935000Y-149610000I250000J0D01*
G01*
X136885000Y-149610000D01*
G75*
G02*
X137135000Y-149860000I0J-250000D01*
G01*
X137135000Y-150360000D01*
G75*
G02*
X136885000Y-150610000I-250000J0D01*
G01*
G37*
G36*
G01*
X148105000Y-154830000D02*
X148105000Y-154330000D01*
G75*
G02*
X148330000Y-154105000I225000J0D01*
G01*
X148780000Y-154105000D01*
G75*
G02*
X149005000Y-154330000I0J-225000D01*
G01*
X149005000Y-154830000D01*
G75*
G02*
X148780000Y-155055000I-225000J0D01*
G01*
X148330000Y-155055000D01*
G75*
G02*
X148105000Y-154830000I0J225000D01*
G01*
G37*
G36*
G01*
X149655000Y-154830000D02*
X149655000Y-154330000D01*
G75*
G02*
X149880000Y-154105000I225000J0D01*
G01*
X150330000Y-154105000D01*
G75*
G02*
X150555000Y-154330000I0J-225000D01*
G01*
X150555000Y-154830000D01*
G75*
G02*
X150330000Y-155055000I-225000J0D01*
G01*
X149880000Y-155055000D01*
G75*
G02*
X149655000Y-154830000I0J225000D01*
G01*
G37*
D32*
X102700000Y-153900000D03*
X99700000Y-153900000D03*
G36*
G01*
X133320000Y-165754500D02*
X133320000Y-165329500D01*
G75*
G02*
X133532500Y-165117000I212500J0D01*
G01*
X134332500Y-165117000D01*
G75*
G02*
X134545000Y-165329500I0J-212500D01*
G01*
X134545000Y-165754500D01*
G75*
G02*
X134332500Y-165967000I-212500J0D01*
G01*
X133532500Y-165967000D01*
G75*
G02*
X133320000Y-165754500I0J212500D01*
G01*
G37*
G36*
G01*
X131695000Y-165754500D02*
X131695000Y-165329500D01*
G75*
G02*
X131907500Y-165117000I212500J0D01*
G01*
X132707500Y-165117000D01*
G75*
G02*
X132920000Y-165329500I0J-212500D01*
G01*
X132920000Y-165754500D01*
G75*
G02*
X132707500Y-165967000I-212500J0D01*
G01*
X131907500Y-165967000D01*
G75*
G02*
X131695000Y-165754500I0J212500D01*
G01*
G37*
G36*
G01*
X131715000Y-164204500D02*
X131715000Y-163779500D01*
G75*
G02*
X131927500Y-163567000I212500J0D01*
G01*
X132727500Y-163567000D01*
G75*
G02*
X132940000Y-163779500I0J-212500D01*
G01*
X132940000Y-164204500D01*
G75*
G02*
X132727500Y-164417000I-212500J0D01*
G01*
X131927500Y-164417000D01*
G75*
G02*
X131715000Y-164204500I0J212500D01*
G01*
G37*
G36*
G01*
X133340000Y-164204500D02*
X133340000Y-163779500D01*
G75*
G02*
X133552500Y-163567000I212500J0D01*
G01*
X134352500Y-163567000D01*
G75*
G02*
X134565000Y-163779500I0J-212500D01*
G01*
X134565000Y-164204500D01*
G75*
G02*
X134352500Y-164417000I-212500J0D01*
G01*
X133552500Y-164417000D01*
G75*
G02*
X133340000Y-164204500I0J212500D01*
G01*
G37*
D33*
X116180000Y-153260000D03*
X116180000Y-160160000D03*
X109810000Y-160090000D03*
X109810000Y-153190000D03*
D34*
X124670000Y-126535000D03*
X124670000Y-127185000D03*
X124670000Y-127835000D03*
X124670000Y-128485000D03*
X122070000Y-128485000D03*
X122070000Y-127835000D03*
X122070000Y-127185000D03*
X122070000Y-126535000D03*
D35*
X128070000Y-156488000D03*
X129070000Y-156488000D03*
X130070000Y-156488000D03*
X131070000Y-156488000D03*
X132070000Y-156488000D03*
X132070000Y-161912000D03*
X131070000Y-161912000D03*
X130070000Y-161912000D03*
X129070000Y-161912000D03*
X128070000Y-161912000D03*
D36*
X125540000Y-156350000D03*
X123640000Y-156350000D03*
X124590000Y-158350000D03*
G36*
G01*
X128185000Y-128365000D02*
X128185000Y-128915000D01*
G75*
G02*
X127985000Y-129115000I-200000J0D01*
G01*
X127585000Y-129115000D01*
G75*
G02*
X127385000Y-128915000I0J200000D01*
G01*
X127385000Y-128365000D01*
G75*
G02*
X127585000Y-128165000I200000J0D01*
G01*
X127985000Y-128165000D01*
G75*
G02*
X128185000Y-128365000I0J-200000D01*
G01*
G37*
G36*
G01*
X126535000Y-128365000D02*
X126535000Y-128915000D01*
G75*
G02*
X126335000Y-129115000I-200000J0D01*
G01*
X125935000Y-129115000D01*
G75*
G02*
X125735000Y-128915000I0J200000D01*
G01*
X125735000Y-128365000D01*
G75*
G02*
X125935000Y-128165000I200000J0D01*
G01*
X126335000Y-128165000D01*
G75*
G02*
X126535000Y-128365000I0J-200000D01*
G01*
G37*
G36*
G01*
X134265000Y-162275000D02*
X133715000Y-162275000D01*
G75*
G02*
X133515000Y-162075000I0J200000D01*
G01*
X133515000Y-161675000D01*
G75*
G02*
X133715000Y-161475000I200000J0D01*
G01*
X134265000Y-161475000D01*
G75*
G02*
X134465000Y-161675000I0J-200000D01*
G01*
X134465000Y-162075000D01*
G75*
G02*
X134265000Y-162275000I-200000J0D01*
G01*
G37*
G36*
G01*
X134265000Y-160625000D02*
X133715000Y-160625000D01*
G75*
G02*
X133515000Y-160425000I0J200000D01*
G01*
X133515000Y-160025000D01*
G75*
G02*
X133715000Y-159825000I200000J0D01*
G01*
X134265000Y-159825000D01*
G75*
G02*
X134465000Y-160025000I0J-200000D01*
G01*
X134465000Y-160425000D01*
G75*
G02*
X134265000Y-160625000I-200000J0D01*
G01*
G37*
G36*
G01*
X129145000Y-165815000D02*
X129145000Y-165265000D01*
G75*
G02*
X129345000Y-165065000I200000J0D01*
G01*
X129745000Y-165065000D01*
G75*
G02*
X129945000Y-165265000I0J-200000D01*
G01*
X129945000Y-165815000D01*
G75*
G02*
X129745000Y-166015000I-200000J0D01*
G01*
X129345000Y-166015000D01*
G75*
G02*
X129145000Y-165815000I0J200000D01*
G01*
G37*
G36*
G01*
X127495000Y-165815000D02*
X127495000Y-165265000D01*
G75*
G02*
X127695000Y-165065000I200000J0D01*
G01*
X128095000Y-165065000D01*
G75*
G02*
X128295000Y-165265000I0J-200000D01*
G01*
X128295000Y-165815000D01*
G75*
G02*
X128095000Y-166015000I-200000J0D01*
G01*
X127695000Y-166015000D01*
G75*
G02*
X127495000Y-165815000I0J200000D01*
G01*
G37*
G36*
G01*
X135185000Y-157735000D02*
X135735000Y-157735000D01*
G75*
G02*
X135935000Y-157935000I0J-200000D01*
G01*
X135935000Y-158335000D01*
G75*
G02*
X135735000Y-158535000I-200000J0D01*
G01*
X135185000Y-158535000D01*
G75*
G02*
X134985000Y-158335000I0J200000D01*
G01*
X134985000Y-157935000D01*
G75*
G02*
X135185000Y-157735000I200000J0D01*
G01*
G37*
G36*
G01*
X135185000Y-156085000D02*
X135735000Y-156085000D01*
G75*
G02*
X135935000Y-156285000I0J-200000D01*
G01*
X135935000Y-156685000D01*
G75*
G02*
X135735000Y-156885000I-200000J0D01*
G01*
X135185000Y-156885000D01*
G75*
G02*
X134985000Y-156685000I0J200000D01*
G01*
X134985000Y-156285000D01*
G75*
G02*
X135185000Y-156085000I200000J0D01*
G01*
G37*
G36*
G01*
X152245000Y-160185000D02*
X152795000Y-160185000D01*
G75*
G02*
X152995000Y-160385000I0J-200000D01*
G01*
X152995000Y-160785000D01*
G75*
G02*
X152795000Y-160985000I-200000J0D01*
G01*
X152245000Y-160985000D01*
G75*
G02*
X152045000Y-160785000I0J200000D01*
G01*
X152045000Y-160385000D01*
G75*
G02*
X152245000Y-160185000I200000J0D01*
G01*
G37*
G36*
G01*
X152245000Y-158535000D02*
X152795000Y-158535000D01*
G75*
G02*
X152995000Y-158735000I0J-200000D01*
G01*
X152995000Y-159135000D01*
G75*
G02*
X152795000Y-159335000I-200000J0D01*
G01*
X152245000Y-159335000D01*
G75*
G02*
X152045000Y-159135000I0J200000D01*
G01*
X152045000Y-158735000D01*
G75*
G02*
X152245000Y-158535000I200000J0D01*
G01*
G37*
G36*
G01*
X144695000Y-154855000D02*
X144695000Y-154305000D01*
G75*
G02*
X144895000Y-154105000I200000J0D01*
G01*
X145295000Y-154105000D01*
G75*
G02*
X145495000Y-154305000I0J-200000D01*
G01*
X145495000Y-154855000D01*
G75*
G02*
X145295000Y-155055000I-200000J0D01*
G01*
X144895000Y-155055000D01*
G75*
G02*
X144695000Y-154855000I0J200000D01*
G01*
G37*
G36*
G01*
X146345000Y-154855000D02*
X146345000Y-154305000D01*
G75*
G02*
X146545000Y-154105000I200000J0D01*
G01*
X146945000Y-154105000D01*
G75*
G02*
X147145000Y-154305000I0J-200000D01*
G01*
X147145000Y-154855000D01*
G75*
G02*
X146945000Y-155055000I-200000J0D01*
G01*
X146545000Y-155055000D01*
G75*
G02*
X146345000Y-154855000I0J200000D01*
G01*
G37*
D37*
X99950000Y-126455000D03*
X99950000Y-118505000D03*
X104450000Y-126455000D03*
X104450000Y-118505000D03*
G36*
G01*
X121630000Y-155945000D02*
X122130000Y-155945000D01*
G75*
G02*
X122355000Y-156170000I0J-225000D01*
G01*
X122355000Y-156620000D01*
G75*
G02*
X122130000Y-156845000I-225000J0D01*
G01*
X121630000Y-156845000D01*
G75*
G02*
X121405000Y-156620000I0J225000D01*
G01*
X121405000Y-156170000D01*
G75*
G02*
X121630000Y-155945000I225000J0D01*
G01*
G37*
G36*
G01*
X121630000Y-157495000D02*
X122130000Y-157495000D01*
G75*
G02*
X122355000Y-157720000I0J-225000D01*
G01*
X122355000Y-158170000D01*
G75*
G02*
X122130000Y-158395000I-225000J0D01*
G01*
X121630000Y-158395000D01*
G75*
G02*
X121405000Y-158170000I0J225000D01*
G01*
X121405000Y-157720000D01*
G75*
G02*
X121630000Y-157495000I225000J0D01*
G01*
G37*
D38*
X150590000Y-158730000D03*
X150590000Y-157780000D03*
X150590000Y-156830000D03*
X148090000Y-156830000D03*
X148090000Y-157780000D03*
X148090000Y-158730000D03*
G36*
G01*
X143500000Y-73244999D02*
X143500000Y-74495001D01*
G75*
G02*
X143250001Y-74745000I-249999J0D01*
G01*
X142549999Y-74745000D01*
G75*
G02*
X142300000Y-74495001I0J249999D01*
G01*
X142300000Y-73244999D01*
G75*
G02*
X142549999Y-72995000I249999J0D01*
G01*
X143250001Y-72995000D01*
G75*
G02*
X143500000Y-73244999I0J-249999D01*
G01*
G37*
D39*
X140900000Y-73870000D03*
X138900000Y-73870000D03*
X136900000Y-73870000D03*
G36*
G01*
X154624999Y-146170000D02*
X155875001Y-146170000D01*
G75*
G02*
X156125000Y-146419999I0J-249999D01*
G01*
X156125000Y-147120001D01*
G75*
G02*
X155875001Y-147370000I-249999J0D01*
G01*
X154624999Y-147370000D01*
G75*
G02*
X154375000Y-147120001I0J249999D01*
G01*
X154375000Y-146419999D01*
G75*
G02*
X154624999Y-146170000I249999J0D01*
G01*
G37*
D14*
X155250000Y-148770000D03*
G36*
G01*
X127110000Y-136025001D02*
X127110000Y-134774999D01*
G75*
G02*
X127359999Y-134525000I249999J0D01*
G01*
X128060001Y-134525000D01*
G75*
G02*
X128310000Y-134774999I0J-249999D01*
G01*
X128310000Y-136025001D01*
G75*
G02*
X128060001Y-136275000I-249999J0D01*
G01*
X127359999Y-136275000D01*
G75*
G02*
X127110000Y-136025001I0J249999D01*
G01*
G37*
D39*
X129710000Y-135400000D03*
X131710000Y-135400000D03*
X129500000Y-108640000D03*
X127500000Y-108640000D03*
X125500000Y-108640000D03*
G36*
G01*
X122900000Y-109265001D02*
X122900000Y-108014999D01*
G75*
G02*
X123149999Y-107765000I249999J0D01*
G01*
X123850001Y-107765000D01*
G75*
G02*
X124100000Y-108014999I0J-249999D01*
G01*
X124100000Y-109265001D01*
G75*
G02*
X123850001Y-109515000I-249999J0D01*
G01*
X123149999Y-109515000D01*
G75*
G02*
X122900000Y-109265001I0J249999D01*
G01*
G37*
G36*
G01*
X98405000Y-103915000D02*
X98955000Y-103915000D01*
G75*
G02*
X99155000Y-104115000I0J-200000D01*
G01*
X99155000Y-104515000D01*
G75*
G02*
X98955000Y-104715000I-200000J0D01*
G01*
X98405000Y-104715000D01*
G75*
G02*
X98205000Y-104515000I0J200000D01*
G01*
X98205000Y-104115000D01*
G75*
G02*
X98405000Y-103915000I200000J0D01*
G01*
G37*
G36*
G01*
X98405000Y-105565000D02*
X98955000Y-105565000D01*
G75*
G02*
X99155000Y-105765000I0J-200000D01*
G01*
X99155000Y-106165000D01*
G75*
G02*
X98955000Y-106365000I-200000J0D01*
G01*
X98405000Y-106365000D01*
G75*
G02*
X98205000Y-106165000I0J200000D01*
G01*
X98205000Y-105765000D01*
G75*
G02*
X98405000Y-105565000I200000J0D01*
G01*
G37*
G36*
G01*
X101515000Y-103915000D02*
X102065000Y-103915000D01*
G75*
G02*
X102265000Y-104115000I0J-200000D01*
G01*
X102265000Y-104515000D01*
G75*
G02*
X102065000Y-104715000I-200000J0D01*
G01*
X101515000Y-104715000D01*
G75*
G02*
X101315000Y-104515000I0J200000D01*
G01*
X101315000Y-104115000D01*
G75*
G02*
X101515000Y-103915000I200000J0D01*
G01*
G37*
G36*
G01*
X101515000Y-105565000D02*
X102065000Y-105565000D01*
G75*
G02*
X102265000Y-105765000I0J-200000D01*
G01*
X102265000Y-106165000D01*
G75*
G02*
X102065000Y-106365000I-200000J0D01*
G01*
X101515000Y-106365000D01*
G75*
G02*
X101315000Y-106165000I0J200000D01*
G01*
X101315000Y-105765000D01*
G75*
G02*
X101515000Y-105565000I200000J0D01*
G01*
G37*
G36*
G01*
X99995000Y-105565000D02*
X100545000Y-105565000D01*
G75*
G02*
X100745000Y-105765000I0J-200000D01*
G01*
X100745000Y-106165000D01*
G75*
G02*
X100545000Y-106365000I-200000J0D01*
G01*
X99995000Y-106365000D01*
G75*
G02*
X99795000Y-106165000I0J200000D01*
G01*
X99795000Y-105765000D01*
G75*
G02*
X99995000Y-105565000I200000J0D01*
G01*
G37*
G36*
G01*
X99995000Y-103915000D02*
X100545000Y-103915000D01*
G75*
G02*
X100745000Y-104115000I0J-200000D01*
G01*
X100745000Y-104515000D01*
G75*
G02*
X100545000Y-104715000I-200000J0D01*
G01*
X99995000Y-104715000D01*
G75*
G02*
X99795000Y-104515000I0J200000D01*
G01*
X99795000Y-104115000D01*
G75*
G02*
X99995000Y-103915000I200000J0D01*
G01*
G37*
G36*
G01*
X119315000Y-129850000D02*
X119315000Y-129350000D01*
G75*
G02*
X119540000Y-129125000I225000J0D01*
G01*
X119990000Y-129125000D01*
G75*
G02*
X120215000Y-129350000I0J-225000D01*
G01*
X120215000Y-129850000D01*
G75*
G02*
X119990000Y-130075000I-225000J0D01*
G01*
X119540000Y-130075000D01*
G75*
G02*
X119315000Y-129850000I0J225000D01*
G01*
G37*
G36*
G01*
X120865000Y-129850000D02*
X120865000Y-129350000D01*
G75*
G02*
X121090000Y-129125000I225000J0D01*
G01*
X121540000Y-129125000D01*
G75*
G02*
X121765000Y-129350000I0J-225000D01*
G01*
X121765000Y-129850000D01*
G75*
G02*
X121540000Y-130075000I-225000J0D01*
G01*
X121090000Y-130075000D01*
G75*
G02*
X120865000Y-129850000I0J225000D01*
G01*
G37*
G36*
G01*
X120835000Y-131255000D02*
X120835000Y-130705000D01*
G75*
G02*
X121035000Y-130505000I200000J0D01*
G01*
X121435000Y-130505000D01*
G75*
G02*
X121635000Y-130705000I0J-200000D01*
G01*
X121635000Y-131255000D01*
G75*
G02*
X121435000Y-131455000I-200000J0D01*
G01*
X121035000Y-131455000D01*
G75*
G02*
X120835000Y-131255000I0J200000D01*
G01*
G37*
G36*
G01*
X122485000Y-131255000D02*
X122485000Y-130705000D01*
G75*
G02*
X122685000Y-130505000I200000J0D01*
G01*
X123085000Y-130505000D01*
G75*
G02*
X123285000Y-130705000I0J-200000D01*
G01*
X123285000Y-131255000D01*
G75*
G02*
X123085000Y-131455000I-200000J0D01*
G01*
X122685000Y-131455000D01*
G75*
G02*
X122485000Y-131255000I0J200000D01*
G01*
G37*
G36*
G01*
X153520000Y-78205000D02*
X154020000Y-78205000D01*
G75*
G02*
X154245000Y-78430000I0J-225000D01*
G01*
X154245000Y-78880000D01*
G75*
G02*
X154020000Y-79105000I-225000J0D01*
G01*
X153520000Y-79105000D01*
G75*
G02*
X153295000Y-78880000I0J225000D01*
G01*
X153295000Y-78430000D01*
G75*
G02*
X153520000Y-78205000I225000J0D01*
G01*
G37*
G36*
G01*
X153520000Y-79755000D02*
X154020000Y-79755000D01*
G75*
G02*
X154245000Y-79980000I0J-225000D01*
G01*
X154245000Y-80430000D01*
G75*
G02*
X154020000Y-80655000I-225000J0D01*
G01*
X153520000Y-80655000D01*
G75*
G02*
X153295000Y-80430000I0J225000D01*
G01*
X153295000Y-79980000D01*
G75*
G02*
X153520000Y-79755000I225000J0D01*
G01*
G37*
D40*
X155900000Y-77410000D03*
X155100000Y-77410000D03*
X155100000Y-78810000D03*
X155900000Y-78810000D03*
G36*
G01*
X114225000Y-118660000D02*
X113275000Y-118660000D01*
G75*
G02*
X113025000Y-118410000I0J250000D01*
G01*
X113025000Y-117910000D01*
G75*
G02*
X113275000Y-117660000I250000J0D01*
G01*
X114225000Y-117660000D01*
G75*
G02*
X114475000Y-117910000I0J-250000D01*
G01*
X114475000Y-118410000D01*
G75*
G02*
X114225000Y-118660000I-250000J0D01*
G01*
G37*
G36*
G01*
X114225000Y-116760000D02*
X113275000Y-116760000D01*
G75*
G02*
X113025000Y-116510000I0J250000D01*
G01*
X113025000Y-116010000D01*
G75*
G02*
X113275000Y-115760000I250000J0D01*
G01*
X114225000Y-115760000D01*
G75*
G02*
X114475000Y-116010000I0J-250000D01*
G01*
X114475000Y-116510000D01*
G75*
G02*
X114225000Y-116760000I-250000J0D01*
G01*
G37*
G36*
G01*
X121825000Y-119660000D02*
X122775000Y-119660000D01*
G75*
G02*
X123025000Y-119910000I0J-250000D01*
G01*
X123025000Y-120410000D01*
G75*
G02*
X122775000Y-120660000I-250000J0D01*
G01*
X121825000Y-120660000D01*
G75*
G02*
X121575000Y-120410000I0J250000D01*
G01*
X121575000Y-119910000D01*
G75*
G02*
X121825000Y-119660000I250000J0D01*
G01*
G37*
G36*
G01*
X121825000Y-117760000D02*
X122775000Y-117760000D01*
G75*
G02*
X123025000Y-118010000I0J-250000D01*
G01*
X123025000Y-118510000D01*
G75*
G02*
X122775000Y-118760000I-250000J0D01*
G01*
X121825000Y-118760000D01*
G75*
G02*
X121575000Y-118510000I0J250000D01*
G01*
X121575000Y-118010000D01*
G75*
G02*
X121825000Y-117760000I250000J0D01*
G01*
G37*
M02*
