G04 #@! TF.GenerationSoftware,KiCad,Pcbnew,7.0.2*
G04 #@! TF.CreationDate,2023-09-29T08:34:40+02:00*
G04 #@! TF.ProjectId,Harpe_ESP32,48617270-655f-4455-9350-33322e6b6963,rev?*
G04 #@! TF.SameCoordinates,Original*
G04 #@! TF.FileFunction,Copper,L2,Bot*
G04 #@! TF.FilePolarity,Positive*
%FSLAX46Y46*%
G04 Gerber Fmt 4.6, Leading zero omitted, Abs format (unit mm)*
G04 Created by KiCad (PCBNEW 7.0.2) date 2023-09-29 08:34:40*
%MOMM*%
%LPD*%
G01*
G04 APERTURE LIST*
G04 Aperture macros list*
%AMRoundRect*
0 Rectangle with rounded corners*
0 $1 Rounding radius*
0 $2 $3 $4 $5 $6 $7 $8 $9 X,Y pos of 4 corners*
0 Add a 4 corners polygon primitive as box body*
4,1,4,$2,$3,$4,$5,$6,$7,$8,$9,$2,$3,0*
0 Add four circle primitives for the rounded corners*
1,1,$1+$1,$2,$3*
1,1,$1+$1,$4,$5*
1,1,$1+$1,$6,$7*
1,1,$1+$1,$8,$9*
0 Add four rect primitives between the rounded corners*
20,1,$1+$1,$2,$3,$4,$5,0*
20,1,$1+$1,$4,$5,$6,$7,0*
20,1,$1+$1,$6,$7,$8,$9,0*
20,1,$1+$1,$8,$9,$2,$3,0*%
%AMFreePoly0*
4,1,19,0.500000,-0.750000,0.000000,-0.750000,0.000000,-0.744911,-0.071157,-0.744911,-0.207708,-0.704816,-0.327430,-0.627875,-0.420627,-0.520320,-0.479746,-0.390866,-0.500000,-0.250000,-0.500000,0.250000,-0.479746,0.390866,-0.420627,0.520320,-0.327430,0.627875,-0.207708,0.704816,-0.071157,0.744911,0.000000,0.744911,0.000000,0.750000,0.500000,0.750000,0.500000,-0.750000,0.500000,-0.750000,
$1*%
%AMFreePoly1*
4,1,19,0.000000,0.744911,0.071157,0.744911,0.207708,0.704816,0.327430,0.627875,0.420627,0.520320,0.479746,0.390866,0.500000,0.250000,0.500000,-0.250000,0.479746,-0.390866,0.420627,-0.520320,0.327430,-0.627875,0.207708,-0.704816,0.071157,-0.744911,0.000000,-0.744911,0.000000,-0.750000,-0.500000,-0.750000,-0.500000,0.750000,0.000000,0.750000,0.000000,0.744911,0.000000,0.744911,
$1*%
G04 Aperture macros list end*
G04 #@! TA.AperFunction,ComponentPad*
%ADD10RoundRect,0.500000X-0.300000X0.000000X-0.300000X0.000000X0.300000X0.000000X0.300000X0.000000X0*%
G04 #@! TD*
G04 #@! TA.AperFunction,ComponentPad*
%ADD11C,1.500000*%
G04 #@! TD*
G04 #@! TA.AperFunction,ComponentPad*
%ADD12R,1.950000X1.950000*%
G04 #@! TD*
G04 #@! TA.AperFunction,ComponentPad*
%ADD13C,1.950000*%
G04 #@! TD*
G04 #@! TA.AperFunction,ComponentPad*
%ADD14C,1.575000*%
G04 #@! TD*
G04 #@! TA.AperFunction,SMDPad,CuDef*
%ADD15FreePoly0,180.000000*%
G04 #@! TD*
G04 #@! TA.AperFunction,SMDPad,CuDef*
%ADD16FreePoly1,180.000000*%
G04 #@! TD*
G04 #@! TA.AperFunction,ViaPad*
%ADD17C,0.650000*%
G04 #@! TD*
G04 #@! TA.AperFunction,ViaPad*
%ADD18C,0.800000*%
G04 #@! TD*
G04 #@! TA.AperFunction,Conductor*
%ADD19C,0.250000*%
G04 #@! TD*
G04 #@! TA.AperFunction,Conductor*
%ADD20C,0.500000*%
G04 #@! TD*
G04 #@! TA.AperFunction,Conductor*
%ADD21C,0.300000*%
G04 #@! TD*
G04 #@! TA.AperFunction,Conductor*
%ADD22C,0.200000*%
G04 #@! TD*
G04 APERTURE END LIST*
D10*
X103340000Y-107600000D03*
X99160000Y-107600000D03*
X103340000Y-116240000D03*
X99160000Y-116240000D03*
D11*
X101230000Y-133320000D03*
X101230000Y-135820000D03*
X101230000Y-138320000D03*
X101230000Y-140820000D03*
D12*
X117870000Y-154090000D03*
D13*
X117870000Y-162290000D03*
X122870000Y-154090000D03*
X122870000Y-162290000D03*
D14*
X123410000Y-140650000D03*
X120870000Y-140650000D03*
X118330000Y-140650000D03*
D12*
X150680000Y-91230000D03*
D13*
X158880000Y-91230000D03*
X150680000Y-86230000D03*
X158880000Y-86230000D03*
D12*
X150660000Y-118230000D03*
D13*
X158860000Y-118230000D03*
X150660000Y-113230000D03*
X158860000Y-113230000D03*
D12*
X150680000Y-104730000D03*
D13*
X158880000Y-104730000D03*
X150680000Y-99730000D03*
X158880000Y-99730000D03*
D11*
X101220000Y-145340000D03*
X101220000Y-147840000D03*
X101220000Y-150340000D03*
X101220000Y-152840000D03*
D12*
X150680000Y-158780000D03*
D13*
X158880000Y-158780000D03*
X150680000Y-153780000D03*
X158880000Y-153780000D03*
D12*
X150690000Y-145280000D03*
D13*
X158890000Y-145280000D03*
X150690000Y-140280000D03*
X158890000Y-140280000D03*
D12*
X150670000Y-131770000D03*
D13*
X158870000Y-131770000D03*
X150670000Y-126770000D03*
X158870000Y-126770000D03*
D15*
X123210000Y-114250000D03*
D16*
X121910000Y-114250000D03*
D17*
X164860000Y-128170000D03*
X122780000Y-112420000D03*
X100740000Y-89560000D03*
X106520000Y-116460000D03*
X164860000Y-95450000D03*
X160700000Y-167750000D03*
X98070000Y-123220000D03*
X164860000Y-103170000D03*
X110860000Y-167750000D03*
X98100000Y-111010000D03*
X127300000Y-78110000D03*
X98070000Y-95720000D03*
X98070000Y-145410000D03*
X164860000Y-90450000D03*
X101720000Y-166090000D03*
X109700000Y-89310000D03*
X108780000Y-90230000D03*
X164860000Y-75450000D03*
X164860000Y-135920000D03*
X109690000Y-87460000D03*
X140700000Y-167750000D03*
X115860000Y-167750000D03*
X98070000Y-160410000D03*
X164860000Y-118170000D03*
X105900000Y-97510000D03*
X143200000Y-167750000D03*
X154080000Y-70710000D03*
X125750000Y-82230000D03*
X116460000Y-82230000D03*
X98070000Y-147910000D03*
X125860000Y-167750000D03*
X98070000Y-140410000D03*
X128360000Y-167750000D03*
X160630000Y-165750000D03*
X110400000Y-96310000D03*
X148200000Y-167750000D03*
X118960000Y-103910000D03*
X164860000Y-130670000D03*
X112440000Y-88420000D03*
X104880000Y-81820000D03*
X98070000Y-98220000D03*
X109720000Y-101820000D03*
X146580000Y-70710000D03*
X164860000Y-150670000D03*
X103360000Y-167750000D03*
X111460000Y-82230000D03*
X108960000Y-82230000D03*
X107770000Y-120120000D03*
X105470000Y-108660000D03*
X98070000Y-118220000D03*
X164860000Y-123170000D03*
X160090000Y-73470000D03*
X98070000Y-155410000D03*
X98070000Y-137910000D03*
X123540000Y-120190000D03*
X110610000Y-90210000D03*
X111530000Y-91140000D03*
X109480000Y-110980000D03*
X115130000Y-119360000D03*
X98070000Y-85720000D03*
X132790000Y-129910000D03*
X164860000Y-92950000D03*
X105860000Y-167750000D03*
X139080000Y-70710000D03*
X135860000Y-167750000D03*
X164860000Y-85450000D03*
X108350000Y-167730000D03*
X155700000Y-167750000D03*
X120600000Y-120609990D03*
X118360000Y-167750000D03*
X164860000Y-140450000D03*
X159080000Y-70710000D03*
X105730000Y-115480002D03*
X162430000Y-164090000D03*
X109520866Y-106899134D03*
X153200000Y-167750000D03*
X164860000Y-153170000D03*
X98100000Y-113510000D03*
X98070000Y-132910000D03*
X164860000Y-145450000D03*
X151580000Y-70710000D03*
X164860000Y-120670000D03*
X98070000Y-120720000D03*
X98070000Y-93220000D03*
X111530000Y-87410000D03*
X164860000Y-108170000D03*
X132770000Y-124450000D03*
X100150000Y-164060000D03*
X130860000Y-167750000D03*
X164860000Y-77950000D03*
X105300000Y-102410000D03*
X98070000Y-142910000D03*
X98070000Y-152910000D03*
X164860000Y-115670000D03*
X98100000Y-108510000D03*
X98070000Y-130410000D03*
X108780000Y-88400000D03*
X115350000Y-115620000D03*
X164860000Y-87950000D03*
X164860000Y-113170000D03*
X110620000Y-88390000D03*
X106460000Y-82230000D03*
X150700000Y-167750000D03*
X144080000Y-70710000D03*
X164860000Y-158170000D03*
X156580000Y-70710000D03*
X164860000Y-142950000D03*
X131580000Y-70710000D03*
X134540000Y-120350000D03*
X162120000Y-74780000D03*
X114230000Y-115280000D03*
X164860000Y-125670000D03*
X112450000Y-90220000D03*
X164860000Y-100450000D03*
X98070000Y-157910000D03*
X123650000Y-104310000D03*
D18*
X112370000Y-109340000D03*
D17*
X98070000Y-88220000D03*
X149080000Y-70710000D03*
X158200000Y-167750000D03*
D18*
X112380000Y-107960000D03*
D17*
X98100000Y-81590000D03*
X164860000Y-82950000D03*
X98070000Y-128220000D03*
X125290000Y-103050000D03*
X136580000Y-70710000D03*
X98070000Y-100720000D03*
X98070000Y-125720000D03*
X117560000Y-115350000D03*
X98070000Y-162910000D03*
X120860000Y-167750000D03*
X141580000Y-70710000D03*
X113650000Y-119380000D03*
X121690000Y-81840000D03*
X134080000Y-70710000D03*
X164860000Y-147950000D03*
X118110000Y-81900000D03*
X98070000Y-150410000D03*
X130430000Y-73380000D03*
X164860000Y-155670000D03*
X111540000Y-89290000D03*
X164860000Y-138170000D03*
X133360000Y-167750000D03*
X164860000Y-97950000D03*
X164860000Y-105670000D03*
X113960000Y-82230000D03*
X113360000Y-167750000D03*
X110270000Y-116880000D03*
X164860000Y-80450000D03*
X98070000Y-135410000D03*
X98660000Y-103120000D03*
X131050000Y-119950000D03*
X164860000Y-160670000D03*
X123360000Y-167750000D03*
X98070000Y-90720000D03*
X164860000Y-110670000D03*
X145700000Y-167750000D03*
X138360000Y-167750000D03*
X127280000Y-74680000D03*
X164860000Y-163170000D03*
X109700000Y-91120000D03*
X136620000Y-134130000D03*
X164860000Y-133170000D03*
X115930000Y-93250000D03*
X108850000Y-116920000D03*
X123650000Y-119010000D03*
X102159627Y-103030373D03*
X111130000Y-115149998D03*
X124930000Y-119010000D03*
X104680000Y-143680000D03*
X124910000Y-115320000D03*
X114200000Y-101780000D03*
X104960000Y-84780000D03*
X105850000Y-110080000D03*
X105660000Y-114260000D03*
X121790000Y-99670000D03*
X115250000Y-100949998D03*
X126060000Y-123450000D03*
X112344365Y-105352302D03*
X124149996Y-100800000D03*
X126860000Y-124200000D03*
X113120000Y-105700000D03*
X123950000Y-101950000D03*
X107150000Y-101330000D03*
X127190000Y-106860000D03*
X128890000Y-101700000D03*
X121900000Y-97090000D03*
X128580000Y-100090000D03*
X121790000Y-95830000D03*
X130230000Y-100630000D03*
X121740000Y-94550000D03*
X121750000Y-92010000D03*
X129310000Y-97820000D03*
X130535000Y-86215000D03*
X121740002Y-90760000D03*
X112279993Y-117174976D03*
X102772199Y-111297978D03*
X105571224Y-112251122D03*
X120360000Y-113950000D03*
D19*
X124910000Y-114620000D02*
X124910000Y-115320000D01*
D20*
X103830000Y-133320000D02*
X104650000Y-134140000D01*
X105610000Y-106480746D02*
X102484626Y-103355372D01*
X108440000Y-116510000D02*
X108850000Y-116920000D01*
X122855001Y-118215001D02*
X110145001Y-118215001D01*
X101230000Y-133320000D02*
X103830000Y-133320000D01*
D19*
X124540000Y-114250000D02*
X124910000Y-114620000D01*
D20*
X105600000Y-106480000D02*
X108440000Y-109320000D01*
D21*
X108469998Y-115149998D02*
X111130000Y-115149998D01*
D20*
X110145001Y-118215001D02*
X108850000Y-116920000D01*
X123650000Y-119010000D02*
X122855001Y-118215001D01*
X102484626Y-103355372D02*
X102159627Y-103030373D01*
X104650000Y-143650000D02*
X104680000Y-143680000D01*
X108440000Y-109320000D02*
X108440000Y-116510000D01*
X104650000Y-134140000D02*
X104650000Y-143650000D01*
X123650000Y-119010000D02*
X124930000Y-119010000D01*
D19*
X123210000Y-114250000D02*
X124540000Y-114250000D01*
D22*
X114200000Y-86230000D02*
X114200000Y-101780000D01*
X104960000Y-84780000D02*
X112750000Y-84780000D01*
X112750000Y-84780000D02*
X114200000Y-86230000D01*
D20*
X105660000Y-114260000D02*
X106684999Y-113235001D01*
X106684999Y-110914999D02*
X105850000Y-110080000D01*
X106684999Y-113235001D02*
X106684999Y-110914999D01*
D22*
X115709619Y-100949998D02*
X115250000Y-100949998D01*
X121790000Y-99670000D02*
X120510002Y-100949998D01*
X120510002Y-100949998D02*
X115709619Y-100949998D01*
D21*
X104500000Y-147840000D02*
X103190000Y-147840000D01*
X103690000Y-136530000D02*
X103690000Y-147840000D01*
X106710000Y-125940000D02*
X106710000Y-145630000D01*
X103190000Y-147840000D02*
X101220000Y-147840000D01*
X101230000Y-135820000D02*
X102980000Y-135820000D01*
X126060000Y-123450000D02*
X109200000Y-123450000D01*
X102980000Y-135820000D02*
X103690000Y-136530000D01*
X106710000Y-145630000D02*
X104500000Y-147840000D01*
X109200000Y-123450000D02*
X106710000Y-125940000D01*
D19*
X112344365Y-105352302D02*
X112746667Y-104950000D01*
X123824997Y-101124999D02*
X124149996Y-100800000D01*
X119999996Y-104950000D02*
X123824997Y-101124999D01*
X112746667Y-104950000D02*
X119999996Y-104950000D01*
D21*
X126860000Y-124200000D02*
X109200000Y-124200000D01*
X107210000Y-126190000D02*
X107210000Y-145837106D01*
X109200000Y-124200000D02*
X107210000Y-126190000D01*
X101220000Y-148940000D02*
X101220000Y-150340000D01*
X104707106Y-148340000D02*
X102275635Y-148340000D01*
X101675635Y-148940000D02*
X101220000Y-148940000D01*
X107210000Y-145837106D02*
X104707106Y-148340000D01*
X102275635Y-148340000D02*
X101675635Y-148940000D01*
D19*
X120200000Y-105700000D02*
X123625001Y-102274999D01*
X113120000Y-105700000D02*
X120200000Y-105700000D01*
X123625001Y-102274999D02*
X123950000Y-101950000D01*
D21*
X107150000Y-101330000D02*
X112680000Y-106860000D01*
X112680000Y-106860000D02*
X127190000Y-106860000D01*
X124280000Y-97090000D02*
X128890000Y-101700000D01*
X121900000Y-97090000D02*
X124280000Y-97090000D01*
D19*
X123390000Y-95830000D02*
X124320000Y-95830000D01*
D21*
X121790000Y-95830000D02*
X123390000Y-95830000D01*
D19*
X124320000Y-95830000D02*
X128580000Y-100090000D01*
D21*
X121740000Y-94550000D02*
X124150000Y-94550000D01*
X124150000Y-94550000D02*
X130230000Y-100630000D01*
X123500000Y-92010000D02*
X129310000Y-97820000D01*
X121750000Y-92010000D02*
X123500000Y-92010000D01*
X121740002Y-90760000D02*
X122760000Y-90760000D01*
X127305000Y-86215000D02*
X130535000Y-86215000D01*
X122760000Y-90760000D02*
X127305000Y-86215000D01*
D20*
X112395017Y-117290000D02*
X112279993Y-117174976D01*
D19*
X103725343Y-112251122D02*
X102772199Y-111297978D01*
X105571224Y-112251122D02*
X103725343Y-112251122D01*
X120660000Y-114250000D02*
X120360000Y-113950000D01*
X121910000Y-114250000D02*
X120660000Y-114250000D01*
G04 #@! TA.AperFunction,Conductor*
G36*
X163764118Y-69125770D02*
G01*
X163792134Y-69127606D01*
X164009492Y-69141852D01*
X164025810Y-69144000D01*
X164262945Y-69191169D01*
X164278850Y-69195430D01*
X164507799Y-69273149D01*
X164523005Y-69279448D01*
X164739851Y-69386384D01*
X164754108Y-69394615D01*
X164955135Y-69528937D01*
X164968204Y-69538966D01*
X165149972Y-69698372D01*
X165161627Y-69710027D01*
X165321033Y-69891795D01*
X165331063Y-69904867D01*
X165376106Y-69972278D01*
X165465379Y-70105883D01*
X165473620Y-70120157D01*
X165580547Y-70336984D01*
X165586854Y-70352210D01*
X165664566Y-70581141D01*
X165668832Y-70597062D01*
X165715997Y-70834177D01*
X165718148Y-70850517D01*
X165734230Y-71095879D01*
X165734500Y-71104120D01*
X165734500Y-167105878D01*
X165734230Y-167114119D01*
X165718148Y-167359482D01*
X165715997Y-167375822D01*
X165668832Y-167612937D01*
X165664566Y-167628858D01*
X165586854Y-167857789D01*
X165580547Y-167873015D01*
X165473620Y-168089842D01*
X165465379Y-168104116D01*
X165331066Y-168305129D01*
X165321033Y-168318204D01*
X165161627Y-168499972D01*
X165149972Y-168511627D01*
X164968204Y-168671033D01*
X164955129Y-168681066D01*
X164754116Y-168815379D01*
X164739842Y-168823620D01*
X164523015Y-168930547D01*
X164507789Y-168936854D01*
X164278858Y-169014566D01*
X164262937Y-169018832D01*
X164025822Y-169065997D01*
X164009482Y-169068148D01*
X163764119Y-169084230D01*
X163755878Y-169084500D01*
X98504122Y-169084500D01*
X98495881Y-169084230D01*
X98250517Y-169068148D01*
X98234177Y-169065997D01*
X97997062Y-169018832D01*
X97981141Y-169014566D01*
X97752210Y-168936854D01*
X97736984Y-168930547D01*
X97520153Y-168823618D01*
X97505887Y-168815381D01*
X97304867Y-168681063D01*
X97291795Y-168671033D01*
X97110027Y-168511627D01*
X97098372Y-168499972D01*
X96938966Y-168318204D01*
X96928937Y-168305135D01*
X96794615Y-168104108D01*
X96786384Y-168089851D01*
X96679448Y-167873005D01*
X96673149Y-167857799D01*
X96595430Y-167628850D01*
X96591169Y-167612945D01*
X96544000Y-167375810D01*
X96541852Y-167359492D01*
X96525770Y-167114118D01*
X96525500Y-167105878D01*
X96525500Y-166610000D01*
X97469783Y-166610000D01*
X97488622Y-166849379D01*
X97544677Y-167082864D01*
X97610908Y-167242758D01*
X97636567Y-167304704D01*
X97762028Y-167509439D01*
X97762029Y-167509441D01*
X97762031Y-167509443D01*
X97917972Y-167692027D01*
X98096381Y-167844402D01*
X98100561Y-167847972D01*
X98305296Y-167973433D01*
X98527137Y-168065323D01*
X98660124Y-168097250D01*
X98760620Y-168121377D01*
X98778085Y-168122751D01*
X99000000Y-168140217D01*
X99239379Y-168121377D01*
X99472863Y-168065323D01*
X99694704Y-167973433D01*
X99899439Y-167847972D01*
X100082027Y-167692027D01*
X100237972Y-167509439D01*
X100363433Y-167304704D01*
X100455323Y-167082863D01*
X100511377Y-166849379D01*
X100530217Y-166610000D01*
X100530217Y-166609999D01*
X161729783Y-166609999D01*
X161748622Y-166849379D01*
X161804677Y-167082864D01*
X161870908Y-167242758D01*
X161896567Y-167304704D01*
X162022028Y-167509439D01*
X162022029Y-167509441D01*
X162022031Y-167509443D01*
X162177972Y-167692027D01*
X162356381Y-167844402D01*
X162360561Y-167847972D01*
X162565296Y-167973433D01*
X162787137Y-168065323D01*
X162920124Y-168097250D01*
X163020620Y-168121377D01*
X163038085Y-168122751D01*
X163260000Y-168140217D01*
X163499379Y-168121377D01*
X163732863Y-168065323D01*
X163954704Y-167973433D01*
X164159439Y-167847972D01*
X164342027Y-167692027D01*
X164497972Y-167509439D01*
X164623433Y-167304704D01*
X164715323Y-167082863D01*
X164771377Y-166849379D01*
X164790217Y-166610000D01*
X164771377Y-166370621D01*
X164715323Y-166137137D01*
X164623433Y-165915296D01*
X164497972Y-165710561D01*
X164497968Y-165710556D01*
X164342027Y-165527972D01*
X164159443Y-165372031D01*
X164159441Y-165372029D01*
X164159439Y-165372028D01*
X163954704Y-165246567D01*
X163954702Y-165246566D01*
X163732864Y-165154677D01*
X163499379Y-165098622D01*
X163260000Y-165079783D01*
X163020620Y-165098622D01*
X162787135Y-165154677D01*
X162565297Y-165246566D01*
X162360556Y-165372031D01*
X162177972Y-165527972D01*
X162022031Y-165710556D01*
X161896566Y-165915297D01*
X161804677Y-166137135D01*
X161748622Y-166370620D01*
X161729783Y-166609999D01*
X100530217Y-166609999D01*
X100511377Y-166370621D01*
X100455323Y-166137137D01*
X100363433Y-165915296D01*
X100237972Y-165710561D01*
X100237968Y-165710556D01*
X100082027Y-165527972D01*
X99899443Y-165372031D01*
X99899441Y-165372029D01*
X99899439Y-165372028D01*
X99694704Y-165246567D01*
X99694702Y-165246566D01*
X99472864Y-165154677D01*
X99239379Y-165098622D01*
X99017464Y-165081157D01*
X99000000Y-165079783D01*
X98999999Y-165079783D01*
X98760620Y-165098622D01*
X98527135Y-165154677D01*
X98305297Y-165246566D01*
X98100556Y-165372031D01*
X97917972Y-165527972D01*
X97762031Y-165710556D01*
X97636566Y-165915297D01*
X97544677Y-166137135D01*
X97488622Y-166370620D01*
X97469783Y-166610000D01*
X96525500Y-166610000D01*
X96525500Y-162290000D01*
X116381416Y-162290000D01*
X116401718Y-162535013D01*
X116401719Y-162535016D01*
X116462071Y-162773339D01*
X116560828Y-162998487D01*
X116560829Y-162998488D01*
X116695298Y-163204307D01*
X116848580Y-163370816D01*
X116861808Y-163385186D01*
X117055823Y-163536194D01*
X117272043Y-163653206D01*
X117504574Y-163733034D01*
X117747074Y-163773500D01*
X117747077Y-163773500D01*
X117992923Y-163773500D01*
X117992926Y-163773500D01*
X118235426Y-163733034D01*
X118467957Y-163653206D01*
X118684178Y-163536193D01*
X118878191Y-163385187D01*
X119044702Y-163204307D01*
X119179171Y-162998488D01*
X119277928Y-162773342D01*
X119338282Y-162535013D01*
X119358584Y-162290000D01*
X121381416Y-162290000D01*
X121401718Y-162535013D01*
X121401719Y-162535016D01*
X121462071Y-162773339D01*
X121560828Y-162998487D01*
X121560829Y-162998488D01*
X121695298Y-163204307D01*
X121848580Y-163370816D01*
X121861808Y-163385186D01*
X122055823Y-163536194D01*
X122272043Y-163653205D01*
X122272043Y-163653206D01*
X122504574Y-163733034D01*
X122747074Y-163773500D01*
X122747077Y-163773500D01*
X122992923Y-163773500D01*
X122992926Y-163773500D01*
X123235426Y-163733034D01*
X123467957Y-163653206D01*
X123684178Y-163536193D01*
X123878191Y-163385187D01*
X124044702Y-163204307D01*
X124179171Y-162998488D01*
X124277928Y-162773342D01*
X124338282Y-162535013D01*
X124358584Y-162290000D01*
X124338282Y-162044987D01*
X124277928Y-161806658D01*
X124179171Y-161581512D01*
X124044702Y-161375693D01*
X123878191Y-161194813D01*
X123878191Y-161194812D01*
X123684176Y-161043805D01*
X123467956Y-160926793D01*
X123310548Y-160872755D01*
X123235426Y-160846966D01*
X122992926Y-160806500D01*
X122747074Y-160806500D01*
X122504574Y-160846966D01*
X122504571Y-160846966D01*
X122504571Y-160846967D01*
X122272043Y-160926793D01*
X122055823Y-161043805D01*
X121861808Y-161194813D01*
X121695298Y-161375693D01*
X121560828Y-161581512D01*
X121462072Y-161806658D01*
X121401718Y-162044987D01*
X121381416Y-162290000D01*
X119358584Y-162290000D01*
X119338282Y-162044987D01*
X119277928Y-161806658D01*
X119179171Y-161581512D01*
X119044702Y-161375693D01*
X118878191Y-161194813D01*
X118878190Y-161194812D01*
X118684176Y-161043805D01*
X118467956Y-160926793D01*
X118310548Y-160872755D01*
X118235426Y-160846966D01*
X117992926Y-160806500D01*
X117747074Y-160806500D01*
X117504574Y-160846966D01*
X117504571Y-160846966D01*
X117504571Y-160846967D01*
X117272043Y-160926793D01*
X117055823Y-161043805D01*
X116861808Y-161194813D01*
X116695298Y-161375693D01*
X116560828Y-161581512D01*
X116462072Y-161806658D01*
X116401718Y-162044987D01*
X116381416Y-162290000D01*
X96525500Y-162290000D01*
X96525500Y-159803638D01*
X149196500Y-159803638D01*
X149203011Y-159864201D01*
X149207109Y-159875187D01*
X149254111Y-160001205D01*
X149341738Y-160118261D01*
X149458794Y-160205888D01*
X149458795Y-160205888D01*
X149458796Y-160205889D01*
X149595799Y-160256989D01*
X149656362Y-160263500D01*
X149659731Y-160263500D01*
X151700269Y-160263500D01*
X151703638Y-160263500D01*
X151764201Y-160256989D01*
X151901204Y-160205889D01*
X152018261Y-160118261D01*
X152105889Y-160001204D01*
X152156989Y-159864201D01*
X152163500Y-159803638D01*
X152163500Y-158780000D01*
X157391416Y-158780000D01*
X157411718Y-159025013D01*
X157411719Y-159025016D01*
X157472071Y-159263339D01*
X157570828Y-159488487D01*
X157570829Y-159488488D01*
X157705298Y-159694307D01*
X157805944Y-159803638D01*
X157871808Y-159875186D01*
X158065823Y-160026194D01*
X158235949Y-160118261D01*
X158282043Y-160143206D01*
X158514574Y-160223034D01*
X158757074Y-160263500D01*
X158757077Y-160263500D01*
X159002923Y-160263500D01*
X159002926Y-160263500D01*
X159245426Y-160223034D01*
X159477957Y-160143206D01*
X159694178Y-160026193D01*
X159888191Y-159875187D01*
X160054702Y-159694307D01*
X160189171Y-159488488D01*
X160287928Y-159263342D01*
X160348282Y-159025013D01*
X160368584Y-158780000D01*
X160348282Y-158534987D01*
X160287928Y-158296658D01*
X160189171Y-158071512D01*
X160054702Y-157865693D01*
X159888191Y-157684813D01*
X159726284Y-157558796D01*
X159694176Y-157533805D01*
X159477956Y-157416793D01*
X159320548Y-157362755D01*
X159245426Y-157336966D01*
X159002926Y-157296500D01*
X158757074Y-157296500D01*
X158514574Y-157336966D01*
X158514571Y-157336966D01*
X158514571Y-157336967D01*
X158282043Y-157416793D01*
X158065823Y-157533805D01*
X157871808Y-157684813D01*
X157705298Y-157865693D01*
X157570828Y-158071512D01*
X157472072Y-158296658D01*
X157411718Y-158534987D01*
X157391416Y-158780000D01*
X152163500Y-158780000D01*
X152163500Y-157756362D01*
X152156989Y-157695799D01*
X152105889Y-157558796D01*
X152105888Y-157558794D01*
X152018261Y-157441738D01*
X151901205Y-157354111D01*
X151832702Y-157328561D01*
X151764201Y-157303011D01*
X151703638Y-157296500D01*
X149656362Y-157296500D01*
X149653013Y-157296859D01*
X149653013Y-157296860D01*
X149595799Y-157303011D01*
X149458794Y-157354111D01*
X149341738Y-157441738D01*
X149254111Y-157558794D01*
X149207109Y-157684813D01*
X149203011Y-157695799D01*
X149196500Y-157756362D01*
X149196500Y-159803638D01*
X96525500Y-159803638D01*
X96525500Y-155110222D01*
X116387000Y-155110222D01*
X116387359Y-155116936D01*
X116393505Y-155174093D01*
X116444554Y-155310962D01*
X116532095Y-155427904D01*
X116649037Y-155515445D01*
X116785906Y-155566494D01*
X116843063Y-155572640D01*
X116849777Y-155573000D01*
X117616000Y-155573000D01*
X117616000Y-154692111D01*
X117628817Y-154699158D01*
X117787886Y-154740000D01*
X117910894Y-154740000D01*
X118032933Y-154724583D01*
X118123999Y-154688526D01*
X118124000Y-155573000D01*
X118890223Y-155573000D01*
X118896936Y-155572640D01*
X118954093Y-155566494D01*
X119090962Y-155515445D01*
X119207904Y-155427904D01*
X119295445Y-155310962D01*
X119346494Y-155174093D01*
X119352640Y-155116936D01*
X119353000Y-155110222D01*
X119353000Y-154344000D01*
X118468846Y-154344000D01*
X118493100Y-154292457D01*
X118523873Y-154131138D01*
X118521285Y-154090000D01*
X121381416Y-154090000D01*
X121401718Y-154335013D01*
X121401719Y-154335016D01*
X121460616Y-154567595D01*
X121462072Y-154573342D01*
X121488757Y-154634178D01*
X121560828Y-154798487D01*
X121560829Y-154798488D01*
X121695298Y-155004307D01*
X121861809Y-155185187D01*
X121910435Y-155223034D01*
X122055823Y-155336194D01*
X122225289Y-155427904D01*
X122272043Y-155453206D01*
X122504574Y-155533034D01*
X122747074Y-155573500D01*
X122747077Y-155573500D01*
X122992923Y-155573500D01*
X122992926Y-155573500D01*
X123235426Y-155533034D01*
X123467957Y-155453206D01*
X123684178Y-155336193D01*
X123878191Y-155185187D01*
X124044702Y-155004307D01*
X124179171Y-154798488D01*
X124277928Y-154573342D01*
X124338282Y-154335013D01*
X124358584Y-154090000D01*
X124338282Y-153844987D01*
X124321825Y-153780000D01*
X149191917Y-153780000D01*
X149212213Y-154024929D01*
X149272546Y-154263181D01*
X149371271Y-154488252D01*
X149466609Y-154634178D01*
X149466610Y-154634178D01*
X150076065Y-154024723D01*
X150087188Y-154058956D01*
X150175186Y-154197619D01*
X150294903Y-154310040D01*
X150433160Y-154386048D01*
X149825238Y-154993970D01*
X149866093Y-155025771D01*
X150082247Y-155142748D01*
X150314694Y-155222546D01*
X150557118Y-155263000D01*
X150802882Y-155263000D01*
X151045305Y-155222546D01*
X151277752Y-155142748D01*
X151493907Y-155025770D01*
X151534760Y-154993971D01*
X151534761Y-154993970D01*
X150923482Y-154382691D01*
X150995629Y-154354126D01*
X151128492Y-154257595D01*
X151233175Y-154131055D01*
X151283442Y-154024231D01*
X151893389Y-154634178D01*
X151988729Y-154488249D01*
X152087452Y-154263184D01*
X152147786Y-154024929D01*
X152168082Y-153780000D01*
X157391416Y-153780000D01*
X157411718Y-154025013D01*
X157420314Y-154058956D01*
X157470616Y-154257595D01*
X157472072Y-154263342D01*
X157503509Y-154335013D01*
X157570828Y-154488487D01*
X157570829Y-154488488D01*
X157705298Y-154694307D01*
X157801202Y-154798487D01*
X157871808Y-154875186D01*
X158065823Y-155026194D01*
X158221094Y-155110222D01*
X158282043Y-155143206D01*
X158514574Y-155223034D01*
X158757074Y-155263500D01*
X158757077Y-155263500D01*
X159002923Y-155263500D01*
X159002926Y-155263500D01*
X159245426Y-155223034D01*
X159477957Y-155143206D01*
X159694178Y-155026193D01*
X159888191Y-154875187D01*
X160054702Y-154694307D01*
X160189171Y-154488488D01*
X160287928Y-154263342D01*
X160348282Y-154025013D01*
X160368584Y-153780000D01*
X160348282Y-153534987D01*
X160287928Y-153296658D01*
X160189171Y-153071512D01*
X160054702Y-152865693D01*
X159888191Y-152684813D01*
X159805838Y-152620715D01*
X159694176Y-152533805D01*
X159477956Y-152416793D01*
X159298889Y-152355320D01*
X159245426Y-152336966D01*
X159002926Y-152296500D01*
X158757074Y-152296500D01*
X158514574Y-152336966D01*
X158514571Y-152336966D01*
X158514571Y-152336967D01*
X158282043Y-152416793D01*
X158065823Y-152533805D01*
X157871808Y-152684813D01*
X157705298Y-152865693D01*
X157570828Y-153071512D01*
X157472071Y-153296660D01*
X157420314Y-153501044D01*
X157411718Y-153534987D01*
X157391416Y-153780000D01*
X152168082Y-153780000D01*
X152147786Y-153535070D01*
X152087452Y-153296815D01*
X151988729Y-153071750D01*
X151893388Y-152925820D01*
X151283934Y-153535274D01*
X151272812Y-153501044D01*
X151184814Y-153362381D01*
X151065097Y-153249960D01*
X150926838Y-153173951D01*
X151534761Y-152566028D01*
X151534760Y-152566027D01*
X151493908Y-152534230D01*
X151277752Y-152417251D01*
X151045305Y-152337453D01*
X150802882Y-152297000D01*
X150557118Y-152297000D01*
X150314694Y-152337453D01*
X150082247Y-152417251D01*
X149866094Y-152534228D01*
X149825238Y-152566028D01*
X149825238Y-152566029D01*
X150436517Y-153177308D01*
X150364371Y-153205874D01*
X150231508Y-153302405D01*
X150126825Y-153428945D01*
X150076558Y-153535767D01*
X149466610Y-152925819D01*
X149466609Y-152925820D01*
X149371271Y-153071747D01*
X149272546Y-153296818D01*
X149212213Y-153535070D01*
X149191917Y-153780000D01*
X124321825Y-153780000D01*
X124277928Y-153606658D01*
X124179171Y-153381512D01*
X124044702Y-153175693D01*
X123878191Y-152994813D01*
X123789549Y-152925820D01*
X123684176Y-152843805D01*
X123467956Y-152726793D01*
X123286658Y-152664554D01*
X123235426Y-152646966D01*
X122992926Y-152606500D01*
X122747074Y-152606500D01*
X122504574Y-152646966D01*
X122504571Y-152646966D01*
X122504571Y-152646967D01*
X122272043Y-152726793D01*
X122055823Y-152843805D01*
X121861808Y-152994813D01*
X121695298Y-153175693D01*
X121560828Y-153381512D01*
X121462071Y-153606660D01*
X121449264Y-153657234D01*
X121401718Y-153844987D01*
X121381416Y-154090000D01*
X118521285Y-154090000D01*
X118513561Y-153967234D01*
X118470921Y-153836000D01*
X119353000Y-153836000D01*
X119353000Y-153069777D01*
X119352640Y-153063063D01*
X119346494Y-153005906D01*
X119295445Y-152869037D01*
X119207904Y-152752095D01*
X119090962Y-152664554D01*
X118954093Y-152613505D01*
X118896936Y-152607359D01*
X118890223Y-152607000D01*
X118124000Y-152607000D01*
X118123999Y-153487888D01*
X118111183Y-153480842D01*
X117952114Y-153440000D01*
X117829106Y-153440000D01*
X117707067Y-153455417D01*
X117616000Y-153491473D01*
X117616000Y-152607000D01*
X116849777Y-152607000D01*
X116843063Y-152607359D01*
X116785906Y-152613505D01*
X116649037Y-152664554D01*
X116532095Y-152752095D01*
X116444554Y-152869037D01*
X116393505Y-153005906D01*
X116387359Y-153063063D01*
X116387000Y-153069777D01*
X116387000Y-153836000D01*
X117271154Y-153836000D01*
X117246900Y-153887543D01*
X117216127Y-154048862D01*
X117226439Y-154212766D01*
X117269079Y-154344000D01*
X116387000Y-154344000D01*
X116387000Y-155110222D01*
X96525500Y-155110222D01*
X96525500Y-150340000D01*
X99956693Y-150340000D01*
X99975885Y-150559375D01*
X100032879Y-150772074D01*
X100125943Y-150971653D01*
X100252253Y-151152041D01*
X100407958Y-151307746D01*
X100407961Y-151307748D01*
X100407962Y-151307749D01*
X100588346Y-151434056D01*
X100678470Y-151476081D01*
X100731754Y-151522996D01*
X100751216Y-151591273D01*
X100730675Y-151659233D01*
X100678471Y-151704469D01*
X100588598Y-151746378D01*
X100528011Y-151788801D01*
X101092412Y-152353202D01*
X101077685Y-152355320D01*
X100946900Y-152415048D01*
X100838239Y-152509202D01*
X100760507Y-152630156D01*
X100735639Y-152714849D01*
X100168801Y-152148011D01*
X100126378Y-152208598D01*
X100033351Y-152408092D01*
X99976380Y-152620715D01*
X99957195Y-152839999D01*
X99976380Y-153059284D01*
X100033350Y-153271905D01*
X100126379Y-153471403D01*
X100168801Y-153531986D01*
X100735638Y-152965149D01*
X100760507Y-153049844D01*
X100838239Y-153170798D01*
X100946900Y-153264952D01*
X101077685Y-153324680D01*
X101092411Y-153326797D01*
X100528012Y-153891196D01*
X100528012Y-153891198D01*
X100588595Y-153933620D01*
X100788094Y-154026649D01*
X101000715Y-154083619D01*
X101220000Y-154102804D01*
X101439284Y-154083619D01*
X101651904Y-154026649D01*
X101851405Y-153933619D01*
X101911986Y-153891198D01*
X101911986Y-153891197D01*
X101347587Y-153326797D01*
X101362315Y-153324680D01*
X101493100Y-153264952D01*
X101601761Y-153170798D01*
X101679493Y-153049844D01*
X101704361Y-152965150D01*
X102271197Y-153531986D01*
X102271198Y-153531986D01*
X102313619Y-153471405D01*
X102406649Y-153271904D01*
X102463619Y-153059284D01*
X102482804Y-152840000D01*
X102463619Y-152620715D01*
X102406649Y-152408095D01*
X102313620Y-152208597D01*
X102271198Y-152148012D01*
X102271196Y-152148012D01*
X101704360Y-152714848D01*
X101679493Y-152630156D01*
X101601761Y-152509202D01*
X101493100Y-152415048D01*
X101362315Y-152355320D01*
X101347586Y-152353202D01*
X101911986Y-151788801D01*
X101911986Y-151788800D01*
X101851401Y-151746377D01*
X101761529Y-151704469D01*
X101708245Y-151657552D01*
X101688784Y-151589275D01*
X101709326Y-151521315D01*
X101761529Y-151476081D01*
X101851654Y-151434056D01*
X102032038Y-151307749D01*
X102187749Y-151152038D01*
X102314056Y-150971654D01*
X102407120Y-150772076D01*
X102464115Y-150559371D01*
X102483307Y-150340000D01*
X102464115Y-150120629D01*
X102407120Y-149907924D01*
X102314056Y-149708347D01*
X102187749Y-149527962D01*
X102187748Y-149527961D01*
X102181426Y-149518932D01*
X102183972Y-149517148D01*
X102158410Y-149470336D01*
X102163475Y-149399521D01*
X102192434Y-149354460D01*
X102511490Y-149035404D01*
X102573803Y-149001379D01*
X102600586Y-148998500D01*
X104620495Y-148998500D01*
X104641980Y-149000871D01*
X104644640Y-149000787D01*
X104644643Y-149000788D01*
X104715475Y-148998561D01*
X104719433Y-148998500D01*
X104744582Y-148998500D01*
X104748538Y-148998500D01*
X104752937Y-148997943D01*
X104764770Y-148997012D01*
X104810937Y-148995562D01*
X104822518Y-148992196D01*
X104831524Y-148989581D01*
X104850886Y-148985570D01*
X104872170Y-148982882D01*
X104915138Y-148965869D01*
X104926337Y-148962035D01*
X104970706Y-148949145D01*
X104989170Y-148938224D01*
X105006913Y-148929532D01*
X105026862Y-148921635D01*
X105064254Y-148894466D01*
X105074131Y-148887978D01*
X105113913Y-148864453D01*
X105129080Y-148849285D01*
X105144112Y-148836447D01*
X105161460Y-148823843D01*
X105161459Y-148823843D01*
X105161463Y-148823841D01*
X105190918Y-148788233D01*
X105198887Y-148779477D01*
X107614387Y-146363977D01*
X107631251Y-146350468D01*
X107633076Y-146348524D01*
X107633080Y-146348522D01*
X107675227Y-146303638D01*
X149206500Y-146303638D01*
X149213011Y-146364201D01*
X149217109Y-146375187D01*
X149264111Y-146501205D01*
X149351738Y-146618261D01*
X149468794Y-146705888D01*
X149468795Y-146705888D01*
X149468796Y-146705889D01*
X149605799Y-146756989D01*
X149666362Y-146763500D01*
X149669731Y-146763500D01*
X151710269Y-146763500D01*
X151713638Y-146763500D01*
X151774201Y-146756989D01*
X151911204Y-146705889D01*
X152028261Y-146618261D01*
X152115889Y-146501204D01*
X152166989Y-146364201D01*
X152173500Y-146303638D01*
X152173500Y-145280000D01*
X157401416Y-145280000D01*
X157421718Y-145525013D01*
X157421719Y-145525016D01*
X157482071Y-145763339D01*
X157580828Y-145988487D01*
X157580829Y-145988488D01*
X157715298Y-146194307D01*
X157857262Y-146348522D01*
X157881808Y-146375186D01*
X158075823Y-146526194D01*
X158182852Y-146584115D01*
X158292043Y-146643206D01*
X158524574Y-146723034D01*
X158767074Y-146763500D01*
X158767077Y-146763500D01*
X159012923Y-146763500D01*
X159012926Y-146763500D01*
X159255426Y-146723034D01*
X159487957Y-146643206D01*
X159704178Y-146526193D01*
X159898191Y-146375187D01*
X160064702Y-146194307D01*
X160199171Y-145988488D01*
X160297928Y-145763342D01*
X160358282Y-145525013D01*
X160378584Y-145280000D01*
X160358282Y-145034987D01*
X160297928Y-144796658D01*
X160199171Y-144571512D01*
X160064702Y-144365693D01*
X159898191Y-144184813D01*
X159736284Y-144058796D01*
X159704176Y-144033805D01*
X159487956Y-143916793D01*
X159330548Y-143862755D01*
X159255426Y-143836966D01*
X159012926Y-143796500D01*
X158767074Y-143796500D01*
X158524574Y-143836966D01*
X158524571Y-143836966D01*
X158524571Y-143836967D01*
X158292043Y-143916793D01*
X158075823Y-144033805D01*
X157881808Y-144184813D01*
X157715298Y-144365693D01*
X157580828Y-144571512D01*
X157520808Y-144708347D01*
X157482072Y-144796658D01*
X157421718Y-145034987D01*
X157401416Y-145280000D01*
X152173500Y-145280000D01*
X152173500Y-144256362D01*
X152166989Y-144195799D01*
X152115889Y-144058796D01*
X152115888Y-144058794D01*
X152028261Y-143941738D01*
X151911205Y-143854111D01*
X151842702Y-143828561D01*
X151774201Y-143803011D01*
X151713638Y-143796500D01*
X149666362Y-143796500D01*
X149663013Y-143796859D01*
X149663013Y-143796860D01*
X149605799Y-143803011D01*
X149468794Y-143854111D01*
X149351738Y-143941738D01*
X149264111Y-144058794D01*
X149250277Y-144095885D01*
X149213011Y-144195799D01*
X149206500Y-144256362D01*
X149206500Y-146303638D01*
X107675227Y-146303638D01*
X107681636Y-146296813D01*
X107684298Y-146294066D01*
X107704927Y-146273439D01*
X107707644Y-146269935D01*
X107715345Y-146260917D01*
X107746972Y-146227239D01*
X107757303Y-146208445D01*
X107768159Y-146191920D01*
X107781304Y-146174974D01*
X107799652Y-146132571D01*
X107804877Y-146121909D01*
X107827122Y-146081446D01*
X107827124Y-146081443D01*
X107832458Y-146060664D01*
X107838856Y-146041975D01*
X107847380Y-146022282D01*
X107854609Y-145976627D01*
X107857010Y-145965038D01*
X107868500Y-145920294D01*
X107868500Y-145898846D01*
X107870051Y-145879136D01*
X107873406Y-145857954D01*
X107869056Y-145811943D01*
X107868500Y-145800129D01*
X107868500Y-140649999D01*
X117029049Y-140649999D01*
X117048813Y-140875908D01*
X117107505Y-141094951D01*
X117203343Y-141300476D01*
X117333416Y-141486238D01*
X117493761Y-141646583D01*
X117493764Y-141646585D01*
X117493765Y-141646586D01*
X117679524Y-141776657D01*
X117789210Y-141827804D01*
X117885048Y-141872494D01*
X117943740Y-141888220D01*
X118104092Y-141931187D01*
X118330000Y-141950951D01*
X118555908Y-141931187D01*
X118774951Y-141872494D01*
X118980476Y-141776657D01*
X119166235Y-141646586D01*
X119326586Y-141486235D01*
X119456657Y-141300476D01*
X119486081Y-141237373D01*
X119532996Y-141184091D01*
X119601273Y-141164629D01*
X119669233Y-141185170D01*
X119714469Y-141237374D01*
X119743776Y-141300222D01*
X119791875Y-141368913D01*
X120364237Y-140796550D01*
X120370662Y-140827465D01*
X120437058Y-140955604D01*
X120535564Y-141061077D01*
X120658873Y-141136063D01*
X120724702Y-141154507D01*
X120151085Y-141728123D01*
X120219777Y-141776222D01*
X120425219Y-141872022D01*
X120644178Y-141930691D01*
X120869999Y-141950448D01*
X121095821Y-141930691D01*
X121314780Y-141872022D01*
X121520226Y-141776221D01*
X121588913Y-141728124D01*
X121588913Y-141728122D01*
X121018622Y-141157831D01*
X121145346Y-141102788D01*
X121257296Y-141011709D01*
X121340522Y-140893805D01*
X121375263Y-140796054D01*
X121948122Y-141368913D01*
X121948124Y-141368913D01*
X121996222Y-141300224D01*
X122025529Y-141237376D01*
X122072446Y-141184090D01*
X122140723Y-141164629D01*
X122208683Y-141185171D01*
X122253919Y-141237376D01*
X122283342Y-141300475D01*
X122413416Y-141486238D01*
X122573761Y-141646583D01*
X122573764Y-141646585D01*
X122573765Y-141646586D01*
X122759524Y-141776657D01*
X122869210Y-141827804D01*
X122965048Y-141872494D01*
X123023740Y-141888220D01*
X123184092Y-141931187D01*
X123410000Y-141950951D01*
X123635908Y-141931187D01*
X123854951Y-141872494D01*
X124060476Y-141776657D01*
X124246235Y-141646586D01*
X124406586Y-141486235D01*
X124536657Y-141300476D01*
X124632494Y-141094951D01*
X124691187Y-140875908D01*
X124710951Y-140650000D01*
X124691187Y-140424092D01*
X124652577Y-140279999D01*
X149201917Y-140279999D01*
X149222213Y-140524929D01*
X149282546Y-140763181D01*
X149381271Y-140988252D01*
X149476609Y-141134178D01*
X149476610Y-141134178D01*
X150086065Y-140524723D01*
X150097188Y-140558956D01*
X150185186Y-140697619D01*
X150304903Y-140810040D01*
X150443160Y-140886048D01*
X149835238Y-141493970D01*
X149876093Y-141525771D01*
X150092247Y-141642748D01*
X150324694Y-141722546D01*
X150567118Y-141763000D01*
X150812882Y-141763000D01*
X151055305Y-141722546D01*
X151287752Y-141642748D01*
X151503907Y-141525770D01*
X151544760Y-141493971D01*
X151544761Y-141493970D01*
X150933482Y-140882691D01*
X151005629Y-140854126D01*
X151138492Y-140757595D01*
X151243175Y-140631055D01*
X151293442Y-140524231D01*
X151903389Y-141134178D01*
X151998729Y-140988249D01*
X152097452Y-140763184D01*
X152157786Y-140524929D01*
X152178082Y-140280000D01*
X157401416Y-140280000D01*
X157421718Y-140525013D01*
X157444211Y-140613836D01*
X157480616Y-140757595D01*
X157482072Y-140763342D01*
X157506924Y-140819999D01*
X157580828Y-140988487D01*
X157580829Y-140988488D01*
X157715298Y-141194307D01*
X157812801Y-141300224D01*
X157881808Y-141375186D01*
X158075823Y-141526194D01*
X158291197Y-141642748D01*
X158292043Y-141643206D01*
X158524574Y-141723034D01*
X158767074Y-141763500D01*
X158767077Y-141763500D01*
X159012923Y-141763500D01*
X159012926Y-141763500D01*
X159255426Y-141723034D01*
X159487957Y-141643206D01*
X159704178Y-141526193D01*
X159898191Y-141375187D01*
X160064702Y-141194307D01*
X160199171Y-140988488D01*
X160297928Y-140763342D01*
X160358282Y-140525013D01*
X160378584Y-140280000D01*
X160358282Y-140034987D01*
X160297928Y-139796658D01*
X160199171Y-139571512D01*
X160064702Y-139365693D01*
X159898191Y-139184813D01*
X159898190Y-139184812D01*
X159704176Y-139033805D01*
X159487956Y-138916793D01*
X159330548Y-138862755D01*
X159255426Y-138836966D01*
X159012926Y-138796500D01*
X158767074Y-138796500D01*
X158524574Y-138836966D01*
X158524571Y-138836966D01*
X158524571Y-138836967D01*
X158292043Y-138916793D01*
X158075823Y-139033805D01*
X157881808Y-139184813D01*
X157715298Y-139365693D01*
X157580828Y-139571512D01*
X157482071Y-139796660D01*
X157430635Y-139999774D01*
X157421718Y-140034987D01*
X157401416Y-140280000D01*
X152178082Y-140280000D01*
X152178082Y-140279999D01*
X152157786Y-140035070D01*
X152097452Y-139796815D01*
X151998729Y-139571750D01*
X151903388Y-139425820D01*
X151293934Y-140035274D01*
X151282812Y-140001044D01*
X151194814Y-139862381D01*
X151075097Y-139749960D01*
X150936838Y-139673951D01*
X151544761Y-139066028D01*
X151544760Y-139066027D01*
X151503908Y-139034230D01*
X151287752Y-138917251D01*
X151055305Y-138837453D01*
X150812882Y-138797000D01*
X150567118Y-138797000D01*
X150324694Y-138837453D01*
X150092247Y-138917251D01*
X149876094Y-139034228D01*
X149835238Y-139066028D01*
X149835238Y-139066029D01*
X150446517Y-139677308D01*
X150374371Y-139705874D01*
X150241508Y-139802405D01*
X150136825Y-139928945D01*
X150086558Y-140035767D01*
X149476610Y-139425819D01*
X149476609Y-139425820D01*
X149381271Y-139571747D01*
X149282546Y-139796818D01*
X149222213Y-140035070D01*
X149201917Y-140279999D01*
X124652577Y-140279999D01*
X124632494Y-140205049D01*
X124536657Y-139999525D01*
X124406586Y-139813765D01*
X124406585Y-139813764D01*
X124406583Y-139813761D01*
X124246238Y-139653416D01*
X124060476Y-139523343D01*
X123854951Y-139427505D01*
X123635908Y-139368813D01*
X123410000Y-139349049D01*
X123409999Y-139349049D01*
X123184091Y-139368813D01*
X122965049Y-139427505D01*
X122759524Y-139523343D01*
X122573761Y-139653416D01*
X122413416Y-139813761D01*
X122283343Y-139999524D01*
X122253919Y-140062625D01*
X122207002Y-140115910D01*
X122138724Y-140135371D01*
X122070764Y-140114829D01*
X122025529Y-140062625D01*
X121996221Y-139999774D01*
X121948124Y-139931085D01*
X121948123Y-139931085D01*
X121375761Y-140503447D01*
X121369338Y-140472535D01*
X121302942Y-140344396D01*
X121204436Y-140238923D01*
X121081127Y-140163937D01*
X121015297Y-140145492D01*
X121588913Y-139571875D01*
X121588913Y-139571874D01*
X121520225Y-139523778D01*
X121314780Y-139427977D01*
X121095821Y-139369308D01*
X120870000Y-139349551D01*
X120644178Y-139369308D01*
X120425220Y-139427977D01*
X120219773Y-139523779D01*
X120151084Y-139571875D01*
X120721377Y-140142168D01*
X120594654Y-140197212D01*
X120482704Y-140288291D01*
X120399478Y-140406195D01*
X120364736Y-140503945D01*
X119791875Y-139931084D01*
X119743779Y-139999773D01*
X119714471Y-140062626D01*
X119667554Y-140115911D01*
X119599276Y-140135372D01*
X119531316Y-140114830D01*
X119486081Y-140062625D01*
X119456657Y-139999525D01*
X119326583Y-139813761D01*
X119166238Y-139653416D01*
X118980476Y-139523343D01*
X118774951Y-139427505D01*
X118555908Y-139368813D01*
X118330000Y-139349049D01*
X118329999Y-139349049D01*
X118104091Y-139368813D01*
X117885049Y-139427505D01*
X117679524Y-139523343D01*
X117493761Y-139653416D01*
X117333416Y-139813761D01*
X117203343Y-139999524D01*
X117107505Y-140205049D01*
X117048813Y-140424091D01*
X117029049Y-140649999D01*
X107868500Y-140649999D01*
X107868500Y-132793638D01*
X149186500Y-132793638D01*
X149193011Y-132854201D01*
X149197109Y-132865187D01*
X149244111Y-132991205D01*
X149331738Y-133108261D01*
X149448794Y-133195888D01*
X149448795Y-133195888D01*
X149448796Y-133195889D01*
X149585799Y-133246989D01*
X149646362Y-133253500D01*
X149649731Y-133253500D01*
X151690269Y-133253500D01*
X151693638Y-133253500D01*
X151754201Y-133246989D01*
X151891204Y-133195889D01*
X152008261Y-133108261D01*
X152095889Y-132991204D01*
X152146989Y-132854201D01*
X152153500Y-132793638D01*
X152153500Y-131770000D01*
X157381416Y-131770000D01*
X157401718Y-132015013D01*
X157401719Y-132015016D01*
X157462071Y-132253339D01*
X157560828Y-132478487D01*
X157601996Y-132541498D01*
X157695298Y-132684307D01*
X157795944Y-132793638D01*
X157861808Y-132865186D01*
X158055823Y-133016194D01*
X158211837Y-133100624D01*
X158272043Y-133133206D01*
X158504574Y-133213034D01*
X158747074Y-133253500D01*
X158747077Y-133253500D01*
X158992923Y-133253500D01*
X158992926Y-133253500D01*
X159235426Y-133213034D01*
X159467957Y-133133206D01*
X159684178Y-133016193D01*
X159878191Y-132865187D01*
X160044702Y-132684307D01*
X160179171Y-132478488D01*
X160277928Y-132253342D01*
X160338282Y-132015013D01*
X160358584Y-131770000D01*
X160338282Y-131524987D01*
X160277928Y-131286658D01*
X160179171Y-131061512D01*
X160044702Y-130855693D01*
X159878191Y-130674813D01*
X159716284Y-130548796D01*
X159684176Y-130523805D01*
X159467956Y-130406793D01*
X159310548Y-130352755D01*
X159235426Y-130326966D01*
X158992926Y-130286500D01*
X158747074Y-130286500D01*
X158504574Y-130326966D01*
X158504571Y-130326966D01*
X158504571Y-130326967D01*
X158272043Y-130406793D01*
X158055823Y-130523805D01*
X157861808Y-130674813D01*
X157695298Y-130855693D01*
X157560828Y-131061512D01*
X157462072Y-131286658D01*
X157401718Y-131524987D01*
X157381416Y-131770000D01*
X152153500Y-131770000D01*
X152153500Y-130746362D01*
X152146989Y-130685799D01*
X152095889Y-130548796D01*
X152095888Y-130548794D01*
X152008261Y-130431738D01*
X151891205Y-130344111D01*
X151822702Y-130318561D01*
X151754201Y-130293011D01*
X151693638Y-130286500D01*
X149646362Y-130286500D01*
X149643013Y-130286859D01*
X149643013Y-130286860D01*
X149585799Y-130293011D01*
X149448794Y-130344111D01*
X149331738Y-130431738D01*
X149244111Y-130548794D01*
X149197109Y-130674813D01*
X149193011Y-130685799D01*
X149186500Y-130746362D01*
X149186500Y-132793638D01*
X107868500Y-132793638D01*
X107868500Y-126770000D01*
X149181917Y-126770000D01*
X149202213Y-127014929D01*
X149262546Y-127253181D01*
X149361271Y-127478252D01*
X149456609Y-127624178D01*
X149456610Y-127624179D01*
X150066065Y-127014724D01*
X150077188Y-127048956D01*
X150165186Y-127187619D01*
X150284903Y-127300040D01*
X150423160Y-127376048D01*
X149815238Y-127983970D01*
X149856093Y-128015771D01*
X150072247Y-128132748D01*
X150304694Y-128212546D01*
X150547118Y-128253000D01*
X150792882Y-128253000D01*
X151035305Y-128212546D01*
X151267752Y-128132748D01*
X151483907Y-128015770D01*
X151524760Y-127983971D01*
X151524761Y-127983970D01*
X150913482Y-127372691D01*
X150985629Y-127344126D01*
X151118492Y-127247595D01*
X151223175Y-127121055D01*
X151273442Y-127014231D01*
X151883388Y-127624178D01*
X151883389Y-127624178D01*
X151978729Y-127478249D01*
X152077452Y-127253184D01*
X152137786Y-127014929D01*
X152158082Y-126770000D01*
X157381416Y-126770000D01*
X157401718Y-127015013D01*
X157401719Y-127015016D01*
X157460616Y-127247595D01*
X157462072Y-127253342D01*
X157497633Y-127334415D01*
X157560828Y-127478487D01*
X157560829Y-127478488D01*
X157695298Y-127684307D01*
X157848580Y-127850816D01*
X157861808Y-127865186D01*
X158055823Y-128016194D01*
X158271197Y-128132748D01*
X158272043Y-128133206D01*
X158504574Y-128213034D01*
X158747074Y-128253500D01*
X158747077Y-128253500D01*
X158992923Y-128253500D01*
X158992926Y-128253500D01*
X159235426Y-128213034D01*
X159467957Y-128133206D01*
X159684178Y-128016193D01*
X159878191Y-127865187D01*
X160044702Y-127684307D01*
X160179171Y-127478488D01*
X160277928Y-127253342D01*
X160338282Y-127015013D01*
X160358584Y-126770000D01*
X160338282Y-126524987D01*
X160277928Y-126286658D01*
X160179171Y-126061512D01*
X160044702Y-125855693D01*
X159878191Y-125674813D01*
X159725576Y-125556028D01*
X159684176Y-125523805D01*
X159467956Y-125406793D01*
X159310548Y-125352755D01*
X159235426Y-125326966D01*
X158992926Y-125286500D01*
X158747074Y-125286500D01*
X158504574Y-125326966D01*
X158504571Y-125326966D01*
X158504571Y-125326967D01*
X158272043Y-125406793D01*
X158055823Y-125523805D01*
X157861808Y-125674813D01*
X157695298Y-125855693D01*
X157560828Y-126061512D01*
X157462071Y-126286660D01*
X157417476Y-126462760D01*
X157401718Y-126524987D01*
X157381416Y-126770000D01*
X152158082Y-126770000D01*
X152158082Y-126769999D01*
X152137786Y-126525070D01*
X152077452Y-126286815D01*
X151978729Y-126061750D01*
X151883388Y-125915820D01*
X151273933Y-126525274D01*
X151262812Y-126491044D01*
X151174814Y-126352381D01*
X151055097Y-126239960D01*
X150916838Y-126163951D01*
X151524761Y-125556028D01*
X151524760Y-125556027D01*
X151483908Y-125524230D01*
X151267752Y-125407251D01*
X151035305Y-125327453D01*
X150792882Y-125287000D01*
X150547118Y-125287000D01*
X150304694Y-125327453D01*
X150072247Y-125407251D01*
X149856094Y-125524228D01*
X149815238Y-125556028D01*
X150426519Y-126167308D01*
X150354371Y-126195874D01*
X150221508Y-126292405D01*
X150116825Y-126418945D01*
X150066558Y-126525767D01*
X149456610Y-125915820D01*
X149456609Y-125915820D01*
X149361271Y-126061747D01*
X149262546Y-126286818D01*
X149202213Y-126525070D01*
X149181917Y-126770000D01*
X107868500Y-126770000D01*
X107868500Y-126514949D01*
X107888502Y-126446829D01*
X107905405Y-126425855D01*
X109435855Y-124895405D01*
X109498167Y-124861379D01*
X109524950Y-124858500D01*
X126307373Y-124858500D01*
X126375494Y-124878502D01*
X126381435Y-124882564D01*
X126440954Y-124925808D01*
X126601016Y-124997072D01*
X126772396Y-125033500D01*
X126772398Y-125033500D01*
X126947602Y-125033500D01*
X126947604Y-125033500D01*
X127118984Y-124997072D01*
X127279046Y-124925808D01*
X127420792Y-124822823D01*
X127538030Y-124692618D01*
X127625634Y-124540882D01*
X127679777Y-124374249D01*
X127698091Y-124200000D01*
X127679777Y-124025751D01*
X127625634Y-123859118D01*
X127625633Y-123859117D01*
X127625633Y-123859115D01*
X127538032Y-123707385D01*
X127538031Y-123707384D01*
X127538030Y-123707382D01*
X127420792Y-123577177D01*
X127279046Y-123474192D01*
X127118984Y-123402928D01*
X127118980Y-123402926D01*
X126977526Y-123372859D01*
X126915052Y-123339131D01*
X126886529Y-123287481D01*
X126883869Y-123288346D01*
X126825633Y-123109115D01*
X126738032Y-122957385D01*
X126738031Y-122957384D01*
X126738030Y-122957382D01*
X126620792Y-122827177D01*
X126593183Y-122807118D01*
X126479047Y-122724193D01*
X126479046Y-122724192D01*
X126318984Y-122652928D01*
X126147604Y-122616500D01*
X125972396Y-122616500D01*
X125858142Y-122640785D01*
X125801015Y-122652928D01*
X125640954Y-122724192D01*
X125581433Y-122767437D01*
X125514565Y-122791295D01*
X125507373Y-122791500D01*
X109286614Y-122791500D01*
X109265125Y-122789127D01*
X109191612Y-122791438D01*
X109187654Y-122791500D01*
X109158568Y-122791500D01*
X109154640Y-122791996D01*
X109154625Y-122791997D01*
X109154153Y-122792057D01*
X109142341Y-122792986D01*
X109096166Y-122794437D01*
X109075573Y-122800420D01*
X109056222Y-122804428D01*
X109034934Y-122807118D01*
X108991974Y-122824126D01*
X108980749Y-122827969D01*
X108936400Y-122840854D01*
X108917938Y-122851772D01*
X108900190Y-122860466D01*
X108880246Y-122868363D01*
X108842873Y-122895516D01*
X108832953Y-122902033D01*
X108793191Y-122925548D01*
X108778023Y-122940716D01*
X108762996Y-122953550D01*
X108745643Y-122966158D01*
X108716191Y-123001758D01*
X108708204Y-123010534D01*
X106305611Y-125413127D01*
X106288742Y-125426643D01*
X106238393Y-125480258D01*
X106235644Y-125483095D01*
X106215073Y-125503667D01*
X106212655Y-125506783D01*
X106212631Y-125506811D01*
X106212336Y-125507193D01*
X106204648Y-125516193D01*
X106173027Y-125549868D01*
X106162690Y-125568668D01*
X106151844Y-125585179D01*
X106138695Y-125602131D01*
X106120350Y-125644524D01*
X106115130Y-125655179D01*
X106092876Y-125695660D01*
X106087542Y-125716435D01*
X106081139Y-125735135D01*
X106072620Y-125754820D01*
X106065393Y-125800452D01*
X106062986Y-125812073D01*
X106051500Y-125856811D01*
X106051500Y-125878257D01*
X106049949Y-125897967D01*
X106046593Y-125919151D01*
X106050941Y-125965138D01*
X106051500Y-125976996D01*
X106051500Y-145305049D01*
X106031498Y-145373170D01*
X106014595Y-145394144D01*
X104563595Y-146845144D01*
X104501283Y-146879170D01*
X104430468Y-146874105D01*
X104373632Y-146831558D01*
X104348821Y-146765038D01*
X104348500Y-146756049D01*
X104348500Y-144617255D01*
X104368502Y-144549134D01*
X104422158Y-144502641D01*
X104492432Y-144492537D01*
X104500675Y-144494004D01*
X104592396Y-144513500D01*
X104592398Y-144513500D01*
X104767602Y-144513500D01*
X104767604Y-144513500D01*
X104938984Y-144477072D01*
X105099046Y-144405808D01*
X105240792Y-144302823D01*
X105358030Y-144172618D01*
X105445634Y-144020882D01*
X105499777Y-143854249D01*
X105518091Y-143680000D01*
X105499777Y-143505751D01*
X105445634Y-143339118D01*
X105425379Y-143304035D01*
X105408500Y-143241040D01*
X105408500Y-134204434D01*
X105409831Y-134186172D01*
X105409859Y-134185977D01*
X105413341Y-134162211D01*
X105408979Y-134112351D01*
X105408500Y-134101371D01*
X105408500Y-134099487D01*
X105408500Y-134095820D01*
X105404862Y-134064705D01*
X105404492Y-134061078D01*
X105397770Y-133984241D01*
X105393539Y-133965151D01*
X105393079Y-133963887D01*
X105367130Y-133892593D01*
X105365973Y-133889263D01*
X105342114Y-133817262D01*
X105342113Y-133817261D01*
X105341693Y-133815992D01*
X105333170Y-133798386D01*
X105302711Y-133752076D01*
X105290756Y-133733900D01*
X105288812Y-133730846D01*
X105248330Y-133665213D01*
X105235964Y-133650034D01*
X105179825Y-133597069D01*
X105177197Y-133594516D01*
X104411909Y-132829228D01*
X104399937Y-132815375D01*
X104385470Y-132795943D01*
X104347127Y-132763769D01*
X104339024Y-132756343D01*
X104337694Y-132755013D01*
X104335101Y-132752420D01*
X104332235Y-132750153D01*
X104332224Y-132750144D01*
X104310530Y-132732991D01*
X104307708Y-132730692D01*
X104249640Y-132681968D01*
X104249639Y-132681967D01*
X104248621Y-132681113D01*
X104232110Y-132670594D01*
X104162205Y-132637996D01*
X104158909Y-132636401D01*
X104089996Y-132601792D01*
X104071504Y-132595365D01*
X103995942Y-132579762D01*
X103992367Y-132578969D01*
X103917356Y-132561191D01*
X103897885Y-132559202D01*
X103820741Y-132561447D01*
X103817077Y-132561500D01*
X102300828Y-132561500D01*
X102232707Y-132541498D01*
X102205729Y-132515570D01*
X102205544Y-132515756D01*
X102042041Y-132352253D01*
X101861653Y-132225943D01*
X101662074Y-132132879D01*
X101449375Y-132075885D01*
X101230000Y-132056693D01*
X101010624Y-132075885D01*
X100797925Y-132132879D01*
X100598347Y-132225943D01*
X100417958Y-132352253D01*
X100262253Y-132507958D01*
X100135943Y-132688347D01*
X100042879Y-132887925D01*
X99985885Y-133100624D01*
X99966693Y-133320000D01*
X99985885Y-133539375D01*
X100042879Y-133752074D01*
X100135943Y-133951653D01*
X100262253Y-134132041D01*
X100417958Y-134287746D01*
X100598346Y-134414056D01*
X100687878Y-134455805D01*
X100741164Y-134502722D01*
X100760625Y-134570999D01*
X100740084Y-134638959D01*
X100687879Y-134684194D01*
X100664474Y-134695108D01*
X100598345Y-134725944D01*
X100417958Y-134852253D01*
X100262253Y-135007958D01*
X100135943Y-135188347D01*
X100042879Y-135387925D01*
X99985885Y-135600624D01*
X99966693Y-135820000D01*
X99985885Y-136039375D01*
X100042879Y-136252074D01*
X100135943Y-136451653D01*
X100262253Y-136632041D01*
X100417958Y-136787746D01*
X100417961Y-136787748D01*
X100417962Y-136787749D01*
X100598346Y-136914056D01*
X100687873Y-136955803D01*
X100687878Y-136955805D01*
X100741164Y-137002722D01*
X100760625Y-137070999D01*
X100740084Y-137138959D01*
X100687879Y-137184194D01*
X100664474Y-137195108D01*
X100598345Y-137225944D01*
X100417958Y-137352253D01*
X100262253Y-137507958D01*
X100135943Y-137688347D01*
X100042879Y-137887925D01*
X99985885Y-138100624D01*
X99966693Y-138320000D01*
X99985885Y-138539375D01*
X100042879Y-138752074D01*
X100135943Y-138951653D01*
X100262253Y-139132041D01*
X100417958Y-139287746D01*
X100417961Y-139287748D01*
X100417962Y-139287749D01*
X100598346Y-139414056D01*
X100688470Y-139456081D01*
X100741754Y-139502996D01*
X100761216Y-139571273D01*
X100740675Y-139639233D01*
X100688471Y-139684469D01*
X100598598Y-139726378D01*
X100538011Y-139768801D01*
X101102412Y-140333202D01*
X101087685Y-140335320D01*
X100956900Y-140395048D01*
X100848239Y-140489202D01*
X100770507Y-140610156D01*
X100745639Y-140694849D01*
X100178801Y-140128011D01*
X100136378Y-140188598D01*
X100043351Y-140388092D01*
X99986380Y-140600715D01*
X99967195Y-140820000D01*
X99986380Y-141039284D01*
X100043350Y-141251905D01*
X100136379Y-141451403D01*
X100178801Y-141511986D01*
X100745638Y-140945149D01*
X100770507Y-141029844D01*
X100848239Y-141150798D01*
X100956900Y-141244952D01*
X101087685Y-141304680D01*
X101102411Y-141306797D01*
X100538012Y-141871196D01*
X100538012Y-141871198D01*
X100598595Y-141913620D01*
X100798094Y-142006649D01*
X101010715Y-142063619D01*
X101230000Y-142082804D01*
X101449284Y-142063619D01*
X101661904Y-142006649D01*
X101861405Y-141913619D01*
X101921986Y-141871198D01*
X101921986Y-141871197D01*
X101357587Y-141306797D01*
X101372315Y-141304680D01*
X101503100Y-141244952D01*
X101611761Y-141150798D01*
X101689493Y-141029844D01*
X101714361Y-140945150D01*
X102281197Y-141511986D01*
X102281198Y-141511986D01*
X102323619Y-141451405D01*
X102416649Y-141251904D01*
X102473619Y-141039284D01*
X102492804Y-140820000D01*
X102473619Y-140600715D01*
X102416649Y-140388095D01*
X102323620Y-140188597D01*
X102281198Y-140128012D01*
X102281196Y-140128012D01*
X101714360Y-140694848D01*
X101689493Y-140610156D01*
X101611761Y-140489202D01*
X101503100Y-140395048D01*
X101372315Y-140335320D01*
X101357586Y-140333202D01*
X101921986Y-139768801D01*
X101921986Y-139768800D01*
X101861401Y-139726377D01*
X101771529Y-139684469D01*
X101718245Y-139637552D01*
X101698784Y-139569275D01*
X101719326Y-139501315D01*
X101771529Y-139456081D01*
X101861654Y-139414056D01*
X102042038Y-139287749D01*
X102197749Y-139132038D01*
X102324056Y-138951654D01*
X102417120Y-138752076D01*
X102474115Y-138539371D01*
X102493307Y-138320000D01*
X102474115Y-138100629D01*
X102417120Y-137887924D01*
X102324056Y-137688347D01*
X102197749Y-137507962D01*
X102197748Y-137507961D01*
X102197746Y-137507958D01*
X102042041Y-137352253D01*
X101861654Y-137225944D01*
X101772121Y-137184194D01*
X101718836Y-137137277D01*
X101699375Y-137068999D01*
X101719917Y-137001039D01*
X101772118Y-136955806D01*
X101861654Y-136914056D01*
X102042038Y-136787749D01*
X102197749Y-136632038D01*
X102267636Y-136532228D01*
X102323093Y-136487901D01*
X102370849Y-136478500D01*
X102655049Y-136478500D01*
X102723170Y-136498502D01*
X102744144Y-136515404D01*
X102994595Y-136765854D01*
X103028620Y-136828167D01*
X103031500Y-136854950D01*
X103031500Y-147055500D01*
X103011498Y-147123621D01*
X102957842Y-147170114D01*
X102905500Y-147181500D01*
X102360849Y-147181500D01*
X102292728Y-147161498D01*
X102257636Y-147127771D01*
X102187746Y-147027958D01*
X102032041Y-146872253D01*
X101851653Y-146745943D01*
X101762122Y-146704195D01*
X101708836Y-146657278D01*
X101689375Y-146589001D01*
X101709916Y-146521041D01*
X101762122Y-146475805D01*
X101851654Y-146434056D01*
X102032038Y-146307749D01*
X102187749Y-146152038D01*
X102314056Y-145971654D01*
X102407120Y-145772076D01*
X102464115Y-145559371D01*
X102483307Y-145340000D01*
X102464115Y-145120629D01*
X102407120Y-144907924D01*
X102314056Y-144708347D01*
X102187749Y-144527962D01*
X102187748Y-144527961D01*
X102187746Y-144527958D01*
X102032041Y-144372253D01*
X101851653Y-144245943D01*
X101652074Y-144152879D01*
X101439375Y-144095885D01*
X101220000Y-144076693D01*
X101000624Y-144095885D01*
X100787925Y-144152879D01*
X100588347Y-144245943D01*
X100407958Y-144372253D01*
X100252253Y-144527958D01*
X100125943Y-144708347D01*
X100032879Y-144907925D01*
X99975885Y-145120624D01*
X99956693Y-145340000D01*
X99975885Y-145559375D01*
X100032879Y-145772074D01*
X100125943Y-145971653D01*
X100252253Y-146152041D01*
X100407958Y-146307746D01*
X100407961Y-146307748D01*
X100407962Y-146307749D01*
X100504273Y-146375187D01*
X100588346Y-146434056D01*
X100677878Y-146475805D01*
X100731164Y-146522722D01*
X100750625Y-146590999D01*
X100730084Y-146658959D01*
X100677879Y-146704194D01*
X100654474Y-146715108D01*
X100588345Y-146745944D01*
X100407958Y-146872253D01*
X100252253Y-147027958D01*
X100125943Y-147208347D01*
X100032879Y-147407925D01*
X99975885Y-147620624D01*
X99956693Y-147840000D01*
X99975885Y-148059375D01*
X100032879Y-148272074D01*
X100125943Y-148471653D01*
X100252253Y-148652041D01*
X100407958Y-148807746D01*
X100407961Y-148807748D01*
X100407962Y-148807749D01*
X100507772Y-148877637D01*
X100552099Y-148933093D01*
X100561500Y-148980849D01*
X100561500Y-149199150D01*
X100541498Y-149267271D01*
X100507771Y-149302363D01*
X100407958Y-149372253D01*
X100252253Y-149527958D01*
X100125943Y-149708347D01*
X100032879Y-149907925D01*
X99975885Y-150120624D01*
X99956693Y-150340000D01*
X96525500Y-150340000D01*
X96525500Y-116286471D01*
X97851500Y-116286471D01*
X97851501Y-116289546D01*
X97851803Y-116292617D01*
X97851804Y-116292628D01*
X97866091Y-116437701D01*
X97911410Y-116587095D01*
X97923759Y-116627804D01*
X97933368Y-116645781D01*
X98017406Y-116803007D01*
X98143431Y-116956568D01*
X98296992Y-117082593D01*
X98296996Y-117082595D01*
X98472196Y-117176241D01*
X98515477Y-117189370D01*
X98662298Y-117233908D01*
X98684474Y-117236092D01*
X98810453Y-117248500D01*
X99509546Y-117248499D01*
X99657701Y-117233908D01*
X99847804Y-117176241D01*
X100023004Y-117082595D01*
X100023005Y-117082593D01*
X100023007Y-117082593D01*
X100176568Y-116956568D01*
X100302593Y-116803007D01*
X100302595Y-116803004D01*
X100396241Y-116627804D01*
X100453908Y-116437701D01*
X100468500Y-116289547D01*
X100468500Y-116286471D01*
X102031500Y-116286471D01*
X102031501Y-116289546D01*
X102031803Y-116292617D01*
X102031804Y-116292628D01*
X102046091Y-116437701D01*
X102091410Y-116587095D01*
X102103759Y-116627804D01*
X102113368Y-116645781D01*
X102197406Y-116803007D01*
X102323431Y-116956568D01*
X102476992Y-117082593D01*
X102476996Y-117082595D01*
X102652196Y-117176241D01*
X102695477Y-117189370D01*
X102842298Y-117233908D01*
X102864474Y-117236092D01*
X102990453Y-117248500D01*
X103689546Y-117248499D01*
X103837701Y-117233908D01*
X104027804Y-117176241D01*
X104203004Y-117082595D01*
X104203005Y-117082593D01*
X104203007Y-117082593D01*
X104356568Y-116956568D01*
X104482593Y-116803007D01*
X104482595Y-116803004D01*
X104576241Y-116627804D01*
X104633908Y-116437701D01*
X104648500Y-116289547D01*
X104648499Y-116190454D01*
X104633908Y-116042299D01*
X104576241Y-115852196D01*
X104482595Y-115676996D01*
X104482593Y-115676992D01*
X104356568Y-115523431D01*
X104203007Y-115397406D01*
X104027802Y-115303758D01*
X103837701Y-115246091D01*
X103692627Y-115231803D01*
X103692619Y-115231802D01*
X103689547Y-115231500D01*
X103686455Y-115231500D01*
X103451040Y-115231500D01*
X103382919Y-115211498D01*
X103336426Y-115157842D01*
X103326322Y-115087568D01*
X103334629Y-115057285D01*
X103370687Y-114970236D01*
X103390466Y-114820000D01*
X103370687Y-114669764D01*
X103312698Y-114529767D01*
X103220451Y-114409549D01*
X103100233Y-114317302D01*
X103100232Y-114317301D01*
X102960235Y-114259312D01*
X102851807Y-114245038D01*
X102851806Y-114245037D01*
X102847720Y-114244500D01*
X102772280Y-114244500D01*
X102768194Y-114245037D01*
X102768192Y-114245038D01*
X102659764Y-114259312D01*
X102519767Y-114317301D01*
X102399549Y-114409549D01*
X102307301Y-114529767D01*
X102249312Y-114669764D01*
X102229534Y-114820000D01*
X102249312Y-114970235D01*
X102307301Y-115110232D01*
X102307302Y-115110233D01*
X102390135Y-115218183D01*
X102399551Y-115230453D01*
X102418756Y-115245190D01*
X102460623Y-115302528D01*
X102464844Y-115373399D01*
X102430079Y-115435302D01*
X102421985Y-115442550D01*
X102323429Y-115523433D01*
X102197406Y-115676992D01*
X102103758Y-115852197D01*
X102046091Y-116042298D01*
X102031803Y-116187372D01*
X102031500Y-116190453D01*
X102031500Y-116193544D01*
X102031500Y-116193545D01*
X102031500Y-116286452D01*
X102031500Y-116286471D01*
X100468500Y-116286471D01*
X100468499Y-116190454D01*
X100453908Y-116042299D01*
X100396241Y-115852196D01*
X100302595Y-115676996D01*
X100302593Y-115676992D01*
X100176568Y-115523431D01*
X100023007Y-115397406D01*
X99847802Y-115303758D01*
X99657701Y-115246091D01*
X99512627Y-115231803D01*
X99512619Y-115231802D01*
X99509547Y-115231500D01*
X99506454Y-115231500D01*
X98813547Y-115231500D01*
X98813526Y-115231500D01*
X98810454Y-115231501D01*
X98807383Y-115231803D01*
X98807371Y-115231804D01*
X98662298Y-115246091D01*
X98472197Y-115303758D01*
X98296992Y-115397406D01*
X98143431Y-115523431D01*
X98017406Y-115676992D01*
X97923758Y-115852197D01*
X97866091Y-116042298D01*
X97851803Y-116187372D01*
X97851500Y-116190453D01*
X97851500Y-116193544D01*
X97851500Y-116193545D01*
X97851500Y-116286452D01*
X97851500Y-116286471D01*
X96525500Y-116286471D01*
X96525500Y-107646471D01*
X97851500Y-107646471D01*
X97851501Y-107649546D01*
X97851803Y-107652617D01*
X97851804Y-107652628D01*
X97866091Y-107797701D01*
X97923758Y-107987802D01*
X98017406Y-108163007D01*
X98143431Y-108316568D01*
X98296992Y-108442593D01*
X98296996Y-108442595D01*
X98472196Y-108536241D01*
X98567247Y-108565074D01*
X98662298Y-108593908D01*
X98684474Y-108596092D01*
X98810453Y-108608500D01*
X99509546Y-108608499D01*
X99657701Y-108593908D01*
X99847804Y-108536241D01*
X100023004Y-108442595D01*
X100023005Y-108442593D01*
X100023007Y-108442593D01*
X100176568Y-108316568D01*
X100302593Y-108163007D01*
X100302595Y-108163004D01*
X100396241Y-107987804D01*
X100453908Y-107797701D01*
X100468500Y-107649547D01*
X100468500Y-107646471D01*
X102031500Y-107646471D01*
X102031501Y-107649546D01*
X102031803Y-107652617D01*
X102031804Y-107652628D01*
X102046091Y-107797701D01*
X102103758Y-107987802D01*
X102197406Y-108163007D01*
X102323428Y-108316565D01*
X102323432Y-108316568D01*
X102421985Y-108397449D01*
X102461954Y-108456125D01*
X102463855Y-108527096D01*
X102427085Y-108587829D01*
X102418758Y-108594809D01*
X102401312Y-108608196D01*
X102399549Y-108609549D01*
X102382137Y-108632239D01*
X102307301Y-108729767D01*
X102249312Y-108869764D01*
X102229534Y-109019999D01*
X102249312Y-109170235D01*
X102307301Y-109310232D01*
X102307302Y-109310233D01*
X102399549Y-109430451D01*
X102519767Y-109522698D01*
X102659764Y-109580687D01*
X102772280Y-109595500D01*
X102776402Y-109595500D01*
X102843598Y-109595500D01*
X102847720Y-109595500D01*
X102960236Y-109580687D01*
X103100233Y-109522698D01*
X103220451Y-109430451D01*
X103312698Y-109310233D01*
X103370687Y-109170236D01*
X103390466Y-109020000D01*
X103370687Y-108869764D01*
X103334631Y-108782717D01*
X103327042Y-108712127D01*
X103358821Y-108648640D01*
X103419879Y-108612413D01*
X103451040Y-108608499D01*
X103686452Y-108608499D01*
X103689546Y-108608499D01*
X103837701Y-108593908D01*
X104027804Y-108536241D01*
X104203004Y-108442595D01*
X104203005Y-108442593D01*
X104203007Y-108442593D01*
X104356568Y-108316568D01*
X104482593Y-108163007D01*
X104482595Y-108163004D01*
X104576241Y-107987804D01*
X104633908Y-107797701D01*
X104648500Y-107649547D01*
X104648499Y-107550454D01*
X104633908Y-107402299D01*
X104632291Y-107396970D01*
X104576241Y-107212197D01*
X104576241Y-107212196D01*
X104482595Y-107036996D01*
X104482593Y-107036992D01*
X104356568Y-106883431D01*
X104203007Y-106757406D01*
X104027802Y-106663758D01*
X103837701Y-106606091D01*
X103692627Y-106591803D01*
X103692619Y-106591802D01*
X103689547Y-106591500D01*
X103686454Y-106591500D01*
X102993547Y-106591500D01*
X102993526Y-106591500D01*
X102990454Y-106591501D01*
X102987383Y-106591803D01*
X102987371Y-106591804D01*
X102842298Y-106606091D01*
X102652197Y-106663758D01*
X102476992Y-106757406D01*
X102323431Y-106883431D01*
X102197406Y-107036992D01*
X102103758Y-107212197D01*
X102046091Y-107402298D01*
X102031803Y-107547372D01*
X102031500Y-107550453D01*
X102031500Y-107553544D01*
X102031500Y-107553545D01*
X102031500Y-107646452D01*
X102031500Y-107646471D01*
X100468500Y-107646471D01*
X100468499Y-107550454D01*
X100453908Y-107402299D01*
X100452291Y-107396970D01*
X100396241Y-107212197D01*
X100396241Y-107212196D01*
X100302595Y-107036996D01*
X100302593Y-107036992D01*
X100176568Y-106883431D01*
X100023007Y-106757406D01*
X99847802Y-106663758D01*
X99657701Y-106606091D01*
X99512627Y-106591803D01*
X99512619Y-106591802D01*
X99509547Y-106591500D01*
X99506454Y-106591500D01*
X98813547Y-106591500D01*
X98813526Y-106591500D01*
X98810454Y-106591501D01*
X98807383Y-106591803D01*
X98807371Y-106591804D01*
X98662298Y-106606091D01*
X98472197Y-106663758D01*
X98296992Y-106757406D01*
X98143431Y-106883431D01*
X98017406Y-107036992D01*
X97923758Y-107212197D01*
X97866091Y-107402298D01*
X97851803Y-107547372D01*
X97851500Y-107550453D01*
X97851500Y-107553544D01*
X97851500Y-107553545D01*
X97851500Y-107646452D01*
X97851500Y-107646471D01*
X96525500Y-107646471D01*
X96525500Y-103030372D01*
X101321536Y-103030372D01*
X101339850Y-103204623D01*
X101393993Y-103371257D01*
X101481594Y-103522987D01*
X101481595Y-103522989D01*
X101481597Y-103522991D01*
X101598835Y-103653196D01*
X101740581Y-103756181D01*
X101849341Y-103804603D01*
X101887192Y-103830619D01*
X101903313Y-103846742D01*
X101903319Y-103846746D01*
X104975657Y-106919084D01*
X104993802Y-106942030D01*
X105000972Y-106953654D01*
X107644595Y-109597276D01*
X107678621Y-109659588D01*
X107681500Y-109686371D01*
X107681500Y-110730022D01*
X107661498Y-110798143D01*
X107607842Y-110844636D01*
X107537568Y-110854740D01*
X107472988Y-110825246D01*
X107435899Y-110769665D01*
X107433426Y-110762204D01*
X107428533Y-110740138D01*
X107428078Y-110738888D01*
X107428078Y-110738886D01*
X107402146Y-110667640D01*
X107400951Y-110664202D01*
X107377113Y-110592261D01*
X107377111Y-110592259D01*
X107376691Y-110590989D01*
X107368169Y-110573385D01*
X107367370Y-110572170D01*
X107325755Y-110508899D01*
X107323811Y-110505845D01*
X107283329Y-110440212D01*
X107270963Y-110425033D01*
X107214824Y-110372068D01*
X107212196Y-110369515D01*
X106653309Y-109810628D01*
X106622571Y-109760469D01*
X106615634Y-109739118D01*
X106615633Y-109739117D01*
X106615632Y-109739112D01*
X106528032Y-109587385D01*
X106528031Y-109587384D01*
X106528030Y-109587382D01*
X106410792Y-109457177D01*
X106269046Y-109354192D01*
X106108984Y-109282928D01*
X105937604Y-109246500D01*
X105762396Y-109246500D01*
X105648142Y-109270785D01*
X105591015Y-109282928D01*
X105430953Y-109354193D01*
X105289208Y-109457176D01*
X105171967Y-109587385D01*
X105084366Y-109739115D01*
X105030223Y-109905749D01*
X105011909Y-110080000D01*
X105030223Y-110254250D01*
X105084366Y-110420884D01*
X105171967Y-110572614D01*
X105171968Y-110572616D01*
X105171970Y-110572618D01*
X105289208Y-110702823D01*
X105430954Y-110805808D01*
X105539716Y-110854231D01*
X105577561Y-110880242D01*
X105889594Y-111192275D01*
X105923620Y-111254587D01*
X105926499Y-111281370D01*
X105926499Y-111318920D01*
X105906497Y-111387041D01*
X105852841Y-111433534D01*
X105782567Y-111443638D01*
X105774307Y-111442168D01*
X105658828Y-111417622D01*
X105483620Y-111417622D01*
X105369366Y-111441907D01*
X105312239Y-111454050D01*
X105152177Y-111525315D01*
X105058249Y-111593558D01*
X104991381Y-111617417D01*
X104984188Y-111617622D01*
X104039938Y-111617622D01*
X103971817Y-111597620D01*
X103950843Y-111580717D01*
X103635050Y-111264924D01*
X103601024Y-111202612D01*
X103598835Y-111188997D01*
X103591976Y-111123729D01*
X103591975Y-111123727D01*
X103537833Y-110957096D01*
X103494406Y-110881878D01*
X103450231Y-110805363D01*
X103450230Y-110805362D01*
X103450229Y-110805360D01*
X103332991Y-110675155D01*
X103191245Y-110572170D01*
X103031183Y-110500906D01*
X102859803Y-110464478D01*
X102684595Y-110464478D01*
X102570341Y-110488763D01*
X102513214Y-110500906D01*
X102353152Y-110572171D01*
X102211407Y-110675154D01*
X102094166Y-110805363D01*
X102006565Y-110957093D01*
X101952422Y-111123727D01*
X101934108Y-111297978D01*
X101952422Y-111472228D01*
X102006565Y-111638862D01*
X102094166Y-111790592D01*
X102094167Y-111790594D01*
X102094169Y-111790596D01*
X102211407Y-111920801D01*
X102353153Y-112023786D01*
X102513215Y-112095050D01*
X102680092Y-112130521D01*
X102742564Y-112164248D01*
X102742989Y-112164672D01*
X103218094Y-112639777D01*
X103231178Y-112656107D01*
X103283009Y-112704779D01*
X103285852Y-112707535D01*
X103305573Y-112727256D01*
X103308694Y-112729677D01*
X103308702Y-112729684D01*
X103308768Y-112729735D01*
X103317788Y-112737439D01*
X103350022Y-112767708D01*
X103367778Y-112777469D01*
X103384294Y-112788318D01*
X103400302Y-112800735D01*
X103427215Y-112812381D01*
X103440868Y-112818289D01*
X103451531Y-112823513D01*
X103490278Y-112844815D01*
X103490280Y-112844815D01*
X103490283Y-112844817D01*
X103509917Y-112849858D01*
X103528602Y-112856256D01*
X103547198Y-112864303D01*
X103590873Y-112871220D01*
X103602468Y-112873620D01*
X103645313Y-112884622D01*
X103665567Y-112884622D01*
X103685277Y-112886173D01*
X103705285Y-112889342D01*
X103705285Y-112889341D01*
X103705286Y-112889342D01*
X103749304Y-112885180D01*
X103761162Y-112884622D01*
X104984188Y-112884622D01*
X105052309Y-112904624D01*
X105058248Y-112908685D01*
X105152178Y-112976930D01*
X105312240Y-113048194D01*
X105483620Y-113084622D01*
X105483622Y-113084622D01*
X105486783Y-113085294D01*
X105549256Y-113119023D01*
X105583578Y-113181172D01*
X105578850Y-113252011D01*
X105549681Y-113297636D01*
X105387560Y-113459757D01*
X105349715Y-113485768D01*
X105240955Y-113534191D01*
X105099208Y-113637176D01*
X104981967Y-113767385D01*
X104894366Y-113919115D01*
X104840223Y-114085749D01*
X104821981Y-114259312D01*
X104821909Y-114260000D01*
X104827932Y-114317302D01*
X104840223Y-114434250D01*
X104894366Y-114600884D01*
X104981967Y-114752614D01*
X104981968Y-114752616D01*
X104981970Y-114752618D01*
X105099208Y-114882823D01*
X105240954Y-114985808D01*
X105401016Y-115057072D01*
X105572396Y-115093500D01*
X105572398Y-115093500D01*
X105747602Y-115093500D01*
X105747604Y-115093500D01*
X105918984Y-115057072D01*
X106079046Y-114985808D01*
X106220792Y-114882823D01*
X106338030Y-114752618D01*
X106425634Y-114600882D01*
X106432572Y-114579527D01*
X106463307Y-114529372D01*
X107175776Y-113816903D01*
X107189623Y-113804937D01*
X107209057Y-113790470D01*
X107220637Y-113776669D01*
X107241220Y-113752139D01*
X107248659Y-113744021D01*
X107252579Y-113740102D01*
X107272069Y-113715451D01*
X107274233Y-113712795D01*
X107323031Y-113654641D01*
X107323034Y-113654634D01*
X107323894Y-113653610D01*
X107334402Y-113637115D01*
X107334964Y-113635909D01*
X107334966Y-113635907D01*
X107367021Y-113567160D01*
X107368571Y-113563959D01*
X107402608Y-113496189D01*
X107402609Y-113496184D01*
X107403206Y-113494996D01*
X107409630Y-113476518D01*
X107409900Y-113475210D01*
X107409901Y-113475208D01*
X107425249Y-113400868D01*
X107426008Y-113397449D01*
X107432898Y-113368382D01*
X107468073Y-113306713D01*
X107531006Y-113273850D01*
X107601716Y-113280228D01*
X107657752Y-113323822D01*
X107681324Y-113390791D01*
X107681500Y-113397446D01*
X107681500Y-116445559D01*
X107680170Y-116463820D01*
X107676658Y-116487790D01*
X107681020Y-116537633D01*
X107681500Y-116548616D01*
X107681500Y-116554180D01*
X107681924Y-116557815D01*
X107681926Y-116557834D01*
X107685135Y-116585291D01*
X107685507Y-116588932D01*
X107692228Y-116665744D01*
X107696469Y-116684873D01*
X107722846Y-116757342D01*
X107724049Y-116760804D01*
X107748304Y-116834000D01*
X107756837Y-116851627D01*
X107799232Y-116916084D01*
X107801171Y-116919127D01*
X107840970Y-116983651D01*
X107841674Y-116984792D01*
X107854038Y-116999967D01*
X107910155Y-117052911D01*
X107912784Y-117055465D01*
X108046689Y-117189370D01*
X108077426Y-117239525D01*
X108084365Y-117260881D01*
X108171969Y-117412618D01*
X108289208Y-117542823D01*
X108430954Y-117645808D01*
X108539716Y-117694231D01*
X108577561Y-117720242D01*
X109563093Y-118705774D01*
X109575061Y-118719621D01*
X109589532Y-118739059D01*
X109627871Y-118771229D01*
X109635975Y-118778656D01*
X109639900Y-118782581D01*
X109664461Y-118802001D01*
X109667282Y-118804299D01*
X109726377Y-118853886D01*
X109742890Y-118864405D01*
X109744094Y-118864966D01*
X109744096Y-118864968D01*
X109812787Y-118896999D01*
X109816079Y-118898592D01*
X109883813Y-118932610D01*
X109883815Y-118932610D01*
X109885009Y-118933210D01*
X109903491Y-118939634D01*
X109904792Y-118939902D01*
X109904795Y-118939904D01*
X109979079Y-118955242D01*
X109982631Y-118956030D01*
X110056345Y-118973501D01*
X110056347Y-118973501D01*
X110057642Y-118973808D01*
X110077115Y-118975798D01*
X110078440Y-118975759D01*
X110078443Y-118975760D01*
X110152478Y-118973605D01*
X110154260Y-118973554D01*
X110157924Y-118973501D01*
X122488630Y-118973501D01*
X122556751Y-118993503D01*
X122577725Y-119010406D01*
X122846689Y-119279370D01*
X122877426Y-119329525D01*
X122884365Y-119350881D01*
X122971969Y-119502618D01*
X123053536Y-119593206D01*
X123089208Y-119632823D01*
X123230954Y-119735808D01*
X123391016Y-119807072D01*
X123562396Y-119843500D01*
X123562398Y-119843500D01*
X123737602Y-119843500D01*
X123737604Y-119843500D01*
X123908984Y-119807072D01*
X123952826Y-119787551D01*
X123971153Y-119779393D01*
X124022401Y-119768500D01*
X124557599Y-119768500D01*
X124608847Y-119779393D01*
X124634405Y-119790772D01*
X124671016Y-119807072D01*
X124842396Y-119843500D01*
X124842398Y-119843500D01*
X125017602Y-119843500D01*
X125017604Y-119843500D01*
X125188984Y-119807072D01*
X125349046Y-119735808D01*
X125490792Y-119632823D01*
X125608030Y-119502618D01*
X125695634Y-119350882D01*
X125727231Y-119253638D01*
X149176500Y-119253638D01*
X149183011Y-119314201D01*
X149196693Y-119350884D01*
X149234111Y-119451205D01*
X149321738Y-119568261D01*
X149438794Y-119655888D01*
X149438795Y-119655888D01*
X149438796Y-119655889D01*
X149575799Y-119706989D01*
X149636362Y-119713500D01*
X149639731Y-119713500D01*
X151680269Y-119713500D01*
X151683638Y-119713500D01*
X151744201Y-119706989D01*
X151881204Y-119655889D01*
X151998261Y-119568261D01*
X152085889Y-119451204D01*
X152136989Y-119314201D01*
X152143500Y-119253638D01*
X152143500Y-118230000D01*
X157371416Y-118230000D01*
X157391718Y-118475013D01*
X157452072Y-118713342D01*
X157477463Y-118771229D01*
X157550828Y-118938487D01*
X157551754Y-118939904D01*
X157685298Y-119144307D01*
X157851809Y-119325187D01*
X157884821Y-119350881D01*
X158045823Y-119476194D01*
X158215949Y-119568261D01*
X158262043Y-119593206D01*
X158494574Y-119673034D01*
X158737074Y-119713500D01*
X158737077Y-119713500D01*
X158982923Y-119713500D01*
X158982926Y-119713500D01*
X159225426Y-119673034D01*
X159457957Y-119593206D01*
X159674178Y-119476193D01*
X159868191Y-119325187D01*
X160034702Y-119144307D01*
X160169171Y-118938488D01*
X160267928Y-118713342D01*
X160328282Y-118475013D01*
X160348584Y-118230000D01*
X160328282Y-117984987D01*
X160267928Y-117746658D01*
X160169171Y-117521512D01*
X160034702Y-117315693D01*
X159868191Y-117134813D01*
X159801099Y-117082593D01*
X159674176Y-116983805D01*
X159457956Y-116866793D01*
X159300548Y-116812755D01*
X159225426Y-116786966D01*
X158982926Y-116746500D01*
X158737074Y-116746500D01*
X158494574Y-116786966D01*
X158494571Y-116786966D01*
X158494571Y-116786967D01*
X158262043Y-116866793D01*
X158045823Y-116983805D01*
X157851808Y-117134813D01*
X157685298Y-117315693D01*
X157550828Y-117521512D01*
X157464759Y-117717734D01*
X157452072Y-117746658D01*
X157391718Y-117984987D01*
X157371416Y-118230000D01*
X152143500Y-118230000D01*
X152143500Y-117206362D01*
X152136989Y-117145799D01*
X152085889Y-117008796D01*
X152084976Y-117007576D01*
X151998261Y-116891738D01*
X151881205Y-116804111D01*
X151812702Y-116778561D01*
X151744201Y-116753011D01*
X151683638Y-116746500D01*
X149636362Y-116746500D01*
X149633013Y-116746859D01*
X149633013Y-116746860D01*
X149575799Y-116753011D01*
X149438794Y-116804111D01*
X149321738Y-116891738D01*
X149234111Y-117008794D01*
X149216704Y-117055465D01*
X149183011Y-117145799D01*
X149176500Y-117206362D01*
X149176500Y-119253638D01*
X125727231Y-119253638D01*
X125749777Y-119184249D01*
X125768091Y-119010000D01*
X125749777Y-118835751D01*
X125695634Y-118669118D01*
X125695633Y-118669117D01*
X125695633Y-118669115D01*
X125608032Y-118517385D01*
X125608031Y-118517384D01*
X125608030Y-118517382D01*
X125490792Y-118387177D01*
X125349046Y-118284192D01*
X125188984Y-118212928D01*
X125017604Y-118176500D01*
X124842396Y-118176500D01*
X124671016Y-118212928D01*
X124671014Y-118212928D01*
X124671013Y-118212929D01*
X124608847Y-118240607D01*
X124557599Y-118251500D01*
X124022400Y-118251500D01*
X123971147Y-118240604D01*
X123960274Y-118235763D01*
X123922436Y-118209755D01*
X123436910Y-117724229D01*
X123424938Y-117710376D01*
X123410471Y-117690944D01*
X123372128Y-117658770D01*
X123364025Y-117651344D01*
X123362695Y-117650014D01*
X123360102Y-117647421D01*
X123357236Y-117645154D01*
X123357225Y-117645145D01*
X123335531Y-117627992D01*
X123332709Y-117625693D01*
X123274641Y-117576969D01*
X123274640Y-117576968D01*
X123273622Y-117576114D01*
X123257111Y-117565595D01*
X123187206Y-117532997D01*
X123183910Y-117531402D01*
X123114997Y-117496793D01*
X123096505Y-117490366D01*
X123020943Y-117474763D01*
X123017368Y-117473970D01*
X122942357Y-117456192D01*
X122922886Y-117454203D01*
X122845742Y-117456448D01*
X122842078Y-117456501D01*
X113283023Y-117456501D01*
X113214902Y-117436499D01*
X113168409Y-117382843D01*
X113160353Y-117326819D01*
X113159641Y-117326882D01*
X113158518Y-117314057D01*
X113158305Y-117312570D01*
X113158358Y-117312211D01*
X113142904Y-117135574D01*
X113104774Y-117020507D01*
X113101970Y-117007499D01*
X113099523Y-116999967D01*
X113045627Y-116834094D01*
X113028316Y-116804111D01*
X112958025Y-116682361D01*
X112958024Y-116682360D01*
X112958023Y-116682358D01*
X112840785Y-116552153D01*
X112838522Y-116550509D01*
X112752196Y-116487789D01*
X112699039Y-116449168D01*
X112538977Y-116377904D01*
X112367597Y-116341476D01*
X112192389Y-116341476D01*
X112078135Y-116365761D01*
X112021008Y-116377904D01*
X111860946Y-116449169D01*
X111719201Y-116552152D01*
X111601960Y-116682361D01*
X111514359Y-116834091D01*
X111460216Y-117000725D01*
X111459504Y-117007499D01*
X111441902Y-117174976D01*
X111456328Y-117312237D01*
X111456864Y-117317331D01*
X111444092Y-117387169D01*
X111395590Y-117439016D01*
X111331554Y-117456501D01*
X110511372Y-117456501D01*
X110443251Y-117436499D01*
X110422277Y-117419596D01*
X109653309Y-116650628D01*
X109622571Y-116600469D01*
X109615634Y-116579118D01*
X109615633Y-116579117D01*
X109615632Y-116579112D01*
X109528032Y-116427385D01*
X109528031Y-116427384D01*
X109528030Y-116427382D01*
X109410792Y-116297177D01*
X109404531Y-116292628D01*
X109258333Y-116186408D01*
X109259691Y-116184538D01*
X109219153Y-116150080D01*
X109198506Y-116082152D01*
X109198500Y-116080957D01*
X109198500Y-115934498D01*
X109218502Y-115866377D01*
X109272158Y-115819884D01*
X109324500Y-115808498D01*
X110577373Y-115808498D01*
X110645494Y-115828500D01*
X110651435Y-115832562D01*
X110710954Y-115875806D01*
X110871016Y-115947070D01*
X111042396Y-115983498D01*
X111042398Y-115983498D01*
X111217602Y-115983498D01*
X111217604Y-115983498D01*
X111388984Y-115947070D01*
X111549046Y-115875806D01*
X111690792Y-115772821D01*
X111808030Y-115642616D01*
X111894457Y-115492919D01*
X111895633Y-115490882D01*
X111896661Y-115487719D01*
X111949777Y-115324247D01*
X111968091Y-115149998D01*
X111949777Y-114975749D01*
X111895634Y-114809116D01*
X111895633Y-114809115D01*
X111895633Y-114809113D01*
X111808032Y-114657383D01*
X111808031Y-114657382D01*
X111808030Y-114657380D01*
X111690792Y-114527175D01*
X111681069Y-114520111D01*
X111576272Y-114443971D01*
X111549046Y-114424190D01*
X111388984Y-114352926D01*
X111217604Y-114316498D01*
X111042396Y-114316498D01*
X110929777Y-114340436D01*
X110871015Y-114352926D01*
X110710954Y-114424190D01*
X110651433Y-114467435D01*
X110584565Y-114491293D01*
X110577373Y-114491498D01*
X109324500Y-114491498D01*
X109256379Y-114471496D01*
X109209886Y-114417840D01*
X109198500Y-114365498D01*
X109198500Y-113950000D01*
X119521909Y-113950000D01*
X119540223Y-114124250D01*
X119594366Y-114290884D01*
X119681967Y-114442614D01*
X119681968Y-114442616D01*
X119681970Y-114442618D01*
X119799208Y-114572823D01*
X119940954Y-114675808D01*
X120101016Y-114747072D01*
X120272396Y-114783500D01*
X120272398Y-114783500D01*
X120285350Y-114786253D01*
X120285331Y-114786337D01*
X120321666Y-114793862D01*
X120375535Y-114817172D01*
X120386193Y-114822393D01*
X120424940Y-114843695D01*
X120444560Y-114848732D01*
X120463267Y-114855137D01*
X120469880Y-114857998D01*
X120481854Y-114863181D01*
X120492505Y-114864867D01*
X120525530Y-114870098D01*
X120537125Y-114872498D01*
X120579970Y-114883500D01*
X120600224Y-114883500D01*
X120619934Y-114885051D01*
X120639942Y-114888220D01*
X120639942Y-114888219D01*
X120639943Y-114888220D01*
X120683961Y-114884058D01*
X120695819Y-114883500D01*
X120889725Y-114883500D01*
X120957846Y-114903502D01*
X121004337Y-114957156D01*
X121004339Y-114957159D01*
X121017742Y-114986510D01*
X121049364Y-115035714D01*
X121096795Y-115109518D01*
X121096798Y-115109521D01*
X121188039Y-115214822D01*
X121190281Y-115217601D01*
X121190950Y-115218181D01*
X121190952Y-115218183D01*
X121301460Y-115313938D01*
X121422414Y-115391670D01*
X121555423Y-115452413D01*
X121693378Y-115492920D01*
X121838111Y-115513729D01*
X121838114Y-115513729D01*
X122407743Y-115513729D01*
X122410000Y-115513729D01*
X122483111Y-115508500D01*
X122519434Y-115497833D01*
X122572867Y-115494012D01*
X122709997Y-115513729D01*
X122710000Y-115513729D01*
X123281886Y-115513729D01*
X123281889Y-115513729D01*
X123426622Y-115492920D01*
X123564577Y-115452413D01*
X123697586Y-115391670D01*
X123818540Y-115313938D01*
X123818544Y-115313935D01*
X123867605Y-115271422D01*
X123932182Y-115241929D01*
X124002456Y-115252031D01*
X124056113Y-115298522D01*
X124075427Y-115353475D01*
X124090223Y-115494250D01*
X124144366Y-115660884D01*
X124231967Y-115812614D01*
X124231968Y-115812616D01*
X124231970Y-115812618D01*
X124349208Y-115942823D01*
X124490954Y-116045808D01*
X124651016Y-116117072D01*
X124822396Y-116153500D01*
X124822398Y-116153500D01*
X124997602Y-116153500D01*
X124997604Y-116153500D01*
X125168984Y-116117072D01*
X125329046Y-116045808D01*
X125470792Y-115942823D01*
X125588030Y-115812618D01*
X125675634Y-115660882D01*
X125729777Y-115494249D01*
X125748091Y-115320000D01*
X125729777Y-115145751D01*
X125675634Y-114979118D01*
X125675633Y-114979117D01*
X125675633Y-114979115D01*
X125588032Y-114827384D01*
X125575863Y-114813869D01*
X125545146Y-114749861D01*
X125543499Y-114729564D01*
X125543499Y-114703846D01*
X125545795Y-114683063D01*
X125545464Y-114672546D01*
X125543562Y-114612014D01*
X125543500Y-114608055D01*
X125543500Y-114584095D01*
X125543500Y-114584094D01*
X125543500Y-114580144D01*
X125542993Y-114576134D01*
X125542061Y-114564295D01*
X125540976Y-114529767D01*
X125540673Y-114520111D01*
X125535021Y-114500659D01*
X125531012Y-114481299D01*
X125529261Y-114467435D01*
X125528474Y-114461203D01*
X125512196Y-114420090D01*
X125508350Y-114408856D01*
X125496018Y-114366407D01*
X125485706Y-114348970D01*
X125477008Y-114331215D01*
X125474621Y-114325186D01*
X125469552Y-114312383D01*
X125443565Y-114276616D01*
X125437047Y-114266693D01*
X125433088Y-114259999D01*
X125414542Y-114228638D01*
X125400213Y-114214309D01*
X125387379Y-114199282D01*
X125375472Y-114182893D01*
X125375469Y-114182891D01*
X125375469Y-114182890D01*
X125341396Y-114154701D01*
X125332618Y-114146713D01*
X125047245Y-113861340D01*
X125034166Y-113845016D01*
X124982347Y-113796355D01*
X124979505Y-113793600D01*
X124962574Y-113776669D01*
X124959770Y-113773865D01*
X124956575Y-113771386D01*
X124947554Y-113763682D01*
X124915320Y-113733413D01*
X124897567Y-113723653D01*
X124881041Y-113712797D01*
X124880931Y-113712712D01*
X124865041Y-113700386D01*
X124824465Y-113682827D01*
X124813804Y-113677604D01*
X124775063Y-113656305D01*
X124761313Y-113652775D01*
X124755437Y-113651266D01*
X124736731Y-113644862D01*
X124736273Y-113644664D01*
X124718145Y-113636819D01*
X124674474Y-113629901D01*
X124662853Y-113627495D01*
X124620030Y-113616500D01*
X124620029Y-113616500D01*
X124599776Y-113616500D01*
X124580066Y-113614949D01*
X124560057Y-113611779D01*
X124516039Y-113615941D01*
X124504181Y-113616500D01*
X124230275Y-113616500D01*
X124162154Y-113596498D01*
X124115662Y-113542843D01*
X124111711Y-113534191D01*
X124102257Y-113513489D01*
X124077655Y-113475208D01*
X124023205Y-113390482D01*
X123965302Y-113323657D01*
X123931960Y-113285177D01*
X123929717Y-113282397D01*
X123927214Y-113280228D01*
X123869246Y-113229999D01*
X149171917Y-113229999D01*
X149192213Y-113474929D01*
X149252546Y-113713181D01*
X149351271Y-113938252D01*
X149446609Y-114084178D01*
X149446610Y-114084178D01*
X150056065Y-113474723D01*
X150067188Y-113508956D01*
X150155186Y-113647619D01*
X150274903Y-113760040D01*
X150413160Y-113836048D01*
X149805238Y-114443970D01*
X149846093Y-114475771D01*
X150062247Y-114592748D01*
X150294694Y-114672546D01*
X150537118Y-114713000D01*
X150782882Y-114713000D01*
X151025305Y-114672546D01*
X151257752Y-114592748D01*
X151473907Y-114475770D01*
X151514760Y-114443971D01*
X151514761Y-114443969D01*
X150903482Y-113832691D01*
X150975629Y-113804126D01*
X151108492Y-113707595D01*
X151213175Y-113581055D01*
X151263442Y-113474231D01*
X151873389Y-114084178D01*
X151968729Y-113938249D01*
X152067452Y-113713184D01*
X152127786Y-113474929D01*
X152148082Y-113230000D01*
X157371416Y-113230000D01*
X157391718Y-113475013D01*
X157408895Y-113542841D01*
X157450616Y-113707595D01*
X157452072Y-113713342D01*
X157485903Y-113790469D01*
X157550828Y-113938487D01*
X157550829Y-113938488D01*
X157685298Y-114144307D01*
X157851809Y-114325187D01*
X157887448Y-114352926D01*
X158045823Y-114476194D01*
X158245207Y-114584095D01*
X158262043Y-114593206D01*
X158494574Y-114673034D01*
X158737074Y-114713500D01*
X158737077Y-114713500D01*
X158982923Y-114713500D01*
X158982926Y-114713500D01*
X159225426Y-114673034D01*
X159457957Y-114593206D01*
X159674178Y-114476193D01*
X159868191Y-114325187D01*
X160034702Y-114144307D01*
X160169171Y-113938488D01*
X160267928Y-113713342D01*
X160328282Y-113475013D01*
X160348584Y-113230000D01*
X160328282Y-112984987D01*
X160267928Y-112746658D01*
X160169171Y-112521512D01*
X160034702Y-112315693D01*
X159868191Y-112134813D01*
X159862675Y-112130520D01*
X159674176Y-111983805D01*
X159457956Y-111866793D01*
X159300548Y-111812755D01*
X159225426Y-111786966D01*
X158982926Y-111746500D01*
X158737074Y-111746500D01*
X158494574Y-111786966D01*
X158494571Y-111786966D01*
X158494571Y-111786967D01*
X158262043Y-111866793D01*
X158045823Y-111983805D01*
X157851808Y-112134813D01*
X157685298Y-112315693D01*
X157550828Y-112521512D01*
X157452071Y-112746660D01*
X157416741Y-112886173D01*
X157391718Y-112984987D01*
X157371416Y-113230000D01*
X152148082Y-113230000D01*
X152148082Y-113229999D01*
X152127786Y-112985070D01*
X152067452Y-112746815D01*
X151968729Y-112521750D01*
X151873388Y-112375820D01*
X151263934Y-112985274D01*
X151252812Y-112951044D01*
X151164814Y-112812381D01*
X151045097Y-112699960D01*
X150906838Y-112623951D01*
X151514761Y-112016028D01*
X151514760Y-112016027D01*
X151473908Y-111984230D01*
X151257752Y-111867251D01*
X151025305Y-111787453D01*
X150782882Y-111747000D01*
X150537118Y-111747000D01*
X150294694Y-111787453D01*
X150062247Y-111867251D01*
X149846094Y-111984228D01*
X149805238Y-112016028D01*
X149805238Y-112016029D01*
X150416517Y-112627308D01*
X150344371Y-112655874D01*
X150211508Y-112752405D01*
X150106825Y-112878945D01*
X150056558Y-112985767D01*
X149446610Y-112375819D01*
X149446609Y-112375820D01*
X149351271Y-112521747D01*
X149252546Y-112746818D01*
X149192213Y-112985070D01*
X149171917Y-113229999D01*
X123869246Y-113229999D01*
X123818540Y-113186062D01*
X123697586Y-113108330D01*
X123564577Y-113047587D01*
X123426622Y-113007080D01*
X123281889Y-112986271D01*
X122710000Y-112986271D01*
X122707750Y-112986431D01*
X122707747Y-112986432D01*
X122636886Y-112991499D01*
X122600560Y-113002166D01*
X122547131Y-113005987D01*
X122410003Y-112986271D01*
X122410000Y-112986271D01*
X121838111Y-112986271D01*
X121693378Y-113007080D01*
X121693375Y-113007080D01*
X121693374Y-113007081D01*
X121555425Y-113047586D01*
X121422410Y-113108331D01*
X121303390Y-113184821D01*
X121303377Y-113184829D01*
X121301460Y-113186062D01*
X121301456Y-113186065D01*
X121299800Y-113187499D01*
X121299785Y-113187512D01*
X121190948Y-113281821D01*
X121131847Y-113350028D01*
X121072121Y-113388411D01*
X121001124Y-113388411D01*
X120942988Y-113351827D01*
X120920792Y-113327177D01*
X120885532Y-113301559D01*
X120779046Y-113224192D01*
X120618984Y-113152928D01*
X120447604Y-113116500D01*
X120272396Y-113116500D01*
X120158142Y-113140785D01*
X120101015Y-113152928D01*
X120023339Y-113187512D01*
X119941488Y-113223955D01*
X119940953Y-113224193D01*
X119799208Y-113327176D01*
X119681967Y-113457385D01*
X119594366Y-113609115D01*
X119540223Y-113775749D01*
X119521909Y-113950000D01*
X109198500Y-113950000D01*
X109198500Y-109384441D01*
X109199830Y-109366180D01*
X109203341Y-109342211D01*
X109198979Y-109292353D01*
X109198500Y-109281372D01*
X109198500Y-109279487D01*
X109198500Y-109275820D01*
X109194866Y-109244734D01*
X109194496Y-109241122D01*
X109187887Y-109165574D01*
X109187885Y-109165569D01*
X109187770Y-109164250D01*
X109183534Y-109145138D01*
X109157156Y-109072666D01*
X109155952Y-109069203D01*
X109139648Y-109019999D01*
X109132114Y-108997262D01*
X109132112Y-108997260D01*
X109131692Y-108995990D01*
X109123170Y-108978386D01*
X109122435Y-108977268D01*
X109080756Y-108913900D01*
X109078812Y-108910846D01*
X109038330Y-108845213D01*
X109025964Y-108830034D01*
X108969825Y-108777069D01*
X108967197Y-108774516D01*
X106234340Y-106041659D01*
X106216195Y-106018712D01*
X106209030Y-106007095D01*
X106209027Y-106007092D01*
X106209026Y-106007090D01*
X102989727Y-102787792D01*
X102962936Y-102761001D01*
X102932198Y-102710842D01*
X102925261Y-102689491D01*
X102925260Y-102689490D01*
X102925259Y-102689485D01*
X102837659Y-102537758D01*
X102837658Y-102537757D01*
X102837657Y-102537755D01*
X102720419Y-102407550D01*
X102578673Y-102304565D01*
X102418611Y-102233301D01*
X102247231Y-102196873D01*
X102072023Y-102196873D01*
X101957769Y-102221158D01*
X101900642Y-102233301D01*
X101740580Y-102304566D01*
X101598835Y-102407549D01*
X101481594Y-102537758D01*
X101393993Y-102689488D01*
X101339850Y-102856122D01*
X101321536Y-103030372D01*
X96525500Y-103030372D01*
X96525500Y-101330000D01*
X106311909Y-101330000D01*
X106314918Y-101358626D01*
X106330223Y-101504250D01*
X106384366Y-101670884D01*
X106471967Y-101822614D01*
X106471968Y-101822616D01*
X106471970Y-101822618D01*
X106589208Y-101952823D01*
X106730954Y-102055808D01*
X106891016Y-102127072D01*
X107012993Y-102152998D01*
X107075465Y-102186726D01*
X107075890Y-102187150D01*
X112153125Y-107264385D01*
X112166642Y-107281256D01*
X112220257Y-107331604D01*
X112223099Y-107334359D01*
X112243667Y-107354927D01*
X112246800Y-107357357D01*
X112247172Y-107357646D01*
X112256198Y-107365355D01*
X112289867Y-107396972D01*
X112308666Y-107407307D01*
X112325186Y-107418159D01*
X112342132Y-107431304D01*
X112384534Y-107449653D01*
X112395182Y-107454870D01*
X112435659Y-107477122D01*
X112435663Y-107477124D01*
X112456432Y-107482456D01*
X112475134Y-107488859D01*
X112494824Y-107497380D01*
X112540448Y-107504605D01*
X112552067Y-107507011D01*
X112596812Y-107518500D01*
X112618259Y-107518500D01*
X112637967Y-107520050D01*
X112659152Y-107523406D01*
X112705140Y-107519058D01*
X112716996Y-107518500D01*
X126637373Y-107518500D01*
X126705494Y-107538502D01*
X126711435Y-107542564D01*
X126770954Y-107585808D01*
X126931016Y-107657072D01*
X127102396Y-107693500D01*
X127102398Y-107693500D01*
X127277602Y-107693500D01*
X127277604Y-107693500D01*
X127448984Y-107657072D01*
X127609046Y-107585808D01*
X127750792Y-107482823D01*
X127868030Y-107352618D01*
X127955634Y-107200882D01*
X128009777Y-107034249D01*
X128028091Y-106860000D01*
X128009777Y-106685751D01*
X127955634Y-106519118D01*
X127955633Y-106519117D01*
X127955633Y-106519115D01*
X127868032Y-106367385D01*
X127868031Y-106367384D01*
X127868030Y-106367382D01*
X127750792Y-106237177D01*
X127609046Y-106134192D01*
X127448984Y-106062928D01*
X127277604Y-106026500D01*
X127102396Y-106026500D01*
X127031079Y-106041659D01*
X126931015Y-106062928D01*
X126770954Y-106134192D01*
X126711433Y-106177437D01*
X126644565Y-106201295D01*
X126637373Y-106201500D01*
X120898593Y-106201500D01*
X120830472Y-106181498D01*
X120783979Y-106127842D01*
X120773875Y-106057568D01*
X120803369Y-105992988D01*
X120809498Y-105986405D01*
X121042265Y-105753638D01*
X149196500Y-105753638D01*
X149203011Y-105814201D01*
X149207109Y-105825187D01*
X149254111Y-105951205D01*
X149341738Y-106068261D01*
X149458794Y-106155888D01*
X149458795Y-106155888D01*
X149458796Y-106155889D01*
X149595799Y-106206989D01*
X149656362Y-106213500D01*
X149659731Y-106213500D01*
X151700269Y-106213500D01*
X151703638Y-106213500D01*
X151764201Y-106206989D01*
X151901204Y-106155889D01*
X152018261Y-106068261D01*
X152105889Y-105951204D01*
X152156989Y-105814201D01*
X152163500Y-105753638D01*
X152163500Y-104730000D01*
X157391416Y-104730000D01*
X157411718Y-104975013D01*
X157411719Y-104975016D01*
X157472071Y-105213339D01*
X157570828Y-105438487D01*
X157570829Y-105438488D01*
X157705298Y-105644307D01*
X157805944Y-105753638D01*
X157871808Y-105825186D01*
X158065823Y-105976194D01*
X158216190Y-106057568D01*
X158282043Y-106093206D01*
X158514574Y-106173034D01*
X158757074Y-106213500D01*
X158757077Y-106213500D01*
X159002923Y-106213500D01*
X159002926Y-106213500D01*
X159245426Y-106173034D01*
X159477957Y-106093206D01*
X159694178Y-105976193D01*
X159888191Y-105825187D01*
X160054702Y-105644307D01*
X160189171Y-105438488D01*
X160287928Y-105213342D01*
X160348282Y-104975013D01*
X160368584Y-104730000D01*
X160348282Y-104484987D01*
X160287928Y-104246658D01*
X160189171Y-104021512D01*
X160054702Y-103815693D01*
X159888191Y-103634813D01*
X159726284Y-103508796D01*
X159694176Y-103483805D01*
X159477956Y-103366793D01*
X159320548Y-103312755D01*
X159245426Y-103286966D01*
X159002926Y-103246500D01*
X158757074Y-103246500D01*
X158514574Y-103286966D01*
X158514571Y-103286966D01*
X158514571Y-103286967D01*
X158282043Y-103366793D01*
X158065823Y-103483805D01*
X157871808Y-103634813D01*
X157705298Y-103815693D01*
X157570828Y-104021512D01*
X157472071Y-104246660D01*
X157421728Y-104445458D01*
X157411718Y-104484987D01*
X157391416Y-104730000D01*
X152163500Y-104730000D01*
X152163500Y-103706362D01*
X152156989Y-103645799D01*
X152105889Y-103508796D01*
X152105888Y-103508794D01*
X152018261Y-103391738D01*
X151901205Y-103304111D01*
X151832702Y-103278561D01*
X151764201Y-103253011D01*
X151703638Y-103246500D01*
X149656362Y-103246500D01*
X149653013Y-103246859D01*
X149653013Y-103246860D01*
X149595799Y-103253011D01*
X149458794Y-103304111D01*
X149341738Y-103391738D01*
X149254111Y-103508794D01*
X149248816Y-103522991D01*
X149203011Y-103645799D01*
X149196500Y-103706362D01*
X149196500Y-105753638D01*
X121042265Y-105753638D01*
X121357416Y-105438487D01*
X123979213Y-102816691D01*
X124041523Y-102782667D01*
X124041527Y-102782665D01*
X124208984Y-102747072D01*
X124369046Y-102675808D01*
X124510792Y-102572823D01*
X124628030Y-102442618D01*
X124715634Y-102290882D01*
X124769777Y-102124249D01*
X124788091Y-101950000D01*
X124769777Y-101775751D01*
X124715634Y-101609118D01*
X124693976Y-101571605D01*
X124677239Y-101502612D01*
X124700459Y-101435520D01*
X124709461Y-101424296D01*
X124710786Y-101422824D01*
X124710788Y-101422823D01*
X124828026Y-101292618D01*
X124831049Y-101287383D01*
X124915629Y-101140884D01*
X124921564Y-101122618D01*
X124969773Y-100974249D01*
X124988087Y-100800000D01*
X124969773Y-100625751D01*
X124915630Y-100459118D01*
X124915629Y-100459117D01*
X124915629Y-100459115D01*
X124828028Y-100307385D01*
X124828027Y-100307384D01*
X124828026Y-100307382D01*
X124710788Y-100177177D01*
X124690749Y-100162618D01*
X124578488Y-100081055D01*
X124569042Y-100074192D01*
X124408980Y-100002928D01*
X124237600Y-99966500D01*
X124062392Y-99966500D01*
X123948138Y-99990785D01*
X123891011Y-100002928D01*
X123730949Y-100074193D01*
X123589204Y-100177176D01*
X123471963Y-100307385D01*
X123384362Y-100459115D01*
X123330219Y-100625749D01*
X123323359Y-100691022D01*
X123296345Y-100756678D01*
X123287144Y-100766945D01*
X119774496Y-104279595D01*
X119712184Y-104313620D01*
X119685401Y-104316500D01*
X112830520Y-104316500D01*
X112809730Y-104314204D01*
X112738668Y-104316438D01*
X112734710Y-104316500D01*
X112706811Y-104316500D01*
X112702886Y-104316995D01*
X112702865Y-104316997D01*
X112702791Y-104317007D01*
X112690980Y-104317936D01*
X112646775Y-104319325D01*
X112627318Y-104324978D01*
X112607968Y-104328986D01*
X112587869Y-104331525D01*
X112546760Y-104347802D01*
X112535532Y-104351646D01*
X112493075Y-104363981D01*
X112475631Y-104374297D01*
X112457884Y-104382990D01*
X112439051Y-104390446D01*
X112403278Y-104416437D01*
X112393360Y-104422951D01*
X112355305Y-104445457D01*
X112340976Y-104459785D01*
X112325953Y-104472616D01*
X112296688Y-104493881D01*
X112295111Y-104491711D01*
X112255538Y-104518432D01*
X112243502Y-104521619D01*
X112085385Y-104555228D01*
X111925318Y-104626495D01*
X111783573Y-104729478D01*
X111728935Y-104790160D01*
X111668488Y-104827399D01*
X111597505Y-104826047D01*
X111546204Y-104794944D01*
X108008699Y-101257439D01*
X107974673Y-101195127D01*
X107972484Y-101181511D01*
X107969777Y-101155751D01*
X107959010Y-101122614D01*
X107915634Y-100989118D01*
X107908172Y-100976194D01*
X107828032Y-100837385D01*
X107828031Y-100837384D01*
X107828030Y-100837382D01*
X107710792Y-100707177D01*
X107569046Y-100604192D01*
X107408984Y-100532928D01*
X107237604Y-100496500D01*
X107062396Y-100496500D01*
X106948142Y-100520785D01*
X106891015Y-100532928D01*
X106730953Y-100604193D01*
X106589208Y-100707176D01*
X106471967Y-100837385D01*
X106384366Y-100989115D01*
X106330223Y-101155749D01*
X106326084Y-101195127D01*
X106311909Y-101330000D01*
X96525500Y-101330000D01*
X96525500Y-84780000D01*
X104121909Y-84780000D01*
X104140223Y-84954250D01*
X104194366Y-85120884D01*
X104281967Y-85272614D01*
X104281968Y-85272616D01*
X104281970Y-85272618D01*
X104399208Y-85402823D01*
X104540954Y-85505808D01*
X104701016Y-85577072D01*
X104872396Y-85613500D01*
X104872398Y-85613500D01*
X105047602Y-85613500D01*
X105047604Y-85613500D01*
X105218984Y-85577072D01*
X105379046Y-85505808D01*
X105507384Y-85412564D01*
X105574253Y-85388705D01*
X105581446Y-85388500D01*
X112445761Y-85388500D01*
X112513882Y-85408502D01*
X112534856Y-85425405D01*
X113554594Y-86445143D01*
X113588620Y-86507455D01*
X113591499Y-86534238D01*
X113591499Y-101161794D01*
X113571497Y-101229915D01*
X113559137Y-101246103D01*
X113521968Y-101287383D01*
X113434365Y-101439117D01*
X113380223Y-101605749D01*
X113361909Y-101780000D01*
X113380223Y-101954250D01*
X113434366Y-102120884D01*
X113521967Y-102272614D01*
X113521968Y-102272616D01*
X113521970Y-102272618D01*
X113639208Y-102402823D01*
X113780954Y-102505808D01*
X113941016Y-102577072D01*
X114112396Y-102613500D01*
X114112398Y-102613500D01*
X114287602Y-102613500D01*
X114287604Y-102613500D01*
X114458984Y-102577072D01*
X114619046Y-102505808D01*
X114760792Y-102402823D01*
X114878030Y-102272618D01*
X114965634Y-102120882D01*
X115019777Y-101954249D01*
X115025864Y-101896325D01*
X115052877Y-101830671D01*
X115111099Y-101790041D01*
X115151174Y-101783498D01*
X115337602Y-101783498D01*
X115337604Y-101783498D01*
X115508984Y-101747070D01*
X115669046Y-101675806D01*
X115797384Y-101582562D01*
X115864253Y-101558703D01*
X115871446Y-101558498D01*
X120461866Y-101558498D01*
X120478309Y-101559575D01*
X120510002Y-101563748D01*
X120549882Y-101558498D01*
X120549887Y-101558498D01*
X120649458Y-101545389D01*
X120668853Y-101542836D01*
X120816878Y-101481522D01*
X120912074Y-101408475D01*
X120912074Y-101408474D01*
X120928631Y-101395770D01*
X120928634Y-101395767D01*
X120937491Y-101388971D01*
X120943989Y-101383985D01*
X120963456Y-101358614D01*
X120974308Y-101346239D01*
X121780144Y-100540404D01*
X121842457Y-100506379D01*
X121869240Y-100503500D01*
X121877602Y-100503500D01*
X121877604Y-100503500D01*
X122048984Y-100467072D01*
X122209046Y-100395808D01*
X122350792Y-100292823D01*
X122468030Y-100162618D01*
X122555634Y-100010882D01*
X122609777Y-99844249D01*
X122628091Y-99670000D01*
X122609777Y-99495751D01*
X122555634Y-99329118D01*
X122555633Y-99329117D01*
X122555633Y-99329115D01*
X122468032Y-99177385D01*
X122468031Y-99177384D01*
X122468030Y-99177382D01*
X122350792Y-99047177D01*
X122315467Y-99021512D01*
X122209047Y-98944193D01*
X122209046Y-98944192D01*
X122048984Y-98872928D01*
X121877604Y-98836500D01*
X121702396Y-98836500D01*
X121615817Y-98854903D01*
X121531015Y-98872928D01*
X121370953Y-98944193D01*
X121229208Y-99047176D01*
X121111967Y-99177385D01*
X121024366Y-99329115D01*
X120970223Y-99495748D01*
X120959210Y-99600530D01*
X120932196Y-99666186D01*
X120922996Y-99676453D01*
X120294858Y-100304593D01*
X120232545Y-100338618D01*
X120205762Y-100341498D01*
X115871446Y-100341498D01*
X115803325Y-100321496D01*
X115797385Y-100317434D01*
X115669047Y-100224191D01*
X115669046Y-100224190D01*
X115508984Y-100152926D01*
X115337604Y-100116498D01*
X115162396Y-100116498D01*
X115077247Y-100134597D01*
X114991014Y-100152926D01*
X114985747Y-100155272D01*
X114915379Y-100164705D01*
X114851083Y-100134597D01*
X114813271Y-100074507D01*
X114808500Y-100040164D01*
X114808500Y-94549999D01*
X120901909Y-94549999D01*
X120920223Y-94724250D01*
X120974366Y-94890884D01*
X121061967Y-95042614D01*
X121061968Y-95042616D01*
X121061970Y-95042618D01*
X121143759Y-95133453D01*
X121174476Y-95197460D01*
X121165713Y-95267914D01*
X121143761Y-95302073D01*
X121111967Y-95337384D01*
X121024366Y-95489115D01*
X120970223Y-95655749D01*
X120951909Y-95829999D01*
X120970223Y-96004250D01*
X121024366Y-96170884D01*
X121111967Y-96322614D01*
X121111968Y-96322616D01*
X121111970Y-96322618D01*
X121214756Y-96436772D01*
X121245473Y-96500779D01*
X121236710Y-96571233D01*
X121227632Y-96585360D01*
X121228591Y-96585914D01*
X121134365Y-96749117D01*
X121080223Y-96915749D01*
X121061909Y-97089999D01*
X121080223Y-97264250D01*
X121134366Y-97430884D01*
X121221967Y-97582614D01*
X121221968Y-97582616D01*
X121221970Y-97582618D01*
X121339208Y-97712823D01*
X121480954Y-97815808D01*
X121641016Y-97887072D01*
X121812396Y-97923500D01*
X121812398Y-97923500D01*
X121987602Y-97923500D01*
X121987604Y-97923500D01*
X122158984Y-97887072D01*
X122319046Y-97815808D01*
X122378565Y-97772564D01*
X122445434Y-97748705D01*
X122452627Y-97748500D01*
X123955050Y-97748500D01*
X124023171Y-97768502D01*
X124044145Y-97785405D01*
X128031300Y-101772560D01*
X128065326Y-101834872D01*
X128067515Y-101848482D01*
X128070223Y-101874251D01*
X128124366Y-102040884D01*
X128211967Y-102192614D01*
X128211968Y-102192616D01*
X128211970Y-102192618D01*
X128329208Y-102322823D01*
X128470954Y-102425808D01*
X128631016Y-102497072D01*
X128802396Y-102533500D01*
X128802398Y-102533500D01*
X128977602Y-102533500D01*
X128977604Y-102533500D01*
X129148984Y-102497072D01*
X129309046Y-102425808D01*
X129450792Y-102322823D01*
X129568030Y-102192618D01*
X129655634Y-102040882D01*
X129709777Y-101874249D01*
X129728091Y-101700000D01*
X129709777Y-101525751D01*
X129709774Y-101525744D01*
X129708882Y-101517249D01*
X129721654Y-101447411D01*
X129770156Y-101395564D01*
X129838988Y-101378169D01*
X129885437Y-101388970D01*
X129971016Y-101427072D01*
X130142396Y-101463500D01*
X130142398Y-101463500D01*
X130317602Y-101463500D01*
X130317604Y-101463500D01*
X130488984Y-101427072D01*
X130649046Y-101355808D01*
X130790792Y-101252823D01*
X130908030Y-101122618D01*
X130992568Y-100976193D01*
X130995633Y-100970884D01*
X131004378Y-100943970D01*
X131049777Y-100804249D01*
X131068091Y-100630000D01*
X131049777Y-100455751D01*
X130995634Y-100289118D01*
X130995633Y-100289117D01*
X130995633Y-100289115D01*
X130908032Y-100137385D01*
X130908031Y-100137384D01*
X130908030Y-100137382D01*
X130790792Y-100007177D01*
X130746526Y-99975016D01*
X130649047Y-99904193D01*
X130649046Y-99904192D01*
X130514414Y-99844250D01*
X130488980Y-99832926D01*
X130367004Y-99806999D01*
X130304531Y-99773271D01*
X130304107Y-99772848D01*
X130261259Y-99730000D01*
X149191917Y-99730000D01*
X149212213Y-99974929D01*
X149272546Y-100213181D01*
X149371271Y-100438252D01*
X149466609Y-100584178D01*
X149466610Y-100584178D01*
X150076065Y-99974723D01*
X150087188Y-100008956D01*
X150175186Y-100147619D01*
X150294903Y-100260040D01*
X150433160Y-100336048D01*
X149825238Y-100943970D01*
X149866093Y-100975771D01*
X150082247Y-101092748D01*
X150314694Y-101172546D01*
X150557118Y-101213000D01*
X150802882Y-101213000D01*
X151045305Y-101172546D01*
X151277752Y-101092748D01*
X151493907Y-100975770D01*
X151534760Y-100943971D01*
X151534761Y-100943970D01*
X150923482Y-100332691D01*
X150995629Y-100304126D01*
X151128492Y-100207595D01*
X151233175Y-100081055D01*
X151283442Y-99974231D01*
X151893389Y-100584178D01*
X151988729Y-100438249D01*
X152087452Y-100213184D01*
X152147786Y-99974929D01*
X152168082Y-99730000D01*
X157391416Y-99730000D01*
X157411718Y-99975013D01*
X157420802Y-100010884D01*
X157470616Y-100207595D01*
X157472072Y-100213342D01*
X157505309Y-100289115D01*
X157570828Y-100438487D01*
X157584305Y-100459115D01*
X157705298Y-100644307D01*
X157818194Y-100766945D01*
X157871808Y-100825186D01*
X158065823Y-100976194D01*
X158089705Y-100989118D01*
X158282043Y-101093206D01*
X158514574Y-101173034D01*
X158757074Y-101213500D01*
X158757077Y-101213500D01*
X159002923Y-101213500D01*
X159002926Y-101213500D01*
X159245426Y-101173034D01*
X159477957Y-101093206D01*
X159694178Y-100976193D01*
X159888191Y-100825187D01*
X160054702Y-100644307D01*
X160189171Y-100438488D01*
X160287928Y-100213342D01*
X160348282Y-99975013D01*
X160368584Y-99730000D01*
X160348282Y-99484987D01*
X160287928Y-99246658D01*
X160189171Y-99021512D01*
X160054702Y-98815693D01*
X159888191Y-98634813D01*
X159735576Y-98516028D01*
X159694176Y-98483805D01*
X159477956Y-98366793D01*
X159320136Y-98312614D01*
X159245426Y-98286966D01*
X159002926Y-98246500D01*
X158757074Y-98246500D01*
X158514574Y-98286966D01*
X158514571Y-98286966D01*
X158514571Y-98286967D01*
X158282043Y-98366793D01*
X158065823Y-98483805D01*
X157871808Y-98634813D01*
X157705298Y-98815693D01*
X157570828Y-99021512D01*
X157472071Y-99246660D01*
X157451190Y-99329118D01*
X157411718Y-99484987D01*
X157391416Y-99730000D01*
X152168082Y-99730000D01*
X152147786Y-99485070D01*
X152087452Y-99246815D01*
X151988729Y-99021750D01*
X151893388Y-98875820D01*
X151283934Y-99485274D01*
X151272812Y-99451044D01*
X151184814Y-99312381D01*
X151065097Y-99199960D01*
X150926838Y-99123951D01*
X151534761Y-98516028D01*
X151534760Y-98516027D01*
X151493908Y-98484230D01*
X151277752Y-98367251D01*
X151045305Y-98287453D01*
X150802882Y-98247000D01*
X150557118Y-98247000D01*
X150314694Y-98287453D01*
X150082247Y-98367251D01*
X149866094Y-98484228D01*
X149825238Y-98516028D01*
X149825238Y-98516029D01*
X150436517Y-99127308D01*
X150364371Y-99155874D01*
X150231508Y-99252405D01*
X150126825Y-99378945D01*
X150076558Y-99485767D01*
X149466610Y-98875819D01*
X149466609Y-98875820D01*
X149371271Y-99021747D01*
X149272546Y-99246818D01*
X149212213Y-99485070D01*
X149191917Y-99730000D01*
X130261259Y-99730000D01*
X129386162Y-98854903D01*
X129352136Y-98792591D01*
X129357201Y-98721776D01*
X129399748Y-98664940D01*
X129449054Y-98642563D01*
X129568984Y-98617072D01*
X129729046Y-98545808D01*
X129870792Y-98442823D01*
X129988030Y-98312618D01*
X130075634Y-98160882D01*
X130129777Y-97994249D01*
X130148091Y-97820000D01*
X130129777Y-97645751D01*
X130075634Y-97479118D01*
X130075633Y-97479117D01*
X130075633Y-97479115D01*
X129988032Y-97327385D01*
X129988031Y-97327384D01*
X129988030Y-97327382D01*
X129870792Y-97197177D01*
X129729046Y-97094192D01*
X129568984Y-97022928D01*
X129568980Y-97022926D01*
X129447005Y-96996999D01*
X129384532Y-96963271D01*
X129384108Y-96962848D01*
X124674898Y-92253638D01*
X149196500Y-92253638D01*
X149203011Y-92314201D01*
X149216693Y-92350884D01*
X149254111Y-92451205D01*
X149341738Y-92568261D01*
X149458794Y-92655888D01*
X149458795Y-92655888D01*
X149458796Y-92655889D01*
X149595799Y-92706989D01*
X149656362Y-92713500D01*
X149659731Y-92713500D01*
X151700269Y-92713500D01*
X151703638Y-92713500D01*
X151764201Y-92706989D01*
X151901204Y-92655889D01*
X152018261Y-92568261D01*
X152105889Y-92451204D01*
X152156989Y-92314201D01*
X152163500Y-92253638D01*
X152163500Y-91230000D01*
X157391416Y-91230000D01*
X157411718Y-91475013D01*
X157440057Y-91586920D01*
X157472071Y-91713339D01*
X157570828Y-91938487D01*
X157570829Y-91938488D01*
X157705298Y-92144307D01*
X157805944Y-92253638D01*
X157871808Y-92325186D01*
X158065823Y-92476194D01*
X158235949Y-92568261D01*
X158282043Y-92593206D01*
X158514574Y-92673034D01*
X158757074Y-92713500D01*
X158757077Y-92713500D01*
X159002923Y-92713500D01*
X159002926Y-92713500D01*
X159245426Y-92673034D01*
X159477957Y-92593206D01*
X159694178Y-92476193D01*
X159888191Y-92325187D01*
X160054702Y-92144307D01*
X160189171Y-91938488D01*
X160287928Y-91713342D01*
X160348282Y-91475013D01*
X160368584Y-91230000D01*
X160348282Y-90984987D01*
X160287928Y-90746658D01*
X160189171Y-90521512D01*
X160054702Y-90315693D01*
X159888191Y-90134813D01*
X159726284Y-90008796D01*
X159694176Y-89983805D01*
X159477956Y-89866793D01*
X159320548Y-89812755D01*
X159245426Y-89786966D01*
X159002926Y-89746500D01*
X158757074Y-89746500D01*
X158514574Y-89786966D01*
X158514571Y-89786966D01*
X158514571Y-89786967D01*
X158282043Y-89866793D01*
X158065823Y-89983805D01*
X157871808Y-90134813D01*
X157705298Y-90315693D01*
X157570828Y-90521512D01*
X157472071Y-90746660D01*
X157411719Y-90984983D01*
X157411718Y-90984987D01*
X157391416Y-91230000D01*
X152163500Y-91230000D01*
X152163500Y-90206362D01*
X152156989Y-90145799D01*
X152105889Y-90008796D01*
X152105888Y-90008794D01*
X152018261Y-89891738D01*
X151901205Y-89804111D01*
X151832702Y-89778561D01*
X151764201Y-89753011D01*
X151703638Y-89746500D01*
X149656362Y-89746500D01*
X149653013Y-89746859D01*
X149653013Y-89746860D01*
X149595799Y-89753011D01*
X149458794Y-89804111D01*
X149341738Y-89891738D01*
X149254111Y-90008794D01*
X149228509Y-90077436D01*
X149203011Y-90145799D01*
X149196500Y-90206362D01*
X149196500Y-92253638D01*
X124674898Y-92253638D01*
X124026874Y-91605614D01*
X124013356Y-91588742D01*
X123959741Y-91538394D01*
X123956899Y-91535639D01*
X123939140Y-91517880D01*
X123936333Y-91515073D01*
X123932826Y-91512352D01*
X123923804Y-91504647D01*
X123890131Y-91473026D01*
X123871338Y-91462694D01*
X123854817Y-91451842D01*
X123837870Y-91438697D01*
X123837868Y-91438696D01*
X123795459Y-91420343D01*
X123784818Y-91415130D01*
X123744337Y-91392876D01*
X123744334Y-91392875D01*
X123723568Y-91387543D01*
X123704864Y-91381139D01*
X123685178Y-91372620D01*
X123639552Y-91365394D01*
X123627928Y-91362987D01*
X123611180Y-91358687D01*
X123583188Y-91351500D01*
X123583187Y-91351500D01*
X123561741Y-91351500D01*
X123542032Y-91349949D01*
X123520848Y-91346594D01*
X123520847Y-91346594D01*
X123500770Y-91348491D01*
X123474859Y-91350941D01*
X123463004Y-91351500D01*
X123403949Y-91351500D01*
X123335828Y-91331498D01*
X123289335Y-91277842D01*
X123279231Y-91207568D01*
X123308725Y-91142988D01*
X123314854Y-91136405D01*
X127540855Y-86910405D01*
X127603167Y-86876379D01*
X127629950Y-86873500D01*
X129982373Y-86873500D01*
X130050494Y-86893502D01*
X130056435Y-86897564D01*
X130115954Y-86940808D01*
X130276016Y-87012072D01*
X130447396Y-87048500D01*
X130447398Y-87048500D01*
X130622602Y-87048500D01*
X130622604Y-87048500D01*
X130793984Y-87012072D01*
X130954046Y-86940808D01*
X131095792Y-86837823D01*
X131213030Y-86707618D01*
X131281392Y-86589210D01*
X131300633Y-86555884D01*
X131300634Y-86555882D01*
X131354777Y-86389249D01*
X131371515Y-86229999D01*
X149191917Y-86229999D01*
X149212213Y-86474929D01*
X149272546Y-86713181D01*
X149371271Y-86938252D01*
X149466609Y-87084178D01*
X149466610Y-87084178D01*
X150076065Y-86474723D01*
X150087188Y-86508956D01*
X150175186Y-86647619D01*
X150294903Y-86760040D01*
X150433160Y-86836048D01*
X149825238Y-87443970D01*
X149866093Y-87475771D01*
X150082247Y-87592748D01*
X150314694Y-87672546D01*
X150557118Y-87713000D01*
X150802882Y-87713000D01*
X151045305Y-87672546D01*
X151277752Y-87592748D01*
X151493907Y-87475770D01*
X151534760Y-87443971D01*
X151534761Y-87443970D01*
X150923482Y-86832691D01*
X150995629Y-86804126D01*
X151128492Y-86707595D01*
X151233175Y-86581055D01*
X151283442Y-86474231D01*
X151893389Y-87084178D01*
X151988729Y-86938249D01*
X152087452Y-86713184D01*
X152147786Y-86474929D01*
X152168082Y-86230000D01*
X157391416Y-86230000D01*
X157411718Y-86475013D01*
X157411719Y-86475016D01*
X157470616Y-86707595D01*
X157472072Y-86713342D01*
X157507633Y-86794415D01*
X157570828Y-86938487D01*
X157617443Y-87009836D01*
X157705298Y-87144307D01*
X157858580Y-87310816D01*
X157871808Y-87325186D01*
X158065823Y-87476194D01*
X158281197Y-87592748D01*
X158282043Y-87593206D01*
X158514574Y-87673034D01*
X158757074Y-87713500D01*
X158757077Y-87713500D01*
X159002923Y-87713500D01*
X159002926Y-87713500D01*
X159245426Y-87673034D01*
X159477957Y-87593206D01*
X159694178Y-87476193D01*
X159888191Y-87325187D01*
X160054702Y-87144307D01*
X160189171Y-86938488D01*
X160287928Y-86713342D01*
X160348282Y-86475013D01*
X160368584Y-86230000D01*
X160348282Y-85984987D01*
X160287928Y-85746658D01*
X160189171Y-85521512D01*
X160054702Y-85315693D01*
X159888191Y-85134813D01*
X159735576Y-85016028D01*
X159694176Y-84983805D01*
X159477956Y-84866793D01*
X159320548Y-84812755D01*
X159245426Y-84786966D01*
X159002926Y-84746500D01*
X158757074Y-84746500D01*
X158514574Y-84786966D01*
X158514571Y-84786966D01*
X158514571Y-84786967D01*
X158282043Y-84866793D01*
X158065823Y-84983805D01*
X157871808Y-85134813D01*
X157705298Y-85315693D01*
X157570828Y-85521512D01*
X157472071Y-85746660D01*
X157465825Y-85771325D01*
X157411718Y-85984987D01*
X157391416Y-86230000D01*
X152168082Y-86230000D01*
X152168082Y-86229999D01*
X152147786Y-85985070D01*
X152087452Y-85746815D01*
X151988729Y-85521750D01*
X151893388Y-85375820D01*
X151283934Y-85985274D01*
X151272812Y-85951044D01*
X151184814Y-85812381D01*
X151065097Y-85699960D01*
X150926838Y-85623951D01*
X151534761Y-85016028D01*
X151534760Y-85016027D01*
X151493908Y-84984230D01*
X151277752Y-84867251D01*
X151045305Y-84787453D01*
X150802882Y-84747000D01*
X150557118Y-84747000D01*
X150314694Y-84787453D01*
X150082247Y-84867251D01*
X149866094Y-84984228D01*
X149825238Y-85016028D01*
X149825238Y-85016029D01*
X150436517Y-85627308D01*
X150364371Y-85655874D01*
X150231508Y-85752405D01*
X150126825Y-85878945D01*
X150076558Y-85985767D01*
X149466610Y-85375819D01*
X149466609Y-85375820D01*
X149371271Y-85521747D01*
X149272546Y-85746818D01*
X149212213Y-85985070D01*
X149191917Y-86229999D01*
X131371515Y-86229999D01*
X131373091Y-86215000D01*
X131354777Y-86040751D01*
X131300634Y-85874118D01*
X131300633Y-85874117D01*
X131300633Y-85874115D01*
X131213032Y-85722385D01*
X131213031Y-85722384D01*
X131213030Y-85722382D01*
X131095792Y-85592177D01*
X131075000Y-85577071D01*
X130954047Y-85489193D01*
X130954046Y-85489192D01*
X130793984Y-85417928D01*
X130622604Y-85381500D01*
X130447396Y-85381500D01*
X130333142Y-85405785D01*
X130276015Y-85417928D01*
X130115954Y-85489192D01*
X130056433Y-85532437D01*
X129989565Y-85556295D01*
X129982373Y-85556500D01*
X127391614Y-85556500D01*
X127370125Y-85554127D01*
X127296612Y-85556438D01*
X127292654Y-85556500D01*
X127263568Y-85556500D01*
X127259640Y-85556996D01*
X127259625Y-85556997D01*
X127259153Y-85557057D01*
X127247341Y-85557986D01*
X127201166Y-85559437D01*
X127180573Y-85565420D01*
X127161222Y-85569428D01*
X127139934Y-85572118D01*
X127096974Y-85589126D01*
X127085749Y-85592969D01*
X127041400Y-85605854D01*
X127022938Y-85616772D01*
X127005190Y-85625466D01*
X126985246Y-85633363D01*
X126947873Y-85660516D01*
X126937953Y-85667033D01*
X126898191Y-85690548D01*
X126883023Y-85705716D01*
X126867996Y-85718550D01*
X126850643Y-85731158D01*
X126821191Y-85766758D01*
X126813204Y-85775534D01*
X122524145Y-90064595D01*
X122461833Y-90098620D01*
X122435050Y-90101500D01*
X122292629Y-90101500D01*
X122224508Y-90081498D01*
X122218568Y-90077436D01*
X122159049Y-90034193D01*
X122159048Y-90034192D01*
X121998986Y-89962928D01*
X121827606Y-89926500D01*
X121652398Y-89926500D01*
X121538144Y-89950785D01*
X121481017Y-89962928D01*
X121320955Y-90034193D01*
X121179210Y-90137176D01*
X121061969Y-90267385D01*
X120974368Y-90419115D01*
X120920225Y-90585749D01*
X120901911Y-90760000D01*
X120920225Y-90934250D01*
X120974368Y-91100884D01*
X121061969Y-91252614D01*
X121061970Y-91252616D01*
X121061972Y-91252618D01*
X121084684Y-91277842D01*
X121110254Y-91306240D01*
X121140971Y-91370247D01*
X121132208Y-91440701D01*
X121110255Y-91474861D01*
X121071967Y-91517384D01*
X120984366Y-91669115D01*
X120930223Y-91835749D01*
X120911909Y-92010000D01*
X120930223Y-92184250D01*
X120984366Y-92350884D01*
X121071967Y-92502614D01*
X121071968Y-92502616D01*
X121071970Y-92502618D01*
X121189208Y-92632823D01*
X121330954Y-92735808D01*
X121491016Y-92807072D01*
X121662396Y-92843500D01*
X121662398Y-92843500D01*
X121837602Y-92843500D01*
X121837604Y-92843500D01*
X122008984Y-92807072D01*
X122169046Y-92735808D01*
X122228565Y-92692564D01*
X122295434Y-92668705D01*
X122302627Y-92668500D01*
X123175050Y-92668500D01*
X123243171Y-92688502D01*
X123264145Y-92705405D01*
X124232290Y-93673550D01*
X124266316Y-93735862D01*
X124261251Y-93806677D01*
X124218704Y-93863513D01*
X124155057Y-93888085D01*
X124124866Y-93890940D01*
X124113004Y-93891500D01*
X122292627Y-93891500D01*
X122224506Y-93871498D01*
X122218566Y-93867436D01*
X122159047Y-93824193D01*
X122159046Y-93824192D01*
X121998984Y-93752928D01*
X121827604Y-93716500D01*
X121652396Y-93716500D01*
X121561305Y-93735862D01*
X121481015Y-93752928D01*
X121320953Y-93824193D01*
X121179208Y-93927176D01*
X121061967Y-94057385D01*
X120974366Y-94209115D01*
X120920223Y-94375749D01*
X120901909Y-94549999D01*
X114808500Y-94549999D01*
X114808500Y-86278142D01*
X114809578Y-86261696D01*
X114813751Y-86230000D01*
X114792838Y-86071149D01*
X114731524Y-85923124D01*
X114658478Y-85827929D01*
X114658474Y-85827925D01*
X114633987Y-85796013D01*
X114633985Y-85796012D01*
X114633985Y-85796011D01*
X114608618Y-85776546D01*
X114596228Y-85765679D01*
X113214315Y-84383766D01*
X113203448Y-84371375D01*
X113183986Y-84346011D01*
X113160117Y-84327695D01*
X113160102Y-84327685D01*
X113152074Y-84321525D01*
X113152072Y-84321523D01*
X113056876Y-84248476D01*
X113056875Y-84248475D01*
X112952204Y-84205119D01*
X112908851Y-84187162D01*
X112908850Y-84187161D01*
X112908848Y-84187161D01*
X112889454Y-84184607D01*
X112789895Y-84171501D01*
X112789875Y-84171499D01*
X112750000Y-84166249D01*
X112722961Y-84169809D01*
X112718307Y-84170422D01*
X112701864Y-84171500D01*
X105581446Y-84171500D01*
X105513325Y-84151498D01*
X105507385Y-84147436D01*
X105379047Y-84054193D01*
X105379046Y-84054192D01*
X105218984Y-83982928D01*
X105047604Y-83946500D01*
X104872396Y-83946500D01*
X104758142Y-83970785D01*
X104701015Y-83982928D01*
X104540953Y-84054193D01*
X104399208Y-84157176D01*
X104281967Y-84287385D01*
X104194366Y-84439115D01*
X104140223Y-84605749D01*
X104121909Y-84780000D01*
X96525500Y-84780000D01*
X96525500Y-80541500D01*
X96545502Y-80473379D01*
X96599158Y-80426886D01*
X96651500Y-80415500D01*
X125869863Y-80415500D01*
X125880425Y-80417601D01*
X125900000Y-80417601D01*
X125919517Y-80409517D01*
X125925500Y-80395072D01*
X125927601Y-80390000D01*
X125927600Y-80389997D01*
X125927601Y-80370435D01*
X125925500Y-80359867D01*
X125925500Y-71609999D01*
X126969783Y-71609999D01*
X126988622Y-71849379D01*
X127044677Y-72082863D01*
X127136567Y-72304704D01*
X127262028Y-72509439D01*
X127262029Y-72509441D01*
X127262031Y-72509443D01*
X127417972Y-72692027D01*
X127596381Y-72844402D01*
X127600561Y-72847972D01*
X127805296Y-72973433D01*
X128027137Y-73065323D01*
X128186857Y-73103668D01*
X128260620Y-73121377D01*
X128278085Y-73122751D01*
X128500000Y-73140217D01*
X128739379Y-73121377D01*
X128972863Y-73065323D01*
X129194704Y-72973433D01*
X129399439Y-72847972D01*
X129582027Y-72692027D01*
X129737972Y-72509439D01*
X129863433Y-72304704D01*
X129955323Y-72082863D01*
X130011377Y-71849379D01*
X130030217Y-71610000D01*
X161729783Y-71610000D01*
X161748622Y-71849379D01*
X161804677Y-72082863D01*
X161896567Y-72304704D01*
X162022028Y-72509439D01*
X162022029Y-72509441D01*
X162022031Y-72509443D01*
X162177972Y-72692027D01*
X162356381Y-72844402D01*
X162360561Y-72847972D01*
X162565296Y-72973433D01*
X162787137Y-73065323D01*
X162946857Y-73103668D01*
X163020620Y-73121377D01*
X163038085Y-73122751D01*
X163260000Y-73140217D01*
X163499379Y-73121377D01*
X163732863Y-73065323D01*
X163954704Y-72973433D01*
X164159439Y-72847972D01*
X164342027Y-72692027D01*
X164497972Y-72509439D01*
X164623433Y-72304704D01*
X164715323Y-72082863D01*
X164771377Y-71849379D01*
X164790217Y-71610000D01*
X164771377Y-71370621D01*
X164715323Y-71137137D01*
X164623433Y-70915296D01*
X164497972Y-70710561D01*
X164497968Y-70710556D01*
X164342027Y-70527972D01*
X164159443Y-70372031D01*
X164159441Y-70372029D01*
X164159439Y-70372028D01*
X163954704Y-70246567D01*
X163954702Y-70246566D01*
X163732864Y-70154677D01*
X163499379Y-70098622D01*
X163277464Y-70081157D01*
X163260000Y-70079783D01*
X163259999Y-70079783D01*
X163020620Y-70098622D01*
X162787135Y-70154677D01*
X162565297Y-70246566D01*
X162360556Y-70372031D01*
X162177972Y-70527972D01*
X162022031Y-70710556D01*
X161896566Y-70915297D01*
X161804677Y-71137135D01*
X161748622Y-71370620D01*
X161729783Y-71610000D01*
X130030217Y-71610000D01*
X130011377Y-71370621D01*
X129955323Y-71137137D01*
X129863433Y-70915296D01*
X129737972Y-70710561D01*
X129737968Y-70710556D01*
X129582027Y-70527972D01*
X129399443Y-70372031D01*
X129399441Y-70372029D01*
X129399439Y-70372028D01*
X129194704Y-70246567D01*
X129194702Y-70246566D01*
X128972864Y-70154677D01*
X128739379Y-70098622D01*
X128500000Y-70079783D01*
X128260620Y-70098622D01*
X128027135Y-70154677D01*
X127805297Y-70246566D01*
X127600556Y-70372031D01*
X127417972Y-70527972D01*
X127262031Y-70710556D01*
X127136566Y-70915297D01*
X127044677Y-71137135D01*
X126988622Y-71370620D01*
X126969783Y-71609999D01*
X125925500Y-71609999D01*
X125925500Y-69251500D01*
X125945502Y-69183379D01*
X125999158Y-69136886D01*
X126051500Y-69125500D01*
X163751715Y-69125500D01*
X163755878Y-69125500D01*
X163764118Y-69125770D01*
G37*
G04 #@! TD.AperFunction*
M02*
