G04 #@! TF.GenerationSoftware,KiCad,Pcbnew,7.0.2*
G04 #@! TF.CreationDate,2023-10-05T20:12:05+02:00*
G04 #@! TF.ProjectId,Harpe_ESP32,48617270-655f-4455-9350-33322e6b6963,rev?*
G04 #@! TF.SameCoordinates,Original*
G04 #@! TF.FileFunction,Soldermask,Top*
G04 #@! TF.FilePolarity,Negative*
%FSLAX46Y46*%
G04 Gerber Fmt 4.6, Leading zero omitted, Abs format (unit mm)*
G04 Created by KiCad (PCBNEW 7.0.2) date 2023-10-05 20:12:05*
%MOMM*%
%LPD*%
G01*
G04 APERTURE LIST*
G04 Aperture macros list*
%AMRoundRect*
0 Rectangle with rounded corners*
0 $1 Rounding radius*
0 $2 $3 $4 $5 $6 $7 $8 $9 X,Y pos of 4 corners*
0 Add a 4 corners polygon primitive as box body*
4,1,4,$2,$3,$4,$5,$6,$7,$8,$9,$2,$3,0*
0 Add four circle primitives for the rounded corners*
1,1,$1+$1,$2,$3*
1,1,$1+$1,$4,$5*
1,1,$1+$1,$6,$7*
1,1,$1+$1,$8,$9*
0 Add four rect primitives between the rounded corners*
20,1,$1+$1,$2,$3,$4,$5,0*
20,1,$1+$1,$4,$5,$6,$7,0*
20,1,$1+$1,$6,$7,$8,$9,0*
20,1,$1+$1,$8,$9,$2,$3,0*%
%AMRotRect*
0 Rectangle, with rotation*
0 The origin of the aperture is its center*
0 $1 length*
0 $2 width*
0 $3 Rotation angle, in degrees counterclockwise*
0 Add horizontal line*
21,1,$1,$2,0,0,$3*%
G04 Aperture macros list end*
%ADD10RoundRect,0.250000X-0.350000X-0.625000X0.350000X-0.625000X0.350000X0.625000X-0.350000X0.625000X0*%
%ADD11O,1.200000X1.750000*%
%ADD12R,2.000000X1.500000*%
%ADD13R,1.950000X1.950000*%
%ADD14C,1.950000*%
%ADD15RoundRect,0.243750X0.456250X-0.243750X0.456250X0.243750X-0.456250X0.243750X-0.456250X-0.243750X0*%
%ADD16RoundRect,0.218750X0.256250X-0.218750X0.256250X0.218750X-0.256250X0.218750X-0.256250X-0.218750X0*%
%ADD17RoundRect,0.243750X-0.456250X0.243750X-0.456250X-0.243750X0.456250X-0.243750X0.456250X0.243750X0*%
%ADD18RoundRect,0.250000X0.250000X0.475000X-0.250000X0.475000X-0.250000X-0.475000X0.250000X-0.475000X0*%
%ADD19RoundRect,0.218750X0.218750X0.256250X-0.218750X0.256250X-0.218750X-0.256250X0.218750X-0.256250X0*%
%ADD20RoundRect,0.218750X-0.256250X0.218750X-0.256250X-0.218750X0.256250X-0.218750X0.256250X0.218750X0*%
%ADD21RoundRect,0.218750X-0.218750X-0.256250X0.218750X-0.256250X0.218750X0.256250X-0.218750X0.256250X0*%
%ADD22R,2.000000X0.900000*%
%ADD23R,0.900000X2.000000*%
%ADD24R,1.330000X1.330000*%
%ADD25R,2.100000X1.550000*%
%ADD26RoundRect,0.062500X-0.350000X-0.062500X0.350000X-0.062500X0.350000X0.062500X-0.350000X0.062500X0*%
%ADD27RoundRect,0.062500X-0.062500X-0.350000X0.062500X-0.350000X0.062500X0.350000X-0.062500X0.350000X0*%
%ADD28RoundRect,0.250000X-1.050000X-1.050000X1.050000X-1.050000X1.050000X1.050000X-1.050000X1.050000X0*%
%ADD29R,1.060000X0.650000*%
%ADD30C,3.000000*%
%ADD31R,0.450000X0.600000*%
%ADD32R,0.400000X0.650000*%
%ADD33R,0.900000X0.800000*%
%ADD34R,0.420000X0.550000*%
%ADD35RotRect,0.420000X0.550000X225.000000*%
%ADD36RotRect,0.420000X0.550000X45.000000*%
%ADD37C,0.650000*%
%ADD38R,1.450000X0.300000*%
%ADD39RoundRect,0.500000X-0.300000X0.000000X-0.300000X0.000000X0.300000X0.000000X0.300000X0.000000X0*%
%ADD40RoundRect,0.200000X-0.275000X0.200000X-0.275000X-0.200000X0.275000X-0.200000X0.275000X0.200000X0*%
%ADD41RoundRect,0.212500X0.212500X-0.400000X0.212500X0.400000X-0.212500X0.400000X-0.212500X-0.400000X0*%
%ADD42RoundRect,0.250000X0.475000X-0.250000X0.475000X0.250000X-0.475000X0.250000X-0.475000X-0.250000X0*%
%ADD43RoundRect,0.250000X-0.475000X0.250000X-0.475000X-0.250000X0.475000X-0.250000X0.475000X0.250000X0*%
%ADD44C,1.500000*%
%ADD45C,1.575000*%
%ADD46RoundRect,0.200000X0.200000X0.275000X-0.200000X0.275000X-0.200000X-0.275000X0.200000X-0.275000X0*%
G04 APERTURE END LIST*
D10*
X129660000Y-95290000D03*
D11*
X131660000Y-95290000D03*
D10*
X129620000Y-89640000D03*
D11*
X131620000Y-89640000D03*
D12*
X117090000Y-109060000D03*
X125290000Y-109060000D03*
D13*
X117860000Y-154070000D03*
D14*
X117860000Y-162270000D03*
X122860000Y-154070000D03*
X122860000Y-162270000D03*
D15*
X99300000Y-83477500D03*
X99300000Y-81602500D03*
D16*
X101060000Y-83117500D03*
X101060000Y-81542500D03*
D17*
X100760000Y-86652500D03*
X100760000Y-88527500D03*
D18*
X111130000Y-113690000D03*
X109230000Y-113690000D03*
D19*
X111137500Y-112070000D03*
X109562500Y-112070000D03*
D16*
X115400000Y-118177500D03*
X115400000Y-116602500D03*
D20*
X120650000Y-118172500D03*
X120650000Y-119747500D03*
D21*
X99452500Y-85040000D03*
X101027500Y-85040000D03*
D19*
X133497500Y-86250000D03*
X131922500Y-86250000D03*
X133507500Y-101270000D03*
X131932500Y-101270000D03*
X133267500Y-113230000D03*
X131692500Y-113230000D03*
X132637500Y-126820000D03*
X131062500Y-126820000D03*
X133487500Y-140260000D03*
X131912500Y-140260000D03*
X133657500Y-153800000D03*
X132082500Y-153800000D03*
D20*
X112760000Y-112732500D03*
X112760000Y-114307500D03*
D16*
X114270000Y-114317500D03*
X114270000Y-112742500D03*
D20*
X115770000Y-112742500D03*
X115770000Y-114317500D03*
D22*
X103110000Y-81810000D03*
X103110000Y-83080000D03*
X103110000Y-84350000D03*
X103110000Y-85620000D03*
X103110000Y-86890000D03*
X103110000Y-88160000D03*
X103110000Y-89430000D03*
X103110000Y-90700000D03*
X103110000Y-91970000D03*
X103110000Y-93240000D03*
X103110000Y-94510000D03*
X103110000Y-95780000D03*
X103110000Y-97050000D03*
X103110000Y-98320000D03*
D23*
X105895000Y-99320000D03*
X107165000Y-99320000D03*
X108435000Y-99320000D03*
X109705000Y-99320000D03*
X110975000Y-99320000D03*
X112245000Y-99320000D03*
X113515000Y-99320000D03*
X114785000Y-99320000D03*
X116055000Y-99320000D03*
X117325000Y-99320000D03*
D22*
X120110000Y-98320000D03*
X120110000Y-97050000D03*
X120110000Y-95780000D03*
X120110000Y-94510000D03*
X120110000Y-93240000D03*
X120110000Y-91970000D03*
X120110000Y-90700000D03*
X120110000Y-89430000D03*
X120110000Y-88160000D03*
X120110000Y-86890000D03*
X120110000Y-85620000D03*
X120110000Y-84350000D03*
X120110000Y-83080000D03*
X120110000Y-81810000D03*
D24*
X108775000Y-87475000D03*
X108775000Y-89310000D03*
X108775000Y-91145000D03*
X110610000Y-91145000D03*
X110610000Y-89310000D03*
X110610000Y-87475000D03*
X112445000Y-87475000D03*
X112445000Y-89310000D03*
X112445000Y-91145000D03*
D25*
X136360000Y-86230000D03*
X136360000Y-88770000D03*
X144960000Y-88770000D03*
X144960000Y-86230000D03*
X136330000Y-99720000D03*
X136330000Y-102260000D03*
X144930000Y-102260000D03*
X144930000Y-99720000D03*
X136310000Y-113230000D03*
X136310000Y-115770000D03*
X144910000Y-115770000D03*
X144910000Y-113230000D03*
X136350000Y-126770000D03*
X136350000Y-129310000D03*
X144950000Y-129310000D03*
X144950000Y-126770000D03*
X136560000Y-140260000D03*
X136560000Y-142800000D03*
X145160000Y-142800000D03*
X145160000Y-140260000D03*
X136340000Y-153790000D03*
X136340000Y-156330000D03*
X144940000Y-156330000D03*
X144940000Y-153790000D03*
D26*
X110442500Y-107410000D03*
X110442500Y-107910000D03*
X110442500Y-108410000D03*
X110442500Y-108910000D03*
X110442500Y-109410000D03*
X110442500Y-109910000D03*
D27*
X111130000Y-110597500D03*
X111630000Y-110597500D03*
X112130000Y-110597500D03*
X112630000Y-110597500D03*
X113130000Y-110597500D03*
X113630000Y-110597500D03*
D26*
X114317500Y-109910000D03*
X114317500Y-109410000D03*
X114317500Y-108910000D03*
X114317500Y-108410000D03*
X114317500Y-107910000D03*
X114317500Y-107410000D03*
D27*
X113630000Y-106722500D03*
X113130000Y-106722500D03*
X112630000Y-106722500D03*
X112130000Y-106722500D03*
X111630000Y-106722500D03*
X111130000Y-106722500D03*
D28*
X112380000Y-108660000D03*
D29*
X116880000Y-118170000D03*
X116880000Y-119120000D03*
X116880000Y-120070000D03*
X119080000Y-120070000D03*
X119080000Y-118170000D03*
D12*
X117100000Y-104320000D03*
X125300000Y-104320000D03*
D30*
X130140000Y-79460000D03*
X105590000Y-163740000D03*
X161010000Y-79390000D03*
X156340000Y-164440000D03*
D16*
X103540000Y-121227500D03*
X103540000Y-119652500D03*
X102010000Y-121227500D03*
X102010000Y-119652500D03*
D31*
X109370000Y-124760000D03*
X109370000Y-122660000D03*
D32*
X112930000Y-101840000D03*
X112280000Y-101840000D03*
X111630000Y-101840000D03*
X111630000Y-103740000D03*
X112280000Y-103740000D03*
X112930000Y-103740000D03*
D33*
X111320000Y-122740000D03*
X111320000Y-124640000D03*
X113320000Y-123690000D03*
D16*
X107760000Y-122717500D03*
X107760000Y-121142500D03*
D34*
X106700000Y-114240000D03*
X106700000Y-115640000D03*
D35*
X107554975Y-109314975D03*
X106565025Y-108325025D03*
D36*
X107425025Y-110445025D03*
X108414975Y-111434975D03*
D37*
X102810000Y-109020000D03*
X102810000Y-114820000D03*
D38*
X104260000Y-108520000D03*
X104260000Y-109320000D03*
X104260000Y-110670000D03*
X104260000Y-111670000D03*
X104260000Y-112170000D03*
X104260000Y-113170000D03*
X104260000Y-114520000D03*
X104260000Y-115320000D03*
X104260000Y-115020000D03*
X104260000Y-114220000D03*
X104260000Y-113670000D03*
X104260000Y-112670000D03*
X104260000Y-111170000D03*
X104260000Y-110170000D03*
X104260000Y-109620000D03*
X104260000Y-108820000D03*
D39*
X103340000Y-107600000D03*
X99160000Y-107600000D03*
X103340000Y-116240000D03*
X99160000Y-116240000D03*
D40*
X98680000Y-104315000D03*
X98680000Y-105965000D03*
X101790000Y-104315000D03*
X101790000Y-105965000D03*
X100270000Y-104315000D03*
X100270000Y-105965000D03*
D41*
X122940000Y-114022500D03*
X122940000Y-112397500D03*
D40*
X120920000Y-112395000D03*
X120920000Y-114045000D03*
D42*
X113750000Y-118160000D03*
X113750000Y-116260000D03*
D43*
X122300000Y-118260000D03*
X122300000Y-120160000D03*
D40*
X117580000Y-111335000D03*
X117580000Y-112985000D03*
D44*
X101230000Y-140820000D03*
X101230000Y-138320000D03*
X101230000Y-135820000D03*
X101230000Y-133320000D03*
D45*
X123410000Y-140650000D03*
X120870000Y-140650000D03*
X118330000Y-140650000D03*
D13*
X150680000Y-91230000D03*
D14*
X158880000Y-91230000D03*
X150680000Y-86230000D03*
X158880000Y-86230000D03*
D13*
X150660000Y-118230000D03*
D14*
X158860000Y-118230000D03*
X150660000Y-113230000D03*
X158860000Y-113230000D03*
D13*
X150680000Y-104730000D03*
D14*
X158880000Y-104730000D03*
X150680000Y-99730000D03*
X158880000Y-99730000D03*
D44*
X101220000Y-152840000D03*
X101220000Y-150340000D03*
X101220000Y-147840000D03*
X101220000Y-145340000D03*
D13*
X150680000Y-158780000D03*
D14*
X158880000Y-158780000D03*
X150680000Y-153780000D03*
X158880000Y-153780000D03*
D13*
X150690000Y-145280000D03*
D14*
X158890000Y-145280000D03*
X150690000Y-140280000D03*
X158890000Y-140280000D03*
D46*
X115025000Y-120610000D03*
X113375000Y-120610000D03*
D13*
X150670000Y-131770000D03*
D14*
X158870000Y-131770000D03*
X150670000Y-126770000D03*
X158870000Y-126770000D03*
M02*
