M48
; DRILL file {KiCad 8.0.3} date 2024-09-08T23:23:52+0200
; FORMAT={-:-/ absolute / metric / decimal}
; #@! TF.CreationDate,2024-09-08T23:23:52+02:00
; #@! TF.GenerationSoftware,Kicad,Pcbnew,8.0.3
; #@! TF.FileFunction,Plated,1,4,PTH
FMAT,2
METRIC
; #@! TA.AperFunction,Plated,PTH,ComponentDrill
T1C1.400
; #@! TA.AperFunction,Plated,PTH,ComponentDrill
T2C2.000
%
G90
G05
T1
X39.64Y-54.86
X46.5Y-66.0
X46.5Y-66.0
X71.5Y-66.0
X71.5Y-66.0
X96.5Y-66.0
X96.5Y-66.0
X121.5Y-66.0
X121.5Y-66.0
X146.5Y-66.0
X146.5Y-66.0
X171.5Y-66.0
X171.5Y-66.0
X196.5Y-66.0
X196.5Y-66.0
X221.5Y-66.0
X221.5Y-66.0
X246.5Y-66.0
X246.5Y-66.0
X271.5Y-66.0
X271.5Y-66.0
X296.5Y-66.0
X296.5Y-66.0
X321.5Y-66.0
X321.5Y-66.0
X346.5Y-66.0
X346.5Y-66.0
X371.5Y-66.0
X371.5Y-66.0
X396.5Y-66.0
X396.5Y-66.0
X421.5Y-66.0
X421.5Y-66.0
X446.5Y-66.0
X446.5Y-66.0
X471.5Y-66.0
X471.5Y-66.0
X496.5Y-66.0
X496.5Y-66.0
X521.5Y-66.0
X521.5Y-66.0
X546.5Y-66.0
X546.5Y-66.0
X571.5Y-66.0
X571.5Y-66.0
X596.5Y-66.0
X596.5Y-66.0
X621.5Y-66.0
X621.5Y-66.0
T2
X39.64Y-54.86
X39.96Y-40.06
X44.5Y-40.0
X44.5Y-55.0
M30
