%TF.GenerationSoftware,KiCad,Pcbnew,7.0.2*%
%TF.CreationDate,2024-05-20T13:24:13+02:00*%
%TF.ProjectId,Harpe_PCB_4_couches,48617270-655f-4504-9342-5f345f636f75,rev?*%
%TF.SameCoordinates,Original*%
%TF.FileFunction,Copper,L3,Inr*%
%TF.FilePolarity,Positive*%
%FSLAX46Y46*%
G04 Gerber Fmt 4.6, Leading zero omitted, Abs format (unit mm)*
G04 Created by KiCad (PCBNEW 7.0.2) date 2024-05-20 13:24:13*
%MOMM*%
%LPD*%
G01*
G04 APERTURE LIST*
%TA.AperFunction,ComponentPad*%
%ADD10C,2.600000*%
%TD*%
%TA.AperFunction,ComponentPad*%
%ADD11C,4.000000*%
%TD*%
%TA.AperFunction,Conductor*%
%ADD12C,5.000000*%
%TD*%
G04 APERTURE END LIST*
D10*
%TO.N,N/C*%
%TO.C,REF\u002A\u002A*%
X271500000Y-66000000D03*
X271500000Y-66000000D03*
%TD*%
%TO.N,N/C*%
%TO.C,REF\u002A\u002A*%
X396500000Y-66000000D03*
X396500000Y-66000000D03*
%TD*%
%TO.N,N/C*%
%TO.C,REF\u002A\u002A*%
X71500000Y-66000000D03*
X71500000Y-66000000D03*
%TD*%
D11*
%TO.N,N/C*%
%TO.C,*%
X44500000Y-55000000D03*
%TD*%
D10*
%TO.N,N/C*%
%TO.C,REF\u002A\u002A*%
X39640000Y-54860000D03*
D11*
X39640000Y-54860000D03*
%TD*%
D10*
%TO.N,N/C*%
%TO.C,REF\u002A\u002A*%
X421500000Y-66000000D03*
X421500000Y-66000000D03*
%TD*%
%TO.N,N/C*%
%TO.C,REF\u002A\u002A*%
X446500000Y-66000000D03*
X446500000Y-66000000D03*
%TD*%
%TO.N,N/C*%
%TO.C,REF\u002A\u002A*%
X171500000Y-66000000D03*
X171500000Y-66000000D03*
%TD*%
%TO.N,N/C*%
%TO.C,REF\u002A\u002A*%
X146500000Y-66000000D03*
X146500000Y-66000000D03*
%TD*%
%TO.N,N/C*%
%TO.C,*%
X44500000Y-40000000D03*
%TD*%
%TO.N,N/C*%
%TO.C,REF\u002A\u002A*%
X546500000Y-66000000D03*
X546500000Y-66000000D03*
%TD*%
%TO.N,N/C*%
%TO.C,REF\u002A\u002A*%
X471500000Y-66000000D03*
X471500000Y-66000000D03*
%TD*%
%TO.N,N/C*%
%TO.C,REF\u002A\u002A*%
X246500000Y-66000000D03*
X246500000Y-66000000D03*
%TD*%
%TO.N,N/C*%
%TO.C,REF\u002A\u002A*%
X596500000Y-66000000D03*
X596500000Y-66000000D03*
%TD*%
%TO.N,N/C*%
%TO.C,REF\u002A\u002A*%
X196500000Y-66000000D03*
X196500000Y-66000000D03*
%TD*%
%TO.N,N/C*%
%TO.C,REF\u002A\u002A*%
X621500000Y-66000000D03*
X621500000Y-66000000D03*
%TD*%
%TO.N,N/C*%
%TO.C,REF\u002A\u002A*%
X46500000Y-66000000D03*
X46500000Y-66000000D03*
%TD*%
%TO.N,N/C*%
%TO.C,REF\u002A\u002A*%
X321500000Y-66000000D03*
X321500000Y-66000000D03*
%TD*%
%TO.N,N/C*%
%TO.C,REF\u002A\u002A*%
X571500000Y-66000000D03*
X571500000Y-66000000D03*
%TD*%
%TO.N,N/C*%
%TO.C,REF\u002A\u002A*%
X221500000Y-66000000D03*
X221500000Y-66000000D03*
%TD*%
%TO.N,N/C*%
%TO.C,REF\u002A\u002A*%
X39700000Y-40160000D03*
D11*
X39700000Y-40160000D03*
%TD*%
D10*
%TO.N,N/C*%
%TO.C,REF\u002A\u002A*%
X371500000Y-66000000D03*
X371500000Y-66000000D03*
%TD*%
%TO.N,N/C*%
%TO.C,REF\u002A\u002A*%
X296500000Y-66000000D03*
X296500000Y-66000000D03*
%TD*%
%TO.N,N/C*%
%TO.C,REF\u002A\u002A*%
X496500000Y-66000000D03*
X496500000Y-66000000D03*
%TD*%
%TO.N,N/C*%
%TO.C,REF\u002A\u002A*%
X96500000Y-66000000D03*
X96500000Y-66000000D03*
%TD*%
%TO.N,N/C*%
%TO.C,REF\u002A\u002A*%
X121500000Y-66000000D03*
X121500000Y-66000000D03*
%TD*%
%TO.N,N/C*%
%TO.C,REF\u002A\u002A*%
X521500000Y-66000000D03*
X521500000Y-66000000D03*
%TD*%
%TO.N,N/C*%
%TO.C,REF\u002A\u002A*%
X346500000Y-66000000D03*
X346500000Y-66000000D03*
%TD*%
D12*
%TO.N,*%
X471650000Y-49550000D02*
X421650000Y-49550000D01*
X171650000Y-49550000D02*
X121650000Y-49550000D01*
X87650000Y-49550000D02*
X71650000Y-49550000D01*
X371650000Y-49550000D02*
X321650000Y-49550000D01*
X71500000Y-49700000D02*
X71500000Y-66000000D01*
X121500000Y-49700000D02*
X121500000Y-66000000D01*
X613750000Y-49550000D02*
X615150000Y-49550000D01*
X171500000Y-49700000D02*
X171500000Y-66000000D01*
X621500000Y-55900000D02*
X621500000Y-66000000D01*
X421650000Y-49550000D02*
X371650000Y-49550000D01*
X271650000Y-49550000D02*
X271500000Y-49700000D01*
X421500000Y-49700000D02*
X421500000Y-66000000D01*
X371500000Y-49700000D02*
X371500000Y-66000000D01*
X521500000Y-49700000D02*
X521500000Y-66000000D01*
X71650000Y-49550000D02*
X71500000Y-49700000D01*
X571650000Y-49550000D02*
X571500000Y-49700000D01*
X121650000Y-49550000D02*
X87650000Y-49550000D01*
X171650000Y-49550000D02*
X171500000Y-49700000D01*
X63480000Y-49540000D02*
X58160000Y-54860000D01*
X471500000Y-49700000D02*
X471500000Y-66000000D01*
X221500000Y-49700000D02*
X221500000Y-66000000D01*
X321650000Y-49550000D02*
X321500000Y-49700000D01*
X571650000Y-49550000D02*
X521650000Y-49550000D01*
X321650000Y-49550000D02*
X271650000Y-49550000D01*
X421650000Y-49550000D02*
X421500000Y-49700000D01*
X58160000Y-54860000D02*
X39640000Y-54860000D01*
X471650000Y-49550000D02*
X471500000Y-49700000D01*
X615150000Y-49550000D02*
X621500000Y-55900000D01*
X72400000Y-49540000D02*
X63480000Y-49540000D01*
X221650000Y-49550000D02*
X221500000Y-49700000D01*
X271650000Y-49550000D02*
X221650000Y-49550000D01*
X571650000Y-49550000D02*
X613750000Y-49550000D01*
X321500000Y-49700000D02*
X321500000Y-66000000D01*
X521650000Y-49550000D02*
X471650000Y-49550000D01*
X271500000Y-49700000D02*
X271500000Y-66000000D01*
X371650000Y-49550000D02*
X371500000Y-49700000D01*
X521650000Y-49550000D02*
X521500000Y-49700000D01*
X221650000Y-49550000D02*
X171650000Y-49550000D01*
X571500000Y-49700000D02*
X571500000Y-66000000D01*
%TD*%
M02*
