G04 #@! TF.GenerationSoftware,KiCad,Pcbnew,8.0.3*
G04 #@! TF.CreationDate,2024-09-08T23:23:47+02:00*
G04 #@! TF.ProjectId,Harpe_PCB_4_couches,48617270-655f-4504-9342-5f345f636f75,rev?*
G04 #@! TF.SameCoordinates,Original*
G04 #@! TF.FileFunction,Copper,L2,Inr*
G04 #@! TF.FilePolarity,Positive*
%FSLAX46Y46*%
G04 Gerber Fmt 4.6, Leading zero omitted, Abs format (unit mm)*
G04 Created by KiCad (PCBNEW 8.0.3) date 2024-09-08 23:23:47*
%MOMM*%
%LPD*%
G01*
G04 APERTURE LIST*
G04 #@! TA.AperFunction,ComponentPad*
%ADD10C,4.000000*%
G04 #@! TD*
G04 #@! TA.AperFunction,ComponentPad*
%ADD11C,2.600000*%
G04 #@! TD*
G04 #@! TA.AperFunction,Conductor*
%ADD12C,5.000000*%
G04 #@! TD*
G04 APERTURE END LIST*
D10*
X39960000Y-40060000D03*
D11*
X271500000Y-66000000D03*
X271500000Y-66000000D03*
X396500000Y-66000000D03*
X396500000Y-66000000D03*
X71500000Y-66000000D03*
X71500000Y-66000000D03*
D10*
X44500000Y-55000000D03*
D11*
X39640000Y-54860000D03*
D10*
X39640000Y-54860000D03*
D11*
X421500000Y-66000000D03*
X421500000Y-66000000D03*
X446500000Y-66000000D03*
X446500000Y-66000000D03*
X171500000Y-66000000D03*
X171500000Y-66000000D03*
X146500000Y-66000000D03*
X146500000Y-66000000D03*
D10*
X44500000Y-40000000D03*
D11*
X546500000Y-66000000D03*
X546500000Y-66000000D03*
X471500000Y-66000000D03*
X471500000Y-66000000D03*
X246500000Y-66000000D03*
X246500000Y-66000000D03*
X596500000Y-66000000D03*
X596500000Y-66000000D03*
X196500000Y-66000000D03*
X196500000Y-66000000D03*
X621500000Y-66000000D03*
X621500000Y-66000000D03*
X321500000Y-66000000D03*
X321500000Y-66000000D03*
X571500000Y-66000000D03*
X571500000Y-66000000D03*
X221500000Y-66000000D03*
X221500000Y-66000000D03*
X371500000Y-66000000D03*
X371500000Y-66000000D03*
X296500000Y-66000000D03*
X296500000Y-66000000D03*
X496500000Y-66000000D03*
X496500000Y-66000000D03*
X96500000Y-66000000D03*
X96500000Y-66000000D03*
X121500000Y-66000000D03*
X121500000Y-66000000D03*
X521500000Y-66000000D03*
X521500000Y-66000000D03*
X346500000Y-66000000D03*
X346500000Y-66000000D03*
X46500000Y-66000000D03*
X46500000Y-66000000D03*
D12*
X446500000Y-42220000D02*
X446500000Y-66000000D01*
X446390000Y-42110000D02*
X446500000Y-42220000D01*
X590810000Y-42110000D02*
X596500000Y-47800000D01*
X56240000Y-42110000D02*
X590810000Y-42110000D01*
X54210000Y-40080000D02*
X56240000Y-42110000D01*
X39780000Y-40080000D02*
X54210000Y-40080000D01*
X596500000Y-47800000D02*
X596500000Y-66000000D01*
X96500000Y-43550000D02*
X95060000Y-42110000D01*
X96500000Y-66000000D02*
X96500000Y-43550000D01*
X146500000Y-66000000D02*
X146500000Y-42920000D01*
X146500000Y-42920000D02*
X145690000Y-42110000D01*
X196500000Y-42430000D02*
X196500000Y-66000000D01*
X196180000Y-42110000D02*
X196500000Y-42430000D01*
X246500000Y-43070000D02*
X245540000Y-42110000D01*
X246500000Y-66000000D02*
X246500000Y-43070000D01*
X296500000Y-42930000D02*
X295680000Y-42110000D01*
X296500000Y-66000000D02*
X296500000Y-42930000D01*
X346500000Y-43090000D02*
X346500000Y-66000000D01*
X345520000Y-42110000D02*
X346500000Y-43090000D01*
X396500000Y-42120000D02*
X396500000Y-66000000D01*
X396510000Y-42110000D02*
X396500000Y-42120000D01*
X496760000Y-42110000D02*
X496500000Y-42370000D01*
X496500000Y-42370000D02*
X496500000Y-66000000D01*
X546500000Y-42200000D02*
X546500000Y-66000000D01*
X546410000Y-42110000D02*
X546500000Y-42200000D01*
X54210000Y-64290000D02*
X52500000Y-66000000D01*
X52500000Y-66000000D02*
X46500000Y-66000000D01*
X54210000Y-40080000D02*
X54210000Y-64290000D01*
M02*
