%TF.GenerationSoftware,KiCad,Pcbnew,8.0.3*%
%TF.CreationDate,2024-07-15T23:58:18+02:00*%
%TF.ProjectId,Harpe_PCB_4_couches,48617270-655f-4504-9342-5f345f636f75,rev?*%
%TF.SameCoordinates,Original*%
%TF.FileFunction,Profile,NP*%
%FSLAX46Y46*%
G04 Gerber Fmt 4.6, Leading zero omitted, Abs format (unit mm)*
G04 Created by KiCad (PCBNEW 8.0.3) date 2024-07-15 23:58:18*
%MOMM*%
%LPD*%
G01*
G04 APERTURE LIST*
%TA.AperFunction,Profile*%
%ADD10C,0.100000*%
%TD*%
G04 APERTURE END LIST*
D10*
X507500000Y-57000000D02*
X509500000Y-57000000D01*
X283500000Y-70000000D02*
X283500000Y-57000000D01*
X34000000Y-63290000D02*
G75*
G02*
X34500000Y-62790000I500000J0D01*
G01*
X158500000Y-57000000D02*
X160500000Y-57000000D01*
X560500000Y-70000000D02*
X583500000Y-70000000D01*
X183500000Y-70000000D02*
X183500000Y-57000000D01*
X535500000Y-57000000D02*
X535500000Y-70000000D01*
X458500000Y-70000000D02*
X458500000Y-57000000D01*
X49410000Y-49800000D02*
X47500000Y-49800000D01*
X135500000Y-57000000D02*
X135500000Y-70000000D01*
X233500000Y-70000000D02*
X233500000Y-57000000D01*
X259500000Y-57000000D02*
X261500000Y-57000000D01*
X634000000Y-69500000D02*
G75*
G02*
X633500000Y-70000000I-500000J0D01*
G01*
X610500000Y-70000000D02*
X633500000Y-70000000D01*
X460500000Y-57000000D02*
X460500000Y-70000000D01*
X333500000Y-57000000D02*
X335500000Y-57000000D01*
X160500000Y-70000000D02*
X183500000Y-70000000D01*
X208500000Y-57000000D02*
X210500000Y-57000000D01*
X310500000Y-70000000D02*
X333500000Y-70000000D01*
X34000000Y-50300000D02*
G75*
G02*
X34500000Y-49800000I500000J0D01*
G01*
X210500000Y-57000000D02*
X210500000Y-70000000D01*
X358500000Y-70000000D02*
X358500000Y-57000000D01*
X310500000Y-57000000D02*
X310500000Y-70000000D01*
X360500000Y-57000000D02*
X360500000Y-70000000D01*
X360500000Y-70000000D02*
X382500000Y-70000000D01*
X35910000Y-62790000D02*
X34500000Y-62790000D01*
X85500000Y-57000000D02*
X85500000Y-70000000D01*
X384500000Y-57000000D02*
X384500000Y-70000000D01*
X34000000Y-34280000D02*
G75*
G02*
X34500000Y-33780000I500000J0D01*
G01*
X49410000Y-62790000D02*
X36410000Y-62790000D01*
X183500000Y-57000000D02*
X185500000Y-57000000D01*
X608500000Y-57000000D02*
X610500000Y-57000000D01*
X560500000Y-57000000D02*
X560500000Y-70000000D01*
X482500000Y-70000000D02*
X482500000Y-57000000D01*
X235500000Y-70000000D02*
X259500000Y-70000000D01*
X608500000Y-70000000D02*
X608500000Y-57000000D01*
X110500000Y-70000000D02*
X133500000Y-70000000D01*
X208500000Y-70000000D02*
X208500000Y-57000000D01*
X509500000Y-57000000D02*
X509500000Y-70000000D01*
X458500000Y-57000000D02*
X460500000Y-57000000D01*
X333500000Y-70000000D02*
X333500000Y-57000000D01*
X408500000Y-70000000D02*
X408500000Y-57000000D01*
X83500000Y-70000000D02*
X83500000Y-57000000D01*
X583500000Y-57000000D02*
X585500000Y-57000000D01*
X259500000Y-70000000D02*
X259500000Y-57000000D01*
X110500000Y-57000000D02*
X110500000Y-70000000D01*
X47500000Y-46800000D02*
X49410000Y-46800000D01*
X261500000Y-57000000D02*
X261500000Y-70000000D01*
X233500000Y-57000000D02*
X235500000Y-57000000D01*
X484500000Y-70000000D02*
X507500000Y-70000000D01*
X34500000Y-70000000D02*
G75*
G02*
X34000000Y-69500000I0J500000D01*
G01*
X433500000Y-57000000D02*
X435500000Y-57000000D01*
X507500000Y-70000000D02*
X507500000Y-57000000D01*
X185500000Y-70000000D02*
X208500000Y-70000000D01*
X482500000Y-57000000D02*
X484500000Y-57000000D01*
X408500000Y-57000000D02*
X410500000Y-57000000D01*
X435500000Y-57000000D02*
X435500000Y-70000000D01*
X382500000Y-70000000D02*
X382500000Y-57000000D01*
X34000000Y-59290000D02*
X34000000Y-50300000D01*
X558500000Y-70000000D02*
X558500000Y-57000000D01*
X85500000Y-70000000D02*
X108500000Y-70000000D01*
X34000000Y-69500000D02*
X34000000Y-63290000D01*
X382500000Y-57000000D02*
X384500000Y-57000000D01*
X558500000Y-57000000D02*
X560500000Y-57000000D01*
X509500000Y-70000000D02*
X533500000Y-70000000D01*
X358500000Y-57000000D02*
X360500000Y-57000000D01*
X49410000Y-59790000D02*
X36410000Y-59790000D01*
X61500000Y-70000000D02*
X61500000Y-59000000D01*
X583500000Y-70000000D02*
X583500000Y-57000000D01*
X308500000Y-57000000D02*
X310500000Y-57000000D01*
X83500000Y-57000000D02*
X85500000Y-57000000D01*
X63500000Y-70000000D02*
X83500000Y-70000000D01*
X435500000Y-70000000D02*
X458500000Y-70000000D01*
X36410000Y-59790000D02*
X35910000Y-59790000D01*
X634000000Y-52500000D02*
X634000000Y-69500000D01*
X634000000Y-34270000D02*
X634000000Y-52500000D01*
X460500000Y-70000000D02*
X482500000Y-70000000D01*
X49410000Y-62790000D02*
X49410000Y-59790000D01*
X610500000Y-57000000D02*
X610500000Y-70000000D01*
X285500000Y-57000000D02*
X285500000Y-70000000D01*
X283500000Y-57000000D02*
X285500000Y-57000000D01*
X185500000Y-57000000D02*
X185500000Y-70000000D01*
X633500000Y-33770000D02*
G75*
G02*
X634000000Y-34270000I0J-500000D01*
G01*
X49410000Y-49800000D02*
X49410000Y-46800000D01*
X335500000Y-57000000D02*
X335500000Y-70000000D01*
X63500000Y-59000000D02*
X63500000Y-70000000D01*
X533500000Y-57000000D02*
X535500000Y-57000000D01*
X235500000Y-57000000D02*
X235500000Y-70000000D01*
X261500000Y-70000000D02*
X283500000Y-70000000D01*
X34500000Y-59790000D02*
G75*
G02*
X34000000Y-59290000I0J500000D01*
G01*
X585500000Y-57000000D02*
X585500000Y-70000000D01*
X308500000Y-70000000D02*
X308500000Y-57000000D01*
X158500000Y-70000000D02*
X158500000Y-57000000D01*
X585500000Y-70000000D02*
X608500000Y-70000000D01*
X47500000Y-49800000D02*
X34500000Y-49800000D01*
X35910000Y-59790000D02*
X34500000Y-59790000D01*
X34500000Y-46800000D02*
G75*
G02*
X34000000Y-46300000I0J500000D01*
G01*
X210500000Y-70000000D02*
X233500000Y-70000000D01*
X410500000Y-70000000D02*
X433500000Y-70000000D01*
X433500000Y-70000000D02*
X433500000Y-57000000D01*
X535500000Y-70000000D02*
X558500000Y-70000000D01*
X34500000Y-70000000D02*
X61500000Y-70000000D01*
X533500000Y-70000000D02*
X533500000Y-57000000D01*
X285500000Y-70000000D02*
X308500000Y-70000000D01*
X34000000Y-46300000D02*
X34000000Y-34280000D01*
X61500000Y-59000000D02*
X63500000Y-59000000D01*
X108500000Y-70000000D02*
X108500000Y-57000000D01*
X384500000Y-70000000D02*
X408500000Y-70000000D01*
X160500000Y-57000000D02*
X160500000Y-70000000D01*
X108500000Y-57000000D02*
X110500000Y-57000000D01*
X410500000Y-57000000D02*
X410500000Y-70000000D01*
X335500000Y-70000000D02*
X358500000Y-70000000D01*
X633500000Y-33770000D02*
X34500000Y-33780000D01*
X484500000Y-57000000D02*
X484500000Y-70000000D01*
X135500000Y-70000000D02*
X158500000Y-70000000D01*
X133500000Y-57000000D02*
X135500000Y-57000000D01*
X47500000Y-46800000D02*
X34500000Y-46800000D01*
X133500000Y-70000000D02*
X133500000Y-57000000D01*
X36410000Y-62790000D02*
X35910000Y-62790000D01*
M02*
