%TF.GenerationSoftware,KiCad,Pcbnew,8.0.3*%
%TF.CreationDate,2024-09-08T23:23:51+02:00*%
%TF.ProjectId,Harpe_PCB_4_couches,48617270-655f-4504-9342-5f345f636f75,rev?*%
%TF.SameCoordinates,Original*%
%TF.FileFunction,Drillmap*%
%TF.FilePolarity,Positive*%
%FSLAX45Y45*%
G04 Gerber Fmt 4.5, Leading zero omitted, Abs format (unit mm)*
G04 Created by KiCad (PCBNEW 8.0.3) date 2024-09-08 23:23:51*
%MOMM*%
%LPD*%
G01*
G04 APERTURE LIST*
%ADD10C,0.100000*%
%ADD11C,0.200000*%
G04 APERTURE END LIST*
D10*
X50750000Y-5700000D02*
X50950000Y-5700000D01*
X28350000Y-7000000D02*
X28350000Y-5700000D01*
X3400000Y-6329000D02*
G75*
G02*
X3450000Y-6279000I50000J0D01*
G01*
X15850000Y-5700000D02*
X16050000Y-5700000D01*
X56050000Y-7000000D02*
X58350000Y-7000000D01*
X18350000Y-7000000D02*
X18350000Y-5700000D01*
X53550000Y-5700000D02*
X53550000Y-7000000D01*
X45850000Y-7000000D02*
X45850000Y-5700000D01*
X4941000Y-4980000D02*
X4750000Y-4980000D01*
X13550000Y-5700000D02*
X13550000Y-7000000D01*
X23350000Y-7000000D02*
X23350000Y-5700000D01*
X25950000Y-5700000D02*
X26150000Y-5700000D01*
X63400000Y-6950000D02*
G75*
G02*
X63350000Y-7000000I-50000J0D01*
G01*
X61050000Y-7000000D02*
X63350000Y-7000000D01*
X46050000Y-5700000D02*
X46050000Y-7000000D01*
X33350000Y-5700000D02*
X33550000Y-5700000D01*
X16050000Y-7000000D02*
X18350000Y-7000000D01*
X20850000Y-5700000D02*
X21050000Y-5700000D01*
X31050000Y-7000000D02*
X33350000Y-7000000D01*
X3400000Y-5030000D02*
G75*
G02*
X3450000Y-4980000I50000J0D01*
G01*
X21050000Y-5700000D02*
X21050000Y-7000000D01*
X35850000Y-7000000D02*
X35850000Y-5700000D01*
X31050000Y-5700000D02*
X31050000Y-7000000D01*
X36050000Y-5700000D02*
X36050000Y-7000000D01*
X36050000Y-7000000D02*
X38250000Y-7000000D01*
X3591000Y-6279000D02*
X3450000Y-6279000D01*
X8550000Y-5700000D02*
X8550000Y-7000000D01*
X38450000Y-5700000D02*
X38450000Y-7000000D01*
X3400000Y-3428000D02*
G75*
G02*
X3450000Y-3378000I50000J0D01*
G01*
X4941000Y-6279000D02*
X3641000Y-6279000D01*
X18350000Y-5700000D02*
X18550000Y-5700000D01*
X60850000Y-5700000D02*
X61050000Y-5700000D01*
X56050000Y-5700000D02*
X56050000Y-7000000D01*
X48250000Y-7000000D02*
X48250000Y-5700000D01*
X23550000Y-7000000D02*
X25950000Y-7000000D01*
X60850000Y-7000000D02*
X60850000Y-5700000D01*
X11050000Y-7000000D02*
X13350000Y-7000000D01*
X20850000Y-7000000D02*
X20850000Y-5700000D01*
X50950000Y-5700000D02*
X50950000Y-7000000D01*
X45850000Y-5700000D02*
X46050000Y-5700000D01*
X33350000Y-7000000D02*
X33350000Y-5700000D01*
X40850000Y-7000000D02*
X40850000Y-5700000D01*
X8350000Y-7000000D02*
X8350000Y-5700000D01*
X58350000Y-5700000D02*
X58550000Y-5700000D01*
X25950000Y-7000000D02*
X25950000Y-5700000D01*
X11050000Y-5700000D02*
X11050000Y-7000000D01*
X4750000Y-4680000D02*
X4941000Y-4680000D01*
X26150000Y-5700000D02*
X26150000Y-7000000D01*
X23350000Y-5700000D02*
X23550000Y-5700000D01*
X48450000Y-7000000D02*
X50750000Y-7000000D01*
X3450000Y-7000000D02*
G75*
G02*
X3400000Y-6950000I0J50000D01*
G01*
X43350000Y-5700000D02*
X43550000Y-5700000D01*
X50750000Y-7000000D02*
X50750000Y-5700000D01*
X18550000Y-7000000D02*
X20850000Y-7000000D01*
X48250000Y-5700000D02*
X48450000Y-5700000D01*
X40850000Y-5700000D02*
X41050000Y-5700000D01*
X43550000Y-5700000D02*
X43550000Y-7000000D01*
X38250000Y-7000000D02*
X38250000Y-5700000D01*
X3400000Y-5929000D02*
X3400000Y-5030000D01*
X55850000Y-7000000D02*
X55850000Y-5700000D01*
X8550000Y-7000000D02*
X10850000Y-7000000D01*
X3400000Y-6950000D02*
X3400000Y-6329000D01*
X38250000Y-5700000D02*
X38450000Y-5700000D01*
X55850000Y-5700000D02*
X56050000Y-5700000D01*
X50950000Y-7000000D02*
X53350000Y-7000000D01*
X35850000Y-5700000D02*
X36050000Y-5700000D01*
X4941000Y-5979000D02*
X3641000Y-5979000D01*
X6150000Y-7000000D02*
X6150000Y-5900000D01*
X58350000Y-7000000D02*
X58350000Y-5700000D01*
X30850000Y-5700000D02*
X31050000Y-5700000D01*
X8350000Y-5700000D02*
X8550000Y-5700000D01*
X6350000Y-7000000D02*
X8350000Y-7000000D01*
X43550000Y-7000000D02*
X45850000Y-7000000D01*
X3641000Y-5979000D02*
X3591000Y-5979000D01*
X63400000Y-5250000D02*
X63400000Y-6950000D01*
X63400000Y-3427000D02*
X63400000Y-5250000D01*
X46050000Y-7000000D02*
X48250000Y-7000000D01*
X4941000Y-6279000D02*
X4941000Y-5979000D01*
X61050000Y-5700000D02*
X61050000Y-7000000D01*
X28550000Y-5700000D02*
X28550000Y-7000000D01*
X28350000Y-5700000D02*
X28550000Y-5700000D01*
X18550000Y-5700000D02*
X18550000Y-7000000D01*
X63350000Y-3377000D02*
G75*
G02*
X63400000Y-3427000I0J-50000D01*
G01*
X4941000Y-4980000D02*
X4941000Y-4680000D01*
X33550000Y-5700000D02*
X33550000Y-7000000D01*
X6350000Y-5900000D02*
X6350000Y-7000000D01*
X53350000Y-5700000D02*
X53550000Y-5700000D01*
X23550000Y-5700000D02*
X23550000Y-7000000D01*
X26150000Y-7000000D02*
X28350000Y-7000000D01*
X3450000Y-5979000D02*
G75*
G02*
X3400000Y-5929000I0J50000D01*
G01*
X58550000Y-5700000D02*
X58550000Y-7000000D01*
X30850000Y-7000000D02*
X30850000Y-5700000D01*
X15850000Y-7000000D02*
X15850000Y-5700000D01*
X58550000Y-7000000D02*
X60850000Y-7000000D01*
X4750000Y-4980000D02*
X3450000Y-4980000D01*
X3591000Y-5979000D02*
X3450000Y-5979000D01*
X3450000Y-4680000D02*
G75*
G02*
X3400000Y-4630000I0J50000D01*
G01*
X21050000Y-7000000D02*
X23350000Y-7000000D01*
X41050000Y-7000000D02*
X43350000Y-7000000D01*
X43350000Y-7000000D02*
X43350000Y-5700000D01*
X53550000Y-7000000D02*
X55850000Y-7000000D01*
X3450000Y-7000000D02*
X6150000Y-7000000D01*
X53350000Y-7000000D02*
X53350000Y-5700000D01*
X28550000Y-7000000D02*
X30850000Y-7000000D01*
X3400000Y-4630000D02*
X3400000Y-3428000D01*
X6150000Y-5900000D02*
X6350000Y-5900000D01*
X10850000Y-7000000D02*
X10850000Y-5700000D01*
X38450000Y-7000000D02*
X40850000Y-7000000D01*
X16050000Y-5700000D02*
X16050000Y-7000000D01*
X10850000Y-5700000D02*
X11050000Y-5700000D01*
X41050000Y-5700000D02*
X41050000Y-7000000D01*
X33550000Y-7000000D02*
X35850000Y-7000000D01*
X63350000Y-3377000D02*
X3450000Y-3378000D01*
X48450000Y-5700000D02*
X48450000Y-7000000D01*
X13550000Y-7000000D02*
X15850000Y-7000000D01*
X13350000Y-5700000D02*
X13550000Y-5700000D01*
X4750000Y-4680000D02*
X3450000Y-4680000D01*
X13350000Y-7000000D02*
X13350000Y-5700000D01*
X3641000Y-6279000D02*
X3591000Y-6279000D01*
D11*
X3655777Y-7316484D02*
X3655777Y-7116484D01*
X3655777Y-7116484D02*
X3703396Y-7116484D01*
X3703396Y-7116484D02*
X3731967Y-7126008D01*
X3731967Y-7126008D02*
X3751015Y-7145055D01*
X3751015Y-7145055D02*
X3760539Y-7164103D01*
X3760539Y-7164103D02*
X3770062Y-7202198D01*
X3770062Y-7202198D02*
X3770062Y-7230769D01*
X3770062Y-7230769D02*
X3760539Y-7268865D01*
X3760539Y-7268865D02*
X3751015Y-7287912D01*
X3751015Y-7287912D02*
X3731967Y-7306960D01*
X3731967Y-7306960D02*
X3703396Y-7316484D01*
X3703396Y-7316484D02*
X3655777Y-7316484D01*
X3855777Y-7316484D02*
X3855777Y-7183150D01*
X3855777Y-7221246D02*
X3865301Y-7202198D01*
X3865301Y-7202198D02*
X3874824Y-7192674D01*
X3874824Y-7192674D02*
X3893872Y-7183150D01*
X3893872Y-7183150D02*
X3912920Y-7183150D01*
X3979586Y-7316484D02*
X3979586Y-7183150D01*
X3979586Y-7116484D02*
X3970062Y-7126008D01*
X3970062Y-7126008D02*
X3979586Y-7135531D01*
X3979586Y-7135531D02*
X3989110Y-7126008D01*
X3989110Y-7126008D02*
X3979586Y-7116484D01*
X3979586Y-7116484D02*
X3979586Y-7135531D01*
X4103396Y-7316484D02*
X4084348Y-7306960D01*
X4084348Y-7306960D02*
X4074824Y-7287912D01*
X4074824Y-7287912D02*
X4074824Y-7116484D01*
X4208158Y-7316484D02*
X4189110Y-7306960D01*
X4189110Y-7306960D02*
X4179586Y-7287912D01*
X4179586Y-7287912D02*
X4179586Y-7116484D01*
X4436729Y-7316484D02*
X4436729Y-7116484D01*
X4436729Y-7116484D02*
X4503396Y-7259341D01*
X4503396Y-7259341D02*
X4570063Y-7116484D01*
X4570063Y-7116484D02*
X4570063Y-7316484D01*
X4751015Y-7316484D02*
X4751015Y-7211722D01*
X4751015Y-7211722D02*
X4741491Y-7192674D01*
X4741491Y-7192674D02*
X4722444Y-7183150D01*
X4722444Y-7183150D02*
X4684348Y-7183150D01*
X4684348Y-7183150D02*
X4665301Y-7192674D01*
X4751015Y-7306960D02*
X4731967Y-7316484D01*
X4731967Y-7316484D02*
X4684348Y-7316484D01*
X4684348Y-7316484D02*
X4665301Y-7306960D01*
X4665301Y-7306960D02*
X4655777Y-7287912D01*
X4655777Y-7287912D02*
X4655777Y-7268865D01*
X4655777Y-7268865D02*
X4665301Y-7249817D01*
X4665301Y-7249817D02*
X4684348Y-7240293D01*
X4684348Y-7240293D02*
X4731967Y-7240293D01*
X4731967Y-7240293D02*
X4751015Y-7230769D01*
X4846253Y-7183150D02*
X4846253Y-7383150D01*
X4846253Y-7192674D02*
X4865301Y-7183150D01*
X4865301Y-7183150D02*
X4903396Y-7183150D01*
X4903396Y-7183150D02*
X4922444Y-7192674D01*
X4922444Y-7192674D02*
X4931967Y-7202198D01*
X4931967Y-7202198D02*
X4941491Y-7221246D01*
X4941491Y-7221246D02*
X4941491Y-7278388D01*
X4941491Y-7278388D02*
X4931967Y-7297436D01*
X4931967Y-7297436D02*
X4922444Y-7306960D01*
X4922444Y-7306960D02*
X4903396Y-7316484D01*
X4903396Y-7316484D02*
X4865301Y-7316484D01*
X4865301Y-7316484D02*
X4846253Y-7306960D01*
X5027205Y-7297436D02*
X5036729Y-7306960D01*
X5036729Y-7306960D02*
X5027205Y-7316484D01*
X5027205Y-7316484D02*
X5017682Y-7306960D01*
X5017682Y-7306960D02*
X5027205Y-7297436D01*
X5027205Y-7297436D02*
X5027205Y-7316484D01*
X5027205Y-7192674D02*
X5036729Y-7202198D01*
X5036729Y-7202198D02*
X5027205Y-7211722D01*
X5027205Y-7211722D02*
X5017682Y-7202198D01*
X5017682Y-7202198D02*
X5027205Y-7192674D01*
X5027205Y-7192674D02*
X5027205Y-7211722D01*
M02*
